<?xml version="1.0" encoding="UTF-8"?>
<!DOCTYPE svg PUBLIC "-//W3C//DTD SVG 1.1//EN" "http://www.w3.org/Graphics/SVG/1.1/DTD/svg11.dtd">
<!-- Creator: CorelDRAW 2021 (64 Bit) -->
<svg xmlns="http://www.w3.org/2000/svg" xml:space="preserve" width="300mm" height="300mm" version="1.1" shape-rendering="geometricPrecision" text-rendering="geometricPrecision" image-rendering="optimizeQuality" fill-rule="evenodd" clip-rule="evenodd"
viewBox="0 0 30000 30000"
 xmlns:xlink="http://www.w3.org/1999/xlink"
 xmlns:xodm="http://www.corel.com/coreldraw/odm/2003">
 <defs>
    <linearGradient id="id0" gradientUnits="userSpaceOnUse" x1="7150.5" y1="4358.89" x2="9060.34" y2="10959.87">
     <stop offset="0" stop-opacity="1" stop-color="#75775B"/>
     <stop offset="0.321569" stop-opacity="1" stop-color="#AD998A"/>
     <stop offset="0.580392" stop-opacity="1" stop-color="#D4CDCB"/>
     <stop offset="0.8" stop-opacity="1" stop-color="#EAEBEC"/>
     <stop offset="1" stop-opacity="1" stop-color="#EAEBEC"/>
    </linearGradient>
    <linearGradient id="id1" gradientUnits="userSpaceOnUse" x1="18693.9" y1="7026.93" x2="19153.76" y2="10176.75">
     <stop offset="0" stop-opacity="1" stop-color="#75775B"/>
     <stop offset="0.239216" stop-opacity="1" stop-color="#9C8F7C"/>
     <stop offset="0.45098" stop-opacity="1" stop-color="#BCB3A7"/>
     <stop offset="1" stop-opacity="1" stop-color="white"/>
    </linearGradient>
    <linearGradient id="id2" gradientUnits="userSpaceOnUse" x1="17206.54" y1="4337.28" x2="16942.83" y2="8723.16">
     <stop offset="0" stop-opacity="1" stop-color="#75775B"/>
     <stop offset="0.180392" stop-opacity="1" stop-color="#8F8771"/>
     <stop offset="0.431373" stop-opacity="1" stop-color="#B29F92"/>
     <stop offset="1" stop-opacity="1" stop-color="#EBE6E3"/>
    </linearGradient>
 </defs>
 <g id="Camada_x0020_1">
  <metadata id="CorelCorpID_0Corel-Layer"/>
  <g id="_1850654476816">
   <path fill="#050505" d="M18560.2 18534.6c-67.67,148.81 -207.12,364.96 -109.83,527.26 161.19,-56.14 174.85,-148.88 219.33,-296.15 60.78,-43.96 40.62,-21.04 94.76,-73.09 10.39,-9.96 37.47,-41 46.72,-52.09l247.4 -377.05 -0.02 0 234.03 -551.42c523.01,-26.03 288.56,279.61 1108.56,118.02 1030.52,-203.09 1559.81,232.46 2426.52,59.22 499.7,-99.87 845.7,-26.29 1368.2,-45.57 425.03,-15.69 572.36,-344.13 1068.1,-181.43 246.36,80.87 240.67,159.62 539.3,163.19 630.05,7.49 1305.7,33 1928.51,125.05 380.78,56.26 911.3,208.3 1175.09,-19.27 265.54,-411.09 -81.35,-1022.98 36.49,-1503.68 30.64,-124.91 83.64,-165.8 107.89,-269.19 30.95,-131.85 15.58,-281.94 17.63,-418.72 6.48,-436.52 94.16,-1147.39 -229.3,-1455.69 -650.02,-619.58 -755.6,45.76 -1009.56,163.96 -453.55,211.15 -1085.91,-181.7 -1516.19,-179.09l-910.56 23.25c-890.96,-21.95 -671.2,364.24 -1501.02,224.2 -773.74,-130.58 -620.47,-433.68 -1267.68,-453.09 -441.12,-13.22 -450.54,57.93 -756.27,103.3 -352.04,52.25 -532.11,-15.03 -672.46,-258.76l339.67 -266.92c159.71,-153.25 734.88,-960.56 521.46,-1167.85 -309.01,-127.68 -990.71,10.88 -1404.92,-52.84 -10.96,-443.85 242.16,-831.4 399.69,-1168.04 63.5,-135.71 164.04,-493.3 212.94,-568.41 139.75,-214.73 416.5,-151.72 273.23,-460.53 -46.33,-24.19 11.62,-22.31 -128.36,-40.25 -387.27,-49.6 -425.42,90.79 -1032,-50.64 8.23,-329.9 63.38,-344.1 138.31,-599.22 80.7,-274.78 -39.69,-335.54 -133.83,-520.86 -267.9,-527.32 -8.15,-795.67 -133.17,-1261.31 -109.82,-408.94 -707.17,-1675.51 -1171.34,-1618.85 -106.76,296.3 219.56,964.3 -14.93,1434.96 -238.39,478.45 -204.56,727.97 -636.01,1075.67 -253.23,204.09 -243.29,134.55 -383.59,446.12 -60.67,134.74 -240.74,438.03 -352.44,535.07 -387.95,337.05 -840.81,-148.42 -919.89,-190.14 -154.82,-81.7 -130.93,-10.06 -273.26,-153.05 -124.13,-239.98 548.46,-1093.87 715.31,-1269.05 550.52,-578.03 1192.64,-2132 1102.41,-2965.11 -40.02,-369.47 -43.49,-1563.13 -444.06,-1515.74 -172.53,753.58 -257.84,1013.07 -569.91,1716.83 -119.92,270.46 -806.43,1213.38 -1027.33,1297.01 -60.61,-87.14 -40.98,-196.66 -26.02,-305.15l146.36 -1176.68c51.46,-270.3 119.39,-404.35 170.32,-650.23 71.97,-347.38 191.84,-359.47 286.92,-608.14 74.18,-193.94 21.12,-445.97 101.7,-719.72l346.35 -1375.6c16.4,-142.59 2.27,-291.59 20.52,-430.18 27.89,-211.86 121.2,-179.29 0.41,-326.59 -243.4,-165.02 -269.35,265.7 -322.21,480.35 -65.08,264.31 -397.06,698.89 -603.72,879.15 -111.86,97.56 -211.77,113.34 -303.92,191 -95.1,80.19 -132.95,169.37 -230.73,261.97 -320.12,303.2 -146.88,-99.59 -469.48,464.66 -171.13,299.3 -426.68,534.99 -766.89,714.83 -362.01,191.33 -305.98,73.64 -495.63,482.72 -157.22,339.15 -70.64,406.83 -443.07,540.17 -492.09,176.22 -285.99,38.23 -579.13,366.5 -502.32,562.54 -1224.98,756.76 -1908.12,1069.22 -165.98,75.92 -550.03,194.1 -737.74,258.69 -337.18,116.04 -467.35,163.49 -887.54,127.14 -679.61,-58.75 -879.28,261.01 -1471.74,281.61 -282.11,9.8 -214.71,-142.52 -323.59,-498.99 -52.06,-170.44 -129.22,-286.05 -192.15,-456.86 -146.85,-398.57 -115.58,-618.72 -179.93,-1037.24 -62.85,-408.84 -14.53,-780.71 27.97,-1151.48 41.46,-361.56 61.38,-242.08 158.54,-492.69 2.99,-7.72 69.45,-238.89 69.83,-241.08l-53.52 -287.19c-213.18,62.96 -73.37,-13.23 -184.53,174.29l-459.75 665.32c-253.37,399.22 -370.22,410.37 -562.98,957.31 -231.74,657.61 32.98,818.75 -94.43,1308.01 -142.98,549.06 -30.4,1144.28 -76.41,1323.66l-322.84 82.63c-83.55,18.95 -281.68,74.12 -328.57,79.4 -362.44,40.85 -604,-202.13 -891.5,-291.66l-1364.67 -416.38c-258.12,-65.46 -808.4,-595.11 -998.57,-790.57 -172.44,-177.22 -187.98,-371.88 -451.95,-371.9 -70.76,513.21 412.22,872.07 633.5,1164.44 235.16,310.69 537.94,807 674.33,1191.28 295.82,833.44 529.65,1312.98 521.15,2263.98 -2.7,298.46 -32.81,619.59 -13.75,916.52 69.91,1089.77 -137.12,730.42 -317.29,1436.64 -71.21,279.12 -481.46,986.25 -689.08,1173.2 -229.26,206.48 -219.09,286.03 -385.83,544.1 -116.06,179.68 -345.07,251.94 -504.22,441.68 -218.29,260.26 -440.78,447.2 -725.5,655.13 -32.64,23.84 -114.88,88.06 -128.71,118.9 -88.59,197.42 7.09,68.91 50.42,174.92l128.2 -7.31c167.73,-74.71 244.22,-223.27 539,-305.53 302.69,-84.47 707.03,-10.11 1044.21,-70.63 290.49,-52.16 594.76,-169.82 895.13,-208.73 328.05,-42.5 741.19,-31.03 1092.32,-10.54 357.85,349 260.23,825.32 715.32,1154.66 265.77,192.35 1019.79,464.03 1498.31,398.61 485.77,-66.41 2132.49,-502.54 2450.53,-269.78 69.16,50.61 429.65,416.61 490.18,499.12 404.6,551.44 197.74,789.89 38.28,1418.74 -89.55,353.11 -453.34,964.03 -715.55,1139.27 -638.04,426.43 -261.94,205.19 -530.46,413.03 -270.67,209.53 -829.18,597.7 -1137.33,733.53 -263.3,116.05 -575.92,70.3 -575.46,402.84 211.61,171.37 518.92,89.85 1069.84,301.56 704.68,270.78 857.71,269.17 1193.73,889.41 356.38,657.82 583.89,326.39 285.2,1548.08 -384.2,1571.49 -220.02,2155.75 -2214.29,2614.4 -252.03,57.97 -719.49,-46.54 -608.46,285.92 99.46,297.74 397.79,261.79 845.43,502.63 772.79,415.8 1149.44,-58.03 1171.76,990.35 11.28,530.29 58.09,480.38 -80.21,965.04l331.65 0c1525.78,0 3058.48,0 4574.2,0 -99.11,-234.39 -267.24,-237.6 -416.63,-455.84 -607.98,-887.86 -293.77,-2076.14 -526.87,-2589.67 -46.16,-101.64 -140,-124.44 -177.84,-244.83 -54.02,-171.88 -52.64,-664.49 -82.12,-858.58 -47.7,-314.3 -168.01,-373.45 -164.77,-716.73 2.46,-261.65 -49.87,-656.5 -4.42,-839.51 497.89,-2004.01 -360.29,-1821.28 170.6,-3067.44 184.18,-432.36 408.1,-814.79 902.8,-936.21 321.89,-79.02 313.73,-139.46 716.22,-171.16 357.71,-28.18 414.39,-176.08 657.47,-244.46l0 0.01c219.67,-206.48 138.75,-245.01 394.42,-385.62l168.07 -113.34 430.04 -113.12 0.04 -0.02c548.74,-63.18 683.78,17.08 1221.68,60.3l-173.41 600.7c-23.49,172.05 -102.42,249.94 -48.58,455.53 215.35,8.86 230.6,-187.29 359.24,-370.09 211.52,-300.59 445.86,-769.59 770.36,-810.02 386.61,-48.15 660.13,92.41 705.98,-34.7 195.36,3.31 79.67,-55.15 182.25,38.43l-22.29 240.6z"/>
   <path fill="#9ABC9B" d="M10452.99 13918.05c-20.46,232.07 92.55,254.68 -20.84,565 -59.74,163.49 -147.87,328.86 -352.03,340.72 -59.58,91.28 59.05,79.61 -154.83,79 -968.99,24.22 -758.35,601.56 -2514.24,485.67 -239.89,-15.84 -288.15,-74.27 -486.8,-240.69 -85.31,-71.44 -14.26,-8.09 -102.37,-98.05l-201.8 -189.01c-9.97,-11.08 -36.41,-46.96 -45.28,-58.82 -273.32,-364.57 -376.94,-236.22 -457.86,-509.43l-350.34 -1071.77c-56.54,-132.75 -212.97,-324.82 -56.17,-561.61 127.72,-192.84 -21.2,142.59 93.02,-100.88 -68.82,-40.56 -18.16,-39.72 -65.88,-116.76l-106.78 -37.57c-7.86,-62.1 115.42,-34.45 -98.28,-59.38l-38.23 -38.93c-3.56,-4.59 -14.68,-16.19 -18.36,-21.67l-55.69 -191.37c296.8,-136.6 821.75,412.96 1062.2,539.1 632.81,332.05 554.56,334.99 1165.98,570.99l993 357.21 1779.43 331.75c6.07,-9.73 21.52,17.58 32.15,26.5zm1671.44 5711.7c386,-308.49 58.21,-298.21 849.18,-494.52 288.62,-71.63 815.99,-94.12 1015.97,-323.95 128.41,-56.18 197.81,-151.19 276.41,-276.21 103.22,-23.27 137.28,-92.09 305.12,-152.24 220.29,-78.98 206.83,-15.4 331.11,-168.74 198.85,-17.53 334.1,-31.36 540.87,-98.04 1220.47,-393.52 1404.85,88.3 1322.51,-574.55 -216.79,-60.11 -729.05,54.11 -957.29,106.32 -333.27,76.22 -429.09,365.13 -681.41,260.44 -21.04,-351.78 113.7,-66.87 206.39,-392.94 -263.02,-65.57 -547.84,-74.21 -812.52,13.73 -356.77,118.52 -160.96,314.07 -500.84,317.92l-32.36 -195.67c138.66,-64.19 73.44,-40.06 106.83,-205.47 -322.03,-75.64 -598.24,-109.85 -934.69,-12.23 -394.05,114.44 -173.46,307.08 -553.75,280.81 14.05,-70.31 53.27,-184.7 65.39,-236.36 14.12,-60.02 18.95,-21.01 11.55,-96.95 -14.7,-150.63 57.51,8.52 -44.27,-90.72 -134.62,-85.07 -329.4,-21.3 -474.34,45 -233.98,107.04 -188.2,194.85 -440.04,120.24 -4.18,-229.77 106.93,-267.97 313.67,-330.42 974.96,-294.52 572.58,44.98 1012.95,47.8 157.28,1 296.19,-52.37 537.29,-34.45 321.99,40.16 493.2,52.97 760.66,124.09 180.3,47.97 472.5,-44.79 727.08,-34.54 428.84,17.26 583.82,162.19 817.57,134.65 1378.33,-257.58 2666.54,83.69 2828.16,65.13l598.05 8.61c543.91,-18.27 1229.77,-63.98 1688.97,-9.71 949.47,112.22 11.01,179.11 1481.02,56.67 518.17,-43.18 1222.06,61.44 1706.52,14.05 295.19,-28.87 394.74,-157.74 754.38,-148 357.36,9.68 470.85,163.68 685.98,158.08l81.41 43.09c374.21,134.79 -267.4,-44.41 88.87,27.95l1409.98 26.04c245.14,7.12 901.05,246.91 1411.33,135.39 221.9,-499.12 5.13,-956.75 115.49,-1507.15 38.12,-190.14 45.26,-1135.89 -19.09,-1358.65l-71.35 -148.92c-35.26,-315.73 -409.82,-483.3 -500.87,-132.09 -352.45,190.76 -658.75,127.83 -1095.4,90.97 -376.03,-31.7 -833.8,24.86 -1237.45,4.65 -825.81,-301.89 -915.95,327.37 -2121.55,23.53 -151.09,-38.09 -382.12,-69.33 -508.31,-133.11 -203.03,-102.59 -130.47,-160.33 -409.92,-188.5 -222.25,-22.4 -827.29,-93.43 -973.82,2.97 -474.3,67.88 -390.33,9.88 -685.55,-27.79 -51.12,-3.36 -235.59,-328.9 -236.39,-328.92 -183.43,-4.71 -978.38,164.66 -1226.75,201.65 -1350.53,-186.26 -1367.57,-963.23 -1660.28,-982.15 -46.62,-3.01 -649.65,935.41 -987.05,1004.97 -815.41,168.1 -1269.86,295.64 -1993.14,-136.25 -228.78,-293.82 -263.54,-703.16 -412.76,-872.47 -199.47,-226.32 -1649.35,16.05 -1642.9,42.55 -267.11,54.19 -2441.31,60.29 -2668.35,-26.14 -302.06,-114.97 -212.74,-103.11 -710.81,-146.24l-1469.48 -269.61c-268.12,-53.72 -868.23,-312.35 -1329.95,-364.54 -148.07,-364.43 -1074.03,-902.14 -1447.92,-1073.75 -543.75,-249.59 -131.56,-286.99 -437.72,-376.32 -178.92,344.54 -44.54,806.39 -54.39,1180.45 -11.44,434.52 -74.56,742.3 -4.08,1227.42 169.65,1167.64 107.29,780.87 313.73,1659.67 67.51,287.29 536.73,960.65 902.03,1104.9 276.28,109.1 1934.09,66.73 2450.13,-150.88 135.64,-57.16 829.39,-337.1 926.78,-435.81 204.63,-12.05 707.65,-380.1 862.67,-504.42 183.99,-147.56 45.62,-165.53 296.63,-142.6 128.19,260.84 -157.18,328.68 -535.85,617.23 43.45,160.27 189.72,225.93 272.91,393.31 65.43,131.68 104.89,335.71 169.69,511.44 436.12,1182.59 160.14,1845.98 212.32,2320.9 36.79,334.83 262.57,827.02 254.28,1111.82 -10.93,375.91 -178.75,188.01 -170.59,1205.4 4.06,503.98 -86.18,781.44 -134.67,1212.2 -34.41,305.47 -53.84,1042.17 -20,1342.66 61.17,543.18 -202.88,794.6 -177.94,1164.33 -194.98,217.08 -48.15,607.18 -197.27,1078.78 -174.83,552.97 -103.01,564.14 -142.82,1130.22 -30.32,431.49 -206.55,591.25 -260.32,979.36 -105.55,761.72 -197.38,697.61 -232.19,1045.25l1570.26 0c-61.92,-167.78 -35.82,-80.85 -194.23,-199.65 -121.93,-91.44 -93.64,-66.77 -175.54,-185.94 -144.81,-426.26 462.22,-722.87 462.36,-722.98 -56.21,-326.61 -275.48,-493.83 90.38,-771.17 12.51,-199.72 -44.75,-220.49 21.17,-421.04 51.33,-156.14 109.05,-107.4 128.76,-291.46l16.85 -17.01 339.93 -105.89 356.95 10.01c13.69,-106.99 45.43,-102.02 -4.45,-220.7 -94.4,-224.63 13.34,-20.2 -125.53,-118.7 -86.35,-276.3 -373.3,-2308.74 -267.11,-2679.76 320.1,-1118.41 239.2,-946.09 43.85,-1932.62 -24.19,-122.1 -38.22,-528.59 -71.33,-585.32 -58.35,-892.19 205.01,-675.41 304.24,-1218.39zm977.3 -1836.53c-2.01,3.09 -3.8,6.03 -5.35,8.76 1.54,-2.75 3.34,-5.67 5.35,-8.76zm-8.08 13.96c-1.36,2.76 -2.49,5.33 -3.39,7.71 0.9,-2.38 2.03,-4.95 3.39,-7.71zm-6.42 21.14c-0.91,19.49 18.18,20.4 11.82,24.05 6.18,-3.64 -12.7,-4.62 -11.82,-24.05zm-171.28 -61.35c0.64,-5.98 1.3,-11.73 2,-17.3 -0.69,5.55 -1.36,11.32 -2,17.3zm3.09 -25.72c2.22,-16.3 4.68,-30.63 7.35,-43.26 -2.67,12.63 -5.13,26.97 -7.35,43.26zm8.69 -49.44c2.27,-10.06 4.65,-18.95 7.11,-26.79 -2.46,7.84 -4.84,16.73 -7.11,26.79zm8.59 -31.38c8.49,-25.3 17.74,-38.87 26.16,-45.93 -8.42,7.06 -17.69,20.64 -26.16,45.93zm26.16 -45.93c1.48,-1.26 2.93,-2.3 4.36,-3.17 -1.43,0.87 -2.88,1.91 -4.36,3.17zm8.51 -5.28c0.9,-0.37 1.77,-0.66 2.62,-0.92 -0.85,0.26 -1.72,0.55 -2.62,0.92z"/>
   <path fill="#DEDEA8" d="M12285.68 8788.66c102.01,71.62 -97.16,-3.2 151.28,75.73 73.53,23.38 132.37,26.53 221.63,36.44 673.37,74.7 907.06,262.48 2066.67,332.12 386.06,23.18 531.49,61.85 883.48,102.71l39.6 8.58c55.21,114.48 177.86,61.32 329.95,84.57 122.19,18.69 161.4,56.72 274.23,63.36 13.39,-180.47 -72.01,-225.06 -252.59,-262.24 -17.19,-48.78 -129.75,-1241.79 -136.12,-1395.11 -17.74,-424.81 64.94,-1093.94 120.16,-1525.66 46.25,-87.38 49.69,-592.79 72.04,-773.99 29.9,-242.63 104.29,-504.1 161.03,-746.51 63.47,-271.18 96.13,-466.87 187.84,-742.46 71.19,-213.98 203.29,-471.7 210.69,-695.24 59.13,-66 33.69,17.05 63.04,-97.27 20.05,-78.05 6.2,-60.91 3.1,-115.56l94.7 -190.27c64.66,-207.88 130.48,-419.84 61.65,-563.33l-242.14 199.84c-58.18,114 -872.04,748.65 -1033.73,896.89 -222.8,204.31 -528.45,578.15 -776.56,702.91 -92.76,46.63 -75.92,16.3 -163.37,88.29 -202.84,166.99 -78.39,48.39 -94.96,155.07 -103.22,80.62 -20.54,-16.07 -80.63,100.58 -126.41,245.32 -15.73,476.43 -541.81,736.06 -199.95,98.68 -736.89,136.74 -895.99,575.97 -155.12,62.13 -133.94,47.43 -229.17,174.34 -393.98,519.35 -627.46,315.75 -1040.48,464.88 -187.42,67.68 -228.11,155.27 -519.8,228.27 -231.05,57.84 -406.11,112.9 -551.95,232.22 -179.5,146.84 -185.94,233.56 -527.95,212.14 -289.44,-18.15 -461.84,22.98 -745.18,-25.62 -346.45,-59.42 -279.75,-9.51 -574.31,121.17 -449.98,199.62 -732.66,-35.49 -658.51,451.68 76.55,502.92 687.72,1112.98 992.8,1031.73 153.22,-40.82 344.9,-254.1 529.08,-327.59 206.55,62.04 264.72,213.86 468.45,287.61 393.72,142.54 1026.95,50.89 1446.58,39.17 246.3,-6.87 503.68,88.78 687.25,58.52z"/>
   <path fill="#DADCAB" d="M10327.46 17741.94c-24.14,175.07 -98.59,236.25 -144.87,392.28 -49.55,166.98 -36.25,273.3 -107.05,438.82 -75.21,175.71 -224.36,536.41 -341.13,696.75 -134,100.24 -85.83,77.73 -187.98,193.71 -42.26,48 -75.33,73.42 -100.09,100.07 -66.27,71.3 -19.83,13.21 -82.24,104.26 -99.42,54.16 -316.86,190.77 -353.83,307.34 -135.57,51.45 -39.84,-6.67 -124.4,63.81 -94.35,78.63 -5.82,-13.34 -75.81,119.79 -166.86,49.36 -964.12,481.15 -1070.73,641.41 101.59,152.92 34.33,71.22 218.66,154.02 915.85,411.34 1063.51,296.7 1411.11,968.28 166.32,321.4 440.11,521.61 541.11,785.93 119.85,313.58 -100.33,780.2 -97.69,1176.11 4.41,666.06 124.02,598.09 -182.44,1157.77 -692.04,1263.82 -517.15,786.5 -1381.42,1280.55 -109.06,62.34 -290.34,233.47 -411.02,269.24 -129.61,38.44 -208.24,12.03 -311.95,40.62 -283.19,78.11 -118.13,-0.1 -153.89,144.13 189.32,76.87 965.4,32.75 1412.99,570.99 261.87,314.93 168.97,1279 138.97,1742.55l415.38 0c65.3,-203.64 132.87,-434.48 198.2,-665.33 76.2,-269.33 27.94,-446.02 130.47,-704.25 86.51,-217.97 216.45,-368.3 223.88,-602.97 10.15,-319.43 -36.33,-453.17 21.19,-808.82 49.01,-303.09 132.82,-354.29 156.25,-688.13 47.8,-681.17 110.31,-784.26 297.84,-1365.21 119.65,-370.64 27.68,-389.47 7.9,-711.34l104.29 -1587.74c88.22,-482.29 22.35,-1186.7 130.43,-1528.37 211.4,-668.38 20.29,-767.31 -110.31,-1365.36 -115.51,-528.94 25.21,-888.98 24.06,-1427.07 -55.57,-268.82 -72.31,-477.39 -136.21,-736 -28.18,-113.97 -56.72,-182.84 -91.35,-298.84 -45.74,-153.24 -29.17,-167.9 -138.86,-265.42 -12.22,-274.64 -196.98,-426.38 -372.76,-553.62 -97.83,16.96 -381.03,119.01 -430.61,246.59 350.86,238.76 373.83,-6.3 671.39,457.46 119.21,259.75 168.31,228.07 231.57,585.89 44.96,254.35 58.97,408.7 70.95,670.1z"/>
   <path fill="#9ABA9A" d="M9759.7 10543.68c-377.87,301.26 194.19,-6.7 -569.23,483.42 -508.36,326.35 -692.47,567.42 -1600.75,344.23 -60.69,-14.91 -300.93,-89.64 -356.26,-136.46 -168.84,-142.93 -33.99,-209.62 -220.48,-255.26 -61.85,127.8 83.17,1099.69 151.16,1248.8 192.7,105.8 1045.5,360.37 1320.32,405.74 254.19,41.96 562.78,55.85 799.09,108.6 1109.41,247.71 909.86,-27.97 1557.17,4.66 1340.36,67.58 2728.25,-25.24 4082.7,-38.77 1228.54,-12.34 2307.74,-92.96 3527.68,-191.82 173.74,-14.1 518.95,23.4 660.99,-67.95 211.62,44.17 931.33,43.38 1109.88,-18.77 204.25,-139.12 155.17,-1058.77 385.25,-1472.19 115.09,-206.79 191.66,-162.99 194.36,-359.73 -312.13,-26.5 -625.53,-19.13 -939.37,-49.97 -262.27,-25.8 -525.51,-123.71 -810.46,-138.64 -1273.41,-66.7 -1187.7,-272.34 -1709.59,-326.88 -157.06,-109 -671,-111.61 -894.32,-186.11 -483.36,-161.3 -641.18,-432.35 -1827.78,-467.93 -843.69,-25.3 -2466.92,-471.44 -2973.3,-495.11 -541.54,-25.28 -1237.43,165.21 -1561.14,61.12 -175.32,-56.36 -283.17,-160.76 -476.33,-51.41 79.91,152.81 57.75,116.72 185.32,163.85 114,318.63 153.56,306.45 129.19,754.87 -13.8,253.99 -149.62,457.77 -164.1,681.71z"/>
   <path fill="url(#id0)" d="M6683.89 7973.79c-11.75,225.61 28.45,159 97.35,373.56 75.29,234.4 -9.3,705.65 227.99,1278.28 235.66,568.67 307.29,1276.95 586.46,1404.76 726.4,332.53 1023.03,82.01 1551.22,-243.61 237.2,-146.2 331.59,-256.1 458.71,-566.76 106.12,-259.42 170.94,-667.62 6.37,-868.79 -176.35,-188.78 -648.16,4.78 -1433.04,-993.23 -161.88,-205.85 -156.55,-286.62 -276.44,-523.54 -32.88,-130.22 -65.87,-263.47 -162.67,-316.87l-77.45 -261.51c-66.11,-308.74 -237,-626.4 -380.81,-867.58l-118.06 -782.34c-34.65,-174.36 -146.14,-1325.38 -37.4,-1453.27 -279.43,-181.13 -448.16,835.12 -471.36,1078.83l-65.11 893.85 -9.14 270.04c-94.77,108.51 -91.13,559.5 -67.9,713.99l96.35 220.81c15.02,163.16 53.9,129.13 46.23,306.86 -5.12,118.5 -22.63,84.34 -22.91,164.26 -0.71,213.15 -18.29,89.58 51.61,172.26z"/>
   <path fill="#6B9BD8" d="M14887.12 13261.06c70.57,315.45 133.2,532.14 340.85,692.59 240.1,185.52 779.67,224.76 1157.9,192.47 892.21,-76.19 1559.43,-742.33 1393.12,-1279.47 -14.56,-6.44 -33.53,-11.01 -46.02,-13.49 -12.34,-2.44 -30.79,-9.17 -45.95,-11.5l-1354.18 46.56c-246.33,14.17 -1304.24,35.78 -1434.02,73.18l-11.7 299.66z"/>
   <path fill="#556A43" stroke="#556A43" stroke-width="20" stroke-miterlimit="22.9256" d="M9925.29 14902.77c213.88,0.61 95.25,12.28 154.83,-79 -174.56,35.05 -358.42,102.48 -479.25,-26.85 -5.45,-129.93 0.55,-164.11 150.17,-167.75 172.16,-104.73 -14.15,90.39 81.49,-79.92 34.11,-60.73 7.59,-106.62 83.83,-220.87 94.09,-141.04 113.12,-32.57 138.79,-265.22 -402.29,118.34 -91.7,369.72 -515.94,368.49 3.73,-268.41 158.38,-225.82 211.42,-439.49 -294.93,-105.29 -106.03,52.61 -421.58,320.71l-168.07 -33.69 -577.79 -328.82c-231.96,-105.01 -212.9,19.92 -409.59,-94.07 -180.93,-104.89 42.46,41.71 -166.63,-190.2l-63.3 -55.31c-302.78,-204.69 -1096.99,-423.83 -1677.05,-818.58 -361.78,-246.22 -217.48,-265.46 -529.05,-350.78 47.72,77.04 -2.94,76.2 65.88,116.76 -114.22,243.47 34.7,-91.96 -93.02,100.88 -156.8,236.79 -0.37,428.86 56.17,561.61l350.34 1071.77c80.92,273.21 184.54,144.86 457.86,509.43 8.87,11.86 35.31,47.74 45.28,58.82l201.8 189.01c88.11,89.96 17.06,26.61 102.37,98.05 198.65,166.42 246.91,224.85 486.8,240.69 1755.89,115.89 1545.25,-461.45 2514.24,-485.67z"/>
   <path fill="url(#id1)" d="M19306.68 9972.56c283.82,-16.85 -46.67,249.77 513.1,227.57 154.87,-244.74 172.92,-527.11 93.92,-823.32l-23.72 -293.96c95.77,-125.44 53.32,-366.08 68.1,-525.34 22.13,-238.58 -2.07,-347.63 -46.76,-544.82 -75.77,-448.84 -13.32,-606.39 -235.97,-867.05 -155.93,-182.55 -35.37,-152.87 -267.66,-114.59l-66.41 425.68 -84.38 281.35 -107.55 337.37 -115.34 220.12c-4.77,499.77 -171.87,408.16 -348.26,543.5 -69.22,53.12 -31.02,20.61 -81.57,79.91 -176.1,31.66 -113.58,18.61 -188.61,153.41l-138.31 193.77c-329.87,832.8 -339.69,302.66 -396.01,703.31 223.97,72.48 350.78,104.32 478.74,-101.35 148.5,-238.67 -6.98,-366.08 291.93,-397.13 198.33,263.15 -161.64,329.41 -78.17,653.14 245.91,23.84 241.98,-13.96 247.84,-224.49 78.97,-40.83 78.41,-30.91 183,-61.26 52.71,110.1 -14.29,105.05 70.7,300.8 5.72,13.13 19.33,28.29 30.08,41.68 188.49,-60.71 82.21,45.78 201.31,-208.3zm563.2 -1466.89c-57.64,-5.09 -80.92,37.12 -89.16,60.56 8.28,-23.44 31.54,-65.63 89.16,-60.56zm-92.48 71.86l-0.05 0.27 -0.06 0.43 0.09 -0.63 0.02 -0.07zm-0.1 0.47l-0.16 0.7 -0.06 0.34 -0.13 0.64 -0.03 0.22 -0.1 0.52 -0.01 0.13 -0.07 0.39 0 0.04 -0.01 0.2c0,0.05 0.01,0.05 0.03,0l0.17 -0.79 0.02 -0.08 0.13 -0.72 0.01 -0.15 0.16 -0.93 0.04 -0.28"/>
   <path fill="url(#id2)" d="M16309.3 7048.74c-249.7,11.33 -169.39,209.93 -177.78,448.11 -3.91,111.14 -28.02,491.91 -42.76,567.99 35.8,215.18 1.15,506.94 144.67,664.91 223.47,-38.47 359.18,-295.29 478.06,-515.87 92.4,-152.36 82.51,-182.62 208.42,-300.86 132.67,-124.57 216.74,-118.23 245.96,-324.86 139.62,-68.8 196.91,-239.5 205.17,-376.8 48.05,-40.5 37.11,-27.25 86.81,-82.74 69.13,-77.19 21.36,-12.45 67.82,-83.98 72.32,-111.41 67.29,-129.73 83.37,-244.71 142.76,-87.98 167.03,-101.3 163.48,-318.53 83.01,0 60.6,16.15 39.85,-67.88 56.45,-55.16 31.18,-15.6 66.93,-123.45 3.2,-9.63 37.71,-175.42 41.17,-199.69 26.6,-186.39 17.35,-259.42 -6.75,-442.13 187.1,-196.65 172.52,-1075.25 83.2,-1317.56 -146.02,99.35 -123.41,168.64 -228.5,455.52 -62.56,170.67 -125.75,336.12 -177.76,541.9l-179.36 241.69 -217.29 316.47c-46.34,24.8 -43.23,-7.86 -117.72,100.36 -58.47,84.93 -54.12,88.87 -95.5,209.06 -114,102.53 -217.94,205.35 -292.5,385.59 -89.54,59.29 -316.89,368.71 -378.99,467.46zm1453.16 -706.91c0.3,-3.51 0.67,-6.95 1.15,-10.36 -0.48,3.41 -0.83,6.85 -1.15,10.36zm34.95 -144.52l1.62 -6.49 0 0.01 -1.62 6.48zm1.62 -6.48l0 0.03 -0.18 2.72 -0.16 2.8 -0.16 2.8 -0.06 1.07 -0.1 1.74 -0.14 2.83 -0.13 2.85 -0.11 2.15 -0.02 0.71 -0.13 2.87 -0.09 2.91 -0.1 2.9 -0.01 0.35 -0.08 2.59 -0.15 5.9 -0.03 1.45 -0.03 1.53 -0.05 3.01 -0.03 3.03 -0.03 2.59 0 0.46 -0.02 3.05 0 3.09 0 3.11 0 0.68 0.03 2.44 0.04 3.15 0.03 3.18 0.03 1.88 0.03 1.31 0.24 9.59 0 0.14 0.11 3.29 0.13 3.31 0.13 3.35 0.05 1.09 0.27 5.67 0.17 3.43 0.13 2.37 0.07 1.07 0.67 10.52 0.01 0.2 0.24 3.36 0.27 3.59 0.29 3.61 0.11 1.56 0.18 2.1 0.94 10.36 0.07 0.77 0.76 7.58 0.4 3.86 0.07 0.61 0.03 0.27 0.76 6.89 0.45 3.94 0.26 2.11 0.22 1.87 1.49 11.71 0.04 0.43 1.73 12.46 0.16 1.12 0.45 3.1 1.27 8.58 0.42 2.74 0.26 1.6 2.14 13.26m6.29 -437.76c-0.14,6.22 -0.38,12.32 -0.65,18.3 0.27,-5.98 0.51,-12.08 0.65,-18.3zm-1.18 28.75c-0.35,6.11 -0.75,12.12 -1.2,18.04 0.45,-5.92 0.85,-11.93 1.2,-18.04z"/>
   <path fill="#D5D6A4" d="M11063.25 28656.59c307.95,206.36 1214.38,-22.64 1629.34,-60.17 80.56,-962.33 -1647.05,-512.39 -1629.34,60.17z"/>
   <path fill="#6B9ACB" d="M20912.35 13694.32c271.91,-7.97 496.76,-233.68 633.13,-393.62 123.46,-144.81 300.74,-514.25 299.26,-613.01 -713.52,-105.21 -1213.64,23.39 -1406.86,13.3 -147.54,-7.74 -269.03,-14.44 -424.41,-13.53 -498.39,2.83 -1399.72,-26.56 -1812.75,113.55 9.26,195.72 113.63,567.4 295.91,624.98 332.38,701.06 1483.58,647.02 2150.32,409.21l234.44 -118.07c5.1,-15.67 21.57,-14.16 30.96,-22.81z"/>
   <path fill="#050505" d="M14958.42 12254.31l6.07 97.99c308.97,-0.46 424.82,-165.42 469.4,-222.34 62.49,-79.77 -7.69,-27.98 72.7,-97.57l44.65 -41.55c5.29,-4.78 17.62,-15.47 23.55,-20.92 35.13,-32.14 28.95,-19.55 74.43,-67.75 463.34,-491.13 705.8,-423.02 976.37,-718.88 251.88,-130.61 292.51,-124.52 324.45,-385.1 112.96,-199.35 70.42,-265.03 -185.4,-255.08 -70.84,182.49 -637.25,482.39 -739.23,561.96l-661.78 670.87c-185.64,208.48 -250.9,311.28 -405.21,478.37z"/>
   <path fill="#0A0B04" d="M20033.74 12244.23c51.83,-309.22 -402.95,-642.86 -674.9,-892.61 -149.31,-137.12 -271.27,-78.65 -525.46,-267.2 -137.18,-101.76 -420.33,-318.98 -536.68,-210.1 -237.7,222.46 159.34,132.4 657.78,619.54 237.86,232.44 194.19,8.34 399.83,248.89l300.53 295.09c214.13,176.1 77.94,278.97 378.9,206.39z"/>
   <path fill="#D6D4A9" d="M12360.76 27740.48c504.75,-619.42 -1094.18,-674.36 -888.6,-25.12 174,26.01 251.77,-33.75 427.03,-29.56 236.96,5.63 202.13,73.09 461.57,54.68z"/>
   <path fill="#DADCAB" d="M12173.24 27042.01c289.3,36.21 313.07,-27.67 295.07,-280.01 -253.35,-82.2 -567.1,-161.34 -833.61,-43.25l-7.51 226.88c168.3,62.51 368.2,74.12 546.05,96.38z"/>
   <path fill="#EAEBEC" d="M17089.98 18448.7c202.17,-139.89 253.52,-474.89 286.75,-712.47 38.22,-273.16 -38.19,-298.08 -320.15,-243.14 -14.49,176.14 -68.99,803.18 33.4,955.61z"/>
   <path fill="#B6B998" d="M11565.4 29090.37l1533.29 0c-182.78,-222.47 -502.04,-100.93 -795.28,-95.47 -274.41,5.11 -545.07,-45.16 -738.01,95.47z"/>
   <path fill="#8DAB8B" d="M18029.96 17921.08l115.93 -80.27 -12.49 -158.22c-2.8,-7.97 -16.55,-21.65 -24.22,-32.86l-362.41 -46.88 -61.79 357.89 344.98 -39.66z"/>
   <path fill="#060813" d="M19683.77 13201.77c37.95,226.52 20.91,173.41 227.76,275.64 369.2,-113.99 310.08,-259.69 323.33,-314.24l-551.09 38.6z"/>
   <path fill="#E7E7E8" d="M18976.27 18095.05l58.65 -481.3 -171.68 13.81c-9.37,2.9 -24.7,15.84 -37.54,22.99l-34.75 546.97 185.32 -102.47z"/>
   <g>
    <path fill="#282829" d="M26317.49 16839.67c-73.58,-250.08 9.57,-428.93 290.69,-464.17l86.08 -10.78 4.08 83c4.72,95.84 6.4,212.73 -32.67,302.46 -49.99,114.72 -153.56,157.96 -279.95,144.78l-53.61 -5.6 -14.62 -49.69z"/>
   </g>
   <path fill="#49553C" d="M26394.39 16818.95c217.78,22.73 234.27,-162.05 224.16,-367.64 -208.47,26.13 -291.63,138.35 -224.16,367.64z"/>
   <g>
    <path fill="#050505" d="M27570.65 16290.8l22.11 -26.78 53.42 17.42c324.17,105.69 299.87,412.5 -53.93,442.36l-61.68 5.2 -20.64 -55.89c-29.51,-79.86 -76.83,-215.74 -43.98,-299.83 21.34,-54.65 55.74,-69.84 104.7,-82.48z"/>
   </g>
   <path fill="#495746" d="M27585.23 16647.64c271.8,-22.94 272.6,-216.42 35.21,-293.82 -22.64,27.41 -158.03,-38.74 -35.21,293.82z"/>
   <path fill="#DEDEA8" d="M6632.68 11732.4c119.74,176.71 60.36,129.89 244.78,173.56 -7.62,-98.31 9.59,-125.96 -39.25,-234.95 -81.59,-182.09 -36.66,-63.34 -119.99,-138.79l27.09 -709.69c227.32,-195.94 317.05,-437.68 174.47,-734.34 -37.57,-78.13 -30.5,-56.59 -69.22,-102.22 10.34,-130.02 -92.36,-341.99 -147.95,-510.69 -80.53,-244.23 -84.27,-312.52 -112.31,-575.12 -22.16,-207.61 -87.4,-330.17 -140.78,-523.81 -51.37,-186.44 -37.81,-416.52 -70.8,-614.1 -812.65,-56.45 -753.92,237.48 -1595.58,-158.68l-1309.71 -399.84 -252.13 -132.28c-219.73,-112.93 40.48,-55.71 -233.42,-98.54 9.08,176.98 81.59,245.92 239.76,368.81 71.46,96.75 91.11,307.02 149.85,453.82 149.01,372.28 357.65,560.92 480.76,1404.47 54.91,376.2 125.36,816.18 95.45,1189.27 -95.93,1196.36 341.51,856.34 -291.47,2192.21 -80.82,170.54 -126,284.66 -187.25,439.43 -439.49,1110.61 -104.18,339.66 -485.61,845.14l-567.98 708.46c-136.08,150.55 -269.91,185.58 -300.84,396.35 210.88,-6.05 383.14,-69.13 570.52,-87.87 141.94,-14.18 497.51,22.24 543.3,-34.81 268.01,-18.81 483.98,-62.88 724.06,-94.97l481.28 -72.62c125.51,-34.45 41.71,2.37 133.24,-49.87 0.8,-274.37 -150.97,-385.78 -145.19,-769.66 2.64,-176.98 43.73,-484.54 -19.49,-651.5 -62.61,-165.41 -28.96,-66.23 -83.52,-124.25 176.36,-977.59 155.83,-1601.07 281.67,-2471.21 82.9,-413.77 434.01,-262.75 576.29,176.91 64.51,199.31 408.7,510.06 664.74,540.96 104.53,183.36 158.02,159.11 393.05,221.12 306.27,80.78 189.37,19.11 392.18,179.3z"/>
   <path fill="#060813" d="M16035.29 13348.51c37.95,226.52 20.91,173.4 227.76,275.64 369.2,-113.99 310.08,-259.69 323.33,-314.24l-551.09 38.6z"/>
  </g>
 </g>
</svg>
