<svg width="622" height="759" viewBox="0 0 622 759" fill="none" xmlns="http://www.w3.org/2000/svg">
<path fill-rule="evenodd" clip-rule="evenodd" d="M574.845 725.93C580.228 726.321 584.116 723.361 589.387 723.216C593.315 723.108 597.5 723.69 601.582 722.493C604.386 721.67 603.996 721.773 604.468 720.936C604.808 720.672 604.519 721.108 604.846 720.501C605.191 719.858 604.937 720.454 605.162 719.624C605.297 719.125 605.512 718.162 605.661 717.653C606.024 716.427 606.294 715.261 606.658 714.036C606.998 712.892 607.25 711.672 607.607 710.371C607.904 709.292 608.434 708.065 608.467 706.631C609.293 706.547 609.307 706.473 610.004 706.31C610.556 705.159 610.834 703.363 610.927 701.398V698.079C610.842 696.042 610.618 694.099 610.346 692.743C609.482 688.431 608.085 684.744 606.621 681.089C604.251 675.175 599.762 664.51 599.239 657.994L598.803 649.871C598.787 649.812 598.733 649.71 598.718 649.665C598.703 649.62 598.666 649.528 598.624 649.469C598.624 647.541 598.774 645.265 598.366 643.823C595 631.921 591.991 620.802 595.816 608.463C598.231 600.672 598.624 596.339 598.624 587.588C598.624 579.585 598.317 572.438 598.317 564.298L598.243 560.215C600.075 559.153 599.769 557.547 600.081 555.21C600.471 552.292 599.591 551.319 599.547 549.002C600.326 548.18 600.505 548.395 600.87 547.083C601.424 545.093 601.39 526.285 601.393 523.921C601.396 521.317 601.068 519.769 601.078 517.469C601.107 510.419 601.181 504.725 600.415 497.833C599.494 489.552 599.657 486.303 599.559 478.389L596.762 450.734C596.389 449.384 596.389 448.979 595.549 448.761C596.858 441.438 596.435 444.272 596.473 436.876C596.485 434.6 596.246 432.809 595.891 431C595.648 429.763 595.099 426.868 594.01 426.676C594.01 424.438 594.006 422.2 594.011 419.962C594.017 417.443 593.679 416.063 593.697 413.817L592.867 401.422C591.914 394.098 591.956 388.898 590.297 380.922C590.108 380.012 589.79 379.141 589.705 378.175C589.705 376.193 589.382 375.573 589.39 373.526C589.45 358.753 588.939 341.589 589.706 327.385C589.889 324.001 589.52 320.309 589.703 316.924C589.793 315.271 590.017 314.115 590.013 312.005L590.318 301.853C590.306 299.682 590.627 298.73 590.627 296.859C590.627 295.705 590.565 294.373 590.626 293.242C590.701 291.848 590.945 291.562 590.945 289.87C590.946 287.075 591.242 285.498 591.242 282.883C593.736 276.743 594.101 255.356 592.808 252.336C595.594 248.871 595.241 230.956 595.241 223.732C595.241 219.198 595.692 212.379 595.063 208.224L594.318 169.907C594.327 162.829 593.41 154.485 594.273 146.795C594.54 144.425 594.097 141.565 594.363 139.196C594.577 137.295 594.933 133.842 594.933 131.796L594.626 131.455C595.351 128.369 596.826 127.884 596.781 119.161C596.768 116.599 596.756 114.482 596.516 112.347C596.254 110.012 596.539 107.356 596.248 105.234L596.151 94.5405C596.172 92.8824 596.435 92.7282 596.481 91.1797C596.561 88.5212 596.478 86.3464 596.734 84.0504L597.086 77.0156C597.77 74.1046 598.463 71.2476 599.109 68.2795C599.792 65.1478 600.364 62.5898 600.909 59.3141C601.908 53.3104 602.77 45.6772 599.312 40.7279C599.999 38.7335 600.073 30.6196 600.292 29.1701C600.795 25.8441 600.399 17.1112 598.572 14.3287C595.217 9.21725 574.924 14.0637 568.917 18.2753C566.661 19.1499 561.717 19.7682 558.903 20.0762C555.672 20.4296 550.397 20.1284 546.952 20.1204C540.682 20.1061 536.684 21.2543 531.179 22.1871C525.627 23.1278 519.66 22.8889 514.042 22.8889C509.795 22.8889 506.651 23.2113 502.354 23.1955L479.578 24.4106C477.846 24.5538 475.546 24.4246 473.751 24.4268C471.469 24.4299 470.051 24.1638 468.225 24.109C459.917 23.8607 447.285 24.0991 438.38 24.1196C435.965 24.1248 434.624 23.804 432.547 23.8009L403.009 23.8127C400.571 23.8217 399.394 23.4876 397.173 23.4967C395.307 23.5046 392.911 23.4547 391.539 23.7212C388.665 24.2809 388.989 23.9895 387.631 25.9485C381.905 25.5977 374.067 24.1237 371.33 28.4535C364.413 28.2071 356.93 29.1766 350.472 30.9435C349.577 31.1884 348.88 31.5853 348.023 31.8086C347.13 32.1881 341.331 32.6076 339.705 32.7856L315.044 35.8066L307.793 36.2443C302.889 36.9862 290.272 35.9952 285.689 35.3277C280.159 34.5227 279.9 34.5624 274.745 34.5835C272.96 34.5911 272.492 34.3447 271.063 34.2676L259.364 34.2585C257.585 34.2612 257.268 34.5397 255.693 34.5866C253.246 34.6599 250.395 34.3953 248.011 34.5926C246.109 34.7499 242.791 34.7604 240.79 35.062C238.441 35.4154 236.017 35.2835 233.623 35.5844C223.225 36.891 224.084 37.278 211.697 37.3487C209.115 37.3638 207.205 37.0365 204.32 37.0372C201.695 37.038 199.071 37.0372 196.447 37.0372C195.292 36.812 193.312 36.4094 192.017 36.4412C190.099 35.0288 185.752 35.3602 183.408 35.4986C170.902 36.2382 170.239 33.8711 161.031 32.0365L156.339 31.3611C155.69 30.6782 155.673 30.7579 155.416 29.6554L148.341 29.3478C137.413 29.3481 114.761 28.6595 105.585 30.8815C103.465 31.3948 101.991 32.0169 99.9268 32.605C85.0226 36.8494 68.0752 27.1492 53.9326 30.2855C52.5206 30.5984 49.3998 31.6692 48.3813 32.3302C42.9077 37.0712 44.1036 38.625 43.0684 47.1029C42.7479 49.7296 42.156 52.7635 41.416 55.2927C40.7462 57.582 39.7692 60.9628 39.7692 63.6629C38.11 66.1706 36.1802 72.7655 36.4334 77.0212C33.454 78.8358 32.3145 86.7357 31.3908 91.0954C30.2936 96.2692 28.8528 100.838 27.9518 106.726C26.4679 116.417 22.88 130.157 25.6213 140.617C25.6213 147.078 26.5167 168.567 27.3304 174.35C27.8524 178.057 28.1857 181.4 29.6193 184.043C30.1159 185.102 31.3987 201.011 31.9396 204.803L33.2401 209.652C33.6691 210.498 33.6679 209.831 33.9257 210.851L36.7456 234.445C37.5597 242.041 36.7256 252.316 40.9995 256.477C40.9995 261.556 40.9995 266.634 40.9995 271.713C40.9995 277.015 40.6918 281.411 40.6918 286.477C40.6918 291.5 40.6918 296.524 40.6918 301.547C40.6918 306.958 40.3845 311.3 40.3845 316.738C40.3845 318.631 40.7077 319.211 40.6994 321.225C40.6793 326.153 40.6139 332.009 41.0078 336.602C41.4076 341.258 43.3284 351.004 42.6715 355.19L42.2301 375.364C42.2301 378.832 42.3574 393.803 43.1527 395.307L43.1451 395.664C39.6369 396.491 40.6918 401.428 40.6918 407.659C40.6918 427.07 42.8495 452.858 40.4726 471.414L36.0785 503.508L31.144 545.758C27.2212 548.719 28.0818 573.506 28.0818 577.438C28.0818 589.023 28.0818 600.608 28.0818 612.194L28.3894 637.722L25.9286 678.93C24.6107 684.643 24.2078 690.841 23.2081 696.823C22.2273 702.693 20.8999 708.265 19.7487 713.97C18.2146 721.569 16.8086 732.157 13.7287 738.708C12.8299 740.62 11.4727 744.318 11.4727 746.909H19.4301C21.8584 746.833 23.9432 746.562 29.0486 745.724C43.6565 743.323 56.9555 737.448 70.6933 735.389C72.3782 735.136 73.5786 735.32 75.0352 734.914L86.5307 734.925C88.3093 734.922 88.626 734.644 90.201 734.597L101.9 734.608C103.504 734.52 103.618 734.169 105.589 734.386C111.744 737.512 116.322 736.527 123.427 736.143L148.349 735.522C150.233 735.514 150.727 735.799 152.33 735.847C157.995 736.016 181.255 735.954 186.189 735.545C188.472 735.357 208.015 735.887 210.908 736.322L235.293 737.605C238.242 737.189 244.146 737.431 247.699 737.387C249.445 737.366 249.827 737.059 251.674 737.057C262.6 737.044 272.178 735.46 282.802 734.351L298.921 733.246C303.072 732.618 311.009 733.079 315.66 733.068L332.279 733.674C334.472 733.739 337.783 734.193 339.96 734.297C346.357 734.601 353.157 735.386 359.379 736.407C360.638 736.614 361.802 736.956 362.886 737.067C364.878 738.133 368.846 739.382 371.298 739.867C374.561 740.513 377.756 740.511 381.8 740.463C386.61 740.405 392.503 738.605 402.087 738.605C406.897 738.605 431.295 737.886 434.867 738.427L445.323 738.913C445.681 738.887 446.509 738.697 446.519 738.696C448.75 738.505 447.092 740.679 453.728 741.404C455.577 741.605 457.044 741.674 459.296 741.681C461.618 741.689 462.765 741.373 464.797 741.373C466.025 741.373 466.372 741.558 467.176 741.065C470.271 741.065 477.202 739.752 480.332 739.035C484.861 737.999 487.755 736.717 492.684 736.008C512.17 733.203 516.82 733.939 536.508 733.696L543.877 733.376C552.315 733.382 565.982 732.534 573.29 728.342C574.775 727.49 574.434 727.467 574.845 725.93Z" fill="#E4C198" stroke="#E4C198" stroke-width="9.44882" stroke-miterlimit="22.9256"/>
<path fill-rule="evenodd" clip-rule="evenodd" d="M597.132 75.4976C596.385 84.0893 596.098 94.5038 596.28 103.165C596.443 110.953 597.984 125.666 594.155 130.269L594.95 130.04C593.274 148.817 594.476 172.589 594.657 191.83C594.719 198.469 596.939 245.441 592.885 250.929C594.042 258.358 593.395 277.031 591.237 281.234L590.542 295.28C589.335 322.678 589.039 348.805 589.58 376.726C592.128 383.926 594.377 415.241 594.003 424.655C597.109 428.462 597.08 441.338 595.604 446.884C596.625 448.384 595.921 446.287 596.957 449.982L598.944 470.664C600.146 479.314 599.163 487.618 600.362 496.174C601.497 504.269 601.014 513.877 601.318 522.309L601.219 542.509C600.48 547.638 601.556 544.811 599.474 547.662C600.001 550.724 600.389 550.923 599.935 554.527C599.353 559.16 599.872 556.59 598.333 558.881L598.396 562.618C597.886 575.161 600.104 594.495 596.452 604.88C591.642 618.562 594.857 629.714 598.46 642.73L599.276 656.644C601.728 673.648 611.915 684.862 610.91 699.772C610.532 705.388 609.868 704.822 608.668 705.02L604.707 719.607C599.405 722.562 595.83 721.037 589.357 721.601C583.09 722.148 581.116 724.257 575.001 724.429C573.56 726.787 576.742 724.783 571.499 727.699C562.385 732.768 530.343 731.896 520.736 731.934C510.041 731.976 503.368 733.113 492.526 734.406C485.773 735.212 485.228 737.417 467.059 739.621L464.86 739.62C461.969 740.093 458.369 740.279 455.013 739.934C453.028 739.729 452.262 739.714 450.497 738.98C447.377 737.683 448.621 738.163 447.532 736.816L445.569 737.38C431.234 736.25 415.671 736.816 401.186 736.932C385.581 737.059 378.967 742.32 362.965 735.504C349.739 732.288 314.185 730.938 299.124 731.598C273.407 732.725 272.846 735.5 236.051 735.911C224.108 736.044 214.724 734.741 203.866 734.272C192.918 733.801 181.248 734.173 170.239 734.222C159.86 734.267 147.548 733.897 138.579 734.076L113.734 734.996C112.167 734.939 111.419 734.966 109.854 734.608L105.687 732.786L74.885 733.434C58.5986 733.874 34.5669 746.92 11.7037 745.225C11.898 739.38 15.3317 735.962 16.3968 730.072L23.3481 695.678C23.8368 691.797 25.4661 678.593 26.103 677.49C28.2112 645.274 29.0888 644.676 28.1923 609.631L28.2044 558.725C28.7029 554.765 29.175 547.051 31.2057 544.083L36.1841 502.151C38.894 485.325 41.9857 465.337 41.8209 448.422L40.8288 405.388C40.6791 396.327 40.5415 394.78 43.2534 394.149C41.8568 383.585 42.7378 364.49 42.878 353.036C42.9759 345.013 41.7147 340.799 41.0865 334.17C40.5022 328.011 40.9437 321.171 40.6349 314.835L41.294 255.085C36.9763 250.665 37.6457 241.598 36.9325 232.075L33.9776 209.302L34.5786 209.285C31.1849 205.821 34.3877 210.679 32.7969 206.284C32.0089 204.106 32.3653 204.828 32.0561 202.61L29.915 182.433C26.4201 179.009 26.1007 147.526 25.7526 138.855C22.9819 129.45 26.6639 115.685 28.1863 104.747C28.839 100.058 30.6131 93.6961 31.5996 89.3492C33.0524 82.9448 33.1881 79.0893 36.5772 75.2607C36.4748 70.5083 38.3668 64.9312 39.7777 62.3702C40.5737 55.7262 42.6176 51.7807 43.2862 45.1204C44.0951 37.0678 43.4896 34.9887 48.5141 30.8879C63.543 22.709 85.2496 36.8471 101.712 30.6237C112.411 26.5792 128.693 28.4637 143.395 27.924C144.918 27.868 150.267 27.6783 151.482 27.8446C157.405 28.6587 153.771 27.2221 156.464 29.9192C161.881 30.115 168.416 32.9644 173.297 33.7838C180.445 34.9841 186.037 32.6438 192.731 35.0408L196.049 35.4747C203.352 35.5873 221.206 36.3674 227.298 35.0627C237.4 32.8986 275.096 32.1877 285.21 33.7947C295.025 35.3538 305.318 35.1814 315.288 34.3832C315.521 34.2388 345.695 30.618 348.269 30.4967C350.511 28.6742 367.267 26.2655 371.286 26.9742C374.049 22.7921 383.023 24.1679 387.767 24.4517C389.41 23.0461 386.435 23.3417 392.329 22.1647L479.2 22.9293C495.152 21.9198 508.629 21.5003 524.888 21.3344C533.742 21.244 536.637 18.7885 546.258 18.7511C556.338 18.7106 559.677 19.1789 569.135 16.87C572.055 13.7009 593.203 7.90079 598.208 12.3353C601.762 16.712 600.085 32.5962 599.33 39.2433C605.433 46.4486 598.505 67.5187 597.132 75.4976ZM6.31527 757.986C12.6713 751.745 20.1313 758.391 41.0431 751.731C48.5254 749.348 50.103 749.897 58.2048 748.362C63.1552 747.424 69.004 744.253 74.0788 743.184C86.3581 740.598 102.112 744.336 113.804 744.421L195.766 744.151C208.522 743.805 221.798 746.019 236.051 745.738C247.673 745.508 266.555 746.613 276.561 744.349C306.29 737.623 317.231 742.604 334.052 743.23C340.35 743.464 347.788 742.222 353.666 743.565C368.707 747.001 367.138 750.205 389.225 748.609C396.985 748.048 397.061 746.356 406.587 746.513C422.279 746.772 434.318 744.641 446.443 748.684C460.748 753.455 488.384 745.39 501.631 743.525C525.585 740.153 561.853 744.778 577.544 736.283C593.956 727.397 598.34 733.7 612.482 729.527C615.086 722.578 613.902 719.06 618.246 711.234C628.169 693.361 612.15 672.21 609.425 653.773C608.154 645.165 609.318 640.907 606.424 632.649C604.027 625.812 602.406 620.441 605.034 611.911C610.464 594.289 605.895 584.231 608.168 566.906C615.404 511.758 609.584 518.959 609.489 476.619L602.767 410.874C602.508 393.471 598.646 370.415 598.723 365.196L604.166 249.474C605.406 240.641 604.006 168.056 604.135 151.528C604.261 135.283 605.814 121.257 605.723 104.509C605.54 71.0178 606.249 85.6566 610.771 61.1154C612.054 54.1524 609.414 22.6746 609.283 11.8205L609.575 2.84643C583.727 -3.83388 564.066 10.2974 551.763 10.531C544.026 10.6772 537.036 9.83742 529.835 11.3984C505.919 16.5824 400.606 8.6567 359.069 18.1403C349.406 20.3464 330.407 23.836 320.662 23.906C312.665 23.9634 307.402 26.1945 299.139 25.9004C291.261 25.62 286.928 24.0757 277.698 24.0681C263.24 24.0564 247.734 23.9876 233.281 24.3939C225.203 24.6214 222.85 26.6265 213.243 26.6915L172.326 23.37C165.631 21.7308 161.407 19.1309 154.218 19.0103C139.223 18.759 123.367 18.9329 108.431 19.2715C99.6496 19.4707 97.8932 22.8957 90.9963 23.0295C83.0004 23.1837 42.9132 10.8356 36.0318 30.6883C35.6331 31.8381 32.1158 54.2068 27.9871 66.8225C24.3429 77.9562 19.7659 92.0614 18.931 103.192C17.7207 119.316 12.3875 122.348 16.1606 141.461C17.3375 147.421 15.8703 165.435 19.6547 184.219C25.7375 214.413 35.7415 273.577 30.4971 304.938C29.2933 312.135 37.6264 368.255 33.3846 389.361C31.9193 396.65 31.544 440.7 32.2897 452.134C32.9209 461.811 31.558 461.992 30.8932 471.221C29.974 483.984 27.6465 499.646 25.3973 511.697C23.0125 524.473 22.7513 538.005 20.3339 551.184C17.7483 565.283 18.9945 579.857 18.7163 594.853C17.9086 638.417 21.4254 633.173 15.337 682.069C12.5466 704.479 8.81165 710.597 8.00623 718.467C6.86821 729.587 7.45139 727.79 3.13102 736.579C1.0073 740.9 0.382544 752.657 1.47747 756.763L6.31527 757.986Z" fill="#0B0403" stroke="#0B0403" stroke-width="0.755906" stroke-miterlimit="22.9256"/>
</svg>
