<?xml version="1.0" encoding="UTF-8"?>
<!DOCTYPE svg PUBLIC "-//W3C//DTD SVG 1.1//EN" "http://www.w3.org/Graphics/SVG/1.1/DTD/svg11.dtd">
<!-- Creator: CorelDRAW 2021 (64 Bit) -->
<svg xmlns="http://www.w3.org/2000/svg" xml:space="preserve" width="168mm" height="205mm" version="1.1" shape-rendering="geometricPrecision" text-rendering="geometricPrecision" image-rendering="optimizeQuality" fill-rule="evenodd" clip-rule="evenodd"
viewBox="0 0 16800 20500"
 xmlns:xlink="http://www.w3.org/1999/xlink"
 xmlns:xodm="http://www.corel.com/coreldraw/odm/2003">
 <g id="Camada_x0020_1">
  <metadata id="CorelCorpID_0Corel-Layer"/>
  <g id="_2792759732640">
   <path fill="#E4C198" stroke="#E4C198" stroke-width="250" stroke-miterlimit="22.9256" d="M15368.21 19418.57c142.42,10.34 245.31,-67.99 384.76,-71.81 103.92,-2.86 214.67,12.53 322.65,-19.14 74.2,-21.76 63.89,-19.05 76.37,-41.19 8.99,-6.99 1.35,4.55 9.99,-11.52 9.14,-17 2.41,-1.23 8.36,-23.18 3.57,-13.21 9.26,-38.69 13.22,-52.15 9.59,-32.44 16.75,-63.29 26.37,-95.71 8.99,-30.28 15.66,-62.55 25.1,-96.96 7.86,-28.56 21.89,-61.01 22.76,-98.97 21.86,-2.21 22.22,-4.18 40.68,-8.49 14.61,-30.45 21.96,-77.96 24.41,-129.96l0 -87.83c-2.24,-53.88 -8.18,-105.28 -15.37,-141.17 -22.85,-114.1 -59.82,-211.65 -98.55,-308.34 -62.7,-156.49 -181.48,-438.65 -195.31,-611.05l-11.55 -214.93c-0.43,-1.56 -1.85,-4.26 -2.25,-5.46 -0.39,-1.17 -1.36,-3.62 -2.48,-5.17 0,-51.01 3.97,-111.25 -6.82,-149.38 -89.07,-314.93 -168.69,-609.11 -67.48,-935.59 63.9,-206.13 74.3,-320.78 74.3,-552.3 0,-211.76 -8.13,-400.84 -8.13,-616.23l-1.96 -108.03c48.48,-28.09 40.37,-70.57 48.64,-132.4 10.32,-77.21 -12.97,-102.96 -14.14,-164.26 20.63,-21.76 25.35,-16.07 35.02,-50.78 14.66,-52.66 13.74,-550.29 13.82,-612.83 0.09,-68.9 -8.58,-109.86 -8.33,-170.7 0.76,-186.53 2.73,-337.19 -17.55,-519.55 -24.35,-219.09 -20.04,-305.06 -22.63,-514.46l-74.01 -731.69c-9.88,-35.71 -9.87,-46.44 -32.1,-52.21 34.65,-193.75 23.45,-118.78 24.46,-314.44 0.32,-60.23 -6.01,-107.62 -15.41,-155.48 -6.42,-32.74 -20.95,-109.34 -49.75,-114.42 0,-59.21 -0.12,-118.42 0.01,-177.63 0.16,-66.65 -8.77,-103.16 -8.31,-162.58l-21.96 -327.96c-25.22,-193.79 -24.11,-331.36 -67.98,-542.38 -5.01,-24.09 -13.42,-47.14 -15.68,-72.69 0,-52.44 -8.55,-68.85 -8.33,-123 1.6,-390.87 -11.93,-845.01 8.36,-1220.82 4.84,-89.54 -4.91,-187.23 -0.07,-276.77 2.36,-43.74 8.31,-74.34 8.19,-130.15l8.07 -268.61c-0.31,-57.46 8.19,-82.64 8.19,-132.14 0,-30.53 -1.65,-65.78 -0.04,-95.7 1.99,-36.89 8.45,-44.45 8.45,-89.21 0.02,-73.95 7.86,-115.69 7.86,-184.87 65.98,-162.46 75.64,-728.33 41.43,-808.22 73.72,-91.69 64.37,-565.67 64.37,-756.81 0,-119.98 11.93,-300.38 -4.7,-410.32l-19.72 -1013.8c0.23,-187.29 -24.03,-408.06 -1.19,-611.52 7.05,-62.7 -4.66,-138.37 2.39,-201.06 5.64,-50.29 15.08,-141.65 15.08,-195.77l-8.14 -9.02c19.2,-81.66 58.21,-94.49 57.02,-325.3 -0.35,-67.78 -0.66,-123.79 -7.01,-180.28 -6.93,-61.79 0.6,-132.04 -7.1,-188.2l-2.55 -282.93c0.55,-43.87 7.51,-47.95 8.73,-88.92 2.11,-70.34 -0.09,-127.88 6.69,-188.63l9.32 -186.13c18.1,-77.02 36.43,-152.61 53.53,-231.14 18.05,-82.86 33.2,-150.54 47.62,-237.21 26.43,-158.85 49.23,-360.81 -42.27,-491.76 18.2,-52.77 20.14,-267.45 25.94,-305.8 13.31,-88 2.84,-319.06 -45.5,-392.68 -88.77,-135.24 -625.7,-7.01 -784.63,104.42 -59.68,23.14 -190.5,39.5 -264.95,47.65 -85.5,9.35 -225.06,1.38 -316.21,1.17 -165.9,-0.38 -271.67,30 -417.32,54.68 -146.91,24.89 -304.79,18.57 -453.41,18.57 -112.37,0 -195.56,8.53 -309.26,8.11l-602.6 32.15c-45.85,3.79 -106.7,0.37 -154.19,0.43 -60.36,0.08 -97.89,-6.96 -146.21,-8.41 -219.81,-6.57 -554.04,-0.26 -789.65,0.28 -63.88,0.14 -99.36,-8.35 -154.32,-8.43l-781.54 0.31c-64.49,0.24 -95.65,-8.6 -154.4,-8.36 -49.37,0.21 -112.77,-1.11 -149.06,5.94 -76.04,14.81 -67.48,7.1 -103.41,58.93 -151.5,-9.28 -358.89,-48.28 -431.3,66.28 -183.01,-6.52 -380.99,19.13 -551.86,65.88 -23.69,6.48 -42.12,16.98 -64.81,22.89 -23.61,10.04 -177.06,21.14 -220.07,25.85l-652.48 79.93 -191.86 11.58c-129.74,19.63 -463.58,-6.59 -584.83,-24.25 -146.33,-21.3 -153.16,-20.25 -289.55,-19.69 -47.24,0.2 -59.62,-6.32 -97.42,-8.36l-309.55 -0.24c-47.07,0.07 -55.45,7.44 -97.12,8.68 -64.74,1.94 -140.19,-5.06 -203.27,0.16 -50.31,4.16 -138.11,4.44 -191.04,12.42 -62.16,9.35 -126.29,5.86 -189.62,13.82 -275.12,34.57 -252.41,44.81 -580.14,46.68 -68.3,0.4 -118.86,-8.26 -195.19,-8.24 -69.44,0.02 -138.86,0 -208.29,0 -30.56,-5.96 -82.95,-16.61 -117.23,-15.77 -50.74,-37.37 -165.75,-28.6 -227.77,-24.94 -330.88,19.57 -348.44,-43.06 -592.05,-91.6l-124.16 -17.87c-17.17,-18.07 -17.62,-15.96 -24.41,-45.13l-187.18 -8.14c-289.16,0.01 -888.47,-18.21 -1131.26,40.58 -56.1,13.58 -95.09,30.04 -149.71,45.6 -394.34,112.3 -842.74,-144.35 -1216.93,-61.37 -37.36,8.28 -119.93,36.61 -146.88,54.1 -144.82,125.44 -113.18,166.55 -140.57,390.86 -8.48,69.5 -24.14,149.77 -43.72,216.69 -17.72,60.57 -43.57,150.02 -43.57,221.46 -43.9,66.35 -94.96,240.84 -88.26,353.44 -78.83,48.01 -108.98,257.03 -133.42,372.38 -29.03,136.89 -67.15,257.77 -90.99,413.55 -39.26,256.42 -134.19,619.95 -61.66,896.71 0,170.94 23.69,739.5 45.22,892.51 13.81,98.1 22.63,186.53 60.56,256.46 13.14,28.04 47.08,448.96 61.39,549.29l34.41 128.28c11.35,22.39 11.32,4.74 18.14,31.72l74.61 624.27c21.54,200.98 -0.53,472.85 112.55,582.93 0,134.37 0,268.75 0,403.12 0,140.29 -8.14,256.58 -8.14,390.62 0,132.92 0,265.83 0,398.75 0,143.16 -8.13,258.03 -8.13,401.91 0,50.08 8.55,65.45 8.33,118.72 -0.53,130.4 -2.26,285.34 8.16,406.86 10.58,123.18 61.4,381.04 44.02,491.81l-11.68 533.77c0,91.74 3.37,487.86 24.41,527.65l-0.2 9.45c-92.82,21.87 -64.91,152.49 -64.91,317.37 0,513.57 57.09,1195.89 -5.8,1686.85l-116.26 849.16 -130.56 1117.86c-103.79,78.34 -81.02,734.17 -81.02,838.2 0,306.52 0,613.04 0,919.57l8.14 675.43 -65.11 1090.3c-34.87,151.15 -45.53,315.14 -71.98,473.42 -25.95,155.31 -61.07,302.75 -91.53,453.69 -40.59,201.05 -77.79,481.2 -159.28,654.52 -23.78,50.59 -59.69,148.44 -59.69,216.99l210.54 0c64.25,-2.01 119.41,-9.18 254.49,-31.37 386.5,-63.51 738.37,-218.95 1101.85,-273.44 44.58,-6.68 76.34,-1.83 114.88,-12.56l304.15 0.28c47.06,-0.07 55.44,-7.44 97.11,-8.68l309.54 0.3c42.43,-2.34 45.46,-11.61 97.61,-5.87 162.85,82.71 283.96,56.64 471.95,46.49l659.39 -16.43c49.87,-0.21 62.93,7.32 105.34,8.59 149.89,4.48 765.32,2.83 895.85,-7.98 60.41,-4.99 577.48,9.03 654.03,20.55l645.18 33.95c78.04,-11 234.24,-4.61 328.24,-5.77 46.2,-0.57 56.3,-8.69 105.19,-8.74 289.08,-0.33 542.5,-42.24 823.57,-71.6l426.49 -29.22c109.82,-16.62 319.84,-4.43 442.9,-4.71l439.69 16.03c58.03,1.72 145.65,13.72 203.24,16.47 169.24,8.06 349.18,28.82 513.8,55.85 33.31,5.47 64.09,14.51 92.78,17.46 52.71,28.2 157.68,61.25 222.56,74.08 86.35,17.09 170.88,17.04 277.87,15.76 127.28,-1.54 283.18,-49.16 536.76,-49.16 127.28,0 772.79,-19.01 867.31,-4.7l276.66 12.84c9.47,-0.67 31.36,-5.71 31.62,-5.73 59.05,-5.05 15.17,52.47 190.76,71.64 48.92,5.33 87.72,7.15 147.3,7.35 61.45,0.21 91.79,-8.16 145.55,-8.16 32.51,0 41.68,4.89 62.96,-8.14 81.89,0 265.27,-34.75 348.09,-53.71 119.82,-27.43 196.4,-61.33 326.8,-80.1 515.56,-74.22 638.61,-54.74 1159.5,-61.17l194.98 -8.46c223.25,0.14 584.87,-22.28 778.22,-133.2 39.3,-22.55 30.26,-23.14 41.14,-63.81z"/>
   <path fill="#0B0403" stroke="#0B0403" stroke-width="20" stroke-miterlimit="22.9256" d="M15957.87 2209.21c-19.75,227.32 -27.35,502.87 -22.54,732.04 4.31,206.05 45.1,595.32 -56.21,717.13l21.02 -6.06c-44.33,496.79 -12.54,1125.77 -7.76,1634.86 1.65,175.65 60.4,1418.45 -46.88,1563.66 30.61,196.56 13.49,690.6 -43.6,801.82l-18.39 371.62c-31.93,724.92 -39.75,1416.2 -25.45,2154.92 67.41,190.5 126.93,1019.05 117.04,1268.14 82.18,100.71 81.41,441.39 42.35,588.13 27,39.69 8.38,-15.8 35.79,81.96l52.59 547.22c31.79,228.87 5.77,448.58 37.51,674.96 30.02,214.17 17.25,468.39 25.3,691.49l-2.64 534.45c-19.55,135.71 8.94,60.9 -46.15,136.33 13.93,81.03 24.19,86.29 12.19,181.65 -15.41,122.58 -1.66,54.58 -42.38,115.19l1.66 98.89c-13.49,331.86 45.2,843.4 -51.43,1118.18 -127.27,362.01 -42.2,657.07 53.11,1001.45l21.6 368.13c64.89,449.89 334.41,746.6 307.82,1141.11 -10.01,148.59 -27.57,133.59 -59.32,138.84l-104.81 385.94c-140.28,78.2 -234.87,37.85 -406.13,52.78 -165.82,14.46 -218.04,70.26 -379.83,74.8 -38.12,62.4 46.05,9.39 -92.66,86.53 -241.14,134.12 -1088.91,111.04 -1343.1,112.05 -282.99,1.11 -459.53,31.2 -746.39,65.41 -178.68,21.31 -193.1,79.65 -673.82,137.98l-58.19 -0.03c-76.48,12.52 -171.73,17.44 -260.52,8.3 -52.53,-5.41 -72.8,-5.81 -119.49,-25.23 -82.56,-34.33 -49.64,-21.62 -78.46,-57.25l-51.92 14.92c-379.3,-29.9 -791.06,-14.94 -1174.31,-11.85 -412.87,3.35 -587.88,142.55 -1011.27,-37.79 -349.94,-85.08 -1290.63,-120.82 -1689.12,-103.36 -680.42,29.82 -695.28,103.26 -1668.8,114.12 -316.01,3.52 -564.28,-30.96 -851.57,-43.35 -289.65,-12.47 -598.42,-2.62 -889.71,-1.34 -274.62,1.21 -600.36,-8.59 -837.68,-3.86l-657.36 24.35c-41.45,-1.52 -61.24,-0.79 -102.66,-10.28l-110.25 -48.2 -814.96 17.16c-430.91,11.64 -1066.75,356.8 -1671.67,311.97 5.14,-154.65 95.99,-245.09 124.17,-400.93l183.92 -910.02c12.93,-102.67 56.04,-452.02 72.89,-481.22 55.78,-852.39 79,-868.19 55.28,-1795.43l0.32 -1346.9c13.19,-104.77 25.68,-308.86 79.41,-387.39l131.72 -1109.44c71.7,-445.19 153.5,-974.04 149.14,-1421.6l-26.25 -1138.59c-3.96,-239.75 -7.6,-280.68 64.15,-297.37 -36.95,-279.5 -13.64,-784.73 -9.93,-1087.78 2.59,-212.28 -30.78,-323.79 -47.4,-499.17 -15.46,-162.96 -3.78,-343.92 -11.95,-511.57l17.44 -1580.88c-114.24,-116.96 -96.53,-356.85 -115.4,-608.81l-78.18 -602.55 15.9 -0.43c-89.79,-91.65 -5.05,36.87 -47.14,-79.41 -20.85,-57.64 -11.42,-38.52 -19.6,-97.2l-56.65 -533.85c-92.47,-90.6 -100.92,-923.6 -110.13,-1153.02 -73.31,-248.84 24.11,-613.04 64.39,-902.42 17.27,-124.08 64.21,-292.4 90.31,-407.41 38.44,-169.45 42.03,-271.46 131.7,-372.76 -2.71,-125.74 47.35,-273.3 84.68,-341.06 21.06,-175.79 75.14,-280.18 92.83,-456.4 21.4,-213.06 5.38,-268.07 138.32,-376.57 397.64,-216.4 971.96,157.67 1407.52,-6.99 283.08,-107.01 713.89,-57.15 1102.86,-71.43 40.3,-1.48 181.84,-6.5 213.97,-2.1 156.72,21.54 60.57,-16.47 131.82,54.89 143.34,5.18 316.23,80.57 445.38,102.25 189.12,31.76 337.07,-30.16 514.19,33.26l87.78 11.48c193.24,2.98 665.63,23.62 826.8,-10.9 267.3,-57.26 1264.65,-76.07 1532.26,-33.55 259.68,41.25 532.02,36.69 795.81,15.57 6.17,-3.82 804.52,-99.62 872.63,-102.83 59.32,-48.22 502.66,-111.95 608.99,-93.2 73.11,-110.65 310.54,-74.25 436.06,-66.74 43.47,-37.19 -35.24,-29.37 120.69,-60.51l2298.47 20.23c422.07,-26.71 778.65,-37.81 1208.82,-42.2 234.27,-2.39 310.88,-67.36 565.43,-68.35 266.7,-1.07 355.03,11.32 605.29,-49.77 77.26,-83.85 636.78,-237.31 769.21,-119.98 94.03,115.8 49.67,536.07 29.7,711.94 161.47,190.64 -21.85,748.12 -58.17,959.23zm-15632.02 18057.5c168.17,-165.13 365.55,10.73 918.84,-165.49 197.97,-63.05 239.71,-48.52 454.07,-89.14 130.98,-24.81 285.73,-108.72 420,-136.99 324.89,-68.43 741.71,30.46 1051.06,32.72l2168.57 -7.15c337.51,-9.16 688.78,49.42 1065.89,41.98 307.5,-6.08 807.07,23.15 1071.81,-36.75 786.59,-177.96 1076.08,-46.16 1521.14,-29.6 166.63,6.21 363.43,-26.66 518.95,8.87 397.95,90.91 356.44,175.69 940.83,133.45 205.3,-14.84 207.31,-59.62 459.35,-55.46 415.19,6.87 733.72,-49.52 1054.53,57.45 378.5,126.22 1109.69,-87.15 1460.18,-136.49 633.79,-89.23 1593.39,33.15 2008.53,-191.62 434.25,-235.11 550.25,-68.35 924.41,-178.76 68.89,-183.84 37.56,-276.94 152.5,-483.99 262.55,-472.9 -161.29,-1032.52 -233.37,-1520.34 -33.63,-227.73 -2.84,-340.41 -79.42,-558.89 -63.41,-180.89 -106.3,-323.02 -36.76,-548.7 143.65,-466.25 22.77,-732.36 82.92,-1190.75 191.43,-1459.12 37.46,-1268.6 34.94,-2388.85l-177.86 -1739.49c-6.85,-460.47 -109.02,-1070.5 -107,-1208.57l144.02 -3061.82c32.8,-233.69 -4.23,-2154.17 -0.82,-2591.49 3.35,-429.82 44.42,-800.92 42.01,-1244.03 -4.82,-886.13 13.93,-498.81 133.57,-1148.13 33.94,-184.23 -35.89,-1017.08 -39.37,-1304.26l7.72 -237.44c-683.89,-176.75 -1204.09,197.14 -1529.6,203.32 -204.72,3.87 -389.65,-18.35 -580.19,22.95 -632.77,137.16 -3419.18,-72.54 -4518.17,178.38 -255.66,58.37 -758.36,150.7 -1016.19,152.55 -211.58,1.52 -350.83,60.55 -569.47,52.77 -208.44,-7.42 -323.07,-48.28 -567.28,-48.48 -382.53,-0.31 -792.8,-2.13 -1175.2,8.62 -213.74,6.02 -276,59.07 -530.17,60.79l-1082.61 -87.88c-177.12,-43.37 -288.9,-112.16 -479.1,-115.35 -396.74,-6.65 -816.27,-2.05 -1211.44,6.91 -232.35,5.27 -278.82,95.89 -461.3,99.43 -211.56,4.08 -1272.2,-322.63 -1454.27,202.64 -10.55,30.42 -103.61,622.26 -212.85,956.05 -96.42,294.58 -217.52,667.78 -239.61,962.28 -32.02,426.62 -173.13,506.83 -73.3,1012.54 31.14,157.67 -7.68,634.3 92.45,1131.3 160.94,798.87 425.63,2364.27 286.87,3194.03 -31.85,190.4 188.63,1675.24 76.4,2233.69 -38.77,192.86 -48.7,1358.33 -28.97,1660.85 16.7,256.06 -19.36,260.85 -36.95,505.01 -24.32,337.7 -85.9,752.1 -145.41,1070.93 -63.1,338.05 -70.01,696.07 -133.97,1044.76 -68.41,373.04 -35.44,758.65 -42.8,1155.43 -21.37,1152.63 71.68,1013.87 -89.41,2307.59 -73.83,592.93 -172.65,754.8 -193.96,963.03 -30.11,294.21 -14.68,246.67 -128.99,479.2 -56.19,114.33 -72.72,425.39 -43.75,534.04l128 32.35z"/>
   <path fill="#0B0403" stroke="#0B0403" stroke-width="20" stroke-miterlimit="22.9256" d="M6526.56 12287.45c-98.23,66.8 -172.01,85.93 -294.59,177.18 -63.14,46.99 -190.63,168.71 -278.5,188.71 -46.94,67.01 -123.42,161 -162.6,195.49l13.53 299.92c185.64,53.57 151.02,67.99 401.98,35.19l15.48 -7.44c11.52,-20.4 -0.94,-9.42 36.25,-48.86 0.47,-0.5 50.39,-45.68 52.77,-47.42 84.48,-61.54 35.18,-31.97 129.33,-69.96 14.32,-22.55 5.84,-14.75 39.97,-50.59 6.1,-6.41 26.46,-25.66 33.82,-32.25 238.96,-213.65 568.82,-268.75 856.89,-119.27 394.54,204.7 181.47,713.24 -34.29,817.03 -72.14,136.43 -26.28,59.19 -152.96,145.64 -89.53,61.1 -66.49,68.11 -182.55,121.16 -52.61,75.17 -87.82,105.05 -197.25,126.48 -33.13,43.76 -13.46,22.32 -54.83,60.85 -0.5,0.46 -57.85,46.6 -61.34,49.03 -37.13,25.82 -65.99,42.66 -121.58,69.56 -60.3,65.51 -316.72,268.4 -390.42,268.21 -37.14,71.9 -204.8,302.45 -243.94,337.52 -54.39,178.19 -109.77,240.51 -126.17,443.46 -9.06,111.96 -14.1,430.34 -0.77,535.46 43.11,339.75 537.56,262.8 828.03,218.05 213.99,-23.1 498.52,-29.87 712.31,-45.29 316.74,-22.85 478.79,72.56 759.92,47.91l126.91 -140.13c-1.88,-243.18 -35.28,-315.07 -255.42,-375.52 -311.55,-106.32 -1070.41,-73.91 -1402.05,-7 -684.95,138.2 -85.55,-604.53 114.25,-743.48 83.91,-58.36 704.59,-410.76 771.52,-431.81 42.62,-70.59 326.94,-297.03 418.59,-405.84 192.02,-228.01 177.13,-299.83 270.94,-549.97 34.34,-618.15 13.17,-418.04 -176.9,-851.47 -92.86,18.49 -28.92,28.92 -63.27,-57.92 -82.65,-6.33 -84.3,-23.39 -117.64,-72.24 -526.85,-175.06 -667.81,-222.33 -1265.42,-80.39z"/>
   <path fill="#0B0403" stroke="#0B0403" stroke-width="20" stroke-miterlimit="22.9256" d="M9202.03 12569.54l-11.12 12.72c-43.28,61.09 -7.33,60.51 -103.4,89.77 -58.45,118.09 -190.57,217.11 -109.11,431.49 262.65,154.6 493.2,-214.03 730.61,-275.58 191.56,-287.93 941.77,-186.53 1024.81,116.78 113.8,107.11 95.05,301.23 37.11,403.24 -47.28,83.25 -176.84,232.24 -256.92,251.25 -74.05,136.52 -230.26,217.57 -380.01,315.71 -134.54,88.17 -262.7,204.18 -409.16,268.34 -27.23,66.62 -114.8,108.75 -168.46,147.88 -87.84,64.03 -130.93,114.54 -204.67,126.06 -61.93,122.3 -38.13,103.47 -152.24,167.34 -15.87,50.7 -21.9,78.88 -59.59,143.63 -9.44,16.23 -31.78,48.27 -45.49,65.37 -34.63,43.13 -22.62,28.51 -59.34,59.34l-39.88 213.03c-121.47,907.73 -36.27,937.06 835.93,872l1443.38 -60.93 73.34 -16.73c0,-67.84 -22.2,-68.2 31.76,-44.69 40.41,-192.69 38.3,-142.27 -18.79,-306.97 -79.43,-22.78 -35.4,25.72 -82.17,-61.97 -193.32,-36.01 -221.14,-92.26 -450.41,-93.44 -175.5,-0.91 -357.89,5.78 -534.79,7.1l-755.67 66.51c-16.59,-146.31 -23.83,-168.66 50.08,-293.81l39.11 -45.47c-4.19,-206.4 268.27,-428.03 429.92,-461.8 55.99,-85.45 -23.94,-45.28 106.62,-71.56 60.92,-85.34 100.41,-107.04 204.18,-148.57l104.74 -84.54c65.73,-43.52 90.08,-55.59 150.52,-99.47l288.12 -198.77 49.79 -69.9c3.91,-4.57 11.63,-12.26 15.79,-16.89 436.88,-483.61 542.17,-1213.01 34.98,-1577.36 -853.7,-613.24 -1753.19,158.78 -1809.57,170.89z"/>
   <path fill="#0B0403" stroke="#0B0403" stroke-width="20" stroke-miterlimit="22.9256" d="M8389.26 7641.56c-70.85,99.4 -250.97,215.82 -351.07,353.92 -44.81,266.23 -32.77,312.3 229.31,288.33 57.88,-42.98 92.25,-35.35 163.84,-86.95 53.9,-38.84 74.39,-77.08 158.18,-129.46 276.39,-172.79 564.01,-233.3 837.99,-61.46 67.86,42.58 116.52,74 141.82,148.77 70.93,209.63 -37.48,229.86 -37.77,230.15 -4.23,195.89 -329.05,521.31 -489.52,552.2 -56.88,82.59 -39.76,84.97 -149.66,103.93 -58.72,82.53 -46.09,73.43 -154.04,140.09 -28.66,17.7 -61.07,35.62 -89.86,49.12 -100.52,47.21 -22.01,16.33 -89.07,32.91l-409.32 416.33 -38.98 149.87c-101.45,303.05 -222.94,912.1 191.92,970.82 339.81,45.18 1038.44,-128.36 1386.27,-29.64l390.55 -13.39c-32.85,-226.87 242.03,-319.47 -284.29,-480.03l-1292.56 35.89 50.64 -195.47c49.34,-212.37 182.74,-341.18 319.9,-449.48 115.99,-91.59 330.54,-249.47 475.87,-295.14l282.51 -214.14c17.36,-36.02 -18.98,-0.02 33.99,-45.84 2.15,-1.88 17.44,1.13 19.21,-6.96 1.89,-8.65 14.29,-2.8 21.37,-4.42 65,-103.28 124.95,-152.51 193.36,-255.94 51.41,-77.73 39.84,-73.39 73.7,-136.23 35.6,-66.09 -1.89,-3.77 43.58,-72.56l38.13 -45.92 16.53 -167.64c7.7,-244.7 34.17,-412.16 -93.79,-607.86l-94.47 -146.65c-75.5,-8.18 -2.59,14.5 -84.97,-29.79 -33.51,-18.01 -46.6,-32.58 -82.56,-58.14 -80.71,-57.36 -85.76,-63.79 -168.4,-96.23 -186.53,-72.85 -452.76,-96.94 -673.65,-57.29 -180.07,32.33 -319.5,161.06 -484.69,214.3z"/>
   <path fill="#0B0403" stroke="#0B0403" stroke-width="20" stroke-miterlimit="22.9256" d="M8566.8 3801.95c497.03,19.36 867.18,-685.04 1395.39,-273.35 406.61,316.91 -320.8,982.28 -596.71,1037.41 0,59.17 15.27,51.53 -38.83,32.45 -67.12,93.97 -263.21,227.94 -368.54,273.47 -22.32,72.55 -12.75,48.13 -78.78,86.61 -60.13,111.77 -120.51,120.03 -192.33,256.43 -58.55,111.18 -97.25,242.19 -123.96,309.27 -37.61,274.28 -32.72,404.02 -1.24,678.99 11.5,13.03 103.93,101.43 114.67,110.93 348.69,34.88 666.84,-7.65 1011.97,-26.27 139.33,-7.52 352.27,-12.75 492.17,-35.54 224.92,-36.63 272.24,-29.57 413.19,-135.79 -26.35,-220.21 -17.25,-234.17 -227.91,-291.25 -344.39,-93.32 -997.05,40.98 -1340.14,26.64 -45.36,-330.19 314.82,-739.57 527.96,-769.91 95.81,-119.33 130.84,-89.95 250.45,-166.75 100.07,-64.28 103.51,-97.7 225.95,-150.35 3.68,-6.05 10.38,-14.1 12.86,-16.92l214.03 -199.94c75.11,-78.65 144.66,-172.02 196.04,-265.93 116.25,-212.53 144.24,-499.75 112.11,-799.25l-41.3 -143.88c-102.9,-76.09 -75.34,-107.94 -234.21,-209.99 -581.54,-373.53 -1051.23,-213.41 -1538.01,163.19 -181.1,140.1 -282.34,238.2 -184.83,509.73z"/>
   <path fill="#0B0403" stroke="#0B0403" stroke-width="20" stroke-miterlimit="22.9256" d="M4591.87 11236.5c14.78,88.09 23.69,36.06 -55.34,74.5l35.54 243.18c348.69,43.18 5441.9,-29.04 6325.34,-27.22 515.71,1.04 1618.42,-76.71 2064.68,-1.05 36.61,-157.69 53.53,-172.93 5.72,-338.12 -242.74,-91.78 -1583.94,-36.21 -1963.83,-32.15 -500.02,5.33 -1554.3,66.88 -1988.24,-7.08l-534.85 34.1c-189.42,0.72 -379.25,2.28 -568.59,1.58 -641.5,-2.36 -2986.31,-32.79 -3320.43,52.26z"/>
   <path fill="#0B0403" stroke="#0B0403" stroke-width="20" stroke-miterlimit="22.9256" d="M4988.63 9205.18c-101.57,-20.18 -215.69,5.66 -318.23,14.33 -184.85,15.62 -209.63,-25.28 -347.27,66.83 -87.8,178.24 28.11,267.89 87.05,338.12l569.38 20.34c67.84,227.42 -44.93,473.1 80.78,626.9 221.85,126.57 285.81,-16.25 382.82,-35.73 11.31,-178.95 -10.55,-498.12 38.36,-561.35 103.5,-83.27 267.95,-57.7 407.26,-54.07 150.76,3.94 244.68,-28.11 323.18,-70.96l9.71 -254.5c-281.44,-204 -437.15,-67.52 -775.72,-112.83 -72.39,-229.45 40.42,-400.35 -46.86,-626.75 -509.83,-205.94 -373.79,288.82 -410.46,649.67z"/>
  </g>
 </g>
</svg>
