<?xml version="1.0" encoding="UTF-8"?>
<!DOCTYPE svg PUBLIC "-//W3C//DTD SVG 1.1//EN" "http://www.w3.org/Graphics/SVG/1.1/DTD/svg11.dtd">
<!-- Creator: CorelDRAW 2021 (64 Bit) -->
<svg xmlns="http://www.w3.org/2000/svg" xml:space="preserve" width="285mm" height="253mm" version="1.1" shape-rendering="geometricPrecision" text-rendering="geometricPrecision" image-rendering="optimizeQuality" fill-rule="evenodd" clip-rule="evenodd"
viewBox="0 0 28500 25300"
 xmlns:xlink="http://www.w3.org/1999/xlink"
 xmlns:xodm="http://www.corel.com/coreldraw/odm/2003">
 <defs>
    <linearGradient id="id0" gradientUnits="userSpaceOnUse" x1="6449.2" y1="17370.36" x2="21734.83" y2="17370.36">
     <stop offset="0" stop-opacity="1" stop-color="#060931"/>
     <stop offset="0.501961" stop-opacity="1" stop-color="#313B75"/>
     <stop offset="1" stop-opacity="1" stop-color="#3E4F8F"/>
    </linearGradient>
 </defs>
 <g id="Camada_x0020_1">
  <metadata id="CorelCorpID_0Corel-Layer"/>
  <g id="_2793683142336">
   <path fill="#0B0403" d="M22798.93 23442.59c342.47,-28.98 359.81,15.9 652.48,-122.8 163.7,-77.56 292.42,-117.76 396.28,-232.89 194.13,-215.15 247.87,-661.64 163.56,-1004.97 -134.09,-546.11 141.44,-554.37 130.99,-1104.22 -4.56,-239.24 -84.97,-416 12.27,-603.69 102.56,-197.97 200.89,-88.03 257.39,-459.49 122.43,-58.44 174.92,-449.3 297.09,-624.75 358.02,-45.89 180.59,141.17 607.71,163.74 120.24,-223.84 240.09,-573.43 363.63,-846.99 590.97,-1308.73 147.03,-818.42 -532.57,-1253.01 -390.67,-249.8 -305.28,-346.31 -173.09,-792.66l1226.79 -3479.72c220.63,-583.9 494.64,-1095.81 665.54,-1730.53 171.18,-635.89 328.29,-1170.85 526.12,-1815.16 92.02,-299.63 179.65,-589.53 268.18,-879.69 99.32,-325.52 239.22,-1231.73 462.97,-1943.64l301.72 -2025.06c-1.6,-399.88 -46.87,-804.1 -91.72,-1168.7l-212.8 -1159.87c-133.28,-120.64 -84.46,-109.07 -176.59,-274.61 -249.98,-449.23 -528.75,-22.76 -721.68,231.42l-812.76 1152.15c-121.39,174.98 -279.05,457.34 -444.47,548.27l-255.56 504.22c-423.15,675.86 -1188.57,2100.12 -1423.62,2813.35 -277.37,841.64 -212,553.45 -494.14,1214.37 -176.26,412.94 -277.18,847.85 -419.35,1282.8 -76.47,233.89 -155.42,324.16 -233.67,605.81l-1031.97 3153.85c-55.82,225.98 4.2,195.01 -158.02,274.12 -91.52,-151.02 -78.89,-189.79 -77.99,-373.88 10.6,-283.43 -260.88,-1206.36 -397.11,-1487.73 -137.28,-283.5 -305.91,-805.74 -469.22,-962.12 -389.62,-373.05 -478.28,-200.28 -717.37,-295.1 -181.81,-72.12 -42,-108.18 -305.7,-136.48 -727,-78.01 -1451.64,118.48 -1656.55,-338.11 -100.05,-222.93 -166.36,-540.58 -212.66,-790.59 274.09,-233.81 751.07,-1915.11 91.33,-2426.34 -471.92,-365.7 -727.05,-160.37 -842.31,-756.41 -95.02,-491.4 -173.4,-924.94 -277.88,-1399.53 14.13,-148.07 181.94,-85.25 146.79,-471.77l-238.37 -1579.9c-117.49,-485.44 -367.15,-1457.88 -567.64,-1867.15 -286.87,-56.13 -506.18,65.42 -683.71,-115.76 -272.81,-278.38 -434.17,-788.84 -1749.93,-803.07 -3936.56,-42.57 -4597.14,1668.04 -5439.07,2057.53 -298.53,138.1 -638.45,84.58 -478.08,1170.04 93.72,634.45 191.72,267.92 216.99,588.13 -333.11,206.01 -294.41,-23.91 -596.1,391.15 -689.05,12.89 -1345.85,-8.94 -1956.8,656.16 -245.04,266.71 -341.31,386.78 -594.68,733.07 -205.51,280.89 -287.07,608.57 -217.77,1095.91 409,346.01 515.62,84.46 940.85,126.54l171.63 -112.88c79.29,-35.03 138.64,-49.26 251.77,-56.84 7.85,759.44 -485.2,876.82 209.22,1904.27 577.9,45.96 678.68,-297.86 1029.8,-459.52 46.16,-120.62 428.11,-486.96 545.77,-727.69 293.06,-10.25 654.54,-37.9 873.8,69.1 20.36,253.31 263.48,366.85 519.39,439.03 5.05,258.02 0.08,443.83 67.63,674.61 54.84,187.37 138.1,348.08 144.35,581.78 -94.08,54.21 -245.33,122.04 -328.67,188.12 -144.07,1800.51 433.14,967.34 -1669.72,2105.26 -212.49,115 -278.01,191.68 -554.68,344.68l-1170.48 741.16c-270.91,220.25 -159.51,307.82 -563.12,316.26 -920.11,52.38 -1794.66,112.5 -2706,176.93 -592.84,41.91 -2260.3,-27.05 -2619.19,198.29l99.88 2353.89c12.15,244.47 74.38,362.61 102.26,551.04 202.2,1366.71 45.55,2037.06 418.25,3669.17 104.89,459.31 127.08,1151.77 362.27,2035.34 601.65,1896.01 760.56,2556.67 1783.67,3362.09 5597.77,-20.59 10971.8,20.66 16621.14,12.29 18.49,-174.55 199.49,-1441.21 340.37,-1547.4 167.52,-174.76 68.13,-485.19 200.54,-756.31 114.41,-234.23 189.92,-628.61 414.25,-762.12 79.97,128.14 51.37,291.67 57.22,386.53 29.32,474.87 489.97,492.83 805.92,617.28 242.3,95.45 1364.57,392.63 1525,259.4z"/>
   <path fill="#DC0000" d="M8944.04 4698.21c521.45,-1.2 466.82,304.99 852.28,324.57 284.2,14.45 1135.47,-156.56 1439.08,-272.52l1476 -237.66c738.12,-111.27 2246.38,-343.74 3029.45,-332 380.81,5.71 765.75,19.7 1163.04,19.63l-186.93 -967.57c-349.38,-119.46 -539.06,-115.31 -970.98,-66.99 -239.18,26.76 -642.64,181.68 -801.56,87.37 47.88,-459.86 1268.4,-351.22 1699.81,-373.93 53.36,-810.54 -435.04,-303.96 -907.75,-321.62l15.99 -259.54c232.99,-139.04 411.82,-40.86 611.9,-106.12 237.4,-1420.26 -1053.04,-792.17 -1737,-806.77 -877.74,-18.73 -1660.7,142.64 -2448.14,312.81l-1162.1 214.79c-327.71,75.81 -915.17,80.86 -1220.03,179.59 -1320.36,427.64 -1543.2,460.83 -1325.77,1183.52 278.58,85.73 534,28.64 799.27,-8.77 271.48,-38.29 478.58,-153.95 444.82,227.95 -316.51,99.68 -657.49,2.96 -954.1,155.34 -145.47,74.74 -196.24,296.51 -87.29,405 103.77,103.33 233.81,31.4 424.91,58.85l-7.78 229.45c-268.81,89.1 -442.03,-33.16 -388.45,300.25l241.33 54.37z"/>
   <path fill="#E5F6FE" d="M27501.91 2531.05c-691.87,359.54 -1953.38,3047.24 -2389.64,3890.65 -525.22,1015.4 -1554.71,3944.54 -1651.74,4127.86 -103.68,195.88 -63.62,50.21 -129.02,336.21 -170,743.22 -1077.93,2831.49 -1049.42,3123.49 -44.28,55.28 -30.05,25.91 -69.68,117.17l-92.92 387.59c-38.48,160.24 -73.32,322.43 -85.89,475.85 -31.63,385.83 -26.84,789.11 -44.58,1180.42 189.52,102.86 389.73,161.08 643.66,257.46 214.09,81.26 395.84,212.58 562.33,287.53 186.77,84.08 1125.33,398.76 1301.71,368.78 77.29,-126.18 399.66,-1068.69 427.66,-1233.71 125.41,-152.48 156.94,-551.04 236.15,-797.74l1429.6 -3811.54 913.51 -3268.16c43.87,-313.87 171.51,-499.35 260.34,-820.64 72.42,-261.83 126.58,-568.35 194.71,-822.32 145.82,-543.57 218.31,-1276.49 189.5,-1909.82 -50.14,-1101.05 -122.77,-845.15 -325.16,-1697.97 -9.25,-15.73 -18.9,-35.35 -25.31,-48.54 -6.07,-12.45 -16.37,-31.45 -23.43,-46.1l-98.34 -189.75 -174.04 93.28zm-2910.19 9477.36l985.08 -2949.62c110.91,-376.18 255.5,-651.45 355.72,-979.69l1000.04 -2984.71c101.9,-278.6 131.73,-837.32 376.58,-929.8 127.55,214.63 -399.07,1613.19 -512.7,1919.28 -302.01,813.59 -1943.57,5625.86 -1916.7,5857.94 -50.24,61.7 -5.43,-12.52 -74.58,111.56 -6.75,12.12 -46.46,92.41 -54.52,111.25l-520.8 1806.62c-159.3,624.83 -390.26,1409.17 -184.2,1942.33 64.51,166.88 106.58,92.54 8.79,217.03 -304.72,233.43 -329.77,-618.92 -305.69,-879.87 28.6,-309.96 149.68,-771.77 231.24,-1110.11 184.49,-765.3 423.99,-1429.58 611.74,-2132.21z"/>
   <path fill="#FEFCFE" d="M522.21 13605.94c-115.09,990.56 -0.88,2406.5 162.07,3414.54 53.06,328.14 80.6,737.51 115.31,1067.63 364.88,116.11 3491.09,15.33 3773.99,-102.21 94.22,-87.79 48.04,-509.79 40.33,-620.17 -58.71,-840.85 -152.8,-3796.35 -281.58,-4130.06 -349.16,-78.01 -3258.98,147.77 -3810.12,370.27z"/>
   <path fill="#FEFCFE" d="M8896.36 12857.39c-169.95,150.77 -394.66,76.47 -825.62,86.65 43.53,814.05 110.56,1506.98 86.12,2353.91 -11.5,398.57 -38.2,1985.86 49.15,2274.61 382.36,222.87 3227.29,135.64 3574.99,-47.34 -74.48,-738.35 56.16,-1752.82 -11.48,-2545.65 -71.88,-842.49 38.44,-1596.58 -98.24,-2400.39 -272.01,10.43 -420.09,99.44 -669.76,138.3l-2105.16 139.91z"/>
   <path fill="#FDCCCD" d="M12610.06 6325.54l-244.83 -48.01c92.57,-197.91 115.99,-162.74 332.75,-229.58 119.16,-36.74 237.28,-72.86 357.94,-116.33 322.42,-116.21 453.57,-131.71 800.35,-209.83 350.92,-79.06 122.1,-84.58 791.94,-215.38 629.01,-122.82 295.82,-117.64 509.21,-452.98 200.72,60.9 121.06,66.2 199.33,273.37 315.68,-10.62 993.39,-170.51 1275.34,-87.59l-31.99 256.82c-275.03,78.91 -171.69,-48.33 -488.69,-13.67 27.55,250.21 152.76,286.78 154.46,530.14 2.21,315.15 -141.31,237.05 -239.6,424.22 198.09,162.69 728.75,467.06 1071,402.37 39.6,-287.84 -264.28,-2111.11 -436.65,-2279.39 -405.23,-395.57 -3717.44,240.02 -4523.82,311.14 -199.1,17.56 -504.63,95.68 -673.87,134.26 -159.2,36.3 -530.65,81.34 -653.59,178.59 -204.66,-15.99 -643.22,97.05 -819.86,166.33 43.58,208.47 -37.84,153.95 131.64,206.81 116.91,322.12 34.64,252.46 28,277.2l-125.02 5.77c-206.32,-49.63 -856.78,-1335.7 -1528.7,-705.58 -246.66,231.33 -367.02,508.23 -429.73,964.4 -69.26,503.88 55.21,673.79 290.77,1002.47 453.63,53.59 453.17,-150.01 804.47,-108.98 -20.24,75.1 -49.67,713.86 573.09,602.61 161.85,-28.9 220.1,-121.64 401.4,9.35 -60.73,298.34 -99.5,125.81 -335.96,318.36 -67.08,423.35 211.27,1317.08 369.09,1582.27 404.7,34.64 589.51,88.78 926.23,132.28 292.7,37.8 772.19,9.94 1091.02,17.07 474.52,10.62 1778.17,104.99 2138.6,-86.71 -29.91,-204.47 -79.73,-205.03 -178.91,-335.41 -23.63,-35.87 -135.33,103.56 -56.67,-189.51 21.3,-79.36 54.69,-95.8 130.39,-112.93 150.55,-34.05 189.6,88.15 248.13,202.15 18.88,202 276.48,487.59 459.73,610.35 342.83,229.67 1631.4,38.53 2065.05,-92.25 235.47,-71.03 626.5,-298.29 809.3,-294.92 179.21,-325.56 473.59,-922.6 453.83,-1432.95 -23.58,-608.34 -206.41,-618.52 -1035,-784.15 -346.85,-69.33 -426.81,-64.44 -746.24,-173.41 -439.87,-150.07 -159.65,-43.5 -563.33,-329.12 -863.74,-611.13 -490.44,-561.18 -806.29,-992.44 -861.42,-15.01 -382.92,293.6 -700.23,729.53 -87.22,119.8 -284.74,321.48 -433.05,134.1 -199.69,-162.72 -20.84,-370.41 -8.14,-572.53 -224.9,-36.8 -1204.7,248.2 -1352.89,391.69zm-2748.16 -15.06c-217.07,32.11 -668.22,-93.32 -647.94,265.54 -202.47,22.11 -264.41,50.55 -253.01,-139.57l159.71 -265.03 -227.11 -209.37 31.85 -174.79c285.32,-20.28 373.51,12.15 616.22,115.08 271.34,115.07 320.86,92.21 320.28,408.14z"/>
   <path fill="#FDCCCD" d="M9540.94 1808.68c411.38,16.45 1054.2,-103.01 1414.06,-210.94 381.81,-114.51 1578.94,-237.94 2191.76,-351.33 528.75,-97.85 581.64,-231.86 1435.12,-258.38 187.73,-5.84 464.8,28.88 673.17,-23.09l123.35 -46.58c-124.99,-227.76 -1155.04,-530.88 -1393.02,-550.52 -484.19,-39.99 -1371,-10.25 -1813.87,119.08 -665.27,194.24 -2545.78,814.93 -2630.57,1321.76z"/>
   <path fill="#FECDD2" d="M22215.24 23104.4c413.86,39.7 1022.44,60.83 1286.48,-151.73 261.51,-210.52 460.7,-747.03 93.18,-942.28 -441.56,43.08 -237.51,16.62 -627.48,-144.57 -226.92,-93.79 -414.25,-40.01 -701.91,-150.59 -617.73,-237.42 -980.76,-491.11 -1228.94,-224.29 -320.08,344.13 -486.52,827.88 -54.16,1192.62 305.89,258.04 803.39,313.66 1232.83,420.84z"/>
   <path fill="#F8B807" d="M21992.61 16557.85c18.06,460.43 -121.84,663.59 -86.45,1115.45 1022.65,35.34 1738.97,341.65 2522.58,822.33 280.27,171.92 254.83,515.41 623.82,387.95 37.82,-40.03 427.01,-852.4 442.12,-932.57 -171.45,-188.03 -1384.37,-628.51 -1676.05,-752.04 -324.69,-137.52 -567.84,-132.33 -900.9,-318.25 -214.39,-119.66 -611.8,-329.9 -925.12,-322.87z"/>
   <path fill="#FECDD2" d="M23170.38 21676.97c325.03,64.08 466.15,130.62 576.59,-230.25 71.56,-233.74 129.77,-491.43 93.93,-789.6 -87.35,-65.68 -371.67,-137.64 -518.97,-209.17 -422.32,-205.15 -1137.44,-748.65 -1556.77,-739.53l-137.18 146.1c-399.67,353.29 -513.22,1106.51 -119.02,1304.96 568.88,286.4 1469.84,408.53 1661.42,517.49z"/>
   <path fill="#0D1013" d="M24591.71 12008.42c-187.74,702.61 -427.25,1366.9 -611.73,2132.21 -81.56,338.33 -202.64,800.14 -231.24,1110.09 -24.07,260.95 0.98,1113.31 305.68,879.88 97.8,-124.49 55.73,-50.15 -8.78,-217.03 -206.06,-533.16 24.9,-1317.49 184.21,-1942.33l520.79 -1806.62c8.06,-18.84 47.76,-99.14 54.52,-111.24 69.15,-124.09 24.33,-49.87 74.58,-111.57 -26.88,-232.08 1614.68,-5044.35 1916.7,-5857.94 113.63,-306.09 640.25,-1704.65 512.7,-1919.28 -244.86,92.48 -274.68,651.2 -376.58,929.8l-1000.04 2984.71c-100.22,328.23 -244.82,603.51 -355.72,979.69l-985.09 2949.63z"/>
   <path fill="#270301" d="M6614.34 13073.56l1113.69 -44.14c149.45,229.81 191.92,865.71 210.74,1105.47 28.22,359.71 26.44,905.62 13.27,1269.17 -15.78,435.35 -115.77,2161.71 -24.82,2455.47l597.45 22.01c550.28,16.69 1020.46,63.53 1591.64,65.82l1169.55 -20.97c35.56,-0.32 180.48,1.23 209.58,5.68 256.6,39.24 217.83,86.61 152.77,584.09 -27.88,213.18 -34.79,416.79 -45.78,633.6 175.02,-160.01 220.98,-1083.16 198.68,-1148.66 -70.58,-207.27 -180.68,-134.9 -201.92,-191.06 -8.26,-21.79 -32.17,-11.2 -47.67,-18.22 12.59,-11.74 31.35,-22.07 41.59,-30.63l105.99 -91.96c13.31,-14.83 35.52,-6.41 81.9,-144.01 -347.7,182.98 -3192.63,270.21 -3574.99,47.34 -87.35,-288.75 -60.65,-1876.04 -49.15,-2274.61 24.44,-846.93 -42.59,-1539.86 -86.12,-2353.91 430.96,-10.18 655.67,64.12 825.62,-86.65 -824.68,0 -329,-16.34 -917.94,64.64 -178.43,24.53 -39.99,-5.97 -255.28,-31.65 -267.62,-31.91 -289.41,64.32 -526.69,73.48 -74.58,2.87 -263.15,-12.59 -318.73,-4.11l-263.38 113.81z"/>
   <path fill="#FECDD2" d="M23029.35 18162.15c-146.89,-151.79 -367.74,-149.45 -647.79,-189.75 -322.36,-46.4 -361.08,-33.06 -621.57,154.27 -22.42,262.94 -193.36,895.33 107.34,1033.39l249.68 302.14c2.46,-7.37 11.78,17.8 16.39,27.37 253.27,79.74 365.94,217.62 635.91,353.42 677.73,340.92 904.85,689.82 1233.8,214.51 130.77,-188.93 217.09,-558.78 317.45,-638.81 65.78,-523.93 160.49,-594 -341.58,-841.65 -307.21,-151.55 -531.56,-356.41 -949.63,-414.89z"/>
   <path fill="#DA0204" d="M6215.33 6053.24c53,-272.87 95.92,-234.02 315.99,-346.41 240.81,-60.19 250.31,-126.48 439.4,-239.99 155.12,-93.09 252.39,-141.69 255.92,-330.01 -242.47,-11.85 -250.71,196.75 -574.03,246.98l16.8 -267.39c193.41,-4.08 399.39,-211.64 541.76,-226.39 370.4,-38.36 104.6,274.56 411.14,303.46 75.3,-175.86 110.67,-467.1 -28.59,-586.59 -199.96,-218.01 -666.12,-28.93 -905.7,38.94 -675.75,191.43 -937.7,653.95 -1205.02,1035.99 -564.94,807.4 62.48,1139.31 706.84,706.5 295.2,-49.87 972.96,-474.27 1173.82,-871.21 -539.22,60.67 -729.03,604.42 -1148.33,536.12z"/>
   <path fill="url(#id0)" d="M21626.53 17158c16.7,-896.66 -43.21,-81.12 81.72,-927.48 24.9,-168.71 30.55,-282.92 24.14,-454.19 -16.83,-450.32 50.53,-826.9 -100.87,-895.47 49.07,-287.97 -6.07,-1257.54 -135.97,-1415.25 19.74,-264.31 -95.97,-634.48 -200.73,-909.42l-116.82 -218.88c-7.98,-170.65 -53.54,-331.38 -153.08,-470.8 -57.22,-80.17 -65.3,-80.9 -133.85,-185.66 -184.54,-282.02 -727.95,-482.37 -1076.55,-492.25l-790.29 -289.18c-395.19,-88.19 -504.37,84.14 -892.61,32.5l-19.2 -142.36c-36.11,-852.92 -194.05,-510.25 -277.05,-1014.17 -260.08,-4.95 -290.25,9.67 -486.1,83.03 -111.32,41.71 -255.39,81.21 -410.55,106.83 -338.63,55.9 -564.39,102.8 -913.61,148.54 -269,35.24 -576.71,24.65 -847.58,-30.51 -400.18,-81.52 -457.19,-215.83 -892.77,-212.67l-1483.61 12.98 -50.3 -6.49c-467.06,3.13 -1219.27,21.64 -1635.84,-33.57 -518.93,-68.8 -992.7,-143.02 -1483.27,-77.24l-44.36 915.6c-42.17,703.92 -191.83,251.27 -729.79,538.23 -157.5,84.03 -272.76,125.25 -433.93,206.51 -116.99,58.99 -286.38,116.08 -346.49,206.31 -223.18,43.86 -541.24,278.55 -630.29,371.53 -275.02,88.78 -235.27,126.2 -449.22,288.53 -84.27,63.94 -90.74,52.56 -189.79,123.59 -133.36,95.63 -70.93,-14.21 -140.98,153.57 -237.35,55.36 -118.13,-14.21 -217.69,127.78 161.55,111.79 474.48,24.79 748.05,9.72 276.72,-15.25 520.6,1.53 800.21,-21.86l2730.73 -232.71c511.9,-13.99 74.66,29.08 562.74,-115.01l88.13 -24.09c287.13,-95.25 209.78,-169.77 541.44,-100.2 129.95,241.38 185.61,974.68 157.99,1272.97 -39.46,426.16 -0.86,835.74 8.64,1333.63 50.75,2655.77 103.57,2464.68 -370.83,5264.79 -37.74,222.82 -7.57,480.32 -60.23,689.82 -134.33,534.55 -363.9,932.62 -384.96,1767.79 -112.78,8.47 -67.55,-46.32 -160.39,472.3 -53.24,297.32 -6.85,261.42 -130.93,522.13 -56.18,118.08 -280.3,806.46 -839.53,1446.19l8415.4 -48.43c234.55,7.55 286.67,58.69 490.73,64.97 201.89,-448.97 644.54,-2372.21 808.98,-2595.97 291.63,-396.88 15.66,-316.07 252.57,-694.54 137,-218.86 624.46,-1568.04 705.98,-1909.58 47.24,-197.93 12.8,-190.13 107.09,-358.87 104.09,-186.24 91.62,-59.81 149.81,-352.06 111.62,-560.65 550.2,-1635.49 555.71,-1930.93z"/>
   <path fill="#C90505" d="M6713.92 7520.52c-79.17,-244.53 226.55,-801.32 373.72,-1033.91 90.39,-142.83 89.97,-190.2 269.34,-225.97 5.59,8.59 184.34,29.1 -60.05,376.7 -433.42,616.48 -114.47,974.52 -583.01,883.18zm671.93 46.64c-146.91,-195.82 -111.05,-254.65 -22.19,-536.17 120.5,-381.91 105.81,-203.78 281.19,-408.63 143.41,-167.48 48.3,-338.29 98.81,-596.96 34.06,-174.34 108.42,-243.85 111.97,-454.63 -218.44,-29.26 -203.93,46.36 -294.08,163.64 -158.51,206.19 -448.92,400.05 -767.37,827.74 -315.15,423.29 -391.76,1201.98 -73.97,1655.71 478.45,-94.22 1359.79,-759.05 1008.22,-1233.09 -297.59,175.57 -12.51,478.61 -342.58,582.39z"/>
   <path fill="#0B0403" d="M8960.95 6436.45c-11.4,190.12 50.54,161.68 253.01,139.57 -20.28,-358.86 430.87,-233.43 647.94,-265.54 0.58,-315.93 -48.94,-293.07 -320.28,-408.14 -242.71,-102.93 -330.9,-135.36 -616.22,-115.08l-31.85 174.79 227.11 209.37 -159.71 265.03z"/>
   <path fill="#1B0100" d="M6713.92 7520.52c468.54,91.34 149.59,-266.7 583.01,-883.18 244.39,-347.6 65.64,-368.11 60.05,-376.7 -179.37,35.77 -178.95,83.14 -269.34,225.97 -147.17,232.59 -452.89,789.38 -373.72,1033.91z"/>
   <path fill="#D50707" d="M7939.19 5214.2c166.12,-50.98 85.95,-4.47 199.29,-171.68 108.8,-160.51 420.74,-322.24 173.66,-752.92 -458.78,19.46 -421.94,476.58 -372.95,924.6z"/>
   <path fill="#A68978" d="M20675.46 21402.69c126.92,-46.84 192.34,-110.82 320.52,-326.67 97.51,-164.2 64.4,-396.67 -1.48,-522.2 -171.28,125.75 -301.68,575.31 -319.04,848.87z"/>
   <path fill="#CCB2AC" d="M21266.05 19752.37c311.34,-123.01 416.13,-354.07 206.01,-619.03 -183.68,74.83 -208.02,400 -206.01,619.03z"/>
   <path fill="#E8E8E7" d="M16038.36 5880.29c-74.34,-141.05 -35.42,-72.22 -138.04,-151.39 -56.75,74.2 -65.39,-125.28 -72.2,181.37 -6.8,305.61 243.99,172.1 244.37,171.98 9.58,-94.09 12.17,-114.07 -34.13,-201.96z"/>
   <path fill="#E8E8E7" d="M14111.96 6312.99c204.69,-29.04 276.16,-204.89 196.43,-401.64 -198.43,39.35 -224.33,208.94 -196.43,401.64z"/>
   <path fill="#D0C7B9" d="M15581.94 5557.86c-395.2,3.27 -113.6,265.06 0,341.07 14.92,-28.78 47.95,-29.37 52.98,-152.51 12,-294.25 -5.29,-95.01 -52.98,-188.56z"/>
   <path fill="#02020C" d="M17250.42 18563.54c-17.22,120.65 14.75,83.54 -44.52,155.16 -554.09,4.85 -1652.24,269.25 -2046,163.52l-1651.35 90.51c-225.58,27.88 -266.3,68.63 -249.07,295.09l230.34 43.23 741.02 -10.7c392.33,3.71 827.02,-132.45 1245.27,-154.84 502.16,-26.88 924.9,-128.66 1385,-155.62l378.43 -14.15c58.02,958.11 -761.89,3452.34 -663.33,4146.42l235.19 -5.5c55.84,-221.8 49.87,-473.49 91.06,-669.68 46.44,-221.14 114.91,-384.27 149.75,-618.96 49.52,-333.69 93.06,-1099.42 250.92,-1318.48 -17.25,-298.91 60.29,-520.65 110.81,-773.9 99.83,-500.77 18.27,-624.66 128.64,-785.62l984.2 -102.08 1393.72 -249.36c48.94,-34.02 9.52,-17.38 114.45,-64.46 54.01,-24.25 96.99,-39.11 160.02,-57.39 90,-26.09 249.43,-58.78 320.76,-77.06 86.35,-96.09 -62.59,-9.16 136.42,-104.71 76.19,-36.6 99.74,-35.06 185.44,-55.68l-1.74 -161.16 -472.05 116.9c-193.98,42.91 -427.65,148 -672.38,211.12 -287.23,74.08 -465.48,108.2 -766.17,133.21l-1378.31 104.23 121.79 -800.11c-40.81,-251.79 54.3,-997.85 67.67,-1325.12 17.2,-421.6 -91.84,-908.84 -22.43,-1292.66 -218.02,-13.45 -249.46,4.71 -264.84,225.93 -9.7,139.37 0.38,342.31 7.94,485.16 18.46,348.96 40.81,507.93 6.41,870.54 -32.37,341.18 -65.56,1581.48 -213.06,1756.22z"/>
   <path fill="#D60100" d="M7887.9 22109.59c481.77,-42.71 2845.6,-204.31 3076.46,-338.82 292.48,-170.39 410.91,-1930.01 595.71,-2528.43 42.44,-137.46 -3.08,-41.03 42.36,-92.58 10.99,-216.81 17.9,-420.42 45.79,-633.6 65.05,-497.49 103.82,-544.85 -152.78,-584.09 -29.11,-4.46 -174.02,-6 -209.58,-5.68l-1169.55 20.97c-571.18,-2.29 -1041.37,-49.12 -1591.65,-65.83l-597.43 -22.01c-90.96,-293.75 9.04,-2020.11 24.81,-2455.47 13.16,-363.54 14.95,-909.45 -13.27,-1269.16 -18.82,-239.76 -61.29,-875.66 -210.74,-1105.47l-1113.68 44.14c-259.87,3.27 -546.98,42.77 -790.67,-22.79 -98.95,79.26 17.78,24.58 -153.75,76.42l-1121.82 68.57c4.26,402.67 110.99,799.47 117.28,1254.04 4.78,344.79 35.41,934.07 79.6,1290.48 82.6,666.08 46.32,1347.41 104.33,1996.96 27.66,309.82 150.67,211.04 80.37,592.53 -391.59,18.77 -824.09,-145.02 -1308.87,7.26 -473.47,16.85 -970.66,67.4 -1409.23,69.9 -232.65,1.31 -461.71,7.61 -693.81,6.08 -193.11,-1.27 -435.29,-7.34 -613.36,121.67 -2.85,672.41 347.44,2515.1 497.08,3250.82 265.08,101.68 1832.73,95 2019.13,-34.81 226.93,42.03 513.12,40.3 751.05,10.44 211.59,-26.57 493.88,-208.41 523.07,63.08 17.29,95.1 28.99,203.55 36.49,321.31 -11.05,255.92 -38.89,1867.75 -38.77,2067.8l-20.6 65.44 23.56 706.78 1210.31 -1.54c73.18,-0.78 131.17,-2.52 209.58,-1.52l1033.21 -3.77c359.26,-23.45 645.85,115.3 877.24,-83.23l-5.46 -688.56c45.67,-336.49 45.36,-812.75 40.23,-1162.47 -2.97,-202.46 1.96,-372.83 -62.45,-538.24 -92.31,-237.07 -78.29,-96.18 -110.19,-396.62z"/>
   <path fill="#FEFEFE" d="M1469.08 21964.44l3106.41 -69.91 29.56 3059.54c-624.81,-12.49 -1041.54,42.73 -1666.34,30.24 -742.9,-742.25 -1316.68,-2080.98 -1469.63,-3019.87z"/>
   <path fill="#FEFEFE" d="M8160.52 22320.91c875.79,-82.57 1912.6,-177.53 2788.39,-260.11 -2.24,798.71 -268.36,1830.29 -990.86,2869.29l-1772.76 12.38 -24.77 -2621.56z"/>
  </g>
 </g>
</svg>
