<?xml version="1.0" encoding="UTF-8"?>
<!DOCTYPE svg PUBLIC "-//W3C//DTD SVG 1.1//EN" "http://www.w3.org/Graphics/SVG/1.1/DTD/svg11.dtd">
<!-- Creator: CorelDRAW 2021 (64 Bit) -->
<svg xmlns="http://www.w3.org/2000/svg" xml:space="preserve" width="210mm" height="297mm" version="1.1" style="shape-rendering:geometricPrecision; text-rendering:geometricPrecision; image-rendering:optimizeQuality; fill-rule:evenodd; clip-rule:evenodd"
viewBox="0 0 21000 29700"
 xmlns:xlink="http://www.w3.org/1999/xlink"
 xmlns:xodm="http://www.corel.com/coreldraw/odm/2003">
 <defs>
  <style type="text/css">
   <![CDATA[
    .str0 {stroke:#0B0403;stroke-width:20;stroke-miterlimit:22.9256}
    .str1 {stroke:#6B351A;stroke-width:20;stroke-miterlimit:22.9256}
    .str3 {stroke:#6E0102;stroke-width:20;stroke-miterlimit:22.9256}
    .str2 {stroke:#FFD2C2;stroke-width:20;stroke-miterlimit:22.9256}
    .fil2 {fill:none}
    .fil19 {fill:#030415}
    .fil21 {fill:#080E4E}
    .fil11 {fill:#090709}
    .fil0 {fill:#0B0303}
    .fil1 {fill:#0B0403}
    .fil20 {fill:#100E11}
    .fil16 {fill:#180A06}
    .fil17 {fill:#1B0101}
    .fil15 {fill:#482818}
    .fil4 {fill:#6B351A}
    .fil10 {fill:#926241}
    .fil3 {fill:#946342}
    .fil5 {fill:#9B6A42}
    .fil23 {fill:#B3C9DB}
    .fil24 {fill:#B3C9DB}
    .fil22 {fill:#B3D4F4}
    .fil14 {fill:#B64405}
    .fil7 {fill:#BA3C02}
    .fil18 {fill:#FACAB7}
    .fil13 {fill:#FDCDBA}
    .fil12 {fill:#FDFDFE}
    .fil9 {fill:#FECEBE}
    .fil6 {fill:#FFD2C2}
    .fil8 {fill:url(#id0)}
   ]]>
  </style>
  <linearGradient id="id0" gradientUnits="userSpaceOnUse" x1="9555.28" y1="13894.46" x2="18353.01" y2="15765">
   <stop offset="0" style="stop-opacity:1; stop-color:#6E0102"/>
   <stop offset="0.65098" style="stop-opacity:1; stop-color:#B60101"/>
   <stop offset="1" style="stop-opacity:1; stop-color:red"/>
  </linearGradient>
 </defs>
 <g id="Camada_x0020_1">
  <metadata id="CorelCorpID_0Corel-Layer"/>
  <g id="_1646303692912">
   <path class="fil0 str0" d="M10383.02 22888.81l382.56 -80.6c27.84,141.02 20.94,292.37 13.97,437.99 -17.5,365.15 -176.74,446.51 163.18,598.4 316.16,141.28 481.96,63.82 615.26,200.43 -265.16,31.47 -462.03,71.43 -692.05,63.99 -194.57,-6.3 -331.97,29.54 -613.47,27.86 2.44,-56.84 29.55,-65.89 -24.32,-150.05l68.69 -74.04c81.54,-69.73 246.67,-114.07 100.5,-356.39 -81.35,-134.89 -39.25,-100.96 -19.83,-276.63 20.72,-187.33 -42.45,-236.61 5.51,-390.96zm8782.88 -99.18l12.64 921.31c-106.23,24.86 -236.89,15.89 -376.96,27.28 -249.42,20.29 -245.52,64.88 -420.68,96.51 -272.21,49.15 -187.98,-71.12 -266.21,-183.23 -166.01,-24.45 -619.02,-19.39 -802.65,-16.02l-4094.53 -0.09c-536.59,-2.52 -1042.36,51.71 -1540.55,66.1 -38.18,-37.33 -8.59,-27.24 -77.75,-51.42l-192.91 -13.92c-97.7,9.59 -119.92,29.61 -176.74,85.34 48.97,115.57 249.76,129.52 374.87,140.58 186.23,4.6 507.33,209.76 -132.04,327.22l-984.43 130.59c-104.75,7.12 -183.81,-4.03 -285.17,5.11 -125.4,11.33 -95.08,58.95 -181.07,-9.13 -145.38,-141.71 155.69,-164.01 142.14,-567.67l-606.3 30.21 -53.7 162.8c-221.11,40.75 -237.73,-22.32 -476.74,66.51 -292.14,108.58 -575.18,142.56 -887.69,162.19 -68.41,4.29 -425.58,21.08 -479.72,-33.13 -79.55,-136.29 22.3,-127.99 28.53,-316.27 -127.88,-23.72 -532.9,-21.76 -692.75,-31.55 -231.24,-14.17 -493.89,-0.33 -729.18,-0.38 -440.55,-0.08 -3035.64,143.55 -3423.12,220.19 -156.81,31.02 -410.71,116.8 -603.98,56.94 -20.9,-193.78 181.43,-387.45 122.93,-755.43l18.24 -939.97 20.31 -1.68c51.3,-858.38 -45.05,-1797.06 -35.24,-2677.15 2.69,-241.08 42.65,-293.86 -92.19,-451.07 -151.99,-177.2 -370.67,-455.25 -422.98,-679.21 -92.84,-397.44 -34.4,-638.8 163.86,-868.3 304.19,-352.09 319.76,-153.58 320.31,-793.72 0.6,-691.67 35.14,-1492.18 -24.42,-2169.53l-159.26 -2558.16c-35.79,-593.01 -145.54,-421.08 -61.35,-1490.37 21.65,-275.1 -30.14,-2815.18 -90.96,-3183.73 -32.15,-194.81 -52.51,-537.09 -110.86,-721.69 -41.38,-130.93 -58.96,-81.33 -20.74,-242.84 204.18,-35.58 751.65,-14.01 1005.42,-29.61 363.97,-22.36 663.71,39.88 1045.23,16.19 880,-54.64 1473.96,9.19 2126.46,-25.38 273,-37.65 603.59,-14.19 890.39,-20.3 150.79,-3.21 261.42,-42.58 372.25,-38.54 119.6,4.37 271.51,26.5 419.71,22.62 689,-18.04 1141.55,172.96 972.69,-558.59 -61.45,-266.27 59.75,-183.6 195.58,-182.94 60.14,0.3 147.74,-16.53 228.25,-20.75 161.29,-8.48 271.08,27.68 443.56,31.92 364.7,8.96 605.66,-41.62 920.46,-59.75 587.28,-33.83 1283.39,-17.51 1857.45,-86.78 257.65,-31.1 678.75,-44.91 935.02,-53.05 342.83,-10.88 607.82,-6.01 945.98,-39.86 509.85,-51.04 978.2,22.88 1817.27,-70.08 437.47,-18.47 863.92,-2.86 1301.21,-16.81 194.41,-6.21 437.7,12.01 621.27,-13.08 916.45,-125.28 694.18,-3.78 696.11,1229.98 0.74,468.15 -49.9,1579.04 -9.24,1957.05 22.26,206.88 -20.74,388.49 -23.9,613.25l56.41 1201.68c16.22,63.82 6.59,39.28 31.85,75.74 -67.98,221.87 -23.98,2803.56 -8.76,3229.75 35.99,1008.89 46.34,2078.05 115.03,3077.3 35.38,514.82 76.85,1000.25 89.88,1555.62 6.19,264 47.2,473.73 49.93,761.41 6.64,694.92 63.78,2414.59 136.93,3056.98 37.17,326.46 -42.11,494.74 66.6,642.81zm-11277.7 37.7c151.28,-37.32 359.88,-17.15 517.33,5.51 93.06,349.73 -69.66,515.59 53.75,916.32 56.14,6.31 550.74,9.1 568.47,3.9 4.43,9.6 40.02,16.57 -7.01,82.08l-29.27 23.37c-87.17,54.58 -312.27,97.22 -415.07,123.94 -107.99,28.06 -671.44,77.26 -754.14,21.47 -66.74,-45.03 -49.85,-5.96 45.43,-162.62 353.39,-580.9 -136.59,-288.15 20.51,-1013.97zm445.33 -1363.2c3.39,270.43 -9.08,529.2 -4.52,798.76 2.2,129.69 24.16,259.19 -75.67,305.94 -149.73,70.13 -255.03,0.53 -276.62,-116.65 -30.5,-165.5 60.84,-1055.5 90.46,-1084.09 66.91,-64.56 113,47.53 266.35,96.04zm-5844.35 2401.01c-35.59,-83.17 48.2,-536.01 58.08,-682.72 18.86,-279.7 6.41,-519.63 14.92,-793.66l27.39 -1237.62c0.61,-114.27 -22.75,-324.72 58.32,-384.52 70.62,207.21 48.33,1624.16 16.22,1993.24l1.4 836.35c-14.34,167.68 -18.75,273.25 -176.33,268.93zm6261.82 -316.65l-131.64 -17.38c-58.86,-188.96 -18.24,-654.18 -51.95,-890.1 -148.08,-67.91 -114.73,-121.26 -101,-316.05 11.32,-160.61 34.88,-242.99 34.67,-411.36 -0.32,-271.19 -31.78,-591.29 82.29,-795.43 294.73,-27.66 481.76,-36.88 705.51,88.72 -0.98,247.84 -93.34,298.95 88.7,509.81 207.78,12.97 104.74,-56.52 273.57,-47.06 12.93,158.42 -13.88,281.48 132.7,338.74 227.92,89.02 195,-37.6 387.84,-37.36 3.53,152.9 3.11,297.65 13.5,450.2 24.47,359.29 -11.53,170.73 -104.82,348.32 80.79,188.8 76.21,59.08 94.61,345.18 9.45,146.91 32.78,267.08 0.36,422.87 -245.77,117.03 -910.9,83.06 -1244.53,50.03 -118.51,-11.73 -103.34,17.23 -179.81,-39.13zm786.02 -3061.98c126.9,-4.38 130.17,0.61 221.08,61.74 186.94,125.67 360.13,237.76 443.66,470.23 105.2,292.83 -64.66,926.97 -348.76,782.25 -4.9,-8.52 -9.98,-31.85 -11.19,-27.28 -1.2,4.51 -8.36,-20.25 -9.65,-27.44 -1.26,-7.03 -5.74,-19.04 -6.74,-27.67 -12.44,-107.74 66.39,-307.93 115.37,-382.2 39.51,-59.89 139.19,-189.8 155.09,-295.07 19.8,-131.04 27.29,-40.47 -20.69,-115.82 -131.58,17.87 -80.37,7.67 -164.03,127.46 -102.44,146.65 -292.14,413.36 -477.9,423.27 47.8,-512.9 455.4,-352.16 344.89,-657.76 -8.22,-3.54 -21.98,-14.88 -26.21,-5.84 -4.07,8.67 -20.03,-4.27 -25.54,-3.73 -161.39,15.65 -189.59,193.45 -437.02,176.11 20.95,-172.42 163.93,-150.94 286.16,-232.06 3.33,-200.25 -57.99,-114.67 -38.52,-266.19zm-5392.92 -2141.07c40.07,-38.7 -20.15,-27.7 107.45,-66.73 101.93,-31.18 75.13,-19.95 165.41,-3.72l46 337.51 -76.99 46.08c-105.42,12.53 -266.66,1.79 -392.26,28.53 -158.2,33.68 -187,79.36 -385.15,43.99 -23.91,-125.93 -25.63,-201.94 8.69,-328.42 37.35,-137.58 62.19,-146.21 205.03,-123.44l55.68 173.11c222.44,12.83 79.55,-82.3 266.14,-106.91zm3695.47 4099.24l3.64 95.16 -153.67 62.4c-22.47,380.6 145.71,922.38 26.87,1017.66 -107.9,59.67 -1341.7,-3.94 -1625.3,15.79 -110.86,53.57 -912.68,70.04 -1099.14,42.78 -73.64,47.67 -390.43,55.99 -501.65,62.4l-1175.98 49.46c-235.08,-3.88 -350.74,43.24 -534.91,48.6 9.54,-171.95 66.38,-75.23 37,-285.92 -23.85,-171.07 -25.45,-229.84 -20.69,-402.68 7.04,-255.76 24.41,-515.66 26.24,-760.28 3.99,-537.88 -6.19,-1029.37 -22.93,-1553.95 -14.48,-453.57 -87.86,-1096.12 -67.34,-1528.14 9.99,-210.48 35.65,-125.88 109.68,-275.56 43.92,-88.83 44.26,-235.94 109.06,-311.56 55.85,-65.18 161.25,-53.76 266.37,-143.72 129.87,-111.11 46.77,-159.34 192.83,-228.27 5.8,7.46 11.47,11.13 12.8,25.28 1.31,13.81 9.54,19.01 10.97,25.4 13.73,61.25 11.17,-16.04 10.85,77.25 -0.28,80.09 -49.36,262.83 -20.62,438.26 179.72,36.31 415.88,-28.39 586.78,-34.15 179.55,-6.06 462.91,42.57 589.76,-28.22l7.89 -581.41c815.17,-64.22 1740.67,2.43 2573.99,47.86 224.78,12.25 594.56,-25.66 726.39,145.83 35.44,131.62 -11.63,1839.05 -49.92,2061.98 -21.9,127.49 -111.46,297.95 -60.38,419.2 82.16,195.05 108.54,-133.43 100.97,458.95 -2.36,184.6 18.08,950.83 -59.56,1039.6zm-4737.74 -5214.98c225.16,614.39 359.73,226.44 783.94,419.38 65.02,56.63 32.31,322.8 12.54,405.31l-680.39 140.8c-111.4,77.27 -19.61,199.45 -149.88,298.84 -115.32,87.98 -218,14.75 -359.32,24.44l-2.04 431.3c-396.62,269.05 -630.38,-246.45 -696.81,-597.36 -87.82,-463.93 343.15,-682.35 588.79,-834.19 28.37,-335.71 -69.87,-602.61 176.19,-771.32 219.69,27.96 261.65,268.18 326.98,482.8zm4874.97 905.73c-157.1,91.91 -1538.92,7.99 -1835.69,-19.97 -609.49,-57.45 -1284.97,-16.58 -1918.99,2.58 -7.08,-10.29 -263.94,-323.91 -37.24,-414.82l2209.74 171.75c184.63,11.03 609.23,109.78 1076.58,130.79 106.98,4.81 217.64,-0.46 322.23,3.72 146.43,5.85 166.11,-8.01 183.37,125.95zm913.63 -1951.87c161.97,-415.66 470.69,-420.47 1087.36,-421.3 42.43,583.05 36.19,1155.85 95.78,1739.75 25.73,251.96 62.16,1622.98 1.62,1794.66l-703 -868.46c-212.35,-276.51 -294.69,-230.59 -515.57,-657.47l-75.16 -114.96c-5.5,-4.99 -13.44,-9.56 -19.38,-14.38 -7.81,-6.34 -34.24,-20.95 -42.45,-27.62 -88.97,-72.26 -8.29,74.55 -77.59,-79.83l-38.93 -743.96c148.47,-60.12 184.77,-38.87 200.41,-239.33 13.93,-178.48 4.95,-217.32 86.91,-367.1zm-3650.87 -1229.71c-279.48,27.1 -484.4,-6.81 -599.47,-203.22 -195.29,-333.37 -183.7,-1092.81 -126.51,-1478.74 17.15,-115.71 69.76,-575.49 165.7,-614.71 36.09,77.7 28.05,189.12 53.25,280.82 20.76,75.54 54.29,187.77 78.32,246.17 86.25,209.71 173.92,189.53 305.61,319.67 23.48,234.03 -39.93,517.7 -19.44,793.68 16.03,215.74 129.04,450.85 142.54,656.33zm3485.57 -2276.59c46.09,31.75 27.94,17.51 64.89,48.48 1.77,1.47 43.47,39.93 49.47,45.88 77.72,77 42.28,26.45 92.88,125.87 27.96,165.07 135.39,240.82 144.69,478.12 17.97,458.23 -269.22,582.4 -655.66,521.59 -482.77,-75.98 -818.17,-742.61 -489.7,-1141.05 136.5,-165.57 517.49,-368.74 793.43,-78.89zm942.34 -1618.6c-40.41,-433.12 212.75,-255.4 215.6,-252.35 36.65,38.97 34.17,185.3 1.09,221.63 -48.29,53.03 -150.11,36.61 -216.69,30.72zm-7414.74 -3171.35c-21.33,370.62 26.73,785.88 34.17,1174.08 9.12,475.96 51.96,1920.99 97.79,2287.48l152.05 2280.72c2.89,321.21 53.55,2257.41 -15.82,2378.08 -80.02,-119.66 -21.42,-425.98 -18.68,-600.01 2.72,-173.83 -24.89,-395.61 -45.2,-570.36 -43.86,-377.53 -28.63,-792.27 -56.21,-1173.75 -55.25,-764.17 -125.63,-1539.5 -141.39,-2284.4 -16.99,-803.32 -11.26,-1589.41 -65.4,-2390.77 -40.89,-605.3 6.39,-1035.35 -74.35,-1768.51 -17.52,-159.1 -101.79,-411.37 52.08,-451.74 15.52,27.14 65.33,468.85 71.57,532.32 23.27,236.73 22.95,351.09 9.39,586.86zm16360.52 15693.58l-39.44 41.45c-3.23,3.8 -16,23.4 -24.04,30.26 -167.91,-61.02 -161.04,-128.59 -190.44,-280 -170.86,8.89 -125.01,19.6 -274.16,57.05l-1122.43 41.91 -124.73 56.55c-130.56,28.85 -637.48,9.69 -756.43,-29.73 -174.49,-57.8 14.5,-86.49 -180.62,-15.74 -30.87,24.03 -0.27,17.88 -81.4,38.71 -41.84,10.73 -80.9,12.27 -124.64,13.17l-3239.06 -9.24c-100.47,-26.79 -133.66,-31.56 -167.56,-152.47 -74.02,-264.09 112.41,-1015.97 -54.75,-1244.92 -115.66,147.4 -21.41,-28.45 -8.39,324.13l-0.55 922.34c-67.69,212.89 33.1,68.09 -114.39,111.71 -368.74,-61.39 -986,28.01 -1138.39,8.02 -73.37,-689.54 111.19,-568.78 131.96,-819.75 -107.86,-90.07 -175.6,-58.8 -181.37,-58.89l-103.16 -70.84c-5.45,-6.36 -10.01,-19.16 -14.96,-28.77 -2.02,126.37 4.65,142.49 -104.24,185.53 -82,32.39 -188.48,35.86 -275.73,36.28 -232.38,-38.16 -39.12,5.75 -107.25,-76.78l9.19 13.31c-130.28,0 -86.9,-45.2 -97.18,-186.67l4.36 -672.78c8.19,-177.24 170.21,-633.06 77.23,-774.54l240.55 -6.43c232.74,274.51 75.96,691.18 202.87,886.07 30.99,-150.11 0.63,-263.75 -13.64,-419.58 -30.09,-328.38 37.27,-268.34 -19.78,-412.5 108.04,-90.64 85.44,-16.24 143.47,-126.92 -108.13,-0.24 -160.91,-2.58 -258.09,14.44 -278.65,48.8 -247.66,8.77 -295.08,-44.25 -47.76,-129.01 -102.17,-186.99 -181.65,-277.36 -203.32,-231.19 -101.45,-72.5 -164.94,-349.5l-790.89 -1649.4c-61.69,-115.25 -98.12,-242.81 -245.01,-267.23 16.15,266.01 270.34,513.48 444.22,961.61l405.31 966.35 -394.85 12.18c-55.07,-147.74 -97.84,-362.32 -142.99,-505.43l-404.71 -1236.83c-38.04,-134.06 -28.58,-184.67 -156.87,-181.9 -41.79,96.33 250.3,973.37 305.42,1111.12 180.32,450.66 176.46,622.98 253.34,856.19 70.49,213.82 294.86,161.73 -15.21,401.14 -195.28,150.76 -34.03,235.18 -762.59,145.93 -640.64,-78.47 -449.37,-10.5 -430.43,-813.81 11.88,-504.34 -2.92,-1977.15 117.99,-2243.92 130.38,-29.66 171.72,8.07 310.19,1.09 107.86,-5.45 164.87,-41.4 284.77,-32.74 166.34,278.62 300.08,413.81 477.08,624.55 328.4,390.96 667.23,903.5 972.19,1281.19 100.03,123.88 177.72,216.98 260.76,311.77 76.38,87.18 178.89,236.86 273.01,282.01 123.48,31.86 54.16,46 108.04,-51.09 -77.51,-273.64 -558.22,-450.25 -541.11,-773.1l11.28 -60.84c9.53,-3.24 23.76,-15.05 29.67,-5.58l291.38 -18.12c97.95,-10.23 265.64,-12.11 318.37,-44.86 137.56,-144.33 103.93,-30.22 90.55,-213.47 -10.18,-139.52 16.78,-221.93 -69.37,-326.02 -52.07,62.81 -21.9,1.13 -49.57,93.76 -17.92,59.99 -7.43,36.73 -13.85,90.11 -5.5,45.64 4.33,93.87 -35.1,164.86l-26.63 41.13c-83.59,10.53 -505.14,8.73 -575.25,-7.59l-14.54 -1052.62c80.24,-23.11 515.1,-57.16 578.5,-27.91 223.23,38.07 186.82,-27.78 231.5,-126.77l-637.34 -11.19c-218.47,-3.2 -219.34,-13.75 -219.34,-274.7 86.84,-274.27 -165.49,-1168 -1.75,-1364.49l-73.41 -223.29 -2.41 -423.53 216.42 -120.43 -107.24 -41.76 -5.46 -91.61c-171.76,62.29 -210.31,107.26 -407.05,144.55 -18.78,10.82 -571.51,56.82 -626.53,50.39 -208.43,-24.33 -407.99,-177.6 -550.86,-124.68 22.82,184.81 79.34,118.36 250.6,195.89 12.37,207.63 -239.08,208.96 -152.69,473.08 -137.66,141.85 -48.19,192.25 -113.73,288.49 -125.11,141.01 -263.04,46.87 -425.51,124.41l-0.77 105.1c152.55,84.68 78.03,3.87 240.54,4.66l27.03 856.69c3.45,3.31 59.51,-23.22 46.61,81.38 -11.51,93.42 -17.57,55.38 -91.42,84.69 -92.47,-81.11 -67.45,-51.36 -75.12,-182.71 -44.2,-411.95 -270.42,-973.84 -611.09,-1213.93l-1304.61 -537.75c-1239,-394.64 -1344.35,-2214.92 -1079.43,-2411.99 -26.35,-444.44 320.74,-996.86 539.47,-1281.84 148.87,-193.97 233.41,-349.03 457.48,-458.05 167.82,-81.67 467.91,-179.69 695.21,-189.23 450.1,-110.57 484.61,217.45 653.32,380.25 102.74,99.16 176.3,115.62 302.66,236.62 112.5,107.71 248.85,153.27 307.88,244.82 -58.73,91.16 -18.18,43.76 -135.55,97.5 -73.9,33.82 -69.98,35.36 -149.96,59.3 -3.51,5.27 -9.97,12.05 -12.23,14.53l-26.15 29.16c-167.64,175.8 -281.74,290.46 -298.75,560.49 -25.54,405.5 94.95,470.94 220.92,639.14 39.19,52.36 12.68,4.21 28.54,49.29l94.58 65.88c152.44,140.37 152.21,163.65 421.92,182.51 930.81,65.07 698.4,-669.56 713.99,-939.27 -22.65,-23.66 -18.16,-16.01 -43.24,-55.28l-86.84 -174c-42,-74.55 -83.42,-111.64 -113.86,-174.16 -104.44,-51.49 -58.92,18.76 -98.25,-101.23 46.9,-21.6 -67.94,-48.25 96.62,-20.08 89.46,15.32 36.42,19.24 71.95,45.02 383.31,80.83 475.24,57.83 858.71,33.82 -69.72,-157.41 -50.92,-115.32 -305.24,-183.14 -164.83,-43.94 -255.36,-34.12 -456.38,-34.12l-50.33 -73.47c-176.47,-54.7 -426.59,-90.5 -609.91,-186.94 -152.73,-80.36 -362.63,-232.46 -449.75,-374.22 -11.76,-5.13 -397.22,-453.89 -388.43,-507.88 15.22,-93.42 406.86,-287.78 597.59,-145.49 75.87,56.62 42.75,89.26 139.05,113.93 138.78,-171.13 -3.87,-201.91 -127.11,-285.09 -532.39,-61.47 -639.02,244.81 -855.52,219.42 14.92,-279.6 227.62,-66.89 234.8,-395.56 -187.5,8.88 -110.18,12.53 -235.97,108.61 -21.44,38.01 -151.91,200.46 -194.85,252.98 -165.87,22.34 -224.67,-7.68 -364.97,-37.92 -53.99,169.13 -119.15,137.98 -281.47,214.15 -364.36,170.95 -518.34,326.26 -740.73,657.79 -103.04,153.6 -267.07,417.52 -345.62,576.61 -97.4,197.27 -145.08,530.94 -262.62,661.1 -356.13,-46.42 -365.4,-935.21 -317.57,-1079.56 -85.65,-37.08 -55.44,-28.95 -158.38,-28.37 -1.5,27.29 -148.57,366.7 -185.62,469.52 -36.51,101.37 -115.68,420.33 -134.25,524.06 -54.93,306.8 30.51,1090.82 -34.33,1300.59l51.39 169.1c15.39,78.75 2.26,44.96 27.38,121 28.29,85.68 63.4,162.34 117.41,230.02 295.78,370.69 591.31,163.88 870.09,366.37 113.58,82.51 328.9,189.53 436.43,409.31 102.47,33.05 250.02,213.3 411.2,300.13 128.06,69 458.42,99.04 555.44,180.99 91.54,-2.6 715.66,242.57 778.94,310.88 236.38,63.54 372.64,367.22 454.13,603.82 148.48,431.11 245.68,402.77 -47.34,736.64 -176.79,98.46 -2103.24,-239.96 -2601.62,-237.42 -270.62,1.38 -296.49,18.14 -392,-40.63 -148.96,42 -285.03,-3 -411.37,-47.63l-67.03 -320.33c-18.85,148.65 -50.13,56.99 -51.19,215.38l-126.81 -0.07c0,-157.58 12.04,-242.73 -26.54,-349.29l6.95 422.97c-258.36,14.71 -674.06,-78 -883.01,-34.75 -174.36,17.63 -131.82,-93.22 -176.89,-229.24l-62.27 -9.79c-15.32,2.59 -73,18.94 -86.7,22.86 6.09,-76.18 11.87,-138.54 58.13,-203.47 26.1,-36.66 -10.37,-3.28 51.8,-35.97 18.32,-9.64 59.68,-28 65.29,-31.03 -125.65,-313.93 -25.07,-748.45 -49.31,-950.26l-14.77 -61.62c27.79,242.2 65.99,685.76 0.02,878.93 -133.31,-63.75 -30.29,9.95 -123.23,-120.48 -134.13,-188.2 -193.97,-81.98 -401.13,-161.83 -37.85,-296.19 14.8,-861.44 8.17,-1199.68 -22.05,-1126.23 3.27,-2350.1 -166.4,-3454.41 -19.42,-204.29 -0.2,-393.87 -28.56,-619.45 -45.39,-361.13 -123.29,-2750.79 -126.52,-3192.73l-34.65 -1292.63c392.85,-152.28 2861.1,-117.28 3449.38,-136.02l412.94 -2.1c540.74,35.4 1137.03,-26.45 1680.83,-44.52 560.3,-18.61 1132.6,-15.85 1694.32,-22.61l-25.08 2398.34c53.89,77.6 132.76,1392.77 109.12,1542.89 -114.59,38.61 -234.19,-67.46 -184.99,298.01l103.37 1410.62c23.56,-73.42 -32.42,-59.3 82.16,-58.58l52.17 133.24c83.87,361.96 409.47,292.82 518.84,247.39 1.57,-3.87 54.21,-1.38 20.35,-131.65 -31.93,-122.77 4.07,-33.14 -205.14,-135.4 -16.66,-8.15 87.13,-8.95 -100.88,-49.95 33.12,-35.08 -5.6,-67.49 45.93,-166.06 -125.44,30.1 -122.17,56.69 -261.71,36.91 -3.51,-42.42 -27.87,-318.34 -27.82,-319.04 8.25,-123.89 107.87,-86.19 220.42,-70.18 78.32,-123.98 67.51,4.8 114.22,-176.13 0.88,-3.4 9.77,-128.37 9.52,-129.92 -29.27,-181 8.29,-78.04 -77.46,-159.27l10.86 290.6c-244.36,3.6 -353.3,-12.31 -261.55,-296.43 139.07,-29.84 172.2,-39.86 269.55,9.77 54.73,-158.47 -3.67,-69.72 -8.84,-116.16 -20.18,-181.41 -65.03,99.34 1.52,-43.41 74.15,-159.02 28.77,-14.69 28.89,-257.2 10.14,3.35 59.2,18.23 68.59,16.87 99.45,-14.27 57.42,0.54 121.82,-48.45 -103.41,-240.48 -120.28,-102.94 -253.61,-294.76 -1.53,-98.78 -60,-431.62 -75.42,-579.67 -19.61,-188.3 4.81,-497.31 -17.39,-631.35 43.45,-118.66 44.58,-87.9 60.75,-234.95 -145.11,-89.49 -91.4,-681.56 -112.53,-893.8 -15.57,-156.39 -29.49,-286.32 -37.08,-478.1 -14.11,-355.94 89.36,-142.5 226.92,-245.93l58.22 -124.77c-213.29,-33.82 -223.46,60.47 -302.85,-110.16l-6.95 -642.95c219.09,-77.28 1136.76,-76.63 1475.94,-139.62 245.05,-136.76 471.03,-13.11 697.99,-98.28 -85.87,-103.95 10.6,-47.74 -112.75,-84.64 -96.85,-28.97 -326.47,43.9 -424.24,68.38 -71.14,17.82 -53.52,13.62 -127.35,17.68 -244.72,13.48 -1136.76,47.39 -1278.19,18.95 -258.57,-13.84 -732.03,113.77 -980.61,46.03 -14.98,-132.34 -65.62,-269.55 -36.82,-390.13 119.69,-30.75 185.89,-8.78 281.92,-36.81 136.79,-39.91 35.17,-59.82 232.05,-76.02 222.52,-18.32 913.8,-3.4 1231.39,-37.4l1759.43 -101.66c405.26,-14.02 823.16,-10.33 1212.21,-37.02 770.87,-52.86 1654.62,-99.97 2432.87,-83 404.76,8.83 808.97,38.95 1201.73,29.97 214.6,-4.9 1040.58,-85.43 1152.2,-38.65l33.8 132.03c3.18,43.51 -2.35,112.73 -2.66,159.48 -0.71,103.96 1.96,178.85 -6.76,286.04 -43.61,536.72 61.17,1060.15 5.77,1699.27 -61.99,715.35 20.15,1516.25 6.9,2235.47 -7.23,392.68 -10.87,781.04 -8.76,1174.08 2.09,387.14 61.2,697.29 65.34,1078.88l43.04 2251.49c24.27,767.94 25.41,1579.72 23.79,2349.64 -1.46,693.59 151.65,2431.98 222.39,3269.45 30.14,356.79 -1.15,758.79 44.3,1083.4 45.73,326.67 33.16,812.04 42.43,1135.81 7.83,273.02 114.67,829.78 24.78,1053.81l-340.94 44.07z"/>
   <g>
    <path class="fil1" d="M13368.38 22056.95l279.09 -7.65 307.11 -17.31c515.41,56.52 1484.83,-103.37 1938.81,0.56 46.28,125.96 23.67,1301.4 7.57,1450.09 -862.39,-39.35 -2650.43,39.31 -3329.9,-28.13l-192.2 -50.33c-54.64,-111.19 -74.17,-1137.72 -57.25,-1335.06l1046.77 -12.17zm-722.36 -1371.82l969.39 -45.47c29.44,193.56 46.2,1074.05 -10.55,1209.81 -104.44,124.4 -908.91,51.24 -1117.38,51.82 -250.67,0.7 -1003.35,57.35 -1173.17,-17.56l-34.98 -1109.76 1366.69 -88.84zm4841.64 1269.01c-82.17,-118.79 -102.32,-745.08 -102.58,-961.91 -0.28,-250.06 -21.29,-343.65 209.02,-353.86 158.66,-7.03 356.1,-2.68 486.75,30.74 39.58,174.03 75.73,1116.54 -1.04,1243.67 -113.6,110.61 -438.78,64.15 -592.15,41.36zm-6428.52 -77.28c-315.73,142.81 -261.3,-124.19 -264.5,-376.52 -5.15,-406.04 -113.7,-466.76 292.48,-452.5 22.7,272.24 66.66,546.54 -27.98,829.02zm6182.8 -62.76c3.7,-186.14 0.61,-444.76 -16.67,-628.55 -13.22,-140.64 25.85,-379.85 -38.65,-478.74 -70.85,-98.45 -186.58,-64.85 -414.14,-62.51l-2602.85 5.32c-244.2,-7.43 -287.31,-44.86 -365.02,45.01 -99.14,114.65 4.26,757.78 -32.89,1028.66 -1.45,10.59 -4.69,21.76 -6.12,30.27 -9.82,58.31 -44.74,61.83 11.57,41.02 126.18,181.33 1393.35,74.26 1693.92,78.08l1333.11 11.24c434.16,26.5 340.99,38.6 418.84,-67.98l-18.88 1.83 37.78 -3.65zm-1539.46 -2490.01l-9.05 -7.61c54.39,51.13 59.34,-0.11 54.83,279.02 -16.02,989.72 128.29,928.78 -435.84,906.02 -345.44,-13.95 -869.51,32.46 -1249.6,-8.95 -252.19,-12.72 -1525.77,50.28 -1573.85,26.19 -25.41,-38.84 -11.86,-4.09 -27.53,-71.35l-10.18 -215.84c1.69,-98.06 0.71,-188.15 -0.97,-286.16 -3.12,-182.11 -20.63,-415.57 33.22,-571.18 105.33,-143.57 1993.06,-30.28 2441.88,-78.04 150.3,-15.98 223.01,-19.23 386.88,-18.63 142.86,0.54 295.22,-32.7 390.21,46.53zm2382.9 1138.39c-141.94,15 -253,33.41 -392.04,36.44 -157.76,3.45 -276.95,-22.77 -405.24,-15.5 -246.9,13.99 -582.1,24.93 -864.8,26.04 -472.32,1.82 -494.28,106.55 -527.26,-344.46 -10.5,-143.65 -17.9,-719.57 5.44,-837.35l2159.4 -5.7c17.39,212.26 74.35,970.95 24.5,1140.53zm-3461.31 -2589.61c73.42,-39.18 1103.18,-77.17 1259.6,-74.35l972.35 -25.11c306.86,-34.38 223.74,-1.98 250.86,32.61 30.71,42.86 83.69,1262.53 48.83,1347.96 -379.8,67.54 -1722.16,-70.71 -2541.46,-0.42l-885.83 -3.86c-1.32,-124.68 -104.03,-1174.75 100.32,-1230.56l795.33 -46.27zm-2485.91 164.61l190.46 -33.63c245.7,-39.97 982.33,-99.6 1194.09,-46.75l27.02 623.85c0.39,109.55 4.98,461.41 -79.26,551.59 -67.46,82.31 -134.48,52.9 -284.05,46.36 -548.9,-23.96 -1531.01,3.45 -2101.84,9.79 -17.7,-175.63 -9.94,-368.3 -13.54,-546.58 -4.4,-219.1 -62.74,-247.41 -42.08,-475.29 291.64,-103.84 785.81,-124.91 1109.2,-129.34zm5221.14 829.21c-63.43,-82.98 -95.24,-499.15 -47.42,-632.24 -47.87,-58.43 -26.19,-12.36 -44.2,-100.42 -82.48,-403.38 180.68,-365.73 586.28,-346.57 229.86,10.87 199.22,25.68 196.75,698.28 -2.25,607.98 120.4,733.21 -488.35,682.41 -231.94,-19.36 -183.14,-70.6 -203.06,-301.46zm-4513.53 -2716.96c120.68,-16.26 210.01,-15.12 342.22,-14.71 189.14,0.57 125.21,-25.08 286.19,-45.11 214.68,-26.71 455.16,-40.75 685.08,-44.3 100.53,-68.23 505.65,-30.23 656.77,-45.39 143.39,-14.37 537.31,-73.45 601.82,1.07 116.91,119.33 130.2,1282.85 135.9,1564.07l0.63 32.04c-49.41,132.89 -14.86,104.19 -207.83,104.56l-1528.29 11.62c-79.57,103.04 -64.91,58.33 -378.4,67.14 -289.68,8.13 -1091.58,60.96 -1230.25,34.47l-35.98 -1621.05 672.14 -44.41zm-740.84 -138.91c-77.43,66.62 -76.65,48.5 -284.53,62.04 -115.54,7.52 -200.81,30.46 -287.2,38.68 -160.88,15.31 -463.48,42.07 -571.89,-1.41 -47.45,-154.94 -57.77,-1081.16 -19.22,-1297.59 48.58,-272.78 118.36,-261.58 159.68,-280.7 159.39,-104.98 808.27,-64.63 1018.42,-84.32 79.92,-33.19 384.84,-15.98 527.09,-21.02l409.66 -40.35c9.72,0.53 21.48,3.27 29.32,4.02 7.78,0.73 23.15,15.05 28.71,6 89.45,-145.5 103.21,880.33 106.05,947.97l-13.3 539.75 -38.9 104.26c-240.41,15.88 -869.47,77.32 -1063.89,22.67zm1027.19 -3502.27c82.46,-38.63 1947.83,-141.55 2142.58,-101.34l12.07 417.05c52.7,134.49 78.98,1076.13 21.7,1249.98l-147.73 -10.84c-66.07,55.92 -67.4,50.27 -228.38,54.41l-1524.57 92.43 -205.23 -39.87c-59.35,78.57 25.55,74.83 -270.85,79.11 -261.54,3.78 -395.99,62.41 -810.52,14.35 -54.67,-255.19 -103.56,-1463.89 -13.02,-1663.11l1023.95 -92.17zm-1619.97 1746.65c-117.17,79.84 -126.22,26.81 -389.68,10.37 -11.29,-241.02 52.7,-357.4 -6.55,-675.8 -43.69,-234.78 -106.28,-452.11 -123.87,-656.94 -51.09,-52.51 -51.87,-87.33 -47.68,-179.83 215.87,-54.92 721.67,-152.65 969.72,-97.45 10.31,265.69 3.29,549.25 2.75,816.56 -1.43,711.46 126.55,877.94 -404.69,783.09zm5023.85 -1887.54l1254.91 -40.64c51.71,435.77 -35.85,875.82 -11.28,1272.31 23.25,375.35 23.24,314.18 -95.78,334.67l-340.84 61.87c-0.36,0.11 -78.47,22.53 -94.57,31.18 -99.53,53.45 -23.8,4.68 -94.94,79.54l508.65 -13.61c133.76,-8.07 142.77,-23.36 172.97,202.1 20.29,151.42 12.08,118.95 9.77,256.41 -2.76,164.37 -4.57,66 41.42,241.74 29.36,112.16 41.74,96.62 8.3,233.5 -44.17,234.87 80.67,454.55 33.79,711.84 -163.65,83.2 -519.19,92.94 -716.65,27.1l-15.16 -357.75c-22.07,-43.38 -4.12,-43.86 -16.53,-96.19l-58.46 -157.68c-53.05,64 -63.89,85.62 -68.22,221.28 -5.52,172.85 -3.46,415.22 99.97,539.97l412.67 -9.43c171.34,-15.09 213.8,-79.3 361.17,31.66l69.23 739.66c16.29,268.17 58.39,690.89 9,944.14 -589.08,29.51 -1256.18,-19.93 -1774.25,8.05 -135.69,7.32 -354.71,111.16 -454.13,10.6 -74.07,-72.73 -109.6,-1044.26 -129.24,-1248.7l-17.85 -432.32 63.07 -23.66c136.12,-39.67 182.68,-23.6 265.93,-31.24 70.76,-6.5 86.54,-16.65 145.35,-16.28l160.19 20.74c168.57,19.45 505.32,34.94 639.42,-56.36 -16.7,6.91 -12.7,5.52 -77.62,-8.32l-688.81 -23.97c-147.14,16.51 -125.03,50.27 -281.25,13.18 -452.59,-73.64 -2265.03,168.5 -2419.87,84.64 -39.37,-40.41 -151.24,-1494.06 -38.97,-1534.54 194.87,-70.24 2848.83,-207.29 2930.86,-208.64l63.25 -73.55 -350.72 -15.78c-149.67,-31.93 -391.64,10.12 -502.64,-41.89 -59.21,-131.46 -112.91,-1547.73 -79.39,-1631.52 117.87,-41.98 941.51,-85.81 1077.25,-44.11zm-4207.38 -1587.64c123.13,-8.82 832.1,-114.82 912.51,-26.79 83.89,91.83 53.93,936.67 64.41,1164.07 2.94,63.71 15.2,165.57 10.11,224.22 -14.21,163.7 26.08,113.97 -66.24,157.77 -72.92,53.82 -196.69,52.36 -296.09,29.01 -145.82,95.84 -343.45,71.57 -528.73,87.96 -124.84,11.03 -506.55,4.15 -536.87,14 -189.55,61.56 -300.22,72.51 -509.92,75.13l-514.17 -15.32c-0.32,-0.75 -111.01,-131.91 -133.26,-353.47 -20.1,-200.17 -56.04,-1162.05 21.39,-1311l1576.86 -45.58zm1306.78 -87.25l3137.05 -62.38c142.02,278.74 126.81,1118.42 125.65,1507.01 -451.39,106.81 -1729.96,84.65 -2263.33,109.45 -61.37,38.44 -356.47,39.82 -493.32,6.78 -52,42.38 7.95,11.45 -72.32,36.4 -49.85,15.49 -1.69,3.82 -56.86,12.61 -661.96,105.34 -542.64,-243.04 -565.46,-829.18 -6.43,-164.91 -15.5,-311.3 -13.35,-477.38 3.87,-299.77 -36.48,-263.62 201.94,-303.31zm-3413.24 1541.8c-4.13,-159.05 -5.6,-318.53 -22.86,-476.49 -14.45,-132.06 -152.64,-744.41 -11.33,-843.35 57.66,-40.37 302.19,-67.32 342.78,-59.66l17.66 52.92c30.54,136.13 -2.41,515.15 8.79,724.92 10.84,202.48 36.18,536.37 15.6,740.42l-350.64 -138.76zm6843.96 -98.75c0,-260.36 7.8,-515.03 -22.39,-772.56 -26.62,-227.01 -68.95,-509.19 -56.16,-748.18l793.02 17.62c37.96,534.49 80.36,927.32 28.41,1489.55 -250.82,49.54 -475.3,95.53 -742.88,13.57zm-1531.71 -1654.36l-109.9 -39.42c2.55,-246.18 -26.13,-498 -23.93,-746.02 0.99,-113.1 4.04,-266.29 18.19,-376.96l62.02 -244.36c16.55,-130.89 1039.59,-51.42 1196.45,-49.91 205.69,2.01 392.13,8.56 598.03,-6.15 216.2,-15.44 503.23,-111.58 529.14,54.74 0.07,0.22 95.11,1224.39 -56.43,1347.28 -105.02,68.32 -1972.5,97.2 -2213.57,60.8zm-318.26 -1374.53c116.68,22.87 44.21,530.95 41.58,652.56 -4.82,223.47 35.06,494.51 4.81,708.95 -187.82,67.15 -1315.25,93.38 -1527.15,43.69 -7.69,5.3 -18.17,10.35 -24.82,13 -6.67,2.67 -17.04,9.01 -25.5,11.94 -103.63,35.91 -94,24.12 -372.48,22.65 -152.17,-0.81 -230.87,2.33 -373.02,27.53 -188.74,33.48 -629.17,38.84 -833.54,30.66 -23.57,-488.67 -88.53,-994.48 -1.1,-1458.67 272.9,-1.06 552.95,-15.64 826.91,-22.12 136.55,-3.24 292.84,23.86 411.96,11.75 113.64,-11.55 170.17,-44.57 316.77,-53.24 102.07,-6.05 1383.91,-57.71 1486.54,-27.38 85.49,25.25 15.7,-10.68 69.04,38.68zm378.67 -212.52c-421.6,-21.95 -1349.04,110.8 -1710.78,27.91 -65.07,39.03 0.12,12.78 -96.84,30.95 -352.75,66.11 -385.75,-4.31 -390.21,-206.97 -1.47,-67.27 3.6,-148.82 1.92,-224.35 -10.33,-467.24 -100.72,-786.33 -23.45,-1172.44 472.11,-46.66 1280.85,-10.97 1750.68,21.9 496.67,34.76 1298.99,-119.94 1727.75,-15.98 46.59,349.75 63.7,1175.61 20.94,1522.5l-1280.01 16.48zm2161.75 -86.67c-174.84,23.91 -544,68.04 -681.37,15.12 -33.53,-104.66 -46.99,-107.12 -8.29,-224.82 -23.43,-35.33 -16.46,-15.73 -31.9,-79 -26.03,-106.75 2.61,46.92 -9.69,-59.2l-13 -794.96c0.65,-49.45 0.27,-111.64 5.11,-159.7 27.67,-274.57 123.76,-131.79 454.48,-144.72 140.17,-5.47 233.39,-73.93 344.19,-9.33 60,56.6 -0.37,880.37 5.27,1107.5 8.14,327.01 50.24,298.8 -64.8,349.11zm-7369.89 -1319.76l73.77 -37.93c8.68,-3.31 16.82,-6.01 25.99,-9 137.1,-44.67 533.1,-49.01 700.91,-62.59 283.84,-22.97 587.39,4.71 870.87,-11.32 88.55,-30.93 400.93,-16.95 556.22,-16.76l501.04 1.27c6.99,1.3 21.45,16.02 26.39,7.91 77.08,-126.44 88.25,1548.83 79.72,1609.02 -411.23,77.26 -1918.58,-23.67 -2705.46,95.19 -51.09,-125.11 -94.75,-157.47 -110.33,-326.92l-19.12 -1248.87zm7438.46 -915.65c33.94,65.64 26.23,304.54 25.42,429.88 -1.5,236.83 -80.28,181.05 -316.18,196.4l-159.02 0.42 -2204.47 0.86 -29.07 -113.83c-1.95,-264.88 -50.25,-497.81 -13.12,-778.24 132.55,-32.12 527.14,-28.29 691.58,-31.22 125.51,-2.23 215.38,6.67 334.78,-19.58 252.36,-55.45 691.99,-12.57 1030.02,-37.74l632.78 -58.6 7.28 411.65zm-5826.38 -124.89c263.45,-78.51 2722.89,-147.2 2903.65,-117.64 74.74,138.97 95.62,674.43 29.09,850.78 -156.21,43.08 -2736.53,13.42 -2793.17,13.48 -5.89,-6.63 -12.07,-16.72 -15.45,-21.68l-124.12 -724.94zm-2025.3 -94.78c141.43,28.44 1033.47,-5.47 1278.19,-18.95 73.83,-4.06 56.21,0.14 127.35,-17.68 97.77,-24.48 327.39,-97.35 424.24,-68.38 123.35,36.9 26.88,-19.31 112.75,84.64 -226.96,85.17 -452.94,-38.48 -697.99,98.28l630.96 1.77c14.39,139.81 26.34,657.71 -20.53,764.79 -126.65,31.49 -395.42,-4.69 -548.38,0.15 -302.82,9.55 -1302.15,134.54 -1531.04,15.86 79.39,170.63 89.56,76.34 302.85,110.16l-58.22 124.77 177.43 -1.51c44.66,103.61 56.35,802.67 52.95,980.08 -11.79,616.2 81.47,668.36 -307.69,639.26 -16.17,147.05 -17.3,116.29 -60.75,234.95 217.74,-104.63 751.07,-84.99 1046.84,-88.18 233.11,-2.52 842.72,-145.32 972.04,18.03 104.82,146.67 18.68,515.54 35.3,719.01l12.31 571.34c-6.56,182.23 5.96,48.35 -40.01,80.96 -40.42,48.83 17.53,21.46 -73.73,53.55l-1606.18 39.43c-103.53,-194.94 12.05,-151.65 -253.76,-183.12 133.33,191.82 150.2,54.28 253.61,294.76 -64.4,48.99 -22.37,34.18 -121.82,48.45 -9.39,1.36 -58.45,-13.52 -68.59,-16.87 -0.12,242.51 45.26,98.18 -28.89,257.2 -66.55,142.75 -21.7,-138 -1.52,43.41 5.17,46.44 63.57,-42.31 8.84,116.16l-18.86 -3.94c85.75,81.23 48.19,-21.73 77.46,159.27 0.25,1.55 -8.64,126.52 -9.52,129.92 -46.71,180.93 -35.9,52.15 -114.22,176.13 6.7,8.19 53.45,49.06 84.48,71.39 7.15,103.83 -3.66,232.3 -15.37,280.92 -51.53,98.57 -12.81,130.98 -45.93,166.06 188.01,41 84.22,41.8 100.88,49.95 209.21,102.26 173.21,12.63 205.14,135.4 33.86,130.27 -18.78,127.78 -20.35,131.65 -109.37,45.43 -434.97,114.57 -518.84,-247.39l-52.17 -133.24c-114.58,-0.72 -58.6,-14.84 -82.16,58.58 45.28,96.94 51.65,64.59 64.58,160.59l-604.24 -38.62 50.33 73.47c201.02,0 291.55,-9.82 456.38,34.12 254.32,67.82 235.52,25.73 305.24,183.14 469.58,-57.12 737.89,-45.19 876.89,269.95 111.88,253.66 204.42,636.32 203.08,971.1 -2.49,618.08 -97.72,769.9 -307.48,1155.28 -196.44,360.9 -377.63,305.57 -396.88,420.21l5.46 91.61 107.24 41.76c308.87,-188.61 200.51,-260.46 403.04,-322.46 10.02,219.21 39.16,735.53 -36.88,899.49 -96.33,23.45 -212.57,15 -316.07,16.28 -135.38,1.69 -181.56,10.1 -264.1,-49.35l73.41 223.29 594.49 -33.85c59.42,-22.67 527.19,-55.48 645.89,-63.04 129.61,-8.27 517.8,-119.29 585.73,12.66 9.96,49.48 63.96,1421.71 -45.35,1558.69 -44.85,94.87 -682.04,127.78 -808.39,132.16 -242.33,8.41 -92.6,-113.56 -327.2,-41.42 -237.31,72.98 -138.28,-32.75 -294.6,5.61l-266.74 -6.07c-12.24,-32.49 -18.4,-75.25 -29.39,-103.35 -32.88,-84.12 2.76,-37.48 -52.69,-96.9 0,260.95 0.87,271.5 219.34,274.7l637.34 11.19c-44.68,98.99 -8.27,164.84 -231.5,126.77l-1.73 337.19c35.27,44.01 17.22,7.57 41.26,78.44 13.48,39.71 13.37,48.72 18.31,90.23 3.56,29.87 3.74,125.73 3.72,160.07 -0.07,131.69 -6.41,250.24 -23.64,381.06 39.43,-70.99 29.6,-119.22 35.1,-164.86 6.42,-53.38 -4.07,-30.12 13.85,-90.11 27.67,-92.63 -2.5,-30.95 49.57,-93.76 86.15,104.09 59.19,186.5 69.37,326.02 13.38,183.25 47.01,69.14 -90.55,213.47l152.48 -19.13c223.28,-7.24 690.01,-42.07 885.05,-0.11l188.8 -38.9c79.09,5.43 95.31,9.07 120.92,66.55 34.02,76.41 -10.97,1028.51 -16.07,1142.04 -170.38,64.14 -928.93,94.16 -1151.31,84.25 -59.09,-73.32 -65.07,-142.96 -113.16,-200.93l-131.78 -98.97c-5.27,-3.61 -18.36,-4.12 -22.21,-15.86 -3.9,-11.94 -14.84,-10.99 -22.31,-16.44 -53.88,97.09 15.44,82.95 -108.04,51.09 331.09,538.91 447.2,580.75 -414.14,602.99 47.42,53.02 16.43,93.05 295.08,44.25 97.18,-17.02 149.96,-14.68 258.09,-14.44 -58.03,110.68 -35.43,36.28 -143.47,126.92 57.05,144.16 -10.31,84.12 19.78,412.5 14.27,155.83 44.63,269.47 13.64,419.58l50.2 596.01c4.95,9.61 9.51,22.41 14.96,28.77l103.16 70.84c-194.97,-633.19 16.53,-492.36 549.35,-510.92 209.03,-7.27 469.88,-28.28 674.04,-10.27l15.64 164c26.82,287.15 74.7,972.54 -43.22,1175.06l-8.01 52.75c147.49,-43.62 46.7,101.18 114.39,-111.71l0.55 -922.34c-13.02,-352.58 -107.27,-176.73 8.39,-324.13 167.16,228.95 -19.27,980.83 54.75,1244.92 33.9,120.91 67.09,125.68 167.56,152.47l3239.06 9.24c43.74,-0.9 82.8,-2.44 124.64,-13.17 81.13,-20.83 50.53,-14.68 81.4,-38.71 195.12,-70.75 6.13,-42.06 180.62,15.74 118.95,39.42 625.87,58.58 756.43,29.73l124.73 -56.55c-253.7,11.54 -653.67,69.94 -856.84,-31.27 -77.86,-158.84 -45.14,-1153.47 -34.81,-1405.41 860.56,-65.72 1115.02,67.56 1557.1,68 85.68,0.09 171.19,-4.73 257.58,-0.06 267.4,14.5 277.92,96.99 275.39,698.14 -1.1,262.98 36.11,471.07 -75.99,628.69 149.15,-37.45 103.3,-48.16 274.16,-57.05 29.4,151.41 22.53,218.98 190.44,280 8.04,-6.86 20.81,-26.46 24.04,-30.26l39.44 -41.45 -176.01 -3.72c-7.03,-201.34 -129.86,-491.2 -123.94,-1029.4 12.17,-1105.98 5.03,-2828.28 -86.15,-3879.7l-48.93 -1673.69c-22.91,-739.76 -83.18,-1408.38 -124.13,-2130.2 -43.17,-760.92 54.94,-1520.08 37.58,-2248.83l-49.96 -4537.65c-0.85,-377.37 -23.76,-746.98 -32.36,-1110.6 -31.13,-1316.76 356.32,-1102.85 -904.14,-946.59l-1006.36 70.33c-349.73,26.43 -729.77,-19.7 -1072.89,9.94 -157.96,13.64 -327.76,53.36 -477.54,61.83l-1077.09 1.57c-182.18,3.12 -337.43,33.12 -507.94,40.52 -320.73,13.95 -727.82,44.6 -1048.95,39.07 -175.01,-3 -321.46,-44.25 -502.47,-23.7 -187.02,21.25 -236.03,66.72 -480.26,67.25 -137.74,0.3 -911.17,20.77 -958.25,65.34z"/>
    <path id="_1" class="fil2 str0" d="M13368.38 22056.95l279.09 -7.65 307.11 -17.31c515.41,56.52 1484.83,-103.37 1938.81,0.56 46.28,125.96 23.67,1301.4 7.57,1450.09 -862.39,-39.35 -2650.43,39.31 -3329.9,-28.13l-192.2 -50.33c-54.64,-111.19 -74.17,-1137.72 -57.25,-1335.06l1046.77 -12.17zm-722.36 -1371.82l969.39 -45.47c29.44,193.56 46.2,1074.05 -10.55,1209.81 -104.44,124.4 -908.91,51.24 -1117.38,51.82 -250.67,0.7 -1003.35,57.35 -1173.17,-17.56l-34.98 -1109.76 1366.69 -88.84zm4841.64 1269.01c-82.17,-118.79 -102.32,-745.08 -102.58,-961.91 -0.28,-250.06 -21.29,-343.65 209.02,-353.86 158.66,-7.03 356.1,-2.68 486.75,30.74 39.58,174.03 75.73,1116.54 -1.04,1243.67 -113.6,110.61 -438.78,64.15 -592.15,41.36zm-6428.52 -77.28c-315.73,142.81 -261.3,-124.19 -264.5,-376.52 -5.15,-406.04 -113.7,-466.76 292.48,-452.5 22.7,272.24 66.66,546.54 -27.98,829.02zm6182.8 -62.76c3.7,-186.14 0.61,-444.76 -16.67,-628.55 -13.22,-140.64 25.85,-379.85 -38.65,-478.74 -70.85,-98.45 -186.58,-64.85 -414.14,-62.51l-2602.85 5.32c-244.2,-7.43 -287.31,-44.86 -365.02,45.01 -99.14,114.65 4.26,757.78 -32.89,1028.66 -1.45,10.59 -4.69,21.76 -6.12,30.27 -9.82,58.31 -44.74,61.83 11.57,41.02 126.18,181.33 1393.35,74.26 1693.92,78.08l1333.11 11.24c434.16,26.5 340.99,38.6 418.84,-67.98l-18.88 1.83m-1501.68 -2493.66l-9.05 -7.61c54.39,51.13 59.34,-0.11 54.83,279.02 -16.02,989.72 128.29,928.78 -435.84,906.02 -345.44,-13.95 -869.51,32.46 -1249.6,-8.95 -252.19,-12.72 -1525.77,50.28 -1573.85,26.19 -25.41,-38.84 -11.86,-4.09 -27.53,-71.35l-10.18 -215.84c1.69,-98.06 0.71,-188.15 -0.97,-286.16 -3.12,-182.11 -20.63,-415.57 33.22,-571.18 105.33,-143.57 1993.06,-30.28 2441.88,-78.04 150.3,-15.98 223.01,-19.23 386.88,-18.63 142.86,0.54 295.22,-32.7 390.21,46.53zm2382.9 1138.39c-141.94,15 -253,33.41 -392.04,36.44 -157.76,3.45 -276.95,-22.77 -405.24,-15.5 -246.9,13.99 -582.1,24.93 -864.8,26.04 -472.32,1.82 -494.28,106.55 -527.26,-344.46 -10.5,-143.65 -17.9,-719.57 5.44,-837.35l2159.4 -5.7c17.39,212.26 74.35,970.95 24.5,1140.53zm-3461.31 -2589.61c73.42,-39.18 1103.18,-77.17 1259.6,-74.35l972.35 -25.11c306.86,-34.38 223.74,-1.98 250.86,32.61 30.71,42.86 83.69,1262.53 48.83,1347.96 -379.8,67.54 -1722.16,-70.71 -2541.46,-0.42l-885.83 -3.86c-1.32,-124.68 -104.03,-1174.75 100.32,-1230.56l795.33 -46.27zm-2485.91 164.61l190.46 -33.63c245.7,-39.97 982.33,-99.6 1194.09,-46.75l27.02 623.85c0.39,109.55 4.98,461.41 -79.26,551.59 -67.46,82.31 -134.48,52.9 -284.05,46.36 -548.9,-23.96 -1531.01,3.45 -2101.84,9.79 -17.7,-175.63 -9.94,-368.3 -13.54,-546.58 -4.4,-219.1 -62.74,-247.41 -42.08,-475.29 291.64,-103.84 785.81,-124.91 1109.2,-129.34zm5221.14 829.21c-63.43,-82.98 -95.24,-499.15 -47.42,-632.24 -47.87,-58.43 -26.19,-12.36 -44.2,-100.42 -82.48,-403.38 180.68,-365.73 586.28,-346.57 229.86,10.87 199.22,25.68 196.75,698.28 -2.25,607.98 120.4,733.21 -488.35,682.41 -231.94,-19.36 -183.14,-70.6 -203.06,-301.46zm-4513.53 -2716.96c120.68,-16.26 210.01,-15.12 342.22,-14.71 189.14,0.57 125.21,-25.08 286.19,-45.11 214.68,-26.71 455.16,-40.75 685.08,-44.3 100.53,-68.23 505.65,-30.23 656.77,-45.39 143.39,-14.37 537.31,-73.45 601.82,1.07 116.91,119.33 130.2,1282.85 135.9,1564.07l0.63 32.04c-49.41,132.89 -14.86,104.19 -207.83,104.56l-1528.29 11.62c-79.57,103.04 -64.91,58.33 -378.4,67.14 -289.68,8.13 -1091.58,60.96 -1230.25,34.47l-35.98 -1621.05 672.14 -44.41zm-740.84 -138.91c-77.43,66.62 -76.65,48.5 -284.53,62.04 -115.54,7.52 -200.81,30.46 -287.2,38.68 -160.88,15.31 -463.48,42.07 -571.89,-1.41 -47.45,-154.94 -57.77,-1081.16 -19.22,-1297.59 48.58,-272.78 118.36,-261.58 159.68,-280.7 159.39,-104.98 808.27,-64.63 1018.42,-84.32 79.92,-33.19 384.84,-15.98 527.09,-21.02l409.66 -40.35c9.72,0.53 21.48,3.27 29.32,4.02 7.78,0.73 23.15,15.05 28.71,6 89.45,-145.5 103.21,880.33 106.05,947.97l-13.3 539.75 -38.9 104.26c-240.41,15.88 -869.47,77.32 -1063.89,22.67zm1027.19 -3502.27c82.46,-38.63 1947.83,-141.55 2142.58,-101.34l12.07 417.05c52.7,134.49 78.98,1076.13 21.7,1249.98l-147.73 -10.84c-66.07,55.92 -67.4,50.27 -228.38,54.41l-1524.57 92.43 -205.23 -39.87c-59.35,78.57 25.55,74.83 -270.85,79.11 -261.54,3.78 -395.99,62.41 -810.52,14.35 -54.67,-255.19 -103.56,-1463.89 -13.02,-1663.11l1023.95 -92.17zm-1619.97 1746.65c-117.17,79.84 -126.22,26.81 -389.68,10.37 -11.29,-241.02 52.7,-357.4 -6.55,-675.8 -43.69,-234.78 -106.28,-452.11 -123.87,-656.94 -51.09,-52.51 -51.87,-87.33 -47.68,-179.83 215.87,-54.92 721.67,-152.65 969.72,-97.45 10.31,265.69 3.29,549.25 2.75,816.56 -1.43,711.46 126.55,877.94 -404.69,783.09zm5023.85 -1887.54l1254.91 -40.64c51.71,435.77 -35.85,875.82 -11.28,1272.31 23.25,375.35 23.24,314.18 -95.78,334.67l-340.84 61.87c-0.36,0.11 -78.47,22.53 -94.57,31.18 -99.53,53.45 -23.8,4.68 -94.94,79.54l508.65 -13.61c133.76,-8.07 142.77,-23.36 172.97,202.1 20.29,151.42 12.08,118.95 9.77,256.41 -2.76,164.37 -4.57,66 41.42,241.74 29.36,112.16 41.74,96.62 8.3,233.5 -44.17,234.87 80.67,454.55 33.79,711.84 -163.65,83.2 -519.19,92.94 -716.65,27.1l-15.16 -357.75c-22.07,-43.38 -4.12,-43.86 -16.53,-96.19l-58.46 -157.68c-53.05,64 -63.89,85.62 -68.22,221.28 -5.52,172.85 -3.46,415.22 99.97,539.97l412.67 -9.43c171.34,-15.09 213.8,-79.3 361.17,31.66l69.23 739.66c16.29,268.17 58.39,690.89 9,944.14 -589.08,29.51 -1256.18,-19.93 -1774.25,8.05 -135.69,7.32 -354.71,111.16 -454.13,10.6 -74.07,-72.73 -109.6,-1044.26 -129.24,-1248.7l-17.85 -432.32 63.07 -23.66c136.12,-39.67 182.68,-23.6 265.93,-31.24 70.76,-6.5 86.54,-16.65 145.35,-16.28l160.19 20.74c168.57,19.45 505.32,34.94 639.42,-56.36 -16.7,6.91 -12.7,5.52 -77.62,-8.32l-688.81 -23.97c-147.14,16.51 -125.03,50.27 -281.25,13.18 -452.59,-73.64 -2265.03,168.5 -2419.87,84.64 -39.37,-40.41 -151.24,-1494.06 -38.97,-1534.54 194.87,-70.24 2848.83,-207.29 2930.86,-208.64l63.25 -73.55 -350.72 -15.78c-149.67,-31.93 -391.64,10.12 -502.64,-41.89 -59.21,-131.46 -112.91,-1547.73 -79.39,-1631.52 117.87,-41.98 941.51,-85.81 1077.25,-44.11zm-4207.38 -1587.64c123.13,-8.82 832.1,-114.82 912.51,-26.79 83.89,91.83 53.93,936.67 64.41,1164.07 2.94,63.71 15.2,165.57 10.11,224.22 -14.21,163.7 26.08,113.97 -66.24,157.77 -72.92,53.82 -196.69,52.36 -296.09,29.01 -145.82,95.84 -343.45,71.57 -528.73,87.96 -124.84,11.03 -506.55,4.15 -536.87,14 -189.55,61.56 -300.22,72.51 -509.92,75.13l-514.17 -15.32c-0.32,-0.75 -111.01,-131.91 -133.26,-353.47 -20.1,-200.17 -56.04,-1162.05 21.39,-1311l1576.86 -45.58zm1306.78 -87.25l3137.05 -62.38c142.02,278.74 126.81,1118.42 125.65,1507.01 -451.39,106.81 -1729.96,84.65 -2263.33,109.45 -61.37,38.44 -356.47,39.82 -493.32,6.78 -52,42.38 7.95,11.45 -72.32,36.4 -49.85,15.49 -1.69,3.82 -56.86,12.61 -661.96,105.34 -542.64,-243.04 -565.46,-829.18 -6.43,-164.91 -15.5,-311.3 -13.35,-477.38 3.87,-299.77 -36.48,-263.62 201.94,-303.31zm-3413.24 1541.8c-4.13,-159.05 -5.6,-318.53 -22.86,-476.49 -14.45,-132.06 -152.64,-744.41 -11.33,-843.35 57.66,-40.37 302.19,-67.32 342.78,-59.66l17.66 52.92c30.54,136.13 -2.41,515.15 8.79,724.92 10.84,202.48 36.18,536.37 15.6,740.42l-350.64 -138.76zm6843.96 -98.75c0,-260.36 7.8,-515.03 -22.39,-772.56 -26.62,-227.01 -68.95,-509.19 -56.16,-748.18l793.02 17.62c37.96,534.49 80.36,927.32 28.41,1489.55 -250.82,49.54 -475.3,95.53 -742.88,13.57zm-1531.71 -1654.36l-109.9 -39.42c2.55,-246.18 -26.13,-498 -23.93,-746.02 0.99,-113.1 4.04,-266.29 18.19,-376.96l62.02 -244.36c16.55,-130.89 1039.59,-51.42 1196.45,-49.91 205.69,2.01 392.13,8.56 598.03,-6.15 216.2,-15.44 503.23,-111.58 529.14,54.74 0.07,0.22 95.11,1224.39 -56.43,1347.28 -105.02,68.32 -1972.5,97.2 -2213.57,60.8zm-318.26 -1374.53c116.68,22.87 44.21,530.95 41.58,652.56 -4.82,223.47 35.06,494.51 4.81,708.95 -187.82,67.15 -1315.25,93.38 -1527.15,43.69 -7.69,5.3 -18.17,10.35 -24.82,13 -6.67,2.67 -17.04,9.01 -25.5,11.94 -103.63,35.91 -94,24.12 -372.48,22.65 -152.17,-0.81 -230.87,2.33 -373.02,27.53 -188.74,33.48 -629.17,38.84 -833.54,30.66 -23.57,-488.67 -88.53,-994.48 -1.1,-1458.67 272.9,-1.06 552.95,-15.64 826.91,-22.12 136.55,-3.24 292.84,23.86 411.96,11.75 113.64,-11.55 170.17,-44.57 316.77,-53.24 102.07,-6.05 1383.91,-57.71 1486.54,-27.38 85.49,25.25 15.7,-10.68 69.04,38.68zm378.67 -212.52c-421.6,-21.95 -1349.04,110.8 -1710.78,27.91 -65.07,39.03 0.12,12.78 -96.84,30.95 -352.75,66.11 -385.75,-4.31 -390.21,-206.97 -1.47,-67.27 3.6,-148.82 1.92,-224.35 -10.33,-467.24 -100.72,-786.33 -23.45,-1172.44 472.11,-46.66 1280.85,-10.97 1750.68,21.9 496.67,34.76 1298.99,-119.94 1727.75,-15.98 46.59,349.75 63.7,1175.61 20.94,1522.5l-1280.01 16.48zm2161.75 -86.67c-174.84,23.91 -544,68.04 -681.37,15.12 -33.53,-104.66 -46.99,-107.12 -8.29,-224.82 -23.43,-35.33 -16.46,-15.73 -31.9,-79 -26.03,-106.75 2.61,46.92 -9.69,-59.2l-13 -794.96c0.65,-49.45 0.27,-111.64 5.11,-159.7 27.67,-274.57 123.76,-131.79 454.48,-144.72 140.17,-5.47 233.39,-73.93 344.19,-9.33 60,56.6 -0.37,880.37 5.27,1107.5 8.14,327.01 50.24,298.8 -64.8,349.11zm-7369.89 -1319.76l73.77 -37.93c8.68,-3.31 16.82,-6.01 25.99,-9 137.1,-44.67 533.1,-49.01 700.91,-62.59 283.84,-22.97 587.39,4.71 870.87,-11.32 88.55,-30.93 400.93,-16.95 556.22,-16.76l501.04 1.27c6.99,1.3 21.45,16.02 26.39,7.91 77.08,-126.44 88.25,1548.83 79.72,1609.02 -411.23,77.26 -1918.58,-23.67 -2705.46,95.19 -51.09,-125.11 -94.75,-157.47 -110.33,-326.92l-19.12 -1248.87zm7438.46 -915.65c33.94,65.64 26.23,304.54 25.42,429.88 -1.5,236.83 -80.28,181.05 -316.18,196.4l-159.02 0.42 -2204.47 0.86 -29.07 -113.83c-1.95,-264.88 -50.25,-497.81 -13.12,-778.24 132.55,-32.12 527.14,-28.29 691.58,-31.22 125.51,-2.23 215.38,6.67 334.78,-19.58 252.36,-55.45 691.99,-12.57 1030.02,-37.74l632.78 -58.6 7.28 411.65zm-5826.38 -124.89c263.45,-78.51 2722.89,-147.2 2903.65,-117.64 74.74,138.97 95.62,674.43 29.09,850.78 -156.21,43.08 -2736.53,13.42 -2793.17,13.48 -5.89,-6.63 -12.07,-16.72 -15.45,-21.68l-124.12 -724.94zm-2025.3 -94.78c141.43,28.44 1033.47,-5.47 1278.19,-18.95 73.83,-4.06 56.21,0.14 127.35,-17.68 97.77,-24.48 327.39,-97.35 424.24,-68.38 123.35,36.9 26.88,-19.31 112.75,84.64 -226.96,85.17 -452.94,-38.48 -697.99,98.28l630.96 1.77c14.39,139.81 26.34,657.71 -20.53,764.79 -126.65,31.49 -395.42,-4.69 -548.38,0.15 -302.82,9.55 -1302.15,134.54 -1531.04,15.86 79.39,170.63 89.56,76.34 302.85,110.16l-58.22 124.77 177.43 -1.51c44.66,103.61 56.35,802.67 52.95,980.08 -11.79,616.2 81.47,668.36 -307.69,639.26 -16.17,147.05 -17.3,116.29 -60.75,234.95 217.74,-104.63 751.07,-84.99 1046.84,-88.18 233.11,-2.52 842.72,-145.32 972.04,18.03 104.82,146.67 18.68,515.54 35.3,719.01l12.31 571.34c-6.56,182.23 5.96,48.35 -40.01,80.96 -40.42,48.83 17.53,21.46 -73.73,53.55l-1606.18 39.43c-103.53,-194.94 12.05,-151.65 -253.76,-183.12 133.33,191.82 150.2,54.28 253.61,294.76 -64.4,48.99 -22.37,34.18 -121.82,48.45 -9.39,1.36 -58.45,-13.52 -68.59,-16.87 -0.12,242.51 45.26,98.18 -28.89,257.2 -66.55,142.75 -21.7,-138 -1.52,43.41 5.17,46.44 63.57,-42.31 8.84,116.16l-18.86 -3.94c85.75,81.23 48.19,-21.73 77.46,159.27 0.25,1.55 -8.64,126.52 -9.52,129.92 -46.71,180.93 -35.9,52.15 -114.22,176.13 6.7,8.19 53.45,49.06 84.48,71.39 7.15,103.83 -3.66,232.3 -15.37,280.92 -51.53,98.57 -12.81,130.98 -45.93,166.06 188.01,41 84.22,41.8 100.88,49.95 209.21,102.26 173.21,12.63 205.14,135.4 33.86,130.27 -18.78,127.78 -20.35,131.65 -109.37,45.43 -434.97,114.57 -518.84,-247.39l-52.17 -133.24c-114.58,-0.72 -58.6,-14.84 -82.16,58.58 45.28,96.94 51.65,64.59 64.58,160.59l-604.24 -38.62 50.33 73.47c201.02,0 291.55,-9.82 456.38,34.12 254.32,67.82 235.52,25.73 305.24,183.14 469.58,-57.12 737.89,-45.19 876.89,269.95 111.88,253.66 204.42,636.32 203.08,971.1 -2.49,618.08 -97.72,769.9 -307.48,1155.28 -196.44,360.9 -377.63,305.57 -396.88,420.21l5.46 91.61 107.24 41.76c308.87,-188.61 200.51,-260.46 403.04,-322.46 10.02,219.21 39.16,735.53 -36.88,899.49 -96.33,23.45 -212.57,15 -316.07,16.28 -135.38,1.69 -181.56,10.1 -264.1,-49.35l73.41 223.29 594.49 -33.85c59.42,-22.67 527.19,-55.48 645.89,-63.04 129.61,-8.27 517.8,-119.29 585.73,12.66 9.96,49.48 63.96,1421.71 -45.35,1558.69 -44.85,94.87 -682.04,127.78 -808.39,132.16 -242.33,8.41 -92.6,-113.56 -327.2,-41.42 -237.31,72.98 -138.28,-32.75 -294.6,5.61l-266.74 -6.07c-12.24,-32.49 -18.4,-75.25 -29.39,-103.35 -32.88,-84.12 2.76,-37.48 -52.69,-96.9 0,260.95 0.87,271.5 219.34,274.7l637.34 11.19c-44.68,98.99 -8.27,164.84 -231.5,126.77l-1.73 337.19c35.27,44.01 17.22,7.57 41.26,78.44 13.48,39.71 13.37,48.72 18.31,90.23 3.56,29.87 3.74,125.73 3.72,160.07 -0.07,131.69 -6.41,250.24 -23.64,381.06 39.43,-70.99 29.6,-119.22 35.1,-164.86 6.42,-53.38 -4.07,-30.12 13.85,-90.11 27.67,-92.63 -2.5,-30.95 49.57,-93.76 86.15,104.09 59.19,186.5 69.37,326.02 13.38,183.25 47.01,69.14 -90.55,213.47l152.48 -19.13c223.28,-7.24 690.01,-42.07 885.05,-0.11l188.8 -38.9c79.09,5.43 95.31,9.07 120.92,66.55 34.02,76.41 -10.97,1028.51 -16.07,1142.04 -170.38,64.14 -928.93,94.16 -1151.31,84.25 -59.09,-73.32 -65.07,-142.96 -113.16,-200.93l-131.78 -98.97c-5.27,-3.61 -18.36,-4.12 -22.21,-15.86 -3.9,-11.94 -14.84,-10.99 -22.31,-16.44 -53.88,97.09 15.44,82.95 -108.04,51.09 331.09,538.91 447.2,580.75 -414.14,602.99 47.42,53.02 16.43,93.05 295.08,44.25 97.18,-17.02 149.96,-14.68 258.09,-14.44 -58.03,110.68 -35.43,36.28 -143.47,126.92 57.05,144.16 -10.31,84.12 19.78,412.5 14.27,155.83 44.63,269.47 13.64,419.58l50.2 596.01c4.95,9.61 9.51,22.41 14.96,28.77l103.16 70.84c-194.97,-633.19 16.53,-492.36 549.35,-510.92 209.03,-7.27 469.88,-28.28 674.04,-10.27l15.64 164c26.82,287.15 74.7,972.54 -43.22,1175.06l-8.01 52.75c147.49,-43.62 46.7,101.18 114.39,-111.71l0.55 -922.34c-13.02,-352.58 -107.27,-176.73 8.39,-324.13 167.16,228.95 -19.27,980.83 54.75,1244.92 33.9,120.91 67.09,125.68 167.56,152.47l3239.06 9.24c43.74,-0.9 82.8,-2.44 124.64,-13.17 81.13,-20.83 50.53,-14.68 81.4,-38.71 195.12,-70.75 6.13,-42.06 180.62,15.74 118.95,39.42 625.87,58.58 756.43,29.73l124.73 -56.55c-253.7,11.54 -653.67,69.94 -856.84,-31.27 -77.86,-158.84 -45.14,-1153.47 -34.81,-1405.41 860.56,-65.72 1115.02,67.56 1557.1,68 85.68,0.09 171.19,-4.73 257.58,-0.06 267.4,14.5 277.92,96.99 275.39,698.14 -1.1,262.98 36.11,471.07 -75.99,628.69 149.15,-37.45 103.3,-48.16 274.16,-57.05 29.4,151.41 22.53,218.98 190.44,280 8.04,-6.86 20.81,-26.46 24.04,-30.26l39.44 -41.45 -176.01 -3.72c-7.03,-201.34 -129.86,-491.2 -123.94,-1029.4 12.17,-1105.98 5.03,-2828.28 -86.15,-3879.7l-48.93 -1673.69c-22.91,-739.76 -83.18,-1408.38 -124.13,-2130.2 -43.17,-760.92 54.94,-1520.08 37.58,-2248.83l-49.96 -4537.65c-0.85,-377.37 -23.76,-746.98 -32.36,-1110.6 -31.13,-1316.76 356.32,-1102.85 -904.14,-946.59l-1006.36 70.33c-349.73,26.43 -729.77,-19.7 -1072.89,9.94 -157.96,13.64 -327.76,53.36 -477.54,61.83l-1077.09 1.57c-182.18,3.12 -337.43,33.12 -507.94,40.52 -320.73,13.95 -727.82,44.6 -1048.95,39.07 -175.01,-3 -321.46,-44.25 -502.47,-23.7 -187.02,21.25 -236.03,66.72 -480.26,67.25 -137.74,0.3 -911.17,20.77 -958.25,65.34z"/>
   </g>
   <path class="fil3" d="M6091.11 23635.69c283.6,-19.73 1517.4,43.88 1625.3,-15.79 118.84,-95.28 -49.34,-637.06 -26.87,-1017.66l153.67 -62.4 -3.64 -95.16c77.64,-88.77 57.2,-855 59.56,-1039.6 7.57,-592.38 -18.81,-263.9 -100.97,-458.95 -51.08,-121.25 38.48,-291.71 60.38,-419.2 38.29,-222.93 85.36,-1930.36 49.92,-2061.98 -131.83,-171.49 -501.61,-133.58 -726.39,-145.83 -833.32,-45.43 -1758.82,-112.08 -2573.99,-47.86l-7.89 581.41c-126.85,70.79 -410.21,22.16 -589.76,28.22 -170.9,5.76 -407.06,70.46 -586.78,34.15 -28.74,-175.43 20.34,-358.17 20.62,-438.26 0.32,-93.29 2.88,-16 -10.85,-77.25 -1.43,-6.39 -9.66,-11.59 -10.97,-25.4 -1.33,-14.15 -7,-17.82 -12.8,-25.28 -146.06,68.93 -62.96,117.16 -192.83,228.27 -105.12,89.96 -210.52,78.54 -266.37,143.72 -64.8,75.62 -65.14,222.73 -109.06,311.56 -74.03,149.68 -99.69,65.08 -109.68,275.56 -20.52,432.02 52.86,1074.57 67.34,1528.14 16.74,524.58 26.92,1016.07 22.93,1553.95 -1.83,244.62 -19.2,504.52 -26.24,760.28 -4.76,172.84 -3.16,231.61 20.69,402.68 29.38,210.69 -27.46,113.97 -37,285.92 184.17,-5.36 299.83,-52.48 534.91,-48.6l1175.98 -49.46c111.22,-6.41 428.01,-14.73 501.65,-62.4 186.46,27.26 988.28,10.79 1099.14,-42.78z"/>
   <path class="fil4 str1" d="M9973.46 6352.66c47.08,-44.57 820.51,-65.04 958.25,-65.34 244.23,-0.53 293.24,-46 480.26,-67.25 181.01,-20.55 327.46,20.7 502.47,23.7 321.13,5.53 728.22,-25.12 1048.95,-39.07 170.51,-7.4 325.76,-37.4 507.94,-40.52l1077.09 -1.57c149.78,-8.47 319.58,-48.19 477.54,-61.83 343.12,-29.64 723.16,16.49 1072.89,-9.94l1006.36 -70.33c1260.46,-156.26 873.01,-370.17 904.14,946.59 8.6,363.62 31.51,733.23 32.36,1110.6l49.96 4537.65c17.36,728.75 -80.75,1487.91 -37.58,2248.83 40.95,721.82 101.22,1390.44 124.13,2130.2l48.93 1673.69c91.18,1051.42 98.32,2773.72 86.15,3879.7 -5.92,538.2 116.91,828.06 123.94,1029.4l176.01 3.72 340.94 -44.07c89.89,-224.03 -16.95,-780.79 -24.78,-1053.81 -9.27,-323.77 3.3,-809.14 -42.43,-1135.81 -45.45,-324.61 -14.16,-726.61 -44.3,-1083.4 -70.74,-837.47 -223.85,-2575.86 -222.39,-3269.45 1.62,-769.92 0.48,-1581.7 -23.79,-2349.64l-43.04 -2251.49c-4.14,-381.59 -63.25,-691.74 -65.34,-1078.88 -2.11,-393.04 1.53,-781.4 8.76,-1174.08 13.25,-719.22 -68.89,-1520.12 -6.9,-2235.47 55.4,-639.12 -49.38,-1162.55 -5.77,-1699.27 8.72,-107.19 6.05,-182.08 6.76,-286.04 0.31,-46.75 5.84,-115.97 2.66,-159.48l-33.8 -132.03c-111.62,-46.78 -937.6,33.75 -1152.2,38.65 -392.76,8.98 -796.97,-21.14 -1201.73,-29.97 -778.25,-16.97 -1662,30.14 -2432.87,83 -389.05,26.69 -806.95,23 -1212.21,37.02l-1759.43 101.66c-317.59,34 -1008.87,19.08 -1231.39,37.4 -196.88,16.2 -95.26,36.11 -232.05,76.02 -96.03,28.03 -162.23,6.06 -281.92,36.81 -28.8,120.58 21.84,257.79 36.82,390.13 248.58,67.74 722.04,-59.87 980.61,-46.03z"/>
   <path class="fil5" d="M8923.82 12684.85l-24.77 -73.33 95.09 -2.96c-35.53,-25.78 17.51,-29.7 -71.95,-45.02 -164.56,-28.17 -49.72,-1.52 -96.62,20.08 39.33,119.99 -6.19,49.74 98.25,101.23zm-454.33 4892.65l-61.85 70.09c-4.14,-4.83 -9.42,-14.91 -13.21,-19.82 -5.06,-6.54 -26.04,-29.25 -28.98,-44.14 -2.58,-13.03 -9.89,-15.73 -15.89,-22.77 7.67,131.35 -17.35,101.6 75.12,182.71 73.85,-29.31 79.91,8.73 91.42,-84.69 12.9,-104.6 -43.16,-78.07 -46.61,-81.38zm-267.15 -6611.54c123.24,83.18 265.89,113.96 127.11,285.09 -96.3,-24.67 -63.18,-57.31 -139.05,-113.93 -190.73,-142.29 -582.37,52.07 -597.59,145.49 -8.79,53.99 376.67,502.75 388.43,507.88 87.12,141.76 297.02,293.86 449.75,374.22 183.32,96.44 433.44,132.24 609.91,186.94l604.24 38.62c-12.93,-96 -19.3,-63.65 -64.58,-160.59l-103.37 -1410.62c-49.2,-365.47 70.4,-259.4 184.99,-298.01 23.64,-150.12 -55.23,-1465.29 -109.12,-1542.89l25.08 -2398.34c-561.72,6.76 -1134.02,4 -1694.32,22.61 -543.8,18.07 -1140.09,79.92 -1680.83,44.52l-412.94 2.1c-588.28,18.74 -3056.53,-16.26 -3449.38,136.02l34.65 1292.63c3.23,441.94 81.13,2831.6 126.52,3192.73 28.36,225.58 9.14,415.16 28.56,619.45 169.67,1104.31 144.35,2328.18 166.4,3454.41 6.63,338.24 -46.02,903.49 -8.17,1199.68 207.16,79.85 267,-26.37 401.13,161.83 92.94,130.43 -10.08,56.73 123.23,120.48 65.97,-193.17 27.77,-636.73 -0.02,-878.93 -46.61,-64.67 -60.93,-198.24 -50.36,-285.74 287.03,-133.9 177.9,24.83 421.7,-12.11l544.35 -69.26c210.62,-46.94 117.41,-82.44 344.45,-15.96 -25.73,175.1 -62.48,184.12 -60.6,381.63 1.31,137.23 -2.9,312.58 6.55,444.76 16.43,229.73 43.53,571.31 89.23,800.96l67.03 320.33c126.34,44.63 262.41,89.63 411.37,47.63 95.51,58.77 121.38,42.01 392,40.63 498.38,-2.54 2424.83,335.88 2601.62,237.42 293.02,-333.87 195.82,-305.53 47.34,-736.64 -81.49,-236.6 -217.75,-540.28 -454.13,-603.82 -63.28,-68.31 -687.4,-313.48 -778.94,-310.88 -97.02,-81.95 -427.38,-111.99 -555.44,-180.99 -161.18,-86.83 -308.73,-267.08 -411.2,-300.13 -107.53,-219.78 -322.85,-326.8 -436.43,-409.31 -278.78,-202.49 -574.31,4.32 -870.09,-366.37 -54.01,-67.68 -89.12,-144.34 -117.41,-230.02 -25.12,-76.04 -11.99,-42.25 -27.38,-121l-51.39 -169.1c64.84,-209.77 -20.6,-993.79 34.33,-1300.59 18.57,-103.73 97.74,-422.69 134.25,-524.06 37.05,-102.82 184.12,-442.23 185.62,-469.52 102.94,-0.58 72.73,-8.71 158.38,28.37 -47.83,144.35 -38.56,1033.14 317.57,1079.56 117.54,-130.16 165.22,-463.83 262.62,-661.1 78.55,-159.09 242.58,-423.01 345.62,-576.61 222.39,-331.53 376.37,-486.84 740.73,-657.79 162.32,-76.17 227.48,-45.02 281.47,-214.15 140.3,30.24 199.1,60.26 364.97,37.92 42.94,-52.52 173.41,-214.97 194.85,-252.98 125.79,-96.08 48.47,-99.73 235.97,-108.61 -7.18,328.67 -219.88,115.96 -234.8,395.56 216.5,25.39 323.13,-280.89 855.52,-219.42z"/>
   <path class="fil6 str2" d="M5354.43 13397.19c1.91,10.39 19.45,70.76 22.75,78.15l31.98 60.08c75.2,-116.16 31.72,-93.41 53.67,-217.46l53.21 -131.99c4.5,-8.14 18.75,-29.64 22.74,-37.29 91.89,-175.87 -18.5,-85.11 47.75,-297.89 54.54,-175.13 232.49,-159.43 235.18,-24.46 0.25,12.56 -49.81,204.66 -23.98,293.04 60.43,206.71 -148.02,-182.75 62.51,106.18 5.53,7.59 14.74,16.32 22.16,24.43 -4.41,9.35 -13.14,11.64 -15.23,26.98 -9.31,68.32 -49.96,26.15 -28.41,136.64 1.6,8.2 11.91,30.4 14.24,38.36 12.61,43.24 15.24,21.37 18.88,79.79 -130.36,126.82 -106.25,-119.49 -113.25,194.05l131.15 -79.26c8.02,-4.7 18.48,-10.43 27.75,-15.62 179.6,-285.78 -31.74,-871.92 219.81,-1207.59 120.61,-160.93 220.57,-85.9 279.45,69.38 107.49,283.43 41.16,351.52 165.09,665.88 94.7,240.19 81.99,380.83 420.11,431.53 141.25,21.18 126.08,-24.62 197.96,72.38 -78.85,113.04 -287.02,56.58 -427.4,4.74 -171.1,-63.18 -182.92,-125.46 -245.6,-296.01 -51.54,-140.22 -118.27,-256.76 -144.38,-388.94 -23.73,-120.16 -31.7,-358.9 -116.26,-434.32 -187.63,106.89 -91.05,786.22 -195.75,1078.33 -106.61,297.43 -184.96,739.13 -70.8,1093.84 100.07,311 342.86,582.44 626.56,646.73 133.02,30.14 414,-49.89 495.05,-119.83 98,-84.56 153.25,-295.78 297.96,-351.8l48.44 68.42c96.31,16.5 15.62,45.55 99.75,-31.89 -35.25,-224.39 64.73,-231.92 -125.84,-285.58l31.78 -188.58c-196.19,-125.85 -234.68,-335.25 -253.97,-540.3 94.72,-44.31 6.66,-14.14 126,-46.08l48.08 105.01c-150.86,-77.6 -92.59,-8.97 -139.31,67.05 32.89,68.41 31.6,43.45 53.87,68.7l49.78 60c1.65,3.35 3.98,11.78 5.72,15.69l45.34 101.65c78.9,-92.41 21,-121.65 95.23,-170.14 9.63,71.21 56.38,223.3 60.25,257.79 8.87,78.78 -99.23,133.37 130.19,158.54 51.43,-65.21 55.44,-152.6 71.13,-198.99 13.48,137.06 38.01,308.34 119.31,404.69 108.96,-131.42 42.4,-194.97 34.64,-338.49l32.18 -176.2c40.78,-309.16 -210.37,-54.18 -249.61,-341.9 30.49,-14.59 58.07,-37.31 106.12,-30.82 240.67,32.55 -76.87,-3.59 171.74,62.38l-42.88 -137.02c-15.86,-45.08 10.65,3.07 -28.54,-49.29 -125.97,-168.2 -246.46,-233.64 -220.92,-639.14 17.01,-270.03 131.11,-384.69 298.75,-560.49l26.15 -29.16c2.26,-2.48 8.72,-9.26 12.23,-14.53 26.82,-80.27 27.65,-44.55 8.32,-126.02l-79.96 40.8c-240.92,151.16 -36.49,-28.12 -239.54,178.03l-51.02 36.14c-232,43.63 -140.49,-22.04 -361.94,10.56 -255.96,37.68 198.01,5.32 -74.61,13.36 61.56,-227.34 50.37,-80.98 -102.89,-230.73 -177.36,127.98 -193.2,105.64 -238.87,195.01l246.7 11.48c-12.4,89.02 -12.33,206.88 6.67,290.74 67.38,297.44 124.94,-14.95 136.56,217.13 -124.73,0.45 -234.34,-12.02 -337.5,63.47 74,124.22 17.94,61.64 157.43,90.27 263.92,54.14 -52.44,100.79 273.57,157.68 223.72,39.07 86.04,-28.6 160.42,37.63 -122.04,164.7 -238.63,18.97 -322.04,-20.01 -74.05,-34.61 64.01,5.28 -82.28,-28.73 -215.85,-50.16 -400.88,13.24 -397.12,-339.07 1.83,-172.24 48.3,-57.19 -47.9,-151.64 5.75,-6.31 16.39,-11.32 20.71,-15.06l90.79 -111.86c-8.54,-5.05 -20.82,-7.67 -27.99,-10.09l-54.15 -18.36c-8.18,-2.66 -17.6,-5.12 -25.43,-7.63 -84.13,-26.87 15.4,40.72 -82.89,-27.38 30.6,-154.26 10.06,-69.93 76.43,-85.43 8.18,-1.91 46.23,-1.5 59.4,-2.75 46.18,-4.36 33.69,2.35 30.25,-139.97l-182.34 -9.28c-25.07,-195.29 1.76,-70.56 -67.72,-203.75l-23.28 -44.1c-4.34,-8.26 -15.52,-31.69 -19.13,-38.26l-33.26 -47.79c144.51,55.43 9.68,-86.11 192.22,56.52l46.39 38.67c96.91,-30.52 175.87,-64.39 223.14,-131.54 -97.08,-83.73 -163.32,15.24 -180.39,-153.89 142.71,-107.32 141.93,68.63 208.31,-135.54 -151,-78.53 -47.56,-51.44 -204,25.04 -32.19,-154.95 -17.17,-91.42 57.71,-163.02l37.11 -32c71.21,-68.27 7.61,-119.06 172.68,-57.12 9.8,3.68 39.34,18.99 49.66,21.53 73.59,18.13 144.79,17.35 143.47,-102.97 94.04,116.27 -138.78,-67.34 -140.04,-68.56 -227.3,9.54 -527.39,107.56 -695.21,189.23 -224.07,109.02 -308.61,264.08 -457.48,458.05 -218.73,284.98 -565.82,837.4 -539.47,1281.84z"/>
   <path class="fil7" d="M10310.98 20931.02c861.34,-22.24 745.23,-64.08 414.14,-602.99 -94.12,-45.15 -196.63,-194.83 -273.01,-282.01 -83.04,-94.79 -160.73,-187.89 -260.76,-311.77 -304.96,-377.69 -643.79,-890.23 -972.19,-1281.19 -177,-210.74 -310.74,-345.93 -477.08,-624.55 -119.9,-8.66 -176.91,27.29 -284.77,32.74 -138.47,6.98 -179.81,-30.75 -310.19,-1.09 -120.91,266.77 -106.11,1739.58 -117.99,2243.92 -18.94,803.31 -210.21,735.34 430.43,813.81 728.56,89.25 567.31,4.83 762.59,-145.93 310.07,-239.41 85.7,-187.32 15.21,-401.14 -76.88,-233.21 -73.02,-405.53 -253.34,-856.19 -55.12,-137.75 -347.21,-1014.79 -305.42,-1111.12 128.29,-2.77 118.83,47.84 156.87,181.9l404.71 1236.83c45.15,143.11 87.92,357.69 142.99,505.43l394.85 -12.18 -405.31 -966.35c-173.88,-448.13 -428.07,-695.6 -444.22,-961.61 146.89,24.42 183.32,151.98 245.01,267.23l790.89 1649.4c63.49,277 -38.38,118.31 164.94,349.5 79.48,90.37 133.89,148.35 181.65,277.36z"/>
   <path class="fil6 str2" d="M5354.43 13397.19c-264.92,197.07 -159.57,2017.35 1079.43,2411.99l1304.61 537.75c340.67,240.09 566.89,801.98 611.09,1213.93 6,7.04 13.31,9.74 15.89,22.77 2.94,14.89 23.92,37.6 28.98,44.14 3.79,4.91 9.07,14.99 13.21,19.82l61.85 -70.09 -27.03 -856.69c-162.51,-0.79 -87.99,80.02 -240.54,-4.66l0.77 -105.1c162.47,-77.54 300.4,16.6 425.51,-124.41 65.54,-96.24 -23.93,-146.64 113.73,-288.49l-65.98 -292.01c-84.91,-180.32 31.88,-185.66 -109.9,-176.34 -72.75,4.79 -60.08,82.09 -117.04,-17.64 -66.98,-117.33 147.93,-102.15 -119.56,-162.01 -64.26,111.01 -37.36,64.69 -31.74,215.26 -245.14,-139.57 124.46,-169.85 -318.84,-174.1 -23.64,-0.22 -72.75,0.56 -94.13,-4.08 -97.69,-21.16 -52.64,-1.38 -111.14,-52.55 65.74,-49.61 102.03,-45.59 207.01,-50.66 84.02,-4.08 149.78,-10.42 213.27,-29.07 -114.12,-43.1 94.43,44.6 -41.72,-29.29l-172.32 -117.04 159.33 -59.53c33.18,-144.62 -31.71,-173.72 31.58,-277.93 -71.39,-101.15 -81.01,-45.38 -135.58,-143.19 105.39,-39.46 133.21,-53.48 239.42,0 93.72,-226.88 -4.69,117.26 153.19,-295.9 13.31,-34.85 44.29,-80.09 60.54,-107.84l210.38 31.57c16.94,115.04 12.88,147.35 -72.37,189.44 -7.25,3.59 -29.87,6.25 -37.21,8.52l-124.09 55.9 21.46 229.5c375.34,-68.9 207.46,1.73 262.45,231.01 8.32,-7.65 16.19,-32.86 19.24,-27.9l70.04 -190.57c35.02,-77.73 46.84,16.81 85.69,-155.47 197.88,6.03 79.65,48.01 301.93,48.01 -32.34,-147.11 -48.26,-74.39 -58.1,-262.22 -5.26,-100.49 10.57,-220.41 -2.64,-249.18 -20.66,-45 34.79,-28.88 -59.57,-50.11 -164.77,-37.08 -0.05,-20.33 -90.8,35.7 -3.48,2.16 5.81,72.39 -106.8,39.3 -97.38,-28.62 -45.05,48.06 -70.62,-99.98 -4.61,6.84 -9.94,10.44 -12.4,21.39 -12.68,56.55 -82.79,72.74 -138.65,73.81l0 -111.63c169.01,-5.05 86.25,14.06 127.92,-49.1 -439.9,-53.77 -374.63,89.96 -382.43,108.71 -43.03,103.63 23.12,-35.05 -15.95,48.78 -3.35,7.2 -5.97,16.01 -9.78,22.78l-26.88 39.48c-37.35,40.97 -148.79,88.37 -208.55,107.14 42.97,40.6 56.98,-95.62 24.38,68.18 -25.1,126.12 30.79,67.78 -87.7,122.2 -0.59,-0.33 -203.71,-5.48 -45.5,-261.28l124.31 -126.26c149.24,-43.9 -5.11,-34.26 48.32,6.76 -19.36,-47.65 -26.82,63.87 -21.89,-94.62 5.2,-166.7 15.66,-60.89 29.54,-64.03 -296.77,-8.59 -155.85,-107.9 -293.32,-190.4 12.06,-30.33 -59.28,-26.27 83.12,-134.61l-94.58 -65.88 42.88 137.02c-248.61,-65.97 68.93,-29.83 -171.74,-62.38 -48.05,-6.49 -75.63,16.23 -106.12,30.82 39.24,287.72 290.39,32.74 249.61,341.9l-32.18 176.2c7.76,143.52 74.32,207.07 -34.64,338.49 -81.3,-96.35 -105.83,-267.63 -119.31,-404.69 -15.69,46.39 -19.7,133.78 -71.13,198.99 -229.42,-25.17 -121.32,-79.76 -130.19,-158.54 -3.87,-34.49 -50.62,-186.58 -60.25,-257.79 -74.23,48.49 -16.33,77.73 -95.23,170.14l-45.34 -101.65c-1.74,-3.91 -4.07,-12.34 -5.72,-15.69l-49.78 -60c-22.27,-25.25 -20.98,-0.29 -53.87,-68.7 46.72,-76.02 -11.55,-144.65 139.31,-67.05l-48.08 -105.01c-119.34,31.94 -31.28,1.77 -126,46.08 19.29,205.05 57.78,414.45 253.97,540.3l-31.78 188.58c190.57,53.66 90.59,61.19 125.84,285.58 -84.13,77.44 -3.44,48.39 -99.75,31.89 -28.01,75.61 -172.75,290.74 -218.33,348.23 -90.6,114.27 -161.76,128.58 -339.58,168.37 -404.75,90.57 -537.43,-49.82 -759.55,-242.57 -476.85,-413.8 -341.02,-1088.57 -232.78,-1606.77 -9.27,5.19 -19.73,10.92 -27.75,15.62l-131.15 79.26c7,-313.54 -17.11,-67.23 113.25,-194.05 -3.64,-58.42 -6.27,-36.55 -18.88,-79.79 -2.33,-7.96 -12.64,-30.16 -14.24,-38.36 -21.55,-110.49 19.1,-68.32 28.41,-136.64 2.09,-15.34 10.82,-17.63 15.23,-26.98 -7.42,-8.11 -16.63,-16.84 -22.16,-24.43 -210.53,-288.93 -2.08,100.53 -62.51,-106.18 -25.83,-88.38 24.23,-280.48 23.98,-293.04 -2.69,-134.97 -180.64,-150.67 -235.18,24.46 -66.25,212.78 44.14,122.02 -47.75,297.89 -3.99,7.65 -18.24,29.15 -22.74,37.29l-53.21 131.99c-21.95,124.05 21.53,101.3 -53.67,217.46l-31.98 -60.08c-3.3,-7.39 -20.84,-67.76 -22.75,-78.15z"/>
   <path class="fil6 str2" d="M8923.82 12684.85c30.44,62.52 71.86,99.61 113.86,174.16l86.84 174c25.08,39.27 20.59,31.62 43.24,55.28 4.02,-108.86 -21.65,-160.27 6.34,-178.15l75.67 -9.04c47.38,122.77 8.42,120.54 71.44,229.01 60.39,103.94 74.47,4.59 38.73,159.61 -50.8,220.31 -52.1,79.06 48.53,341.05l-55.45 63.05c-6.48,7.81 -24.83,30.16 -30.97,38.22l-41.23 59.05c-58.02,91.79 -54.66,128.55 -132.81,182.03 103.68,85.82 39.45,30.78 85.6,92.66 127.81,171.4 92.46,197.55 22.31,270.24l-45.38 32.24c115.85,35.21 74.77,6.8 83.58,177.17 18.84,363.92 88.92,347.85 43.3,473.76 -54.17,149.47 11.93,-104.71 -34.53,74.76l98.09 91.68c-198.65,-70.23 -122.87,24.56 -341.26,13.28 -39.49,-2.04 -95.12,-19.58 -160.54,-17.86l-125.15 24.87c-6.51,-9.2 -20.77,6.43 -30.35,11.45 23.8,162.51 -39.63,100.61 96.03,129.34 135.75,28.76 88.87,-3.23 124.56,-52.97 32.16,66.65 14.62,76 49.72,156.11 44.69,102.02 73.41,-33.46 30.18,85.78l777.09 -32.52c41.32,59.13 122.08,-88.81 0.15,100.36 196.74,-37.29 235.29,-82.26 407.05,-144.55 19.25,-114.64 200.44,-59.31 396.88,-420.21 209.76,-385.38 304.99,-537.2 307.48,-1155.28 1.34,-334.78 -91.2,-717.44 -203.08,-971.1 -139,-315.14 -407.31,-327.07 -876.89,-269.95 -383.47,24.01 -475.4,47.01 -858.71,-33.82l-95.09 2.96 24.77 73.33z"/>
   <path class="fil8 str3" d="M10386.68 7487.98l19.12 1248.87c15.58,169.45 59.24,201.81 110.33,326.92 786.88,-118.86 2294.23,-17.93 2705.46,-95.19 8.53,-60.19 -2.64,-1735.46 -79.72,-1609.02 -4.94,8.11 -19.4,-6.61 -26.39,-7.91l-501.04 -1.27c-155.29,-0.19 -467.67,-14.17 -556.22,16.76 -283.48,16.03 -587.03,-11.65 -870.87,11.32 -167.81,13.58 -563.81,17.92 -700.91,62.59 -9.17,2.99 -17.31,5.69 -25.99,9l-73.77 37.93zm478.73 11695.7c17.23,-130.82 23.57,-249.37 23.64,-381.06 0.02,-34.34 -0.16,-130.2 -3.72,-160.07 -4.94,-41.51 -4.83,-50.52 -18.31,-90.23 -24.04,-70.87 -5.99,-34.43 -41.26,-78.44l1.73 -337.19c-63.4,-29.25 -498.26,4.8 -578.5,27.91l14.54 1052.62c70.11,16.32 491.66,18.12 575.25,7.59l26.63 -41.13zm193.73 2693.18c94.64,-282.48 50.68,-556.78 27.98,-829.02 -406.18,-14.26 -297.63,46.46 -292.48,452.5 3.2,252.33 -51.23,519.33 264.5,376.52zm6316.22 -14677.83l159.02 -0.42m-175.08 11668.08c19.92,230.86 -28.88,282.1 203.06,301.46 608.75,50.8 486.1,-74.43 488.35,-682.41 2.47,-672.6 33.11,-687.41 -196.75,-698.28 -405.6,-19.16 -668.76,-56.81 -586.28,346.57 18.01,88.06 -3.67,41.99 44.2,100.42 -47.82,133.09 -16.01,549.26 47.42,632.24zm-7156.99 -1142.66c55.45,59.42 19.81,12.78 52.69,96.9 10.99,28.1 17.15,70.86 29.39,103.35l266.74 6.07c156.32,-38.36 57.29,67.37 294.6,-5.61 234.6,-72.14 84.87,49.83 327.2,41.42 126.35,-4.38 763.54,-37.29 808.39,-132.16 109.31,-136.98 55.31,-1509.21 45.35,-1558.69 -67.93,-131.95 -456.12,-20.93 -585.73,-12.66 -118.7,7.56 -586.47,40.37 -645.89,63.04l-594.49 33.85c-163.74,196.49 88.59,1090.22 1.75,1364.49zm1718.58 -7167.46c25.97,-174.06 15.55,-1239.15 -46.43,-1325.87 -129.32,-163.35 -738.93,-20.55 -972.04,-18.03 -295.77,3.19 -829.1,-16.45 -1046.84,88.18 22.2,134.04 -2.22,443.05 17.39,631.35 15.42,148.05 73.89,480.89 75.42,579.67 265.81,31.47 150.23,-11.82 253.76,183.12l1606.18 -39.43c91.26,-32.09 85.94,1.63 112.56,-98.99zm5835.68 -1748.83c115.04,-50.31 72.94,-22.1 64.8,-349.11 -5.64,-227.13 54.73,-1050.9 -5.27,-1107.5 -110.8,-64.6 -204.02,3.86 -344.19,9.33 -330.72,12.93 -426.81,-129.85 -454.48,144.72 -4.84,48.06 -4.46,110.25 -5.11,159.7l13 794.96c12.3,106.12 -16.34,-47.55 9.69,59.2 15.44,63.27 8.47,43.67 31.9,79 -38.7,117.7 -25.24,120.16 8.29,224.82 137.37,52.92 506.53,8.79 681.37,-15.12zm-7415.41 6784.55l-216.42 120.43 2.41 423.53c82.54,59.45 128.72,51.04 264.1,49.35 103.5,-1.28 219.74,7.17 316.07,-16.28 76.04,-163.96 46.9,-680.28 36.88,-899.49 -202.53,62 -94.17,133.85 -403.04,322.46zm7342.69 -1658.29c119.02,-20.49 119.03,40.68 95.78,-334.67 -24.57,-396.49 62.99,-836.54 11.28,-1272.31l-128.8 4.17 -0.92 -1.27c-12.39,0.64 -24.22,1.47 -35.6,2.45l-1089.59 35.29c-135.74,-41.7 -959.38,2.13 -1077.25,44.11 -33.52,83.79 20.18,1500.06 79.39,1631.52 111,52.01 352.97,9.96 502.64,41.89 95.57,-64.24 1188.67,-85.79 1302.23,-89.31l340.84 -61.87zm-5578.92 2076.82c194.42,54.65 823.48,-6.79 1063.89,-22.67l38.9 -104.26 13.3 -539.75c-2.84,-67.64 -16.6,-1093.47 -106.05,-947.97 -5.56,9.05 -20.93,-5.27 -28.71,-6 -7.84,-0.75 -19.6,-3.49 -29.32,-4.02l-409.66 40.35c-142.25,5.04 -447.17,-12.17 -527.09,21.02 -210.15,19.69 -859.03,-20.66 -1018.42,84.32 -41.32,19.12 -111.1,7.92 -159.68,280.7 -38.55,216.43 -28.23,1142.65 19.22,1297.59 108.41,43.48 411.01,16.72 571.89,1.41 86.39,-8.22 171.66,-31.16 287.2,-38.68 207.88,-13.54 207.1,4.58 284.53,-62.04zm-1882.77 -3776.25l350.64 138.76c20.58,-204.05 -4.76,-537.94 -15.6,-740.42 -11.2,-209.77 21.75,-588.79 -8.79,-724.92l-17.66 -52.92c-40.59,-7.66 -285.12,19.29 -342.78,59.66 -141.31,98.94 -3.12,711.29 11.33,843.35 17.26,157.96 18.73,317.44 22.86,476.49zm769.89 698.26c17.59,204.83 80.18,422.16 123.87,656.94 59.25,318.4 -4.74,434.78 6.55,675.8 263.46,16.44 272.51,69.47 389.68,-10.37 531.24,94.85 403.26,-71.63 404.69,-783.09 0.54,-267.31 7.56,-550.87 -2.75,-816.56 -248.05,-55.2 -753.85,42.53 -969.72,97.45 -4.19,92.5 -3.41,127.32 47.68,179.83zm3622.2 6220.73c819.3,-70.29 2161.66,67.96 2541.46,0.42 34.86,-85.43 -18.12,-1305.1 -48.83,-1347.96 -27.12,-34.59 56,-66.99 -250.86,-32.61l-972.35 25.11c-156.42,-2.82 -1186.18,35.17 -1259.6,74.35l-795.33 46.27c-204.35,55.81 -101.64,1105.88 -100.32,1230.56l885.83 3.86zm-4697.92 -10087.66c389.16,29.1 295.9,-23.06 307.69,-639.26 3.4,-177.41 -8.29,-876.47 -52.95,-980.08l-177.43 1.51c-137.56,103.43 -241.03,-110.01 -226.92,245.93 7.59,191.78 21.51,321.71 37.08,478.1 21.13,212.24 -32.58,804.31 112.53,893.8zm3809.93 1625.06c-329.28,41.5 -288.93,5.35 -292.8,305.12 -2.15,166.08 6.92,312.47 13.35,477.38 22.82,586.14 -96.5,934.52 565.46,829.18 55.17,-8.79 7.01,2.88 56.86,-12.61 80.27,-24.95 32.28,15.71 84.28,-26.67 136.85,33.04 419.99,21.93 481.36,-16.51 533.37,-24.8 1811.94,-2.64 2263.33,-109.45 1.16,-388.59 16.37,-1228.27 -125.65,-1507.01l-3046.19 60.57zm-1557.18 8625.34c79.09,5.43 95.31,9.07 120.92,66.55 34.02,76.41 -10.97,1028.51 -16.07,1142.04 -170.38,64.14 -928.93,94.16 -1151.31,84.25 -59.09,-73.32 -65.07,-142.96 -113.16,-200.93l-131.78 -98.97c-5.27,-3.61 -18.36,-4.12 -22.21,-15.86 -3.9,-11.94 -14.84,-10.99 -22.31,-16.44 -77.51,-273.64 -558.22,-450.25 -541.11,-773.1l11.28 -60.84c9.53,-3.24 23.76,-15.05 29.67,-5.58l291.38 -18.12c97.95,-10.23 265.64,-12.11 318.37,-44.86l152.48 -19.13c-8.71,16.38 865.67,-25.15 1073.85,-39.01zm-50.85 4117.02c117.92,-202.52 70.04,-887.91 43.22,-1175.06l-15.64 -164c-204.16,-18.01 -465.01,3 -674.04,10.27 -532.82,18.56 -744.32,-122.27 -549.35,510.92 5.77,0.09 73.51,-31.18 181.37,58.89 -20.77,250.97 -205.33,130.21 -131.96,819.75 152.39,19.99 769.65,-69.41 1138.39,-8.02l8.01 -52.75zm1352.24 -4300.78c84.24,-90.18 79.65,-442.04 79.26,-551.59l-27.02 -623.85c-211.76,-52.85 -948.39,6.78 -1194.09,46.75 -411.47,-38.54 -913.04,25.31 -1299.66,162.97 -20.66,227.88 37.68,256.19 42.08,475.29 3.6,178.28 -4.16,370.95 13.54,546.58 570.83,-6.34 1552.94,-33.75 2101.84,-9.79 149.57,6.54 216.59,35.95 284.05,-46.36m-338.35 -6623.99l-1023.95 92.17c-90.54,199.22 -41.65,1407.92 13.02,1663.11 414.53,48.06 548.98,-10.57 810.52,-14.35 296.4,-4.28 211.5,-0.54 270.85,-79.11l205.23 39.87 1524.57 -92.43c160.98,-4.14 162.31,1.51 228.38,-54.41l147.73 10.84c57.28,-173.85 31,-1115.49 -21.7,-1249.98l-12.07 -417.05c-194.75,-40.21 -2060.12,62.71 -2142.58,101.34zm483.29 8131.11l-2336.08 134.31 34.98 1109.76c169.82,74.91 922.5,18.26 1173.17,17.56 136.18,-2.22 700.39,91.81 1048.65,-30.96 213.18,-75.14 142.68,-976.13 79.28,-1230.67zm-769.64 -4489.93l-672.14 44.41 35.98 1621.05c138.67,26.49 940.57,-26.34 1230.25,-34.47 313.49,-8.81 298.83,35.9 378.4,-67.14l1528.29 -11.62c192.97,-0.37 158.42,28.33 207.83,-104.56l-0.63 -32.04c-5.7,-281.22 -18.99,-1444.74 -135.9,-1564.07 -64.51,-74.52 -458.43,-15.44 -601.82,-1.07 -151.12,15.16 -556.24,-22.84 -656.77,45.39 -229.92,3.55 -470.4,17.59 -685.08,44.3 -160.98,20.03 -97.05,45.68 -286.19,45.11 -132.21,-0.41 -221.54,-1.55 -342.22,14.71zm4641.89 5804.41c153.37,22.79 478.55,69.25 592.15,-41.36 76.77,-127.13 40.62,-1069.64 1.04,-1243.67 -130.65,-33.42 -328.09,-37.77 -486.75,-30.74 -230.31,10.21 -209.3,103.8 -209.02,353.86 0.26,216.83 20.41,843.12 102.58,961.91zm46.72 -14755.53c235.9,-15.35 314.68,40.43 316.18,-196.4 0.81,-125.34 8.52,-364.24 -25.42,-429.88l-7.28 -411.65 -632.78 58.6c-338.03,25.17 -777.66,-17.71 -1030.02,37.74 -119.4,26.25 -209.27,17.35 -334.78,19.58 -164.44,2.93 -559.03,-0.9 -691.58,31.22 -37.13,280.43 11.17,513.36 13.12,778.24l29.07 113.83 1102.24 -0.43m0 0l1102.23 -0.43m-4913.92 13248.38c15.67,67.26 2.12,32.51 13.76,35.67l-23.94 -251.51c1.69,-98.06 0.71,-188.15 -0.97,-286.16 -3.12,-182.11 -20.63,-415.57 33.22,-571.18 105.33,-143.57 1993.06,-30.28 2441.88,-78.04 125.76,-13.37 417,-36.82 685.63,-15.33 56.68,4.53 69.97,69.27 130.11,83.7 201.98,1148.69 135.42,1159.72 -428.71,1136.96 -345.44,-13.95 -2443.36,58.65 -2823.45,17.24m760.44 -8219.47c92.32,-43.8 52.03,5.93 66.24,-157.77 5.09,-58.65 -7.17,-160.51 -10.11,-224.22 -10.48,-227.4 19.48,-1072.24 -64.41,-1164.07 -80.41,-88.03 -789.38,17.97 -912.51,26.79l-1576.86 45.58c-77.43,148.95 -41.49,1110.83 -21.39,1311 22.25,221.56 132.94,352.72 133.26,353.47l514.17 15.32c209.7,-2.62 320.37,-13.57 509.92,-75.13 30.32,-9.85 412.03,-2.97 536.87,-14 185.28,-16.39 382.91,7.88 528.73,-87.96 99.4,23.35 223.17,24.81 296.09,-29.01zm2345.41 -3404.88l1280.01 -16.48c42.76,-346.89 25.65,-1172.75 -20.94,-1522.5 -428.76,-103.96 -1231.08,50.74 -1727.75,15.98 -469.83,-32.87 -1278.57,-68.56 -1750.68,-21.9 -77.27,386.11 13.12,705.2 23.45,1172.44 1.68,75.53 -3.39,157.08 -1.92,224.35 4.46,202.66 37.46,273.08 390.21,206.97 96.96,-18.17 31.77,8.08 96.84,-30.95 361.74,82.89 1289.18,-49.86 1710.78,-27.91zm-5845.81 -1681.27c228.89,118.68 1228.22,-6.31 1531.04,-15.86 152.96,-4.84 421.73,31.34 548.38,-0.15 46.87,-107.08 34.92,-624.98 20.53,-764.79l-630.96 -1.77c-339.18,62.99 -1256.85,62.34 -1475.94,139.62l6.95 642.95zm7447.58 8194.78l15.16 357.75c197.46,65.84 553,56.1 716.65,-27.1 46.88,-257.29 -77.96,-476.97 -33.79,-711.84l-89.32 -847.17c-148.57,-70.02 -144.25,-71.56 -333.67,-52.07 -107.87,11.1 -237.69,24.41 -354.3,43.05l79.27 1237.38zm-130.47 -3272.1c267.58,81.96 492.06,35.97 742.88,-13.57 51.95,-562.23 9.55,-955.06 -28.41,-1489.55l-793.02 -17.62c-12.79,238.99 29.54,521.17 56.16,748.18 30.19,257.53 22.39,512.2 22.39,772.56zm738.29 -3062.44c-25.91,-166.32 -312.94,-70.18 -529.14,-54.74 -205.9,14.71 -392.34,8.16 -598.03,6.15 -156.86,-1.51 -1179.9,-80.98 -1196.45,49.91l-62.02 244.36c-14.15,110.67 -17.2,263.86 -18.19,376.96 -2.2,248.02 26.48,499.84 23.93,746.02l109.9 39.42c241.07,36.4 2108.55,7.52 2213.57,-60.8 151.54,-122.89 56.5,-1347.06 56.43,-1347.28zm-4156.94 12975.92l-279.09 7.65 -1046.77 12.17c-16.92,197.34 2.61,1223.87 57.25,1335.06l192.2 50.33c679.47,67.44 2467.51,-11.22 3329.9,28.13 16.1,-148.69 38.71,-1324.13 -7.57,-1450.09 -453.98,-103.93 -1423.4,55.96 -1938.81,-0.56l-307.11 17.31zm3508.68 -1415.61c-1254.56,23.87 -2965.08,-126.66 -3347.53,20.88 -91.34,105.63 -6.47,881.51 -43.02,1098.99 -18.91,212.81 1978.62,142.68 2034.93,121.87l1308.86 26.72 111.46 -3.46 2.19 -82.77 5.34 -594.64 33.43 -390.75 -105.66 -196.84zm771.04 -4696.16c-386.34,-31.09 -1895.71,-43.42 -2297.24,21.43l17.85 432.32c19.64,204.44 55.17,1175.97 129.24,1248.7 99.42,100.56 318.44,-3.28 454.13,-10.6 518.07,-27.98 1185.17,21.46 1774.25,-8.05 49.39,-253.25 7.29,-675.97 -9,-944.14l-69.23 -739.66zm-2711.04 -6830.6c-53.34,-49.36 16.45,-13.43 -69.04,-38.68 -102.63,-30.33 -1384.47,21.33 -1486.54,27.38 -146.6,8.67 -203.13,41.69 -316.77,53.24 -119.12,12.11 -275.41,-14.99 -411.96,-11.75 -273.96,6.48 -554.01,21.06 -826.91,22.12 -87.43,464.19 -22.47,970 1.1,1458.67 204.37,8.18 644.8,2.82 833.54,-30.66 142.15,-25.2 220.85,-28.34 373.02,-27.53 278.48,1.47 268.85,13.26 372.48,-22.65 8.46,-2.93 18.83,-9.27 25.5,-11.94 6.65,-2.65 17.13,-7.7 24.82,-13 211.9,49.69 1339.33,23.46 1527.15,-43.69 30.25,-214.44 -9.63,-485.48 -4.81,-708.95 2.63,-121.61 75.1,-629.69 -41.58,-652.56zm1767.97 5824.67c50.76,-273.37 -44.29,-479.32 -57.59,-756.94l-185.98 -0.16 -412.3 0.01c-82.03,1.35 -2735.99,138.4 -2930.86,208.64 -112.27,40.48 -0.4,1494.13 38.97,1534.54 154.84,83.86 1967.28,-158.28 2419.87,-84.64 65.42,-52.42 111.96,-51.04 248.34,-53.25 104.73,-1.68 213.24,1.01 318.73,0.6 143.32,-0.54 513.8,24.15 618.31,-6.94l-57.49 -841.86zm1101.26 5530.88c49.85,-169.58 -7.11,-928.27 -24.5,-1140.53l-2159.4 5.7c-23.34,117.78 -15.94,693.7 -5.44,837.35 32.98,451.01 54.94,346.28 527.26,344.46 282.7,-1.11 617.9,-12.05 864.8,-26.04 128.29,-7.27 247.48,18.95 405.24,15.5 139.04,-3.03 250.1,-21.44 392.04,-36.44zm-6086.62 -14015.04l124.12 724.94c3.38,4.96 9.56,15.05 15.45,21.68 56.64,-0.06 2636.96,29.6 2793.17,-13.48 66.53,-176.35 45.65,-711.81 -29.09,-850.78 -180.76,-29.56 -2640.2,39.13 -2903.65,117.64zm4963.98 17024.12l1122.43 -41.91c112.1,-157.62 74.89,-365.71 75.99,-628.69 2.53,-601.15 -7.99,-683.64 -275.39,-698.14 -86.39,-4.67 -171.9,0.15 -257.58,0.06 -442.08,-0.44 -696.54,-133.72 -1557.1,-68 -10.33,251.94 -43.05,1246.57 34.81,1405.41 203.17,101.21 603.14,42.81 856.84,31.27z"/>
   <path class="fil3" d="M8642.04 17533.95c69.3,154.38 -11.38,7.57 77.59,79.83 8.21,6.67 34.64,21.28 42.45,27.62 5.94,4.82 13.88,9.39 19.38,14.38l75.16 114.96c220.88,426.88 303.22,380.96 515.57,657.47l703 868.46c60.54,-171.68 24.11,-1542.7 -1.62,-1794.66 -59.59,-583.9 -53.35,-1156.7 -95.78,-1739.75 -616.67,0.83 -925.39,5.64 -1087.36,421.3 -81.96,149.78 -72.98,188.62 -86.91,367.1 -15.64,200.46 -51.94,179.21 -200.41,239.33l38.93 743.96z"/>
   <path class="fil9" d="M3101.83 17229.7c-65.33,-214.62 -107.29,-454.84 -326.98,-482.8 -246.06,168.71 -147.82,435.61 -176.19,771.32 -245.64,151.84 -676.61,370.26 -588.79,834.19 66.43,350.91 300.19,866.41 696.81,597.36l2.04 -431.3c141.32,-9.69 244,63.54 359.32,-24.44 130.27,-99.39 38.48,-221.57 149.88,-298.84l680.39 -140.8c19.77,-82.51 52.48,-348.68 -12.54,-405.31 -424.21,-192.94 -558.78,195.01 -783.94,-419.38z"/>
   <path class="fil10" d="M8751 23548.49c76.47,56.36 61.3,27.4 179.81,39.13 333.63,33.03 998.76,67 1244.53,-50.03 32.42,-155.79 9.09,-275.96 -0.36,-422.87 -18.4,-286.1 -13.82,-156.38 -94.61,-345.18 93.29,-177.59 129.29,10.97 104.82,-348.32 -10.39,-152.55 -9.97,-297.3 -13.5,-450.2 -192.84,-0.24 -159.92,126.38 -387.84,37.36 -146.58,-57.26 -119.77,-180.32 -132.7,-338.74 -168.83,-9.46 -65.79,60.03 -273.57,47.06 -182.04,-210.86 -89.68,-261.97 -88.7,-509.81 -223.75,-125.6 -410.78,-116.38 -705.51,-88.72 -114.07,204.14 -82.61,524.24 -82.29,795.43 0.21,168.37 -23.35,250.75 -34.67,411.36 -13.73,194.79 -47.08,248.14 101,316.05 33.71,235.92 -6.91,701.14 51.95,890.1l131.64 17.38z"/>
   <path class="fil6 str2" d="M9167.76 13088.29c-15.59,269.71 216.82,1004.34 -713.99,939.27 -269.71,-18.86 -269.48,-42.14 -421.92,-182.51 -142.4,108.34 -71.06,104.28 -83.12,134.61 137.47,82.5 -3.45,181.81 293.32,190.4 -13.88,3.14 -24.34,-102.67 -29.54,64.03 -4.93,158.49 2.53,46.97 21.89,94.62 -53.43,-41.02 100.92,-50.66 -48.32,-6.76l-124.31 126.26c-158.21,255.8 44.91,260.95 45.5,261.28 118.49,-54.42 62.6,3.92 87.7,-122.2 32.6,-163.8 18.59,-27.58 -24.38,-68.18 59.76,-18.77 171.2,-66.17 208.55,-107.14l26.88 -39.48c3.81,-6.77 6.43,-15.58 9.78,-22.78 39.07,-83.83 -27.08,54.85 15.95,-48.78 7.8,-18.75 -57.47,-162.48 382.43,-108.71 -41.67,63.16 41.09,44.05 -127.92,49.1l0 111.63c55.86,-1.07 125.97,-17.26 138.65,-73.81 2.46,-10.95 7.79,-14.55 12.4,-21.39 25.57,148.04 -26.76,71.36 70.62,99.98 112.61,33.09 103.32,-37.14 106.8,-39.3 90.75,-56.03 -73.97,-72.78 90.8,-35.7 94.36,21.23 38.91,5.11 59.57,50.11 13.21,28.77 -2.62,148.69 2.64,249.18 9.84,187.83 25.76,115.11 58.1,262.22 -222.28,0 -104.05,-41.98 -301.93,-48.01 -38.85,172.28 -50.67,77.74 -85.69,155.47l-70.04 190.57c-3.05,-4.96 -10.92,20.25 -19.24,27.9 -54.99,-229.28 112.89,-299.91 -262.45,-231.01l-21.46 -229.5 124.09 -55.9c7.34,-2.27 29.96,-4.93 37.21,-8.52 85.25,-42.09 89.31,-74.4 72.37,-189.44l-210.38 -31.57c-16.25,27.75 -47.23,72.99 -60.54,107.84 -157.88,413.16 -59.47,69.02 -153.19,295.9 -106.21,-53.48 -134.03,-39.46 -239.42,0 54.57,97.81 64.19,42.04 135.58,143.19 -63.29,104.21 1.6,133.31 -31.58,277.93l-159.33 59.53 172.32 117.04c136.15,73.89 -72.4,-13.81 41.72,29.29 -63.49,18.65 -129.25,24.99 -213.27,29.07 -104.98,5.07 -141.27,1.05 -207.01,50.66 58.5,51.17 13.45,31.39 111.14,52.55 21.38,4.64 70.49,3.86 94.13,4.08 443.3,4.25 73.7,34.53 318.84,174.1 -5.62,-150.57 -32.52,-104.25 31.74,-215.26 267.49,59.86 52.58,44.68 119.56,162.01 56.96,99.73 44.29,22.43 117.04,17.64 141.78,-9.32 24.99,-3.98 109.9,176.34l65.98 292.01c-86.39,-264.12 165.06,-265.45 152.69,-473.08 -171.26,-77.53 -227.78,-11.08 -250.6,-195.89 142.87,-52.92 342.43,100.35 550.86,124.68 55.02,6.43 607.75,-39.57 626.53,-50.39 121.93,-189.17 41.17,-41.23 -0.15,-100.36l-777.09 32.52c43.23,-119.24 14.51,16.24 -30.18,-85.78 -35.1,-80.11 -17.56,-89.46 -49.72,-156.11 -35.69,49.74 11.19,81.73 -124.56,52.97 -135.66,-28.73 -72.23,33.17 -96.03,-129.34 9.58,-5.02 23.84,-20.65 30.35,-11.45l125.15 -24.87c65.42,-1.72 121.05,15.82 160.54,17.86 218.39,11.28 142.61,-83.51 341.26,-13.28l-98.09 -91.68c46.46,-179.47 -19.64,74.71 34.53,-74.76 45.62,-125.91 -24.46,-109.84 -43.3,-473.76 -8.81,-170.37 32.27,-141.96 -83.58,-177.17l45.38 -32.24c70.15,-72.69 105.5,-98.84 -22.31,-270.24 -46.15,-61.88 18.08,-6.84 -85.6,-92.66 78.15,-53.48 74.79,-90.24 132.81,-182.03l41.23 -59.05c6.14,-8.06 24.49,-30.41 30.97,-38.22l55.45 -63.05c-100.63,-261.99 -99.33,-120.74 -48.53,-341.05 35.74,-155.02 21.66,-55.67 -38.73,-159.61 -63.02,-108.47 -24.06,-106.24 -71.44,-229.01l-75.67 9.04c-27.99,17.88 -2.32,69.29 -6.34,178.15z"/>
   <path class="fil6 str2" d="M8024.94 12486.56c79.98,-23.94 76.06,-25.48 149.96,-59.3 117.37,-53.74 76.82,-6.34 135.55,-97.5 -59.03,-91.55 -195.38,-137.11 -307.88,-244.82 -126.36,-121 -199.92,-137.46 -302.66,-236.62 -168.71,-162.8 -203.22,-490.82 -653.32,-380.25 1.26,1.22 234.08,184.83 140.04,68.56 1.32,120.32 -69.88,121.1 -143.47,102.97 -10.32,-2.54 -39.86,-17.85 -49.66,-21.53 -165.07,-61.94 -101.47,-11.15 -172.68,57.12l-37.11 32c-74.88,71.6 -89.9,8.07 -57.71,163.02 156.44,-76.48 53,-103.57 204,-25.04 -66.38,204.17 -65.6,28.22 -208.31,135.54 17.07,169.13 83.31,70.16 180.39,153.89 -47.27,67.15 -126.23,101.02 -223.14,131.54l-46.39 -38.67c-182.54,-142.63 -47.71,-1.09 -192.22,-56.52l33.26 47.79c3.61,6.57 14.79,30 19.13,38.26l23.28 44.1c69.48,133.19 42.65,8.46 67.72,203.75l182.34 9.28c3.44,142.32 15.93,135.61 -30.25,139.97 -13.17,1.25 -51.22,0.84 -59.4,2.75 -66.37,15.5 -45.83,-68.83 -76.43,85.43 98.29,68.1 -1.24,0.51 82.89,27.38 7.83,2.51 17.25,4.97 25.43,7.63l54.15 18.36c7.17,2.42 19.45,5.04 27.99,10.09l-90.79 111.86c-4.32,3.74 -14.96,8.75 -20.71,15.06 96.2,94.45 49.73,-20.6 47.9,151.64 -3.76,352.31 181.27,288.91 397.12,339.07 146.29,34.01 8.23,-5.88 82.28,28.73 83.41,38.98 200,184.71 322.04,20.01 -74.38,-66.23 63.3,1.44 -160.42,-37.63 -326.01,-56.89 -9.65,-103.54 -273.57,-157.68 -139.49,-28.63 -83.43,33.95 -157.43,-90.27 103.16,-75.49 212.77,-63.02 337.5,-63.47 -11.62,-232.08 -69.18,80.31 -136.56,-217.13 -19,-83.86 -19.07,-201.72 -6.67,-290.74l-246.7 -11.48c45.67,-89.37 61.51,-67.03 238.87,-195.01 153.26,149.75 164.45,3.39 102.89,230.73 272.62,-8.04 -181.35,24.32 74.61,-13.36 221.45,-32.6 129.94,33.07 361.94,-10.56l51.02 -36.14c203.05,-206.15 -1.38,-26.87 239.54,-178.03l79.96 -40.8c19.33,81.47 18.5,45.75 -8.32,126.02z"/>
   <path class="fil11" d="M4021.92 16815.96c-435.11,201.01 -695.23,-243.01 -417.88,-546.89 95.88,-105.04 312.33,-243.24 422,-18.11 79.71,163.63 53.13,391.14 -4.12,565zm202.18 -1072.27l15.91 367.08c-155.4,-38.26 -153.56,-173.79 -450.46,-172.95 -252.53,0.7 -226.46,172 -403.21,184.64l6.18 -287.54 831.58 -91.23zm-1011.13 203.66l14.77 61.62c24.24,201.81 -76.34,636.33 49.31,950.26 -5.61,3.03 -46.97,21.39 -65.29,31.03 -62.17,32.69 -25.7,-0.69 -51.8,35.97 -46.26,64.93 -52.04,127.29 -58.13,203.47 13.7,-3.92 71.38,-20.27 86.7,-22.86l62.27 9.79c45.07,136.02 2.53,246.87 176.89,229.24l-8.26 -465.5c149.41,61 105.22,189.77 357.44,133.95 161.56,-35.75 283.11,-64.2 357.67,-196.19 38.68,-96.84 44.57,-136.13 132.12,-191.74 58.45,77.61 37.75,77.32 36.9,131.78l0.19 199.48c38.58,106.56 26.54,191.71 26.54,349.29l126.81 0.07c1.06,-158.39 32.34,-66.73 51.19,-215.38 -45.7,-229.65 -72.8,-571.23 -89.23,-800.96 -9.45,-132.18 -5.24,-307.53 -6.55,-444.76 -1.88,-197.51 34.87,-206.53 60.6,-381.63 -227.04,-66.48 -133.83,-30.98 -344.45,15.96l-544.35 69.26c-243.8,36.94 -134.67,-121.79 -421.7,12.11 -10.57,87.5 3.75,221.07 50.36,285.74z"/>
   <path class="fil12" d="M8932.37 12897.49c-76.26,-140.88 -142.35,-171.75 -207.24,-220.23 -275.94,-289.85 -656.93,-86.68 -793.43,78.89 -328.47,398.44 6.93,1065.07 489.7,1141.05 386.44,60.81 673.63,-63.36 655.66,-521.59 -15.3,-223.79 -67.24,-302.55 -144.69,-478.12z"/>
   <path class="fil13" d="M5239.56 14953.85c-13.5,-205.48 -126.51,-440.59 -142.54,-656.33 -20.49,-275.98 42.92,-559.65 19.44,-793.68 -131.69,-130.14 -219.36,-109.96 -305.61,-319.67 -24.03,-58.4 -57.56,-170.63 -78.32,-246.17 -25.2,-91.7 -17.16,-203.12 -53.25,-280.82 -95.94,39.22 -148.55,499 -165.7,614.71 -57.19,385.93 -68.78,1145.37 126.51,1478.74 115.07,196.41 319.99,230.32 599.47,203.22z"/>
   <path class="fil14" d="M6394.62 17874.97l-2209.74 -171.75c-226.7,90.91 30.16,404.53 37.24,414.82 634.02,-19.16 1309.5,-60.03 1918.99,-2.58 296.77,27.96 1678.59,111.88 1835.69,19.97 -17.26,-133.96 -36.94,-120.1 -183.37,-125.95 -104.59,-4.18 -215.25,1.09 -322.23,-3.72 -467.35,-21.01 -891.95,-119.76 -1076.58,-130.79z"/>
   <path class="fil15" d="M2520.92 16007.67c69.37,-120.67 18.71,-2056.87 15.82,-2378.08l-152.05 -2280.72c-45.83,-366.49 -88.67,-1811.52 -97.79,-2287.48 -7.44,-388.2 -55.5,-803.46 -34.17,-1174.08 13.56,-235.77 13.88,-350.13 -9.39,-586.86 -6.24,-63.47 -56.05,-505.18 -71.57,-532.32 -153.87,40.37 -69.6,292.64 -52.08,451.74 80.74,733.16 33.46,1163.21 74.35,1768.51 54.14,801.36 48.41,1587.45 65.4,2390.77 15.76,744.9 86.14,1520.23 141.39,2284.4 27.58,381.48 12.35,796.22 56.21,1173.75 20.31,174.75 47.92,396.53 45.2,570.36 -2.74,174.03 -61.34,480.35 18.68,600.01z"/>
   <path class="fil16" d="M5917.53 13630.92c-108.24,518.2 -244.07,1192.97 232.78,1606.77 222.12,192.75 354.8,333.14 759.55,242.57 177.82,-39.79 248.98,-54.1 339.58,-168.37 45.58,-57.49 190.32,-272.62 218.33,-348.23l-48.44 -68.42c-144.71,56.02 -199.96,267.24 -297.96,351.8 -81.05,69.94 -362.03,149.97 -495.05,119.83 -283.7,-64.29 -526.49,-335.73 -626.56,-646.73 -114.16,-354.71 -35.81,-796.41 70.8,-1093.84 104.7,-292.11 8.12,-971.44 195.75,-1078.33 84.56,75.42 92.53,314.16 116.26,434.32 26.11,132.18 92.84,248.72 144.38,388.94 62.68,170.55 74.5,232.83 245.6,296.01 140.38,51.84 348.55,108.3 427.4,-4.74 -71.88,-97 -56.71,-51.2 -197.96,-72.38 -338.12,-50.7 -325.41,-191.34 -420.11,-431.53 -123.93,-314.36 -57.6,-382.45 -165.09,-665.88 -58.88,-155.28 -158.84,-230.31 -279.45,-69.38 -251.55,335.67 -40.21,921.81 -219.81,1207.59z"/>
   <path class="fil17" d="M9020.74 23835.14c47.03,-65.51 11.44,-72.48 7.01,-82.08 -17.73,5.2 -512.33,2.41 -568.47,-3.9 -123.41,-400.73 39.31,-566.59 -53.75,-916.32 -157.45,-22.66 -366.05,-42.83 -517.33,-5.51 -157.1,725.82 332.88,433.07 -20.51,1013.97 -95.28,156.66 -112.17,117.59 -45.43,162.62 82.7,55.79 646.15,6.59 754.14,-21.47 102.8,-26.72 327.9,-69.36 415.07,-123.94l29.27 -23.37z"/>
   <path class="fil17" d="M10383.02 22888.81c-47.96,154.35 15.21,203.63 -5.51,390.96 -19.42,175.67 -61.52,141.74 19.83,276.63 146.17,242.32 -18.96,286.66 -100.5,356.39l-68.69 74.04c53.87,84.16 26.76,93.21 24.32,150.05 281.5,1.68 418.9,-34.16 613.47,-27.86 230.02,7.44 426.89,-32.52 692.05,-63.99 -133.3,-136.61 -299.1,-59.15 -615.26,-200.43 -339.92,-151.89 -180.68,-233.25 -163.18,-598.4 6.97,-145.62 13.87,-296.97 -13.97,-437.99l-382.56 80.6z"/>
   <path class="fil17" d="M16040.78 14085.18l350.72 15.78 -63.25 73.55 412.3 -0.01 185.98 0.16c13.3,277.62 108.35,483.57 57.59,756.94l57.49 841.86c-104.51,31.09 -474.99,6.4 -618.31,6.94 -105.49,0.41 -214,-2.28 -318.73,-0.6 -136.38,2.21 -182.92,0.83 -248.34,53.25 156.22,37.09 134.11,3.33 281.25,-13.18l688.81 23.97c64.92,13.84 60.92,15.23 77.62,8.32 -134.1,91.3 -470.85,75.81 -639.42,56.36l-160.19 -20.74c-58.81,-0.37 -74.59,9.78 -145.35,16.28 -83.25,7.64 -129.81,-8.43 -265.93,31.24l-63.07 23.66c392.54,-12.63 736.35,-30.15 1142.5,-28.53 327.73,1.31 854.62,-27.57 1154.74,7.1 -147.37,-110.96 -189.83,-46.75 -361.17,-31.66l-412.67 9.43c-103.43,-124.75 -105.49,-367.12 -99.97,-539.97 4.33,-135.66 15.17,-157.28 68.22,-221.28l58.46 157.68c12.41,52.33 -5.54,52.81 16.53,96.19l-79.27 -1237.38c116.61,-18.64 246.43,-31.95 354.3,-43.05 189.42,-19.49 185.1,-17.95 333.67,52.07l89.32 847.17c33.44,-136.88 21.06,-121.34 -8.3,-233.5 -45.99,-175.74 -44.18,-77.37 -41.42,-241.74 2.31,-137.46 10.52,-104.99 -9.77,-256.41 -30.2,-225.46 -39.21,-210.17 -172.97,-202.1l-508.65 13.61c71.14,-74.86 -4.59,-26.09 94.94,-79.54 16.1,-8.65 94.21,-31.07 94.57,-31.18 -113.56,3.52 -1206.66,25.07 -1302.23,89.31z"/>
   <path class="fil18" d="M9758.1 20548.25c-90.91,-61.13 -94.18,-66.12 -221.08,-61.74 -19.47,151.52 41.85,65.94 38.52,266.19 -122.23,81.12 -265.21,59.64 -286.16,232.06 247.43,17.34 275.63,-160.46 437.02,-176.11 5.51,-0.54 21.47,12.4 25.54,3.73 4.23,-9.04 17.99,2.3 26.21,5.84 110.51,305.6 -297.09,144.86 -344.89,657.76 185.76,-9.91 375.46,-276.62 477.9,-423.27 83.66,-119.79 32.45,-109.59 164.03,-127.46 47.98,75.35 40.49,-15.22 20.69,115.82 -15.9,105.27 -115.58,235.18 -155.09,295.07 -48.98,74.27 -127.81,274.46 -115.37,382.2 1,8.63 5.48,20.64 6.74,27.67 1.29,7.19 8.45,31.95 9.65,27.44 1.21,-4.57 6.29,18.76 11.19,27.28 284.1,144.72 453.96,-489.42 348.76,-782.25 -83.53,-232.47 -256.72,-344.56 -443.66,-470.23z"/>
   <path class="fil19" d="M10326.27 22674.18c-39.58,-331.5 -58.56,-1030.62 124.82,-1201.35 46.47,99.01 29.11,143.56 31.49,281.29l59.37 41.71c192.39,143.63 193.68,598.95 164.42,813.3 -175.73,78.26 -150.3,76.8 -389.29,51.74 68.13,82.53 -125.13,38.62 107.25,76.78 87.25,-0.42 193.73,-3.89 275.73,-36.28 108.89,-43.04 102.22,-59.16 104.24,-185.53l-50.2 -596.01c-126.91,-194.89 29.87,-611.56 -202.87,-886.07l-240.55 6.43c92.98,141.48 -69.04,597.3 -77.23,774.54l-4.36 672.78c10.28,141.47 -33.1,186.67 97.18,186.67z"/>
   <path class="fil20" d="M3745.09 10013.18c4.36,1.14 9.17,2.77 14.34,4.8l-1.84 -56.83c-3.6,14.4 -7.7,31.54 -12.5,52.03zm26.41 379.46l-2.76 1.48 3.01 6.1 -0.25 -7.58z"/>
   <path class="fil21" d="M8333.53 21464.13c-153.35,-48.51 -199.44,-160.6 -266.35,-96.04 -29.62,28.59 -120.96,918.59 -90.46,1084.09 21.59,117.18 126.89,186.78 276.62,116.65 99.83,-46.75 77.87,-176.25 75.67,-305.94 -4.56,-269.56 7.91,-528.33 4.52,-798.76z"/>
   <path class="fil21" d="M10326.27 22674.18l-9.19 -13.31c238.99,25.06 213.56,26.52 389.29,-51.74 29.26,-214.35 27.97,-669.67 -164.42,-813.3l-59.37 -41.71c-2.38,-137.73 14.98,-182.28 -31.49,-281.29 -183.38,170.73 -164.4,869.85 -124.82,1201.35z"/>
   <path class="fil15" d="M2489.18 23865.14c157.58,4.32 161.99,-101.25 176.33,-268.93l-1.4 -836.35c32.11,-369.08 54.4,-1786.03 -16.22,-1993.24 -81.07,59.8 -57.71,270.25 -58.32,384.52l-27.39 1237.62c-8.51,274.03 3.94,513.96 -14.92,793.66 -9.88,146.71 -93.67,599.55 -58.08,682.72z"/>
   <path class="fil22" d="M4021.92 16815.96c57.25,-173.86 83.83,-401.37 4.12,-565 -109.67,-225.13 -326.12,-86.93 -422,18.11 -277.35,303.88 -17.23,747.9 417.88,546.89z"/>
   <path class="fil22" d="M4144.1 18345.44c-186.59,24.61 -43.7,119.74 -266.14,106.91l-55.68 -173.11c-142.84,-22.77 -167.68,-14.14 -205.03,123.44 -34.32,126.48 -32.6,202.49 -8.69,328.42 198.15,35.37 226.95,-10.31 385.15,-43.99 125.6,-26.74 286.84,-16 392.26,-28.53l76.99 -46.08 -46 -337.51c-90.28,-16.23 -63.48,-27.46 -165.41,3.72 -127.6,39.03 -67.38,28.03 -107.45,66.73z"/>
   <path class="fil23" d="M3392.52 15834.92l-6.18 287.54c176.75,-12.64 150.68,-183.94 403.21,-184.64 296.9,-0.84 295.06,134.69 450.46,172.95l-15.91 -367.08 -831.58 91.23z"/>
   <path class="fil22" d="M9993.99 12068.67c11.71,-48.62 22.52,-177.09 15.37,-280.92 -31.03,-22.33 -77.78,-63.2 -84.48,-71.39 -112.55,-16.01 -212.17,-53.71 -220.42,70.18 -0.05,0.7 24.31,276.62 27.82,319.04 139.54,19.78 136.27,-6.81 261.71,-36.91z"/>
   <path class="fil22" d="M9971.16 11251.04l18.86 3.94c-97.35,-49.63 -130.48,-39.61 -269.55,-9.77 -91.75,284.12 17.19,300.03 261.55,296.43l-10.86 -290.6z"/>
   <path class="fil22" d="M9667.47 11058.66c66.58,5.89 168.4,22.31 216.69,-30.72 33.08,-36.33 35.56,-182.66 -1.09,-221.63 -2.85,-3.05 -256.01,-180.77 -215.6,252.35z"/>
   <path class="fil20" d="M8710.55 12837.29c-11.14,3.66 -85.78,-36.97 -25.64,83.57 27.17,51.73 29.12,58.6 98.07,52.88 106.54,-30.07 74.41,-38.91 149.39,-76.25 -50.6,-99.42 -19.37,-57.49 -97.09,-134.49 -28.93,-28.69 -76.05,-62.25 -110.15,-85.74 26.85,132.18 29.45,49.2 -14.58,160.03z"/>
   <path class="fil24" d="M4303.56 16858.17c0.85,-54.46 21.55,-54.17 -36.9,-131.78 -87.55,55.61 -93.44,94.9 -132.12,191.74 -74.56,131.99 -196.11,160.44 -357.67,196.19 -252.22,55.82 -208.03,-72.95 -357.44,-133.95l8.26 465.5c208.95,-43.25 624.65,49.46 883.01,34.75l-6.95 -422.97 -0.19 -199.48z"/>
  </g>
 </g>
</svg>
