<?xml version="1.0" encoding="UTF-8"?>
<!DOCTYPE svg PUBLIC "-//W3C//DTD SVG 1.1//EN" "http://www.w3.org/Graphics/SVG/1.1/DTD/svg11.dtd">
<!-- Creator: CorelDRAW 2021 (64 Bit) -->
<svg xmlns="http://www.w3.org/2000/svg" xml:space="preserve" width="210mm" height="297mm" version="1.1" style="shape-rendering:geometricPrecision; text-rendering:geometricPrecision; image-rendering:optimizeQuality; fill-rule:evenodd; clip-rule:evenodd"
viewBox="0 0 21000 29700"
 xmlns:xlink="http://www.w3.org/1999/xlink"
 xmlns:xodm="http://www.corel.com/coreldraw/odm/2003">
 <defs>
  <style type="text/css">
   <![CDATA[
    .str0 {stroke:#E4C198;stroke-width:250;stroke-miterlimit:22.9256}
    .str1 {stroke:#0B0403;stroke-width:20;stroke-miterlimit:22.9256}
    .fil1 {fill:#0B0403}
    .fil0 {fill:#E4C198}
   ]]>
  </style>
 </defs>
 <g id="Camada_x0020_1">
  <metadata id="CorelCorpID_0Corel-Layer"/>
  <path class="fil0 str0" d="M17750.38 24386.35c148.17,10.76 255.22,-70.73 400.3,-74.71 108.12,-2.97 223.35,13.04 335.69,-19.91 77.2,-22.64 66.48,-19.82 79.46,-42.86 9.35,-7.27 1.4,4.74 10.39,-11.98 9.51,-17.69 2.51,-1.28 8.7,-24.12 3.72,-13.74 9.63,-40.25 13.76,-54.26 9.97,-33.75 17.42,-65.84 27.43,-99.57 9.35,-31.51 16.29,-65.08 26.12,-100.88 8.17,-29.72 22.77,-63.48 23.67,-102.97 22.75,-2.3 23.12,-4.35 42.33,-8.83 15.2,-31.68 22.85,-81.11 25.4,-135.22l0 -91.38c-2.34,-56.05 -8.52,-109.53 -16,-146.87 -23.77,-118.71 -62.23,-220.2 -102.53,-320.8 -65.23,-162.82 -188.81,-456.38 -203.2,-635.74l-12.02 -223.62c-0.45,-1.62 -1.92,-4.43 -2.34,-5.68 -0.4,-1.22 -1.41,-3.77 -2.58,-5.38 0,-53.07 4.13,-115.75 -7.09,-155.42 -92.67,-327.65 -175.51,-633.72 -70.21,-973.4 66.48,-214.46 77.3,-333.74 77.3,-574.62 0,-220.31 -8.46,-417.04 -8.46,-641.13l-2.04 -112.4c50.44,-29.22 42,-73.42 50.61,-137.75 10.74,-80.33 -13.5,-107.12 -14.71,-170.89 21.46,-22.64 26.37,-16.72 36.43,-52.84 15.25,-54.78 14.3,-572.52 14.38,-637.59 0.09,-71.69 -8.93,-114.3 -8.67,-177.6 0.79,-194.07 2.84,-350.82 -18.25,-540.55 -25.34,-227.94 -20.86,-317.38 -23.55,-535.25l-77 -761.26c-10.28,-37.15 -10.27,-48.31 -33.4,-54.32 36.05,-201.58 24.4,-123.58 25.45,-327.14 0.33,-62.67 -6.25,-111.97 -16.03,-161.77 -6.68,-34.06 -21.8,-113.76 -51.76,-119.04 0,-61.6 -0.13,-123.21 0.01,-184.81 0.16,-69.34 -9.13,-107.33 -8.65,-169.15l-22.85 -341.21c-26.23,-201.62 -25.08,-344.75 -70.72,-564.3 -5.21,-25.06 -13.97,-49.05 -16.32,-75.63 0,-54.56 -8.89,-71.63 -8.66,-127.97 1.66,-406.67 -12.41,-879.16 8.7,-1270.16 5.03,-93.15 -5.11,-194.79 -0.08,-287.95 2.46,-45.51 8.65,-77.34 8.52,-135.41l8.4 -279.47c-0.32,-59.78 8.52,-85.98 8.52,-137.48 0,-31.76 -1.72,-68.43 -0.04,-99.56 2.07,-38.38 8.79,-46.25 8.79,-92.82 0.02,-76.94 8.18,-120.36 8.18,-192.34 68.64,-169.02 78.69,-757.76 43.1,-840.88 76.7,-95.4 66.97,-588.53 66.97,-787.4 0,-124.82 12.42,-312.51 -4.89,-426.9l-20.51 -1054.77c0.24,-194.86 -25,-424.55 -1.24,-636.23 7.33,-65.23 -4.85,-143.96 2.48,-209.19 5.87,-52.32 15.69,-147.37 15.69,-203.68l-8.46 -9.38c19.97,-84.96 60.56,-98.31 59.32,-338.45 -0.36,-70.52 -0.69,-128.79 -7.29,-187.56 -7.21,-64.29 0.62,-137.38 -7.39,-195.81l-2.65 -294.36c0.57,-45.65 7.81,-49.89 9.08,-92.52 2.19,-73.18 -0.09,-133.04 6.96,-196.25l9.7 -193.65c18.83,-80.13 37.9,-158.78 55.69,-240.48 18.78,-86.21 34.54,-156.63 49.54,-246.8 27.5,-165.27 51.22,-375.39 -43.97,-511.63 18.93,-54.9 20.95,-278.26 26.98,-318.16 13.85,-91.55 2.96,-331.95 -47.33,-408.55 -92.36,-140.7 -650.99,-7.29 -816.34,108.64 -62.09,24.08 -198.2,41.1 -275.66,49.58 -88.96,9.73 -234.16,1.43 -328.99,1.21 -172.6,-0.39 -282.65,31.22 -434.18,56.89 -152.85,25.9 -317.11,19.32 -471.74,19.32 -116.91,0 -203.46,8.88 -321.76,8.44l-626.95 33.45c-47.7,3.95 -111.01,0.39 -160.42,0.45 -62.8,0.08 -101.85,-7.24 -152.12,-8.75 -228.69,-6.84 -576.43,-0.27 -821.56,0.29 -66.46,0.15 -103.37,-8.69 -160.56,-8.77l-813.12 0.32c-67.1,0.25 -99.51,-8.94 -160.64,-8.69 -51.36,0.21 -117.33,-1.16 -155.08,6.18 -79.12,15.4 -70.21,7.38 -107.59,61.31 -157.62,-9.66 -373.4,-50.23 -448.73,68.95 -190.41,-6.78 -396.39,19.91 -574.16,68.55 -24.65,6.74 -43.83,17.66 -67.43,23.81 -24.57,10.45 -184.22,22 -228.97,26.9l-678.84 83.16 -199.62 12.04c-134.98,20.43 -482.31,-6.85 -608.46,-25.22 -152.25,-22.17 -159.35,-21.07 -301.25,-20.49 -49.15,0.21 -62.03,-6.58 -101.36,-8.7l-322.06 -0.25c-48.97,0.07 -57.69,7.74 -101.04,9.03 -67.36,2.02 -145.86,-5.26 -211.49,0.17 -52.34,4.33 -143.69,4.62 -198.76,12.92 -64.67,9.73 -131.39,6.1 -197.28,14.38 -286.24,35.97 -262.61,46.62 -603.59,48.57 -71.06,0.41 -123.66,-8.6 -203.08,-8.58 -72.24,0.02 -144.47,0 -216.7,0 -31.8,-6.2 -86.3,-17.28 -121.97,-16.4 -52.79,-38.88 -172.45,-29.76 -236.97,-25.95 -344.26,20.36 -362.53,-44.8 -615.98,-95.3l-129.18 -18.6c-17.86,-18.8 -18.33,-16.6 -25.4,-46.95l-194.74 -8.47c-300.85,0.01 -924.37,-18.94 -1176.98,42.22 -58.36,14.13 -98.93,31.26 -155.76,47.44 -410.27,116.84 -876.79,-150.18 -1266.11,-63.85 -38.87,8.62 -124.77,38.09 -152.81,56.29 -150.67,130.51 -117.76,173.28 -146.25,406.66 -8.82,72.3 -25.12,155.82 -45.49,225.44 -18.43,63.02 -45.33,156.08 -45.33,230.41 -45.67,69.03 -98.8,250.57 -91.83,367.73 -82.01,49.95 -113.38,267.41 -138.81,387.42 -30.2,142.43 -69.86,268.19 -94.67,430.27 -40.84,266.78 -139.61,645 -64.15,932.94 0,177.85 24.65,769.39 47.05,928.58 14.37,102.07 23.54,194.07 63.01,266.83 13.67,29.17 48.98,467.1 63.87,571.49l35.8 133.46c11.81,23.29 11.78,4.93 18.87,33l77.63 649.5c22.41,209.1 -0.55,491.96 117.1,606.49 0,139.8 0,279.61 0,419.41 0,145.96 -8.47,266.95 -8.47,406.4 0,138.29 0,276.58 0,414.87 0,148.94 -8.46,268.46 -8.46,418.15 0,52.1 8.89,68.09 8.66,123.52 -0.55,135.67 -2.35,296.87 8.5,423.3 11,128.16 63.88,396.44 45.79,511.69l-12.15 555.34c0,95.44 3.51,507.57 25.4,548.97l-0.21 9.83c-96.57,22.76 -67.53,158.65 -67.53,330.2 0,534.32 59.39,1244.22 -6.04,1755.02l-120.96 883.47 -135.83 1163.04c-107.99,81.5 -84.3,763.84 -84.3,872.07 0,318.91 0,637.82 0,956.73l8.47 702.73 -67.74 1134.36c-36.28,157.26 -47.37,327.88 -74.89,492.55 -27,161.59 -63.53,314.99 -95.23,472.03 -42.23,209.17 -80.93,500.64 -165.71,680.97 -24.74,52.63 -62.1,154.44 -62.1,225.76l219.04 0c66.85,-2.1 124.24,-9.55 264.78,-32.64 402.12,-66.08 768.21,-227.8 1146.38,-284.49 46.38,-6.95 79.42,-1.91 119.52,-13.07l316.44 0.29c48.96,-0.07 57.68,-7.74 101.03,-9.03l322.05 0.31c44.15,-2.43 47.3,-12.08 101.56,-6.1 169.43,86.05 295.43,58.92 491.02,48.36l686.04 -17.09c51.88,-0.22 65.47,7.62 109.59,8.94 155.95,4.66 796.25,2.94 932.06,-8.3 62.85,-5.2 600.82,9.39 680.46,21.38l671.25 35.32c81.2,-11.45 243.71,-4.8 341.51,-6.01 48.06,-0.59 58.57,-9.04 109.44,-9.09 300.76,-0.34 564.42,-43.95 856.85,-74.49l443.73 -30.4c114.25,-17.29 332.76,-4.61 460.79,-4.9l457.46 16.67c60.38,1.79 151.54,14.28 211.46,17.14 176.08,8.39 363.29,29.98 534.56,58.11 34.66,5.69 66.68,15.09 96.53,18.16 54.84,29.34 164.05,63.73 231.55,77.08 89.84,17.78 177.79,17.73 289.1,16.39 132.43,-1.6 294.63,-51.14 558.46,-51.14 132.42,0 804.02,-19.78 902.36,-4.89l287.84 13.36c9.85,-0.7 32.62,-5.94 32.89,-5.97 61.44,-5.25 15.79,54.6 198.47,74.54 50.9,5.55 91.27,7.44 153.26,7.65 63.93,0.22 95.49,-8.49 151.43,-8.49 33.82,0 43.36,5.08 65.5,-8.47 85.2,0 275.99,-36.16 362.16,-55.88 124.66,-28.54 204.34,-63.81 340,-83.34 536.4,-77.22 664.42,-56.95 1206.36,-63.64l202.86 -8.8c232.27,0.14 608.51,-23.18 809.67,-138.59 40.89,-23.46 31.48,-24.07 42.81,-66.39z"/>
  <path class="fil1 str1" d="M18363.87 6481.53c-20.55,236.51 -28.47,523.19 -23.46,761.62 4.49,214.38 46.93,619.38 -58.48,746.11l21.87 -6.31c-46.12,516.87 -13.05,1171.27 -8.07,1700.94 1.72,182.74 62.84,1475.76 -48.77,1626.84 31.84,204.51 14.03,718.51 -45.37,834.23l-19.14 386.64c-33.21,754.21 -41.35,1473.43 -26.47,2242 70.13,198.2 132.06,1060.24 121.77,1319.39 85.5,104.78 84.7,459.23 44.07,611.9 28.08,41.29 8.71,-16.44 37.22,85.27l54.72 569.34c33.08,238.11 6.01,466.7 39.03,702.23 31.23,222.82 17.95,487.32 26.32,719.43l-2.75 556.05c-20.34,141.2 9.31,63.36 -48.01,141.84 14.49,84.31 25.17,89.78 12.68,188.99 -16.03,127.54 -1.73,56.79 -44.09,119.85l1.72 102.89c-14.03,345.26 47.03,877.48 -53.5,1163.36 -132.41,376.64 -43.91,683.63 55.25,1041.93l22.48 383c67.51,468.07 347.92,776.77 320.26,1187.23 -10.42,154.6 -28.69,138.98 -61.72,144.45l-109.04 401.53c-145.95,81.36 -244.37,39.38 -422.55,54.91 -172.52,15.05 -226.85,73.1 -395.18,77.83 -39.66,64.92 47.91,9.77 -96.4,90.03 -250.89,139.54 -1132.92,115.52 -1397.38,116.57 -294.43,1.16 -478.1,32.46 -776.55,68.05 -185.9,22.18 -200.9,82.88 -701.05,143.56l-60.55 -0.03c-79.57,13.03 -178.67,18.15 -271.05,8.64 -54.64,-5.63 -75.74,-6.05 -124.32,-26.25 -85.89,-35.72 -51.64,-22.49 -81.62,-59.57l-54.02 15.53c-394.63,-31.12 -823.03,-15.54 -1221.77,-12.33 -429.55,3.48 -611.64,148.31 -1052.13,-39.32 -364.09,-88.52 -1342.8,-125.71 -1757.39,-107.53 -707.91,31.02 -723.37,107.43 -1736.23,118.73 -328.79,3.66 -587.09,-32.21 -885.99,-45.1 -301.35,-12.98 -622.61,-2.73 -925.67,-1.4 -285.71,1.26 -624.62,-8.93 -871.53,-4.01l-683.92 25.33c-43.13,-1.58 -63.72,-0.83 -106.82,-10.7l-114.7 -50.14 -847.89 17.85c-448.32,12.11 -1109.86,371.22 -1739.22,324.58 5.34,-160.91 99.87,-255 129.18,-417.14l191.35 -946.79c13.45,-106.82 58.31,-470.29 75.84,-500.67 58.03,-886.83 82.19,-903.27 57.51,-1867.99l0.34 -1401.32c13.71,-109.02 26.71,-321.35 82.62,-403.05l137.04 -1154.28c74.6,-463.18 159.7,-1013.41 155.16,-1479.05l-27.3 -1184.6c-4.13,-249.44 -7.91,-292.02 66.74,-309.38 -38.45,-290.81 -14.19,-816.45 -10.33,-1131.75 2.69,-220.86 -32.03,-336.88 -49.32,-519.34 -16.08,-169.54 -3.93,-357.82 -12.43,-532.24l18.14 -1644.77c-118.85,-121.69 -100.43,-371.27 -120.07,-633.41l-81.33 -626.9 16.54 -0.45c-93.41,-95.36 -5.26,38.36 -49.04,-82.62 -21.7,-59.97 -11.89,-40.08 -20.4,-101.13l-58.94 -555.42c-96.2,-94.26 -105,-960.93 -114.57,-1199.62 -76.28,-258.9 25.08,-637.81 66.99,-938.89 17.96,-129.09 66.8,-304.21 93.95,-423.88 40,-176.29 43.73,-282.43 137.03,-387.82 -2.82,-130.82 49.26,-284.34 88.1,-354.84 21.91,-182.9 78.17,-291.5 96.58,-474.84 22.26,-221.68 5.6,-278.91 143.91,-391.8 413.71,-225.14 1011.24,164.05 1464.4,-7.27 294.52,-111.33 742.74,-59.45 1147.43,-74.31 41.93,-1.54 189.19,-6.77 222.61,-2.18 163.06,22.41 63.02,-17.14 137.16,57.1 149.13,5.39 329,83.83 463.38,106.39 196.76,33.03 350.69,-31.38 534.97,34.6l91.33 11.94c201.04,3.1 692.52,24.57 860.2,-11.34 278.11,-59.57 1315.76,-79.14 1594.19,-34.91 270.17,42.92 553.52,38.18 827.97,16.21 6.41,-3.97 837.02,-103.65 907.89,-106.99 61.72,-50.17 522.97,-116.48 633.61,-96.96 76.06,-115.12 323.08,-77.25 453.67,-69.44 45.23,-38.69 -36.66,-30.56 125.57,-62.96l2391.36 21.05c439.12,-27.79 810.11,-39.34 1257.67,-43.91 243.73,-2.49 323.45,-70.08 588.28,-71.11 277.48,-1.11 369.38,11.78 629.75,-51.78 80.38,-87.24 662.52,-246.9 800.3,-124.83 97.83,120.48 51.67,557.73 30.89,740.71 168,198.34 -22.73,778.35 -60.51,998zm-16263.75 18787.24c174.97,-171.81 380.33,11.16 955.98,-172.18 205.96,-65.59 249.39,-50.48 472.41,-92.74 136.27,-25.81 297.27,-113.11 436.97,-142.52 338.03,-71.2 771.69,31.69 1093.54,34.04l2256.2 -7.44c351.16,-9.54 716.63,51.42 1108.98,43.67 319.92,-6.32 839.68,24.09 1115.12,-38.23 818.38,-185.15 1119.57,-48.02 1582.61,-30.8 173.36,6.46 378.12,-27.74 539.92,9.23 414.03,94.58 370.85,182.79 978.85,138.84 213.59,-15.43 215.69,-62.03 477.92,-57.69 431.97,7.14 763.37,-51.53 1097.14,59.76 393.79,131.32 1154.54,-90.67 1519.19,-142 659.4,-92.84 1657.78,34.48 2089.7,-199.37 451.8,-244.61 572.49,-71.11 961.76,-185.98 71.68,-191.27 39.09,-288.13 158.67,-503.55 273.16,-492.01 -167.81,-1074.24 -242.8,-1581.78 -34.99,-236.93 -2.96,-354.16 -82.63,-581.47 -65.97,-188.21 -110.59,-336.08 -38.25,-570.88 149.46,-485.09 23.7,-761.96 86.27,-1238.87 199.17,-1518.09 38.98,-1319.87 36.36,-2485.39l-185.05 -1809.78c-7.13,-479.08 -113.43,-1113.77 -111.33,-1257.42l149.85 -3185.55c34.12,-243.14 -4.41,-2241.22 -0.86,-2696.22 3.49,-447.19 46.22,-833.29 43.7,-1294.31 -5,-921.94 14.5,-518.96 138.98,-1194.52 35.31,-191.68 -37.34,-1058.19 -40.96,-1356.97l8.03 -247.04c-711.53,-183.88 -1252.75,205.11 -1591.42,211.54 -212.99,4.03 -405.39,-19.09 -603.63,23.88 -658.34,142.7 -3557.36,-75.48 -4700.76,185.59 -265.99,60.73 -789.01,156.78 -1057.26,158.71 -220.12,1.58 -365.01,62.99 -592.48,54.9 -216.87,-7.72 -336.13,-50.23 -590.21,-50.44 -397.98,-0.32 -824.83,-2.21 -1222.69,8.98 -222.38,6.26 -287.16,61.45 -551.59,63.24l-1126.37 -91.43c-184.27,-45.12 -300.57,-116.7 -498.45,-120.01 -412.78,-6.92 -849.26,-2.14 -1260.4,7.19 -241.75,5.48 -290.09,99.77 -479.95,103.44 -220.1,4.25 -1323.61,-335.66 -1513.03,210.83 -10.98,31.65 -107.8,647.41 -221.45,994.69 -100.32,306.49 -226.32,694.77 -249.3,1001.17 -33.31,443.85 -180.13,527.31 -76.26,1053.46 32.39,164.04 -8,659.94 96.18,1177.01 167.45,831.16 442.83,2459.82 298.46,3323.11 -33.13,198.09 196.26,1742.95 79.49,2323.97 -40.33,200.65 -50.66,1413.22 -30.14,1727.96 17.38,266.4 -20.14,271.4 -38.44,525.42 -25.31,351.35 -89.37,782.49 -151.29,1114.21 -65.65,351.71 -72.83,724.2 -139.38,1086.98 -71.18,388.12 -36.87,789.3 -44.53,1202.12 -22.23,1199.21 74.58,1054.84 -93.02,2400.85 -76.82,616.89 -179.63,785.3 -201.8,1001.95 -31.33,306.09 -15.28,256.63 -134.2,498.56 -58.47,118.96 -75.66,442.58 -45.52,555.62l133.17 33.66z"/>
  <path class="fil1 str1" d="M8551.42 16967.05c-102.21,69.5 -178.97,89.4 -306.5,184.34 -65.69,48.88 -198.33,175.53 -289.76,196.34 -48.83,69.72 -128.4,167.5 -169.17,203.39l14.08 312.04c193.14,55.73 157.12,70.73 418.23,36.61l16.1 -7.74c11.98,-21.23 -0.98,-9.8 37.72,-50.83 0.49,-0.52 52.42,-47.53 54.9,-49.34 87.89,-64.02 36.6,-33.27 134.55,-72.79 14.9,-23.46 6.08,-15.35 41.59,-52.63 6.35,-6.67 27.53,-26.7 35.19,-33.55 248.61,-222.29 591.81,-279.62 891.52,-124.1 410.48,212.98 188.8,742.06 -35.68,850.06 -75.06,141.93 -27.34,61.58 -159.14,151.52 -93.15,63.57 -69.17,70.86 -189.93,126.05 -54.73,78.21 -91.37,109.3 -205.22,131.59 -34.47,45.54 -14.01,23.22 -57.05,63.32 -0.52,0.47 -60.18,48.48 -63.82,51.01 -38.62,26.85 -68.65,44.38 -126.48,72.37 -62.74,68.15 -329.53,279.24 -406.21,279.05 -38.64,74.8 -213.08,314.66 -253.8,351.15 -56.59,185.4 -114.2,250.23 -131.27,461.38 -9.42,116.49 -14.66,447.74 -0.79,557.1 44.84,353.49 559.28,273.43 861.49,226.86 222.64,-24.03 518.67,-31.07 741.1,-47.11 329.54,-23.78 498.13,75.49 790.63,49.84l132.03 -145.79c-1.95,-253.01 -36.71,-327.8 -265.74,-390.69 -324.14,-110.62 -1113.66,-76.9 -1458.71,-7.29 -712.63,143.78 -89.01,-628.96 118.87,-773.53 87.3,-60.71 733.06,-427.35 802.69,-449.26 44.35,-73.43 340.15,-309.03 435.51,-422.24 199.78,-237.22 184.29,-311.94 281.9,-572.2 35.72,-643.13 13.7,-434.93 -184.06,-885.87 -96.61,19.24 -30.08,30.09 -65.83,-60.26 -85.99,-6.59 -87.71,-24.34 -122.39,-75.16 -548.14,-182.14 -694.8,-231.32 -1316.55,-83.64z"/>
  <path class="fil1 str1" d="M11335 17260.54l-11.56 13.24c-45.03,63.55 -7.63,62.95 -107.59,93.4 -60.81,122.85 -198.27,225.88 -113.51,448.92 273.26,160.85 513.13,-222.68 760.14,-286.72 199.29,-299.57 979.83,-194.06 1066.22,121.5 118.39,111.44 98.89,313.41 38.61,419.54 -49.19,86.62 -183.98,241.62 -267.3,261.4 -77.04,142.04 -239.57,226.36 -395.37,328.47 -139.98,91.73 -273.32,212.43 -425.69,279.18 -28.34,69.31 -119.44,113.15 -175.28,153.86 -91.38,66.62 -136.22,119.16 -212.94,131.16 -64.43,127.24 -39.67,107.64 -158.38,174.1 -16.51,52.75 -22.79,82.06 -62,149.43 -9.83,16.89 -33.07,50.23 -47.34,68.01 -36.02,44.87 -23.53,29.66 -61.73,61.75l-41.49 221.63c-126.38,944.42 -37.73,974.93 869.71,907.24l1501.71 -63.39 76.3 -17.41c0,-70.58 -23.09,-70.96 33.05,-46.49 42.04,-200.48 39.84,-148.02 -19.56,-319.38 -82.63,-23.7 -36.82,26.76 -85.48,-64.47 -201.14,-37.47 -230.08,-95.99 -468.61,-97.22 -182.6,-0.95 -372.36,6.01 -556.4,7.38l-786.21 69.2c-17.27,-152.22 -24.8,-175.47 52.1,-305.68l40.69 -47.3c-4.36,-214.74 279.1,-445.34 447.29,-480.47 58.25,-88.91 -24.91,-47.11 110.93,-74.45 63.38,-88.79 104.47,-111.36 212.43,-154.57l108.97 -87.96c68.39,-45.28 93.72,-57.84 156.6,-103.49l299.77 -206.8 51.81 -72.73c4.06,-4.75 12.09,-12.76 16.42,-17.57 454.53,-503.15 564.08,-1262.03 36.39,-1641.1 -888.19,-638.03 -1824.04,165.2 -1882.7,177.79z"/>
  <path class="fil1 str1" d="M10489.39 12133.41c-73.71,103.42 -261.11,224.54 -365.26,368.22 -46.62,276.99 -34.09,324.93 238.58,299.99 60.22,-44.72 95.98,-36.78 170.47,-90.46 56.07,-40.42 77.39,-80.21 164.56,-134.7 287.56,-179.78 586.81,-242.73 871.85,-63.94 70.61,44.3 121.23,76.98 147.56,154.78 73.8,218.1 -38.99,239.15 -39.3,239.44 -4.4,203.81 -342.35,542.38 -509.3,574.52 -59.18,85.93 -41.37,88.41 -155.71,108.13 -61.09,85.87 -47.95,76.4 -160.26,145.75 -29.82,18.42 -63.54,37.06 -93.49,51.11 -104.59,49.11 -22.9,16.99 -92.68,34.24l-425.85 433.16 -40.56 155.93c-105.55,315.29 -231.95,948.96 199.67,1010.05 353.54,47 1080.41,-133.55 1442.3,-30.84l406.33 -13.94c-34.18,-236.03 251.82,-332.38 -295.78,-499.42l-1344.79 37.34 52.69 -203.37c51.33,-220.95 190.12,-354.97 332.82,-467.65 120.67,-95.28 343.9,-259.54 495.1,-307.06l293.92 -222.79c18.07,-37.48 -19.74,-0.03 35.37,-47.7 2.24,-1.96 18.15,1.17 19.99,-7.24 1.96,-9.01 14.86,-2.91 22.23,-4.6 67.63,-107.45 130,-158.67 201.18,-266.29 53.49,-80.87 41.45,-76.35 76.68,-141.73 37.03,-68.76 -1.97,-3.92 45.33,-75.49l39.68 -47.77 17.19 -174.42c8.01,-254.59 35.55,-428.81 -97.57,-632.43l-98.29 -152.57c-78.56,-8.51 -2.7,15.08 -88.41,-30.99 -34.87,-18.75 -48.48,-33.9 -85.89,-60.49 -83.98,-59.68 -89.23,-66.38 -175.21,-100.12 -194.06,-75.8 -471.05,-100.87 -700.88,-59.61 -187.34,33.63 -332.4,167.57 -504.27,222.96z"/>
  <path class="fil1 str1" d="M10674.1 8138.63c517.12,20.15 902.23,-712.72 1451.78,-284.4 423.05,329.73 -333.76,1021.98 -620.82,1079.34 0,61.56 15.88,53.61 -40.4,33.76 -69.83,97.77 -273.84,237.15 -383.43,284.52 -23.22,75.48 -13.27,50.08 -81.96,90.12 -62.56,116.28 -125.38,124.88 -200.11,266.78 -60.92,115.68 -101.18,251.98 -128.97,321.77 -39.13,285.37 -34.04,420.35 -1.29,706.43 11.97,13.56 108.14,105.53 119.3,115.42 362.79,36.29 693.8,-7.96 1052.88,-27.33 144.95,-7.83 366.5,-13.27 512.05,-36.98 234.01,-38.11 283.24,-30.77 429.89,-141.28 -27.41,-229.11 -17.95,-243.63 -237.12,-303.02 -358.31,-97.09 -1037.34,42.64 -1394.3,27.72 -47.19,-343.53 327.55,-769.46 549.3,-801.03 99.68,-124.15 136.12,-93.58 260.57,-173.48 104.12,-66.88 107.7,-101.65 235.08,-156.43 3.83,-6.3 10.8,-14.67 13.38,-17.61l222.68 -208.01c78.14,-81.84 150.5,-178.98 203.96,-276.68 120.95,-221.12 150.07,-519.95 116.65,-831.55l-42.98 -149.69c-107.05,-79.17 -78.38,-112.3 -243.68,-218.48 -605.03,-388.63 -1093.7,-222.03 -1600.15,169.78 -188.42,145.77 -293.76,247.83 -192.31,530.33z"/>
  <path class="fil1 str1" d="M6538.54 15873.63c15.38,91.65 24.65,37.52 -57.58,77.51l36.98 253.01c362.78,44.93 5661.82,-30.21 6580.96,-28.33 536.55,1.09 1683.83,-79.81 2148.12,-1.09 38.09,-164.06 55.69,-179.91 5.95,-351.78 -252.55,-95.49 -1647.95,-37.67 -2043.2,-33.45 -520.22,5.55 -1617.11,69.59 -2068.58,-7.37l-556.47 35.48c-197.07,0.76 -394.58,2.38 -591.56,1.65 -667.43,-2.46 -3107,-34.12 -3454.62,54.37z"/>
  <path class="fil1 str1" d="M6951.33 13760.22c-105.67,-20.99 -224.4,5.89 -331.09,14.91 -192.32,16.25 -218.1,-26.3 -361.3,69.53 -91.35,185.44 29.24,278.71 90.57,351.78l592.38 21.17c70.59,236.6 -46.74,492.22 84.05,652.23 230.82,131.69 297.36,-16.9 398.29,-37.17 11.77,-186.18 -10.97,-518.25 39.91,-584.04 107.69,-86.63 278.78,-60.03 423.72,-56.26 156.85,4.1 254.57,-29.24 336.24,-73.82l10.11 -264.79c-292.82,-212.24 -454.83,-70.25 -807.07,-117.39 -75.32,-238.72 42.05,-416.53 -48.76,-652.07 -530.43,-214.27 -388.9,300.49 -427.05,675.92z"/>
 </g>
</svg>
