<?xml version="1.0" encoding="UTF-8"?>
<!DOCTYPE svg PUBLIC "-//W3C//DTD SVG 1.1//EN" "http://www.w3.org/Graphics/SVG/1.1/DTD/svg11.dtd">
<!-- Creator: CorelDRAW 2021 (64 Bit) -->
<svg xmlns="http://www.w3.org/2000/svg" xml:space="preserve" width="210mm" height="297mm" version="1.1" shape-rendering="geometricPrecision" text-rendering="geometricPrecision" image-rendering="optimizeQuality" fill-rule="evenodd" clip-rule="evenodd"
viewBox="0 0 21000 29700"
 xmlns:xlink="http://www.w3.org/1999/xlink"
 xmlns:xodm="http://www.corel.com/coreldraw/odm/2003">
 <defs>
   <linearGradient id="id0" gradientUnits="userSpaceOnUse" x1="5792.29" y1="2483" x2="8024.68" y2="4849.61">
    <stop offset="0" stop-opacity="1" stop-color="#B0AEB1"/>
    <stop offset="0.345098" stop-opacity="1" stop-color="#BFBEC1"/>
    <stop offset="0.521569" stop-opacity="1" stop-color="#CFCED1"/>
    <stop offset="1" stop-opacity="1" stop-color="#DDE4EB"/>
   </linearGradient>
   <linearGradient id="id1" gradientUnits="userSpaceOnUse" x1="7133.3" y1="5073.02" x2="13209.96" y2="2203.39">
    <stop offset="0" stop-opacity="1" stop-color="#1B1836"/>
    <stop offset="0.321569" stop-opacity="1" stop-color="#24315E"/>
    <stop offset="0.658824" stop-opacity="1" stop-color="#7877A3"/>
    <stop offset="1" stop-opacity="1" stop-color="#AEAED6"/>
   </linearGradient>
   <linearGradient id="id2" gradientUnits="userSpaceOnUse" x1="14846.05" y1="2829.29" x2="13391.81" y2="4838.44">
    <stop offset="0" stop-opacity="1" stop-color="#B0AEB1"/>
    <stop offset="0.239216" stop-opacity="1" stop-color="#C0BFC2"/>
    <stop offset="0.45098" stop-opacity="1" stop-color="#D0D0D3"/>
    <stop offset="0.772549" stop-opacity="1" stop-color="#D6DADF"/>
    <stop offset="1" stop-opacity="1" stop-color="#DDE4EB"/>
   </linearGradient>
 </defs>
 <g id="Camada_x0020_1">
  <metadata id="CorelCorpID_0Corel-Layer"/>
  <path fill="black" d="M6705.02 3301.86l93.13 154.06c103.87,53.14 343,273.66 419.73,403.96 281.86,26.08 81.47,112.14 792.34,214.56 247.37,382.87 171.1,1207.77 -178.89,1416.92 -334.27,199.74 -1335.35,-24.75 -1468.88,-264.39 -231.36,-98.32 -569.14,-468.91 -530.22,-801.52l-17.81 -13.84c-93.8,-85.05 -132.09,-144.41 -152.41,-324.52l40.62 -1153.17c70.61,-311.01 209.49,-873.01 359.9,-1169.74 112.8,66.1 98.48,-22.21 201.04,390.4 213.23,857.76 324.87,745.59 441.45,1147.28zm8130.42 1358.07c14.07,193.2 14.77,95.55 -62.82,140.01 -117.8,271.35 -765.61,479.3 -1153.11,415.84 -178.25,-271.83 -362.25,-864.73 -376.5,-1238.94 145.95,-77.28 382.15,-268.48 566.61,-275.56 65.7,-86.73 12.07,-25.06 88.07,-97.19 53.58,-50.88 34.5,-32.79 90.12,-74.12 55.39,-41.16 119.11,-76.08 166.22,-105.49 123.84,-208.37 248.11,-276.45 372.07,-491.48 112.56,-195.22 106.69,-362.9 282.2,-492.55 220.25,314.49 223.12,1510.54 123.72,2000.55 -12.57,61.9 -5.89,48.77 -33.96,118.89 -37.9,94.72 -13.31,42.89 -62.62,100.04zm-6645.63 -2112.23c22.6,-249.99 335.19,-673.76 505.1,-800.73 57.03,-188.28 136.7,-250.32 268.52,-394.9 154.01,-168.86 147.1,-241.39 365.73,-349.34 411.91,-332.51 1058.35,-313.05 1522.4,-75.5 419.8,214.91 904.55,565.09 1042.98,933.55 122.1,88.01 86.5,103.03 193.96,302.86 79.06,146.99 97.44,154.98 176.17,337.2 105.13,243.25 263.23,428.04 292.39,685.48l319.08 717.61c104.37,239.23 144.94,516.46 228.27,757.84 302.95,877.54 813.92,1234.33 313.92,1270.48 -73.58,89.48 34.13,7.7 -123.35,114.31 -135.98,92.04 -641.02,232.71 -847.02,199.86 -71.64,68.95 3.1,38.7 -120.01,72.36 -146.76,40.15 -72.03,10.15 -136.62,-18.32 -61.01,51.42 -11.79,37.9 -117.41,75.76 -138.36,49.57 -82.5,-1.21 -110.43,-7.65 -314.42,287.88 -2395.94,91.71 -2479.26,94.49l-1739.76 -145.93c-98.96,-17.23 -79.61,-34.08 -268.21,-70.65 -540.61,-104.88 -951.67,70.2 -669.89,-431.38 338.68,-53.15 782.52,105.72 1034.94,-8.01 489.09,-220.36 659.72,-1204.91 499.46,-1653.41 -120.38,-336.89 -246.76,-394.81 -638.42,-493.84 37.52,-170.45 118.08,-432.22 177.38,-608.86l199.58 -411.97c70.96,-79.53 14.38,-25.21 110.5,-91.31zm5171.51 24642.42c-493.76,-191.49 -611.71,133.15 -844.31,-475.09 137.62,-212.19 272.22,-3.3 238.03,-409.68l-164.82 -1206.42c-27.96,-228.04 -57.85,-403.04 38.13,-618.31 244.46,-210.09 6410.92,-106.62 6604.85,-157.17 0.95,-33.69 -375.17,-1555.14 -25.25,-1985.56 10.17,-8.98 29.19,-31.32 35.14,-20.59 0.95,1.74 421.06,-140.83 490.93,-376.31 97.14,-327.55 -25.75,-680.49 -24.38,-913.34 1.73,-295.38 253.34,-285.57 170.61,-815.94 -36.56,-234.37 -100.84,-137.21 -34.5,-382.11 44.34,-163.67 105.05,-187.92 92.74,-443.11 -42.86,-888.97 -607.13,-846.5 -737.56,-1203.71 -171.81,-470.6 172.52,-1574.55 -43.42,-1903.43 -11.69,-7.86 -31.71,-30.11 -38.39,-17.72l-160.72 -29.75c-6.96,0.2 -202.95,33.55 -223.28,36.88 -172.8,28.41 -320.94,43.14 -513.32,55.46 -953.59,61.02 -1937.68,-38.86 -3311.14,65.08 -366.54,27.76 -735.02,-25 -1065.12,12.55l-3298.39 159.08c-23.4,-515.56 198.67,-1453.94 394.19,-1866.37 191.73,-404.53 399.33,-880.63 643.39,-1262.39 126.73,-198.22 -19.21,-82.49 174.03,-168.81 68.98,78.92 26.63,6.05 93.22,144.7 189.31,394.16 99.18,1069.65 423.63,1140.38 500.95,-591.93 132.41,-1349.63 857.93,-1487.28 104.54,-19.83 220.15,-37.66 350.79,-40.26 453.5,482.31 474.99,877.16 819.29,892.43 156.91,-548.94 -21.9,-846.49 635.67,-1009.48 313.58,-77.73 1091.37,-177.96 1408,-296.39 1187.3,-444.04 1542.54,-315.38 1511,-1850.13 -16.39,-797.08 -314.85,-2036.41 -826.52,-2531.86 -689.33,-667.43 -1853.89,436.45 -2659.12,378.83 -339.24,-417.53 -284.41,-571.84 219.52,-802.51 680.8,-311.61 865.65,-151.85 1390.49,-621.64 411.04,-367.93 954.64,-1138.73 485.64,-1846.33 -316.09,-2.98 -910.89,360.05 -1283.72,446.16 -578.55,133.63 -1207.17,456.65 -1239.98,-83.01 465.93,-321.95 1635.55,157.8 1248.66,-3188.03 -35.68,-308.64 -38.17,-1025.01 -384.96,-1168.01 -314.34,266.38 -37.41,1382.39 -1045.35,1972.57 -753.56,441.24 -630.44,491.58 -1343.32,-1173.07 -105.39,-246.08 -281.73,-408.24 -397.54,-579.81 -176.53,-261.51 -171.3,-388.54 -412.1,-620.8 -166.07,-160.23 -342.83,-287.1 -535.52,-444.12 -201.49,-164.18 -391.33,-246.99 -760.61,-267.03 -937.25,-50.88 -935.63,146.6 -1389.87,622.38 -503.85,527.77 -1199.78,1946.9 -1491.91,2580.92 -583.27,-34.11 -821.86,-1258.55 -925.78,-1740.86 -57.37,-266.41 -4.15,-576.2 -54.8,-811.71 -209.68,-4.67 -585.03,704.84 -670.61,906.66 -293.74,692.69 -650.49,2081.7 -313.06,2810.29 160.38,346.31 433.36,777.35 773.85,913.82 88.85,117.21 219.15,97.6 121.15,480.94 -424.99,123.78 -1023.48,-180.67 -1531.68,-102.28 -466.43,71.91 -486.32,742.88 -270.44,1116.73 384.79,666.4 300.97,450.2 674.94,972.02 636.25,887.77 408.57,451.11 734.35,812.05 244.17,76.05 403.65,180 663.26,264.07 666.01,215.72 1036.57,78.36 1300.66,1183.45 63.69,266.55 75.5,492.88 141.87,744.63 157.27,596.46 176.18,1636.2 333.79,2144.97 246.92,796.98 362.72,2141.45 299.98,3055.19 -24.39,355.55 -346.48,914.96 -508.23,1192.46 -130.32,223.56 -463.91,901.42 -680.27,971.41 -144.51,-402.74 -861.74,-3746.92 -807.32,-4127.99 129.45,-231.45 1139.06,-97.45 95.64,-2490.83 -117.43,-269.37 -476.91,-930.44 -867.5,-841.02 -192.08,44 -380.62,291.46 -472.18,407.74 -205.85,261.43 -257.14,156.81 -670.18,189.15 -94.44,62.55 -552.02,227.35 -689.19,366.05 -227.84,230.32 32.66,312.57 -430.51,600 -871.46,540.79 -361.68,903.48 -346.57,1411.33 -555.82,74.57 -1531.09,307.33 -1886.69,640.79 -518.74,486.47 -580.62,1219.51 91.24,1564.01 794.85,407.58 1251.75,-81.06 1716.36,-481.93 686.81,-592.61 977.24,-371.45 1325.98,-330.73 314.86,36.78 309.69,-29.23 565.19,-49.82 247.39,429.46 278.69,800.87 458.83,1240.8 494.59,1207.92 773.83,3817.78 934.13,4104.54 260.11,68.23 606.48,-200.54 824.43,-344.55 218.28,-144.23 420.21,-482.35 663.33,-496.02 12.08,281.3 -429.76,1595.61 -525.57,1871.93 -109.21,314.97 -190.77,627.88 -273.09,926.56 -97.91,355.26 -187.61,524.28 -302.87,878.37 -158.44,38.83 -321.03,-15.66 -406.64,118.44 -105.19,164.74 127.16,213.27 202.67,268.84 -16.66,527.96 42.69,342.25 -99.25,856.55 -66.91,242.36 -115.81,568.44 -167.09,805.79 -106.31,492.16 -172.28,1202.67 -309.69,1665.06 -500.02,237.29 -1009.83,337.17 -1555.63,607.68 -728,360.8 -161.89,156.29 -793.34,101.66 -475.96,-41.15 -540.17,162.01 -827.79,192.37 -380.9,40.21 -617.79,-76.17 -924.51,161.34 -389.28,301.45 -621.71,1152.21 487.81,983.44 420.49,-63.97 415.34,226.08 716.81,284.49 316.04,61.22 596.3,-225.72 839.23,-171.36 235.53,52.72 434.25,341.27 870.78,165.64 923.17,-371.43 1043.21,-236.47 1688.16,-441.3 313.46,-99.54 432.13,-258.06 819.85,-246.16 380.62,11.68 664.73,17.18 971.45,-119.53 289.16,-128.88 467.89,-294.13 382.44,-708.69 -57.27,-277.8 -308.07,-370.41 -518.36,-521.03 -21.35,-267.22 30.62,-456.17 120.77,-643.6 349.55,-92.9 781.96,-82.9 1170.11,-49.82 446.01,38.01 783.22,-50.3 1184.38,-31.4 142.55,180.87 294.04,632.61 211.73,922.95 -88.31,311.5 -378.22,170.97 -293.87,782.01 343.81,370.05 704.82,460.84 1271.04,477.23 303.09,8.77 535.94,-70.43 825.59,-80.87 526.16,-18.99 1662.82,226.91 2333.94,166.31 282.71,-25.5 354.01,139.27 767.48,94.72 341.93,-36.85 232.78,-187.24 635.27,-94.13 560.59,129.68 1150.07,-193.66 926.93,-733.24 -67.33,-162.78 -303.12,-291.89 -536.76,-317.51 -525.81,-57.67 -278.62,17.45 -612.89,-231.89 -225.19,-167.97 -443.08,-131.95 -751.16,-87.91 -309.7,44.28 -260.17,-180.79 -591.98,-215.12 -300.04,-31.05 -546.98,47.35 -856.41,-23.69 -336.43,-77.23 -331.03,-101.39 -744.27,-131.34z"/>
  <path fill="#FEFEFE" d="M16609.07 20721.38c-87.67,199.34 -326.22,278.71 -560.26,276.67 -193.87,-49.36 -289.15,-333.26 -413.5,-450.98 -327.78,187.51 64.52,176.7 -524.79,477.42 -710.78,362.69 -427.27,227.54 -552.23,-1073.45 -27.46,-285.79 -205.18,-522.5 -95.2,-753.85 173.57,-24.2 242.95,37.92 438.04,99.71 662.61,209.86 547.31,660.37 734.18,831.1 120.76,-54.81 72.69,-26.55 145.37,-139.08 80.21,-124.16 36.28,-157.63 262.67,-444.5 311.22,5.33 583.77,236.42 680.9,405.59 28.03,177.26 -53.85,631.91 -115.18,771.37zm-3211.59 -200.6c-3.9,-102.97 -2.12,-208.3 0.9,-312.59 21.12,-729.61 -329.49,-1143.38 677.7,-972.77 80.17,415.11 -164.19,217.51 -401.43,353.11 -84.07,443.78 125.92,223.48 398.62,326.97 215.46,81.78 153.44,256.39 -143.75,291.87 -146.59,17.5 -201.96,-38.04 -276.65,90.04 -182.3,312.65 509.22,146.47 713.4,240.15 21.06,303.67 -303.89,314.78 -795.13,291.57 -368.64,-17.42 124.08,81.87 -132.67,-26.36l-40.99 -281.99zm-1173.54 -612.48c182.32,-355.7 -109.66,-944.87 299.63,-973.72 131.7,290.28 -207.5,1608.02 33.84,1925.21 141.4,102.38 649.71,-90.03 776.1,47.7 12.37,31.05 93.15,-79.49 17.31,164.58 -55.31,178.01 -246.96,63.12 -789.58,157.03 -231.17,40.01 -141.26,82.08 -279.53,-52.07 -126.72,-149.38 -21.41,-346.02 -23.81,-521.3l-33.96 -161.79c-289.33,89.78 -111.77,206.66 -415.32,247.88 -835.32,113.43 -482.64,-1030.01 -291.73,-1124.78 453.92,-43.77 444.32,203.13 707.05,291.26zm-2090.22 -764.15c-66.57,-434.9 365.5,-267.26 746.37,-289.55 352.62,-20.64 716.58,-267.95 646.3,145.95 -155.74,81.55 -418.35,83.8 -638.78,129.27 -53.69,389.62 49.02,845.38 102.17,1221.38 90.04,637.13 194.88,968.26 -109.72,999.31 -90.23,-144.54 -158.73,-1992.1 -262.15,-2165.54 -82.04,-56.46 27.85,-18.83 -100.09,-31.22 -215.27,-20.86 -135.23,74.78 -384.1,-9.6zm8667.54 3233.01c-283.53,-160.23 -699.25,37.25 -1045,-210.35 -229.08,-164.05 -331.69,-478.97 -249.63,-815.54 186.05,-763.18 -85.93,-384.74 -133.74,-884.96 -18.31,-191.34 48.13,-386.6 116.98,-523.99 144.91,-289.15 124.9,-92.18 65.46,-413.88 -71.35,-386.19 -8.3,-713.06 266.68,-905.98 577.8,-405.35 369.27,-256.77 811.88,-371.73 361.24,-93.81 81.71,-344.24 202.09,-1006.37 86.67,-476.74 233.14,-731.66 -414.14,-548.93 -479.27,135.29 273.64,-194.07 -927.46,-50.15l-2229.18 63.05c-811.27,-83.06 -5280.18,180.86 -5608.46,317.43 -72.11,204.81 -173.4,3198.16 -167.02,3647.13l105.04 2740.14c0.6,198.87 -158.16,495.95 -24.32,787.95 211.05,92.47 199.75,-29.74 483.48,-56.17 207.47,-19.34 369.07,11.89 567.68,18.6l3463.09 -43.97c396.39,-3.73 791.75,-19.38 1188.81,-18.56 369.4,0.78 812.98,51.68 1166.81,12.84 747.43,-82.02 1594.57,15.91 2364.46,-12.17 -23.81,-363.73 91.2,-1532.65 -3.51,-1724.39z"/>
  <path fill="#8CA410" d="M6819.6 6752.36c161.57,-10.96 811.6,162.62 1320.6,190.77 423.3,23.43 1244.27,-38.25 1578.95,17.27 144.95,932.73 -372.26,968.5 -550.98,1209.55 -254.97,203.71 -153.15,-16.59 -473.62,87.88 -180.82,58.94 -226.73,103.19 -479.64,148.32 -426.41,76.1 -756.71,-13.71 -1152.41,-81.95 -479.24,-82.62 -1224.31,-738.21 -1271.26,-1354.95l471.74 -3.94c-79.41,-142.19 -44.85,-135.83 6.15,-294.57 131.78,-32.12 127.76,-49.12 272.23,-36.48 73.89,6.48 79.37,9.5 148.07,37.46 103.47,42.11 66.22,29 130.17,80.64zm2115.51 7772.44c-50.77,334.85 30.66,891.15 52.56,1241.92 35.29,565.36 277.69,252.93 -102.4,1001.43 -150.8,296.94 -306.7,556.19 -471.55,817.62l-452.91 819.37c-10.52,9.29 -24.35,11.41 -28.52,31l-196.23 339.21c-111.28,204 -77.66,247.58 -319.07,237.65 -88.39,-138.16 -251.64,-995.8 -297.22,-1234.95l-521.68 -2576.39c-58.51,-185.47 -108.43,-409.9 -178.25,-607.44 -94.84,-268.26 -257.62,-303.18 -153.58,-537.37 211.71,-374.02 1098.56,-58.69 462.1,-1838.44 -96.33,-269.33 -254.02,-713.81 -514.73,-821.77 -571.33,-236.64 -525.54,256.3 -704.99,547.6 -299.16,-0.21 -563.55,-180.51 -970.69,-30.74 -502.22,184.71 -260.64,350.35 -426.17,755.07 -249.07,156.02 -721.21,-4.2 -622.9,668.7 51.06,349.75 329.58,479.04 484.08,776.99 192.65,107.95 138.26,235.98 103.98,442.28 166.29,-89.13 658.92,36.81 895.55,66.65 6.06,0.76 174.99,19.79 177.46,20.46l148.49 59.7c15.94,7.11 35.55,16.16 50.8,28.1 230.9,234.27 127.67,148.71 207.75,512.86 54.61,248.38 432.29,1181.3 553,1820.76l555.28 2575.35c348.58,79.13 49.83,-11.38 713.76,-255.29l73.81 -26.97c10.64,-2.56 26.16,-6.51 36.46,-8.04 259.54,-38.33 -244.82,-11.5 68.44,-0.73 76.16,2.62 69.59,16.15 79.74,16.24 44.48,0.5 -34.98,31.6 127.11,-44.63 82.9,-38.97 87.02,-48.5 216.89,-93.72 148.72,-42.5 174.31,-121.29 285.56,-269.43 88.05,-141.33 195.64,-392.32 427.77,-389.17 65.19,316.06 -892.14,2988.36 -1078.44,3647.29 -90.31,319.46 -409.42,1015.44 -325.48,1220.36 152.94,49.4 224.58,43.7 408.8,-9.4 370.64,-106.83 70.66,-42.83 348.9,24.41 152.63,36.91 342.65,13.28 505.4,5.49 102.53,-4.92 135.33,1.23 226.05,-25.36 214.43,-62.8 117.11,-38.77 184.52,-98.14l-238.58 -17.09c-9.52,-1.49 -26.72,-5.22 -39.6,-9.53 -1.11,-190.55 -48.85,-95.4 75.44,-210.3 7.82,-7.24 22.75,-14.61 31.21,-20.1l105.21 -27.82c-16,-6.36 -84.61,-43.09 -94.22,-51.27 -6.73,-5.76 -20.31,-16.9 -27.38,-23.79 -336.75,-328.59 -138.44,-522.47 -126.03,-581.17 54.78,-258.82 -99.65,-225.66 37.64,-547.6 85.6,-200.72 84.69,-150.26 146.4,-138.84 30.73,-604.89 163.17,-1211.05 169.95,-1463.73l87.97 172.69c-2.85,-221.35 34.66,-433.96 -5.76,-649.1l-21.25 -193.95c54.12,-214.26 58.34,-148.95 109.06,-138.39 0,521.18 49.66,1157.39 -24.69,1658.91 -46.92,316.41 -22.39,953.64 26.25,1286.99l96.17 410.8c-46.09,-857.56 -37.56,-3950.26 17.14,-4957.32 14.17,-260.82 18.08,-565.81 16.96,-827.57 -1.42,-330.74 -111.78,-532.63 230.21,-487.97 -49,-243.69 -40.55,-430.87 -97.84,-646.52 -51.97,-195.67 -32.82,-430.67 -62.58,-674.54 353.06,-4121.06 3158.47,-3197.87 5760.74,-3165.06 5.1,-10.54 21,-137.66 33.14,-133.07 129.43,-188.29 118.56,-150.92 188.88,-149.03 374.3,10.04 -235.28,35.82 185.54,95.04 335.17,47.2 52.18,-134.48 463.86,-214.23 327.97,-63.52 460.23,21.24 800.1,-127.22 234.6,-102.5 -12.92,-82.74 170.69,-152.36 58.13,102.14 29.72,56.76 84.99,130.63 -45.26,195.09 27.37,-8.13 -121.48,189.54 239.09,2.96 249.27,-69.33 375.29,-113.43 -176.81,311.45 -92.93,30.51 -163.52,287.1 617.41,-251.49 282.45,-2389.68 -129.54,-2882.26 -84.73,-101.33 -43.67,-53.87 -98.69,-85.94 -310.87,-771.67 -1543.24,-145.84 -2521.88,77.89 -154.7,35.37 -335.13,57.99 -526.27,64.79 -621,22.16 -426.82,8.91 -496.82,-119.76 126.52,-196.36 -53.89,-97.89 539.13,-120.7 74.09,-333.84 -447.45,-1341.56 -589.83,-1555.49 -152.47,-229.08 -307.22,-175.98 -354.03,-441.12 79.04,-60.46 -3.78,-43.76 123.97,-66.75 45.02,-8.12 86.01,1.76 128.1,7.58 435.41,23.55 603.79,27.94 934.45,238.45 127.27,81.05 236.43,145.17 326.94,240.99 168.82,178.69 81.85,260.95 431.56,150.96 547.3,28.87 1583.56,-641.98 1435.28,-1548.22 -214.39,-8.28 -934.65,266.01 -1156.84,329.6l-1229.56 280.5c-208.45,33.27 -439.17,53.17 -661.81,80.37 -240.09,29.35 -405.45,119.75 -623.21,136.03 -677.54,50.61 -1037.19,203.86 -1285.81,205.83 -434.19,3.46 -1109.14,33.37 -1468.83,-33.9 -388.51,-72.67 -1004.58,-25.55 -1426.78,-62.63 -399.45,-35.06 -2328.44,-367.25 -2506.61,-463.89 -831.12,-47.33 -1590.29,-238.83 -1006.28,759.65l372.62 612.17c442.32,648.67 900.85,1060.84 1733.98,1205.6 240.49,41.78 633.57,110.18 888.44,93.83 334.09,-21.4 492.93,-103.69 743.03,-230.46 102.63,-52.03 218.46,-113.59 339.13,-181.82 184.52,-104.33 205.96,-151.21 371.18,-49.72 -45.94,206.96 -46.58,147.74 -270.54,256.95 -142.56,69.55 -185.15,113.27 -323.26,194.16 -317.23,185.8 -481.21,208.34 -750.11,329.63 -38.14,399.48 198.5,848.41 265.09,1207.65 213.18,1150 201.04,1885.49 348.55,2710.69 39.18,219.23 78.41,439.76 110.53,672.14 33.25,240.56 36.94,548.3 115.36,667.97zm3623.2 -5835.6c0.17,335.97 71.47,513.09 -179.31,704.18 -241.26,-35.58 -255.36,-161.2 -345.87,-266.14 -52.19,-548.6 66.75,-559.93 525.18,-438.04zm-738.53 674.05c-232.92,96.24 -111.36,224.58 -476.14,199.67 -209.76,-260.84 -107.03,-287.79 -64.48,-591.27 260.42,-185.92 185.85,-389.61 376.21,-389.15 294.02,111.36 248.25,491.19 164.41,780.75z"/>
  <path fill="#B3BB25" stroke="#B3BB25" stroke-width="20" stroke-miterlimit="22.9256" d="M9536.66 16517.17c93.54,43.93 380.27,49.03 524.87,-9.64 81.28,-60.42 118.54,-340.17 143.01,-433.02 144.7,-548.82 482.5,-1704.39 746.83,-2146.98 98.53,-164.99 327.81,-681.64 329.24,-832.69 -145.22,-8.51 -198.17,23.57 -269.23,24.04 -279.96,1.87 -109.13,59.68 -213.35,-88.82 84.95,-207.75 69.98,-150.78 337.47,-164.32l2180.27 -102.15c347.78,-39.11 527.54,-69.42 868.39,-104.02 728.38,-73.93 2579.86,-257.32 2970.3,-815.54 70.59,-256.58 -13.29,24.35 163.53,-287.11 -126.02,44.11 -136.2,116.4 -375.3,113.43 148.85,-197.66 76.23,5.56 121.49,-189.54 -55.27,-73.87 -26.85,-28.47 -84.99,-130.62 -183.61,69.61 63.91,49.86 -170.69,152.36 -339.87,148.46 -472.13,63.7 -800.1,127.23 -411.68,79.74 -128.69,261.42 -463.86,214.23 -420.81,-59.23 188.76,-85.02 -185.54,-95.05 -70.32,-1.89 -59.45,-39.26 -188.88,149.03 -12.14,-4.59 -28.05,-30.93 -33.14,-20.4l-164.81 -59.38c-316.48,-44.34 -88.31,101.11 -267.75,-88.65 -16.47,-17.4 -82.53,-198.34 -22.63,-66.88 -348.21,-5.15 -27.31,55.33 -264.86,171.1l-93.38 18.33c-461.81,48.83 -451.76,-80.18 -659.18,-104.42 -177.93,-20.78 -369.54,57.13 -595.63,56.39 -290.37,-0.94 -91.83,-130.14 -492.48,-72.64 -532.55,76.4 -493.46,-87.86 -1290.48,6.83 -456.43,54.23 -788.53,168.25 -1072.3,370.55 -458.82,327.09 -246.61,299.54 -538.51,852.17 -110.85,209.9 -168.27,232.31 -151.29,514.08l-147.44 1721.05c29.76,243.88 10.61,478.87 62.59,674.54 57.28,215.65 48.82,402.83 97.83,646.51z"/>
  <path fill="#642907" stroke="black" stroke-width="20" stroke-miterlimit="22.9256" d="M12016.93 26312.92l355.92 -114.77 -133.86 -1773.26c-389.94,-80.86 -1125.42,-13.21 -1565.69,-18.68 -862.2,-10.69 -1085.66,137.14 -1403.04,138.96l1.39 -979.03 -149.22 3.49c-366.22,34.88 -924.42,78.96 -1161.74,305.14l-45.22 2409.44c288.96,118.06 1585.92,134.08 2034.76,130.45 352.26,-2.83 630.76,-71.18 935.13,-89.09 368.25,-21.66 744.62,19.34 1131.57,-12.65z"/>
  <path fill="#899E13" d="M5328.1 28300.76l60.11 72.93c417.43,358.4 768.5,-358.24 1783.27,-289.54 408.86,27.67 677.83,-62.39 916.28,-30.15 281.62,38.07 112.84,92.82 424.46,110.69 142.31,-147.15 -93.84,-358.18 -188.61,-485.19 -269.28,-1.79 -671.68,171.14 -498.97,-293.64 97.66,-262.8 162.48,-366.47 153.15,-719.36 -651.34,-5.16 -306.04,-71.84 -325.3,-1500.7 -20.57,-1523.88 280.72,-1518.67 -534.23,-1478.49 -125.61,230 -583.77,2669.95 -629.4,3181.71 -21.62,242.45 23.91,271.23 -35.07,484.13 -40.5,146.14 -1099.27,152.01 -1495.94,549.64 53.38,139.38 246.71,230.58 370.25,397.97z"/>
  <path fill="#526503" stroke="#526503" stroke-width="20" stroke-miterlimit="22.9256" d="M9168.18 8169.95c-292.9,32.38 -495.36,-176.11 -300.89,-401.56 67.82,-78.63 543.67,-209.76 343,-505.2 -71.97,-68.29 -28.39,-37.49 -141.82,-63.27l-617.73 -25.51c-373.87,7.48 -1657.68,-88.5 -2002.61,-249.18 -203.4,-94.75 -67.55,42.6 -134.1,-143.8l81.76 -43.73c189.69,-53.2 178.82,-26.23 423.81,14.66 -63.95,-51.64 -26.7,-38.53 -130.17,-80.65 -68.7,-27.94 -74.18,-30.97 -148.07,-37.45 -144.46,-12.64 -140.46,4.36 -272.23,36.48 -51,158.74 -85.56,152.38 -6.15,294.58l-471.75 3.94c46.96,616.73 792.03,1272.32 1271.27,1354.95 395.71,68.23 726,158.04 1152.41,81.95 252.91,-45.15 298.83,-89.39 479.65,-148.33 320.45,-104.47 218.64,115.83 473.62,-87.88z"/>
  <path fill="url(#id0)" stroke="black" stroke-width="20" stroke-miterlimit="22.9256" d="M6362.45 5226.97c133.53,239.64 1134.61,464.13 1468.88,264.39 349.99,-209.15 426.26,-1034.05 178.89,-1416.92 -710.87,-102.42 -510.48,-188.48 -792.34,-214.56 -76.73,-130.3 -315.86,-350.82 -419.73,-403.96l-93.13 -154.06c-116.58,-401.69 -228.22,-289.52 -441.45,-1147.28 -102.56,-412.61 -88.24,-324.3 -201.04,-390.4 -150.41,296.73 -289.29,858.73 -359.9,1169.74l-40.62 1153.17c20.32,180.11 58.61,239.47 152.41,324.52l17.81 13.84c-38.92,332.61 298.86,703.2 530.22,801.52z"/>
  <path fill="#859B13" d="M11266.48 27827.83c121.31,203.26 304.92,174.04 542.15,173.98 585.45,-0.15 338.94,4.39 638.14,83.49 319.7,84.51 1064.06,70.49 1267.36,184.8 73.35,-106.09 57.73,-244.67 187.75,-361.48 137.45,-389.72 -53.04,-227.85 -273.99,-442.33 -193.7,2.97 -385.73,-39.72 -584.99,-58.84 -279.18,-26.8 -380.37,51.95 -612.21,18.52 -138.8,-271.16 -113.15,-688.32 -361.55,-832.58l-795.93 -12.67c-110.95,399.13 169.34,1123.94 -6.73,1247.11z"/>
  <path fill="url(#id1)" stroke="black" stroke-width="20" stroke-miterlimit="22.9256" d="M9486.38 6462.79c224.99,10.65 2173.7,183.58 2477.11,-94.22 27.93,6.44 -27.93,57.22 110.43,7.65 105.62,-37.86 56.4,-24.34 117.41,-75.76 64.59,28.47 -10.14,58.47 136.62,18.32 123.11,-33.66 48.37,-3.41 120.01,-72.36 206,32.85 711.04,-107.82 847.02,-199.86 157.48,-106.61 49.77,-24.83 123.35,-114.31 500,-36.15 -10.97,-392.94 -313.92,-1270.48 -83.33,-241.38 -123.9,-518.61 -228.27,-757.84l-319.08 -717.61c-29.16,-257.44 -187.26,-442.23 -292.39,-685.48 -78.73,-182.22 -97.11,-190.21 -176.17,-337.2 -107.46,-199.83 -71.86,-214.85 -193.96,-302.86 -138.43,-368.46 -623.18,-718.64 -1042.98,-933.55 -464.05,-237.55 -1110.49,-257.01 -1522.4,75.5 -218.63,107.95 -211.72,180.48 -365.73,349.34 -131.82,144.58 -211.49,206.62 -268.52,394.9 -169.91,126.97 -482.5,550.74 -505.1,800.73 -96.12,66.1 -39.54,11.78 -110.5,91.31l-199.58 411.97c-59.3,176.64 -139.86,438.41 -177.38,608.86 391.66,99.03 518.04,156.95 638.42,493.84 160.26,448.5 -10.37,1433.05 -499.46,1653.41 -252.42,113.73 -696.26,-45.14 -1034.94,8.01 -281.78,501.58 129.28,326.5 669.89,431.38 188.6,36.57 169.25,53.42 268.21,70.65l1741.91 145.66z"/>
  <path fill="black" stroke="black" stroke-width="20" stroke-miterlimit="22.9256" d="M14791.6 19627.07c847.1,130.02 636.83,1341.9 13.92,1125.11l-13.92 -1125.11zm1268.69 338.43c617.43,-55.32 414.11,570.66 254.45,669.1 -374.45,230.87 -488.55,-347.2 -254.45,-669.1zm-424.98 581.57c124.35,117.72 219.63,401.62 413.5,450.98 234.04,2.04 472.59,-77.33 560.26,-276.67 61.33,-139.46 143.21,-594.11 115.18,-771.37 -97.13,-169.17 -369.68,-400.26 -680.9,-405.59 -226.39,286.87 -182.46,320.34 -262.67,444.5 -72.68,112.53 -24.61,84.27 -145.37,139.08 -186.87,-170.73 -71.57,-621.24 -734.18,-831.1 -195.09,-61.79 -264.47,-123.91 -438.04,-99.71 -109.98,231.35 67.74,468.06 95.2,753.85 124.96,1300.99 -158.55,1436.14 552.23,1073.45 589.31,-300.72 197.01,-289.91 524.79,-477.42z"/>
  <path fill="#899E13" d="M1504.68 14950.69c-20.84,178.84 -89.05,274.98 -57.65,441.12 58.34,308.55 44.73,118.56 232.64,264.06 138.5,-58.4 37.94,-27.5 137.9,-67.88l424.47 -190.42c589.55,-269.83 38.47,241.73 861.7,-427.48l59 -45.75c135.36,-106.62 227.28,-212.18 400.35,-275.22 193,-70.31 266.34,9.88 236.03,-173.38 -211.34,-585.5 -2163.78,-31.79 -2294.44,474.95z"/>
  <path fill="#8EA515" d="M17790.16 19485.23c272.24,157.22 860.16,316.73 1248.8,258.71 437.21,-65.27 916.39,-363.24 469,-772.45 -231.25,-211.52 -236.79,-147.7 -495.46,-268.84 -276.6,-129.55 -230.39,-189.36 -588.8,-94.34 -456.15,120.96 -726.18,313.39 -633.54,876.92z"/>
  <path fill="black" d="M11545.56 20421.64c-57.97,-180.98 -18.56,-321.28 56.42,-471.63 311.63,-32.81 581.33,131.4 264.75,528.36l-321.17 -56.73zm678.38 -513.34c-262.73,-88.13 -253.13,-335.03 -707.05,-291.26 -190.91,94.77 -543.59,1238.21 291.73,1124.78 303.55,-41.22 125.99,-158.1 415.32,-247.88l33.96 161.79c2.4,175.28 -102.91,371.92 23.81,521.3 138.27,134.15 48.36,92.08 279.53,52.07 542.62,-93.91 734.27,20.98 789.58,-157.03 75.84,-244.07 -4.94,-133.53 -17.31,-164.58 -126.39,-137.73 -634.7,54.68 -776.1,-47.7 -241.34,-317.19 97.86,-1634.93 -33.84,-1925.21 -409.29,28.85 -117.31,618.02 -299.63,973.72z"/>
  <path fill="#090909" d="M9168.18 8169.95c178.7,-241.04 695.92,-276.82 550.98,-1209.55 -334.69,-55.53 -1155.65,6.17 -1578.96,-17.27 -509,-28.15 -1159.03,-201.72 -1320.6,-190.77 -244.99,-40.89 -234.12,-67.86 -423.81,-14.66l-81.76 43.73c66.55,186.4 -69.3,49.05 134.1,143.8 344.93,160.68 1628.74,256.66 2002.61,249.18l617.73 25.51c113.43,25.78 69.85,-5.02 141.82,63.27 200.67,295.44 -275.18,426.57 -343,505.2 -194.47,225.45 7.99,433.94 300.89,401.56z"/>
  <path fill="#5E7102" d="M3799.12 14475.74c30.31,183.26 -43.03,103.07 -236.03,173.38 -173.07,63.04 -264.99,168.6 -400.35,275.22l-59 45.75c-823.23,669.21 -272.15,157.65 -861.7,427.48l-424.47 190.42c-99.96,40.38 0.6,9.48 -137.9,67.88 -187.91,-145.5 -174.3,44.49 -232.64,-264.06 -31.4,-166.14 36.81,-262.28 57.65,-441.12l-142.91 226.37c-29.92,121.39 -6.46,231.26 23.81,320.33 73.46,216.17 171.06,308.52 402.69,371.38 920.42,249.75 864.59,-347.76 2065.61,-978.11 58.36,-30.62 1339.77,-161.6 1495.35,-159.22 -15.24,-11.92 -34.85,-20.98 -50.8,-28.08l-148.48 -59.72c-2.48,-0.66 -171.41,-19.69 -177.46,-20.45 -236.63,-29.84 -729.26,-155.78 -895.56,-66.65 34.29,-206.31 88.69,-334.33 -103.98,-442.28l55.76 307.34c-149.22,104.75 2.03,44.36 -229.59,54.14z"/>
  <path fill="#B3BB25" stroke="#B3BB25" stroke-width="20" stroke-miterlimit="22.9256" d="M8964.56 23333.33l209.55 5.84c172.6,-166.01 149.14,-265.85 98.24,-549.13l-96.17 -410.8c-48.64,-333.35 -73.17,-970.57 -26.25,-1286.99 74.35,-501.53 24.69,-1137.73 24.69,-1658.91 -50.73,-10.56 -54.94,-75.86 -109.06,138.39l21.25 193.95c40.42,215.14 2.91,427.75 5.76,649.11l-87.96 -172.7c-6.79,252.67 -139.23,858.84 -169.97,1463.73 -61.71,-11.42 -60.79,-61.89 -146.39,138.84 -137.29,321.94 17.14,288.78 -37.64,547.6 -12.42,58.71 -210.72,252.58 126.03,581.17 7.07,6.89 20.65,18.04 27.38,23.79 9.61,8.18 78.22,44.91 94.23,51.27l-105.21 27.81c-8.47,5.51 -23.4,12.86 -31.21,20.1 -124.3,114.92 -76.56,19.75 -75.45,210.31 12.88,4.31 30.07,8.04 39.6,9.52l238.58 17.1z"/>
  <path fill="#576806" stroke="#576806" stroke-width="20" stroke-miterlimit="22.9256" d="M5328.1 28300.76l88.6 647.25c567.12,-7.7 1151.71,-246.45 1551.98,-460.95 740.64,-396.86 223.7,178.61 1193.63,-98.09 368.25,-105.05 294.6,-99.33 349.91,-224.28 -311.62,-17.87 -142.84,-72.62 -424.46,-110.69 -238.45,-32.24 -507.42,57.82 -916.28,30.15 -1014.77,-68.7 -1365.84,647.94 -1783.27,289.54l-60.11 -72.93z"/>
  <path fill="#8CA213" d="M19456.47 20466.42c122.84,-183.41 16.59,-427.52 -156.05,-465.79 -114.73,-25.43 -383.33,58.14 -608.45,30.06 -338.3,-42.18 -833.48,-195.13 -1002.94,166.96 -306.81,655.6 1379.33,848.37 1767.44,268.77z"/>
  <path fill="#576806" stroke="#5E7102" stroke-width="20" stroke-miterlimit="22.9256" d="M13901.88 27908.62c-130.02,116.81 -114.4,255.39 -187.75,361.48 -203.3,-114.31 -947.66,-100.29 -1267.36,-184.8 -299.2,-79.1 -52.69,-83.64 -638.14,-83.49 -237.23,0.06 -420.84,29.28 -542.15,-173.98 -983.81,378.9 508.47,725.14 806.99,738.37 399.32,17.72 593.8,-177.66 867.84,-144.4 381.55,46.29 364.02,192.72 905.55,119.01 69.72,-263.66 -62.97,-291.88 55.02,-632.19z"/>
  <path fill="black" d="M17926.34 15860.22c-808.71,-39.85 -395.26,-913.34 -992.42,-781.68 -95.39,482.85 594.08,1392.89 1067.34,966.57 324.23,-292.06 362.44,0.67 429.61,-314.71 118.45,-556.04 -526.5,78.96 -819.48,-1039.14 -70.63,-269.58 -36.89,-554.61 -314.17,-589.51 -323.46,729.81 591.61,1417.7 629.12,1758.47z"/>
  <path fill="#8CA213" d="M14986.04 27682.51c-258.92,27.56 -758.98,79.57 -849.34,287.49 -315.5,726.08 961.33,1026.18 1117.22,483.1 113.45,-395.12 -99.82,-557.01 -267.88,-770.59z"/>
  <path fill="#859B13" d="M17727.56 21684.6c376.09,-118.09 1222.31,185.82 1670.87,-39.14l10.33 -353.05c0.08,-164.97 -100.78,-247.6 -176.92,-331.13 -353.47,125.86 -538.94,159.17 -962.32,165.92 -372.41,5.96 -606.74,156.04 -541.96,557.4z"/>
  <path fill="#090909" d="M13438.47 20802.77c256.75,108.23 -235.97,8.94 132.67,26.36 491.24,23.21 816.19,12.1 795.13,-291.57 -204.18,-93.68 -895.7,72.5 -713.4,-240.15 74.69,-128.08 130.06,-72.54 276.65,-90.04 297.19,-35.48 359.21,-210.09 143.75,-291.87 -272.7,-103.49 -482.69,116.81 -398.62,-326.97 237.24,-135.6 481.6,62 401.43,-353.11 -1007.19,-170.61 -656.58,243.16 -677.7,972.77 -3.02,104.29 -4.8,209.62 -0.9,312.59l40.99 281.99z"/>
  <path fill="black" d="M10133.72 19144.15c248.87,84.38 168.83,-11.26 384.1,9.6 127.94,12.39 18.05,-25.24 100.09,31.22 103.42,173.44 171.92,2021 262.15,2165.54 304.6,-31.05 199.76,-362.18 109.72,-999.31 -53.15,-376 -155.86,-831.76 -102.17,-1221.38 220.43,-45.47 483.04,-47.72 638.78,-129.27 70.28,-413.9 -293.68,-166.59 -646.3,-145.95 -380.87,22.29 -812.94,-145.35 -746.37,289.55z"/>
  <path fill="#899E13" d="M5109.96 28780.7c-72.67,-264.21 -72.58,-82.73 -160.93,-323.81 -65.45,-178.65 -20.35,-244.19 -230.87,-293.17 -706.64,-164.41 -759.12,811.17 -168.95,994.99 306.48,95.45 469.91,-112.65 560.75,-378.01z"/>
  <path fill="black" stroke="black" stroke-width="20" stroke-miterlimit="22.9256" d="M14470.5 9759.91c-40.47,156.15 -95,202.27 -109.95,334.2 -27.21,240.01 26.95,120.82 27.2,307.87 0.36,270.84 -157.12,221.19 -62.27,617.74 2.32,204.73 -22.91,369.83 69.34,521.38 159.31,-41.69 111.42,30.38 169.95,-199.48 114.99,-451.74 -145.18,-462.92 103.69,-961.68 406.71,-646.98 311.86,-449.47 174.2,-684.47 -27.5,-46.93 -129.69,-155.5 173.01,-255.04 51.64,-94.22 80.79,-75.6 94.98,-205.62l-8.25 -66.67c-276.62,-24.33 -422.76,325.12 -573.23,526.65 -43.83,58.7 -57.73,64.32 -58.67,65.12z"/>
  <path fill="url(#id2)" stroke="black" stroke-width="20" stroke-miterlimit="22.9256" d="M14835.44 4659.93c49.31,-57.15 24.72,-5.32 62.62,-100.04 28.07,-70.12 21.39,-56.99 33.96,-118.89 99.4,-490.01 96.53,-1686.06 -123.72,-2000.55 -175.51,129.65 -169.64,297.33 -282.2,492.55 -123.96,215.03 -248.23,283.11 -372.07,491.48 -47.11,29.41 -110.83,64.33 -166.22,105.49 -55.62,41.33 -36.54,23.24 -90.12,74.12 -76,72.13 -22.37,10.46 -88.07,97.19 -184.46,7.08 -420.66,198.28 -566.61,275.56 14.25,374.21 198.25,967.11 376.5,1238.94 387.5,63.46 1035.31,-144.49 1153.11,-415.84 77.59,-44.46 76.89,53.19 62.82,-140.01z"/>
  <path fill="#8CA213" d="M3705.5 29045.63c86.03,-200.45 32.71,-261 85.17,-443.4 65.28,-227.03 173.01,-90.4 109.14,-436.19 -348.9,-132.59 -783.97,45.1 -897.53,335.97 -182.89,468.43 288.37,711.48 703.22,543.62z"/>
  <path fill="#526503" stroke="#526503" stroke-width="20" stroke-miterlimit="22.9256" d="M14921.56 7352.67c-349.71,110 -262.75,27.74 -431.56,-150.95 -90.52,-95.83 -199.67,-159.96 -326.93,-240.99 -330.67,-210.52 -499.05,-214.91 -934.46,-238.47 73.4,146.35 -2.13,18.89 70.16,111.95 166.22,213.99 337.89,267.82 503.42,697.39l851.88 -46.82c251.72,-30.37 154.47,12.18 267.49,-132.11z"/>
  <path fill="#8CA213" d="M15663.18 27878.26c-114.74,66.29 -351.16,811.48 76.26,875.57 140.91,21.13 243,-5.84 354.85,-83.53 178.67,-124.12 233.98,-367.1 149.59,-587.28 -98.75,-257.65 -417.53,-299.05 -580.7,-204.76z"/>
  <path fill="#FBFBFB" d="M14805.52 20752.18c622.91,216.79 833.18,-995.09 -13.92,-1125.11l13.92 1125.11z"/>
  <path fill="#090909" d="M6641.92 10434.96l4.57 13.29c-25.45,354.33 127.17,337.49 226.97,696.59 85.15,306.4 54.69,408.51 233.4,623.27 354.69,-93.78 243.44,-510.31 120.9,-767.07 -263.66,-552.34 -274.14,-702.23 -585.84,-566.08z"/>
  <path fill="#5E7102" stroke="#5E7102" stroke-width="20" stroke-miterlimit="22.9256" d="M17727.56 21684.6c329.72,388.73 601.54,331.25 1167.45,308.09 670.62,-27.44 760.8,-448.86 513.75,-700.28l-10.33 353.05c-448.56,224.96 -1294.78,-78.95 -1670.87,39.14z"/>
  <path fill="#576806" d="M6665.27 19640.42l123.1 457.99c450.4,13.31 632.87,-372.64 920.58,-576.72 183.96,-130.51 164.41,-97.74 272.53,-294.41 -129.87,45.22 -133.98,54.75 -216.89,93.72 -162.1,76.23 -82.63,45.12 -127.11,44.64 -10.15,-0.1 -3.59,-13.63 -79.74,-16.24 -313.25,-10.78 191.1,-37.61 -68.44,0.72 -10.31,1.52 -25.82,5.48 -36.46,8.04l-73.81 26.97c-663.94,243.91 -365.19,334.41 -713.76,255.29z"/>
  <path fill="black" d="M14980.73 10989.1c16.87,337.32 2.15,395.09 159.96,612.44 373.34,-41.55 157.63,-94.36 395.83,-224.26 64.03,-233.94 153.72,-400.9 -17.67,-607.03 -251.23,-241.73 -473.4,165.81 -538.12,218.85z"/>
  <path fill="black" stroke="black" stroke-width="20" stroke-miterlimit="22.9256" d="M11430.08 9329.17c-64.93,-259.85 52.67,-296.51 173.6,-345.26 46.31,74.2 80.48,-111.12 56.18,169.15 -11.77,135.91 -97.42,182.28 -229.78,176.11zm-150.92 -357.51c-42.54,303.47 -145.28,330.42 64.48,591.26 364.78,24.9 243.21,-103.44 476.14,-199.67 83.84,-289.56 129.61,-669.39 -164.41,-780.75 -190.36,-0.46 -115.79,203.23 -376.21,389.16z"/>
  <path fill="#090909" d="M7721.97 11113.32c69.77,-171.64 48.93,-1057.6 -408.36,-1019.25 -106.46,197.23 -3.26,428.65 54.73,608.07 90.98,281.52 35.28,431.52 353.63,411.18z"/>
  <path fill="black" d="M15786.69 11377.28l112.14 147.42c220.87,4.9 208.32,-34.58 378.91,-62.18 80.15,-149.68 202.99,-346.41 139.91,-601.66l-248.69 -81.48c0.05,0.33 158.1,584.39 -139.84,429.18 -95.57,-49.79 3.46,-288.9 -11.43,-439.5l-174.24 40.16c-128.48,89.25 -71.1,392.2 -56.76,568.06z"/>
  <path fill="#8DA315" d="M2035.99 28742.33c518.88,330.28 702.56,42.51 680.49,-435.23 -429.8,-58.76 -673.07,21.96 -680.49,435.23z"/>
  <path fill="#FBFBFB" d="M16060.29 19965.5c-234.1,321.9 -120,899.97 254.45,669.1 159.66,-98.44 362.98,-724.42 -254.45,-669.1z"/>
  <path fill="black" stroke="black" stroke-width="20" stroke-miterlimit="22.9256" d="M12393.26 8956.51c44.26,162.59 -62.98,135.25 -65.94,138.39 -167.84,-68.38 -180.31,-85.85 -51.7,-230.93 89.11,32.08 79.8,-46.45 117.64,92.54zm-360.13 170.73c90.52,104.94 104.61,230.56 345.86,266.14 250.79,-191.08 179.49,-368.21 179.32,-704.18 -458.44,-121.9 -577.37,-110.56 -525.18,438.04z"/>
  <path fill="#899E13" d="M16720.76 28652.11c218.62,32.38 268.21,51.09 434.52,-77.99l15.97 -323.87c-502.89,-181.52 -803.33,30.94 -450.49,401.86z"/>
  <path fill="#F9F9F9" d="M11545.56 20421.64l321.17 56.73c316.58,-396.96 46.88,-561.17 -264.75,-528.36 -74.98,150.35 -114.39,290.65 -56.42,471.63z"/>
  <path fill="#F9F9F9" d="M12275.62 13773.78c198.71,-100.46 259.17,-446.9 237.92,-674.04l-308.32 -46.26 -9.52 547.45c53.92,283.47 12.68,78.47 79.92,172.85z"/>
  <path fill="#2B3404" stroke="#2B3404" stroke-width="20" stroke-miterlimit="22.9256" d="M16417.65 10860.86c-72.17,-173.99 -17.95,-127.15 -263.68,-145.02 -228.73,-16.65 -234.96,-70.93 -310.52,93.38l174.24 -40.16c14.89,150.6 -84.14,389.71 11.43,439.5 297.94,155.21 139.89,-428.85 139.84,-429.18l248.69 81.48z"/>
  <path fill="#F6F6F6" d="M14028.52 13271.83c213.02,-68.33 85.7,90.09 197.25,-106.36 44.56,-78.46 8.61,-148.11 -1.68,-220.5l-238.02 -23.73 42.45 350.59z"/>
  <path fill="#F6F6F6" d="M11430.08 9329.17c132.36,6.17 218.01,-40.2 229.78,-176.11 24.3,-280.27 -9.87,-94.95 -56.18,-169.15 -120.93,48.75 -238.53,85.41 -173.6,345.26z"/>
  <path fill="#F8F8EC" d="M12327.32 9094.9c2.96,-3.14 110.2,24.2 65.94,-138.39 -37.84,-138.99 -28.53,-60.46 -117.64,-92.54 -128.61,145.08 -116.14,162.55 51.7,230.93z"/>
 </g>
</svg>
