<?xml version="1.0" encoding="UTF-8"?>
<!DOCTYPE svg PUBLIC "-//W3C//DTD SVG 1.1//EN" "http://www.w3.org/Graphics/SVG/1.1/DTD/svg11.dtd">
<!-- Creator: CorelDRAW 2021 (64 Bit) -->
<svg xmlns="http://www.w3.org/2000/svg" xml:space="preserve" width="210mm" height="297mm" version="1.1" shape-rendering="geometricPrecision" text-rendering="geometricPrecision" image-rendering="optimizeQuality" fill-rule="evenodd" clip-rule="evenodd"
viewBox="0 0 21000 29700"
 xmlns:xlink="http://www.w3.org/1999/xlink"
 xmlns:xodm="http://www.corel.com/coreldraw/odm/2003">
 <g id="Camada_x0020_1">
  <metadata id="CorelCorpID_0Corel-Layer"/>
  <path fill="#FDCED2" stroke="#050505" stroke-width="20" stroke-miterlimit="22.9256" d="M14696.94 8419.43c-128.25,3.72 -200.33,-12.01 -317.95,16.5 -105.06,25.47 -102.08,62.77 -214.89,66.96 -222.42,8.25 -274,-161.21 -30.18,-256.8 172.98,-67.83 46.67,24.72 223.51,-114.91 433.48,-342.28 200.92,-372.6 539.86,-392.47 -8.47,272.52 3.1,173.38 -121.55,344.86 -123.4,169.76 -48.59,75.13 -78.8,335.86zm-3422.73 -937.9c479.8,-279.01 721.12,791.64 24.17,634.16 -61.84,-150.32 -100.53,-446.22 -24.17,-634.16zm1015.93 514.37c-618.25,57.99 -405.31,-571.65 -306.45,-743.14 254.25,18.9 523.87,261.95 332.55,721.6l-26.1 21.54zm-1098.83 -1492.65c-177.2,129.44 -84.21,142.99 -287.55,188.58 -134.83,-389.75 377.46,-695.13 425.73,-974.03 -186.14,46.84 -499.04,400.98 -580.37,530.59 -375.5,598.49 -255.43,1160.5 -79.65,1802.32 44.01,160.72 88.44,258.27 145.53,409.51 32.15,85.15 39.2,118.89 63.48,211.27l80.07 229.97c329.73,1.83 367.26,-81.94 505.23,-306.72 262.94,-428.38 162.34,-437.35 380.14,-458.88 100.9,154.48 13.74,225.12 -49.51,417.3 -337.59,335.47 -256.88,738.41 -1014.79,654.86 -668.66,-73.71 -930.34,15.19 -936.97,744.98 -3.98,436.87 359.42,946.63 743.08,991.66 666.24,78.21 936.25,-478.17 1318.22,-496.08 22.3,283.97 -17.68,225.25 -225.56,365.39 -350.13,236 -245.42,140.79 -281.52,332.07 186.01,48.68 277.84,10.01 430.12,-91.99 373.09,-249.9 71.48,88.87 915.3,-167.55 213.66,-64.92 265.88,-178.1 433.39,-49.56 -17.9,394.48 -1081.72,412.78 -1384.74,549.57 -2.55,297.25 496.65,829.82 750.5,1415.49 77.82,179.54 474.78,1510.49 560.63,1565.85 184.36,-260.88 -156.27,-1536.71 203.09,-2964.81 107.9,-428.71 193.67,-828.14 319.2,-1251.67 63.69,-214.84 131.84,-413.42 218.22,-583.49 229.02,-450.93 -58.32,-125.99 -89.22,-516.31l128.32 -147.06c275.14,124.88 49.56,273.54 476.61,314.82 951.4,91.95 619.68,-1654.6 618.06,-1657.44 -457.82,-401.83 -659.29,224.85 -1147.35,75.46l-30.38 -198.53 327.02 -80.27c-19.03,-473.81 -110.08,-935.45 -284.24,-1265.62 -114.93,-217.89 -117.96,-327.26 -278.5,-469.01 -124,-109.48 -313.64,-267.59 -506.86,-272.69 -246.05,-6.51 -884.29,317.5 -1090.25,437.6 -149.5,87.16 -296.96,161.11 -457.66,284.6 -110.63,85 -314.72,314.73 -316.82,429.82z"/>
  <path fill="#FDCED2" stroke="#050505" stroke-width="20" stroke-miterlimit="22.9256" d="M6711.84 8839.3c-91.51,-189.63 -95.86,-425.54 -46.46,-671.23 613.39,-78.22 670.83,714.17 46.46,671.23zm-199.99 -2107.98c140.53,-74.6 214.25,-160.91 243.69,-313.96 -164.24,6.32 -78.62,-22.63 -191.6,68.66 -9.73,7.85 -66.2,64.66 -69.69,68.55 -54.61,60.96 -27.92,31.11 -72.53,93.47 -290.51,224.45 -611.75,861.93 -525.97,1426.14l449.61 1546.47c662.19,-12.3 527.22,-751.66 921.61,-775.41 76.13,310.47 -254.38,647.85 -395.56,857.4 -343.17,419.39 -828.56,54.96 -1238.63,193.61 -721.73,244.02 -442.52,1881.77 619.99,1747.99 517.42,-65.16 746.41,-518.16 1063.97,-473.53 22.51,230.23 -56.06,233.18 -209.45,338.9 -363.01,250.21 -271.11,182.27 -296.91,306 174.02,112.53 275.66,44.03 416.87,-50.49 254.93,-170.64 155.54,-65 470.26,-74.99 322.33,-10.21 700.95,-244.21 879.37,-154.14 4.29,194.19 -24.43,160.68 -221.69,245.37 -122.94,52.79 -248.31,112.85 -358.66,140.93 -300.15,76.4 -535.85,56.7 -807.37,173.81 5.62,287.67 507.06,848.67 747.61,1383.6 128.07,284.8 448.99,1466.58 552.09,1560.82 123.93,-158.46 31.66,-1127.46 26.36,-1407.4 -15.01,-791.63 236.39,-1714.14 422.42,-2477.09 115.82,-475 239.01,-662.26 385.07,-1064.74 -64.48,-209.78 -231.65,-168.84 -82.22,-457.87 185.71,2.63 55.18,-26.02 191.61,80.71l81.91 76.48 95.32 -261.7c15.75,-118.36 12.84,-162.11 36.47,-276.47 -206.7,-125.85 -107.28,72.66 -247.33,-139.81 97.98,-299.03 166.11,-6.11 558.35,-442.33 64.94,-72.23 149.14,-270.18 284.38,-195.56 178,98.2 36.47,34.92 44.2,148.29 13.04,191.59 -156.68,70.74 67.38,174.99 119.89,-189.61 62.6,-502.65 -120.2,-721.42 -270.67,-8.44 -268.82,71.21 -469.21,173.57 -166.87,85.26 -308.77,179.38 -510.02,98.74 -155.15,-244.58 133.25,-243.33 274.33,-289.91 -59.81,-913.28 -103.86,-799.53 -396.75,-1501.35 -95.12,-227.95 -450.04,-539.41 -776.39,-490.39 -164.54,24.7 -1189.14,463.44 -1263.85,623.32 -247.34,92.61 -272.89,171.47 -403.71,338.53 -124.88,159.5 -182.28,342.48 -388.22,349.97 -78.23,-209.7 144.86,-500.58 213.09,-647.76zm1298.42 1531.93c-28.1,301.84 12.15,224.03 -116.04,416.83l-26.04 42.09c-553.62,25.36 -453.41,-641.27 -204.48,-771.11 150.22,64.88 223.62,205.15 346.56,312.19z"/>
  <path fill="#D3E5F5" stroke="#050505" stroke-width="20" stroke-miterlimit="22.9256" d="M9754.95 21165.7c-85,-89.77 -487.44,-487.84 -7.93,-491.73 113.41,203.81 -46.48,126.25 139.78,244.07 64.43,-75.45 41.67,21.19 76.15,-154.41 30.6,-155.89 -76.75,-459.12 -76.61,-524.63 0.52,-215.72 217.31,-276.27 276.12,45.25 165.6,905.36 1.55,889.04 -407.51,881.45zm-712.11 -156.47c110.01,639.43 131.49,1236.04 338.8,1856.46 45.43,135.96 114.81,214.33 179.36,367.17 213.24,504.84 261.67,552.13 584.58,1000.86 243.67,338.57 732.49,1125.29 1167.74,801.85 214.77,-159.61 883.04,-957.78 886.9,-1226.85 -530.88,-266.05 -386.41,-26.27 -397.4,-730 -654.92,10.64 -1104.7,235.42 -1254.6,100.18 -93.48,-104.96 -46.25,14.21 -62.67,-176.91l0.16 -1586.19c-14.31,-474.21 -45.69,-1273.66 -180.84,-1627.3 -390.05,-37.21 -752.91,245.79 -1023.84,76.27 -69.17,-178.71 -61.55,-585.32 -100.24,-818.8 -39.23,-236.69 -189.1,-574.54 -185.27,-761.63l259.24 -130.72c-65.4,-293.22 -360.85,-474.3 -315.76,-776.22l202.24 6.54c44.58,89.86 33.79,145.97 74.26,223.72 97.01,186.49 16.26,87.37 158.73,147.63 7.89,-11.63 14.74,-28.05 19.13,-37.58 4.32,-9.38 13.02,-25.87 18.1,-37.28 4.93,-11.09 10.99,-24.78 16.19,-36.84 72.81,-169.41 21.16,-137.89 132.96,-230.1 231.04,74.98 196.19,317.48 461.66,412.48l29.71 -907.91c4.52,-1.29 1317.14,-36.76 1372.57,-22.2 49.45,102.64 39.78,256.86 279.58,560.65 390.48,-158.49 84.27,-94.2 397.27,-20.28l26 -1002.01c-15.64,-136.11 -12.84,-72.42 -35.13,-114.3l-2066.47 88.64c-1871.37,129.36 -1441.96,70.6 -1365.62,631.06 92.77,681.12 44.83,1408.14 135.31,2053.05 92.73,660.8 134.96,1263.32 247.35,1916.56z"/>
  <path fill="#122952" stroke="#050505" stroke-width="20" stroke-miterlimit="22.9256" d="M17203.63 19037.68c437.04,-332.3 601.56,266.36 1201.14,127l-44.68 -946.56c-463.51,-133.4 -825.55,104.8 -1091.35,36.46l-26.25 -1077.62c-214.77,-101.06 -666.03,-232.07 -914.12,-128.69 -173.11,72.15 -42.72,677.86 2.1,855.86 102.35,406.35 327.04,504.94 -275.22,544.69 -171.78,11.33 -355.29,37.74 -528.64,29.76 -57.81,-2.68 -710.03,-247.51 -315.5,688.72 361.27,15.33 897.4,-207.31 1059.62,-10.94 108.39,149.46 20.21,282.48 -22.11,472.39 -151.98,681.85 58.45,1738.79 196.35,2402 62.6,301.1 41.44,630.6 123.46,906.9l799.42 -3.93c162.69,-28.26 91.3,10.46 207.62,-59.8 130.55,-312.83 -86.63,-1038.8 -170.92,-1342.83 -120.35,-434.15 -158.5,-1625.24 -317.17,-2008.53 -99.99,-241.56 -76.61,-338.25 116.25,-484.88z"/>
  <path fill="#04050B" d="M17242.49 17176.96l26.25 1077.62c265.8,68.34 627.84,-169.86 1091.35,-36.46l44.68 946.56c-599.58,139.36 -764.1,-459.3 -1201.14,-127 -192.86,146.63 -216.24,243.32 -116.25,484.88 158.67,383.29 196.82,1574.38 317.17,2008.53 84.29,304.03 301.47,1030 170.92,1342.83 -116.32,70.26 -44.93,31.54 -207.62,59.8l-799.42 3.93c-82.02,-276.3 -60.86,-605.8 -123.46,-906.9 -137.9,-663.21 -348.33,-1720.15 -196.35,-2402 42.32,-189.91 130.5,-322.93 22.11,-472.39 -162.22,-196.37 -698.35,26.27 -1059.62,10.94 -394.53,-936.23 257.69,-691.4 315.5,-688.72 173.35,7.98 356.86,-18.43 528.64,-29.76 602.26,-39.75 377.57,-138.34 275.22,-544.69 -44.82,-178 -175.21,-783.71 -2.1,-855.86 248.09,-103.38 699.35,27.63 914.12,128.69zm-2428.62 265.79c293.7,266.94 173.61,633.48 571.49,596.74l39.84 -118.78c4.24,-9.75 11.47,-24.55 15.8,-33.92l430.88 150.62 63.2 -141.77c21.77,-236.39 -69.44,-486.84 56.06,-584.57 50.05,55.76 48.54,-81.85 79.72,232.76 11.86,119.7 20.67,181.31 21.99,301.43l15.49 317.95c-240.92,15.06 -434.62,53.61 -678.02,34.2 -333.21,-26.57 -306.91,-109.47 -627,26.49 -46.46,214.03 21.17,345.34 68.57,535.22 66.42,265.97 -7.12,468.39 69.63,630.65 251.31,190.99 720.96,-38.49 987.69,-8.21 119.82,525.49 -6.4,1399.33 109.73,1992.74 54.35,277.78 216.83,1112.03 200.13,1392.36 -15,251.63 -104.73,328.99 54.23,507.24 255.38,29.38 1439.85,-18.5 1571.67,-77.72 142.06,-283.69 -165.4,-1519.21 -234.08,-1932.29l-209.57 -1872.32c8.07,-148.63 636.05,37.9 722.55,62.81 317.79,91.49 403.56,371.68 570.51,164.01 144.7,-133.37 -7.47,-148.26 -8.05,-376.91 -6.66,-11.23 -15.81,-24.81 -19.56,-33.94l-42.09 -119.29c-6.5,-27.8 -21.95,-155.48 -24.86,-188.68 -31.43,-358.78 25.53,-737 -6.92,-944.84 -275.17,-31.87 -639.54,13.18 -851.72,3.63 -199.39,-8.97 -137.79,4.07 -193.26,-116.2 -60.06,-82.12 -87.72,-394.65 7.55,-534.4 154.72,154.65 107.17,251.91 173.56,459.67l152.62 33.45c66.94,-56.41 97.56,-113.13 139.81,-175.02 198.82,-0.21 45.61,-22.89 106.62,85.73l49.67 22.84c115.9,90.89 55.73,53.84 169.9,113.46l170.35 -101.54c5.14,-138.78 112.04,-739.13 5.92,-853.15 -302.97,-325.59 -183.22,479.75 -222.87,570.47 -149.09,-58.74 -151.33,-115.99 -249.69,-272.46 -185.37,-8.98 -82.62,17.71 -262.89,31.26 -159.76,-295.45 -10.08,-80.77 -213.59,-210.44l-175.41 -234.43 -1409.48 46.65c-190.56,314.48 0.53,70.81 -289.15,272.99l6.2 560.6c-281.79,-111.91 -72.63,-211.62 -388.28,-301.63 -211,121.87 -11.91,76.04 -186.39,189.8 -238.66,-262.23 -86.94,-346.87 -326.18,-412.27 -91.29,159.78 -1.48,114.15 -12.32,309.01z"/>
  <path fill="#122952" stroke="#050505" stroke-width="20" stroke-miterlimit="22.9256" d="M12051.08 18367.3c-453.34,-64.76 -770.85,243.42 -834.34,-234.27 -35.89,-270.09 56.92,-752.19 -72.05,-966.96l-782.05 21.69c-51.85,213.08 15.6,465.5 54.64,664.71 134.64,686.89 284.36,527.36 -479.75,610.92 -370.63,40.52 -544.43,0.3 -565.47,205.17l160.22 908.2c347.83,40.06 906.9,-271.22 1071.05,-40.75 120.02,106.25 43.02,189.06 26.66,345.35l65.22 1301.47c14.73,540.44 -22.69,1183.98 55.22,1706.22 223.91,38.87 496.05,-70.52 695.12,-149.26 86.4,-796 -303.82,-2761.58 -185.4,-3112.82 83.53,-247.8 328.21,-233.67 795.05,-401.47 40.31,-242.13 47.57,-618.18 -4.12,-858.2z"/>
  <path fill="#090501" stroke="#050505" stroke-width="20" stroke-miterlimit="22.9256" d="M9980 29068.08c-135.98,-183.94 28.69,-314.35 179.7,-425.09l506.28 -437.8c205.4,-184.34 161.49,-70.33 356.56,-198.35l251.65 -172.25c884.47,-520.37 643.85,-301.21 1124.34,-493.94 163.29,-65.49 123.28,-108.74 216.74,-141.35 88.06,-30.71 190.07,18.08 336.25,0.91 79.69,-9.35 632.53,-167.88 781.05,250.84 -457.89,278.72 -251.96,-272.31 -1517.41,485.88 -121.22,72.63 -288.84,185 -398.58,257.11 -445.61,292.84 -716.5,366.02 -918.95,478.98 -166.06,92.63 33.37,45.75 -217.92,140.8 -358.47,135.58 -291.2,162.9 -699.71,254.26zm6011.14 -1943.85l87.05 -173.58c218.54,-29.23 422.02,-51.89 633.93,-3.82 185.28,42.02 990.64,228.52 1090.8,303.84 251.91,189.46 787.21,201.17 1125.89,209.75 233.5,5.92 536.59,79.73 276.38,322.77 -121.58,113.57 -1061.79,120.92 -1287.84,83.57 -158.19,-26.15 -307.76,-104.34 -488.22,-143.93 -387.95,-85.13 -318.65,-135.92 -511.82,-173.8 -403.06,-79.06 -974.8,-48.1 -1394.05,-49.16 -279.74,-0.72 -703.89,50.85 -643.78,-245.88 10.64,-52.51 311.18,-508.28 625.83,-322.72 225.87,133.21 126.39,213.53 485.83,192.96zm-9084.08 1608.28c49.34,-111.96 150.53,-139.15 361.95,-336.83l849.56 -551.74c11.97,-7.5 42.11,-31.48 53.14,-39.22 253.71,-177.73 689.66,-375.57 983.27,-493.03 93.82,-37.53 62.53,-22.47 131.56,-58.21l369.18 -197.49c308.29,-136.68 191.02,72.04 584.79,-157.56 161.21,-94.02 407.71,-108.76 563.78,-72.94 44.84,145.1 144.57,245.39 -249.61,424.71 -258.26,117.51 -386.39,-14.31 -588.29,165.91 -152.77,136.35 -451.97,438.17 -660.1,558.07 -9.81,5.65 -21.86,11.86 -31.75,17.25 -9.72,5.3 -22.02,11.08 -31.71,16.17l-644.03 369.74c-264.05,157.99 -1436.08,517.86 -1691.74,355.17zm-2457.56 -1351.49c82.48,-217.26 527.11,-337.36 789.65,-457.08 425.1,-193.84 593.67,-157.3 1107.37,-185.75 376.53,-20.86 813.78,-202.93 1097.16,-32.58 413.45,248.54 301.98,-67.48 732.28,152.56 146.37,74.86 107.54,-48.89 120.14,190.42 -136.58,-17.87 -322.26,-60.85 -506.76,-69.52 -449.57,-21.15 -295.92,68.43 -913.95,279.37 -363.08,123.95 -1039.79,305.44 -1461.91,311.68 -176.48,2.6 -386.32,12.12 -557.22,-7.44 -236.86,-27.11 -272.05,-38.09 -406.76,-181.66zm4874.57 -899.06c107.54,128.14 166.19,97.66 276.7,246.62 -96.22,145.8 -546.65,370.98 -713.31,256.92 -133.26,-91.23 -412.92,-409.39 -615.69,-486.11 -26.91,-238.44 414.08,-256.76 440.18,-656.26 -202.39,-165.86 -358.54,-47.18 -595.88,-233.5 -88.18,-246.57 -157.88,-1392.25 -96.41,-1672.61 67.55,-308.2 610.59,-392.29 893.28,-421.87 235,-24.62 200.87,-61.42 368.09,-78.16 329.5,456.62 195.95,580.12 223.68,1139.44 21.12,426.25 59.76,948.95 13.85,1418.26 -462.31,188.64 -403.8,404.94 -194.49,487.27zm-3063.61 -68.45c-729.15,43.63 -2006.91,461.15 -2202.79,920.9 124.56,353.73 419.25,502.89 798.19,571.34 1181.02,213.29 2394.67,-793.49 3349.47,-569.17 87.47,20.56 68.59,15.01 117.41,44.44 -87.94,178.4 -402.78,281.86 -586.29,365.74 -203.94,93.2 -334.93,236.33 -533.1,353.92 -264.39,156.86 -914.83,609.7 -720.6,958.78 227.58,248.88 1407.7,-102.2 1718.09,-245.32 86.71,-39.99 320.49,-138.36 391.85,-148.38 67.67,-77.96 -7.56,-9.59 85.77,-70.28l281.75 -131.21c182.62,-75.25 225.96,-111.54 398.72,-213.69 756.56,-447.23 698.97,-432.47 1515.07,-812.2 471.61,-219.45 408.36,-183.57 311.71,-706.22 -805.54,-170.11 189.56,-618.48 -100.39,-966.83 -204.66,-197.08 -221.15,41.61 -434.51,58.84l-48.36 -353.21c79.95,-62.71 14.22,-28.44 147.22,-39.89l253.53 68.45c121.51,-2.64 186.54,-19.84 285.75,-72.78 280.35,-149.6 638.37,-555.18 832.32,-840.95 122.4,-180.36 91.05,-147.79 208.85,-208.01 10.96,220.53 12.74,455.46 15.91,671.51 4.09,279.95 50.32,479.12 58.72,708.99 -342.15,6.36 -762.84,9.13 -321.1,597.71 100.82,304.25 272.86,290.74 273.78,616.75 -58.97,40.26 -993.81,462.47 -1371.23,715.86 -232.87,156.33 -426.88,279.02 -602.57,422.56 -172.01,140.54 -379.72,367.4 -619.43,471.68 -90.3,224.15 -326.69,346.35 -270.59,686.97 427.02,342.55 1104.87,-132.62 1441.56,-280.19 488.83,-214.24 858.52,-423.69 1303.67,-652.69 185.4,-95.37 492.54,-331.06 607.85,-375.9 249.69,-97.06 469.48,-12.63 799.36,-173.78 708.58,-346.21 273.22,-685.38 -184.08,-946.31 16.79,-264.63 103.61,-287.38 184.32,-469.04l43.64 -44.61c4.85,-5.71 15.14,-17.39 20.39,-23.91l74.79 -105.9c51.96,-70.69 105.97,-121.18 128.63,-194.39 94.37,-304.89 -171.37,-219.83 -325.01,-281.76 -58.46,-273.61 -256.38,-1584 -185.27,-1766.07 181.63,-205.17 1175.06,-377.6 1515.93,-387.05 132.15,101.94 151.45,167.38 260.84,334.23 126.8,193.39 126.76,184.94 306.42,309.57 -9.35,249.48 -45.7,424.69 -31.92,744.59 10.48,243.54 57.38,441.93 38.55,713.29l-711.88 124.46c-31.19,276.31 56.31,239.2 179.78,429.27 95.61,147.17 174.46,207.18 241.39,318.54 -58.67,85.26 -401.6,245.55 -506.13,336.04 -183.74,159.06 -231.24,280.01 -187.02,596.04 343.81,375.73 686.19,360.82 1248.7,357.39 1081.39,-6.58 1803.55,392.55 2889.11,347.52 213.66,-8.86 556.43,9.52 737.51,-64.01 108.62,-44.08 336.13,-303.46 399.93,-407.9 -37.25,-259.71 -328.32,-477.07 -573.7,-555.26 -310.03,-98.83 -649.34,-6.84 -986.32,-138.17 -130.92,-51.02 -274.76,-98.63 -418.4,-138.39 -185.51,-51.34 -310.67,-29.39 -492.53,-78.72 -157.77,-42.8 -198.04,-109.01 -393.42,-147.36 -167.99,-32.98 -292.39,-20.86 -419.81,-107.18 87.55,-198.06 186.37,-172.43 327.33,-234.41l7 -371.42c-141.34,-97.46 -61.86,-35.27 -253.73,-75.93l-90.73 -864.15c188.87,27.46 347.22,154.56 699.17,215.33 361.62,62.44 1150.3,-756.4 1381.94,-1077.48 428.8,-594.36 807.53,-1503.03 950.26,-2394.55 187.6,-1171.82 107.08,-2017.95 -30.94,-3169.87 -45.79,-382.12 -254.34,-2793.41 -425.8,-2932.61 -168.33,-66.78 -3295.62,446.8 -3960.27,366.21 -132.49,-190.47 -266.85,-295.81 -373.29,-461.64l-615.83 -967.22c-182.11,-253.4 -291.03,-126.14 -557.96,-242.25 -209.98,-309.31 -29.46,-2204 64.36,-2636.33 105.43,-485.88 227.98,-1306.55 392.5,-1758.36 51.89,-142.48 185.01,-267.45 273.02,-422.39 761.45,2.07 890.07,-11.8 1003.44,-1007.69 152.26,-1337.36 -271.66,-1264.35 -534.91,-1416.91 -137.71,-905.94 -266.03,-1681.16 -1138.23,-2075.69 -207.95,-94.08 -309.89,-58.95 -519.25,-63.89 -468.46,-11.04 -174.57,-352.51 -864.14,79.29 -365.28,228.72 -443.79,-4 -1383.54,663.95 -335.58,238.52 -616.91,1011.57 -636.45,1460.36 -7.79,179.03 77.73,472.18 -48.05,615.03 -212.13,-172.71 48.31,-1410.47 -883.14,-1923.8 -503.21,-277.31 -480.18,-102.79 -879.15,-201.27 -202.24,-49.93 -34.04,-42.62 -193.33,-124.34 -202.31,-103.77 -481.62,232.16 -984.04,334.74 -316.24,64.55 -662.64,310.93 -906.04,483.38 -332.77,235.79 -407.35,361.88 -556.58,846.39 -431.09,1399.72 252.05,1969.03 142.92,2285.47 -432.5,147.98 -1129.1,-56.52 -936.88,1628.61 50.72,444.69 205.83,616.75 521.75,775.53 578.21,290.58 537.08,143.17 1163.32,152.43 93.87,143.58 185.64,186.65 296.29,300.73 141.88,146.29 108.37,193.3 194.03,370.77 79.85,165.38 138.73,150.34 256.23,344.83 277.13,458.75 797.97,1619.17 732.63,2104.09 -218.93,85.99 -414.14,-72.05 -467.93,176.34 -41.02,189.4 82.66,349.82 -16.37,522 -124.86,-63.13 -21.39,0.49 -119.86,-87.12l-285.09 -272.88c-361.02,-356.1 -668.39,-782.67 -1013.17,-1133.22l-1015.4 -1126.83c-123.91,-144.24 -183.82,-269.93 -298.11,-390.48 -327.77,-6.73 -123.31,24.81 -343.84,90.1 -161.16,-234.06 -60.8,-753.33 -169.72,-1109.4 7.96,-10.22 21.28,-20.96 27.5,-27.43 151.4,-157.19 147.42,-262.36 147.98,-485.6 0.72,-277.69 100.5,-332.66 -7.56,-558.84 -275.74,-134.99 -698.91,-3.1 -1020.58,-233.01 -17.22,-450.36 27.99,-1000.29 43.97,-1443.45 15.81,-437.97 19.43,-954.32 62.28,-1385.94 132.18,-1331.46 48.17,-2852.15 234.28,-4193.17 204.25,-1471.69 100.35,-998.82 -475.55,-2160.52 -84.9,-171.27 -173.4,-295.92 -239.34,-498.92 -65.1,-200.36 -68.75,-382.11 -187.59,-514.21 -159.11,67.86 -203.28,312.23 -277.56,457.57 -84.2,164.75 -151.54,331.37 -234.75,509.65 -211.82,453.78 -444.65,718.82 -414.81,1071.26 151.87,1792.98 399.73,3614.49 460.83,5406.32 31.03,909.56 97.87,1988.99 50.51,2896.68 -217.44,25.86 -438.47,24.07 -658.58,13.76 -786.15,-36.82 -498.37,-269.42 -671.3,476.9 -138.44,597.58 141.69,453.88 666.32,494.11 318.73,482.41 26.69,345.83 -82.05,822.97 -83,364.27 72.89,328.31 27.96,542.25 -47.78,227.54 -140.75,236.37 -58.81,601.92 71.57,319.25 165.63,194.54 322.95,382.48 85.5,102.13 56.01,113.36 158.69,213.96 53.1,52.02 114.82,100.79 173.12,152.94 173.66,155.38 236.59,168.84 492.68,113.34 444.23,-96.28 643.46,-418.24 943.22,-333.51 107.74,314.56 -17.3,407.95 430.67,506.58 235.45,51.83 458.26,63.94 687.54,187.07 452.29,242.87 903.8,624.6 1321.78,964.23 117.62,95.58 159.18,109.78 275.57,188.32 139.86,94.42 374.64,280.88 497.02,388.98 100.69,88.96 169.74,164.09 229.22,237.96 43.71,54.25 188.39,216.16 211.65,252.97 169.68,268.57 -272.1,3674.12 -328.82,4052.97 -86.72,579.14 -359.77,1743.57 -539.18,2233.27 -362.97,990.75 -76.83,585.61 294.73,668.49 97.73,219.75 122.76,1408.68 71.39,1698.95 -240.02,119.77 -208.34,-10.75 -337.47,265.37 -81.48,174.26 -145.16,257.47 -109.3,416.52 242.02,32.96 315.79,-82.21 405.64,110.36 -188.6,106.24 -584.91,7.31 -738.7,104.35zm3939.21 -1378.31c99.9,262.06 318.19,1137.1 -271.97,870.04 66.8,-208.69 2.53,-625.6 -19.19,-881.69l291.16 11.65zm5286.63 1096.66l801.38 2.15c25.82,182.5 6.06,217.89 -212.48,365.62 -40.67,27.5 6.02,267.15 -457.41,-95.81 -135.69,-106.25 -126.51,-87.72 -131.49,-271.96zm297.59 -1056.77c61.26,6.25 322.1,131.04 383.89,165.17 18.91,199.87 54.2,346.91 0.02,538.62l-270.02 15.89c-90.88,-189.36 -174.57,-461.64 -113.89,-719.68zm-3033.13 -750.69c522.69,-65.22 398.46,97.91 450.88,527.71 17.9,146.83 104.3,773.2 40.22,931.1l-375.93 25.62c-188.62,-315.3 -284.75,-1109.72 -115.17,-1484.43zm-5403.77 -1.01c113.16,-75.23 172.22,-98.76 366.57,-88.21l42.58 1478.24c-482.11,27.28 -366.97,-73.41 -402.33,-494.12 -22.29,-265.22 -44.68,-633.41 -6.82,-895.91zm1406.08 -1128.04c-213.38,129.71 -702.15,155.15 -1044.5,163.64 6.08,-116.81 -17.67,-44.91 17.5,-120.79l53.19 -80.82c69.22,-234.69 101.48,-99.61 139.13,-296.07 -44.64,-329.61 1.11,-141.97 57.9,-211.07 163.44,81.09 69.43,41.8 173.77,225.53 93.98,165.44 54.26,127.61 266.16,139.66 21.99,-370.76 -16.95,-254.37 -131.75,-431.67 -10.01,-8.54 -23.84,-35.92 -28.37,-27.47 -0.24,0.46 -144.13,-110.52 -174.47,-264.66 -10.91,-55.39 -14.48,-146.83 6.8,-200.24 77.15,-193.66 -30.48,-58.68 131.17,-122.13l-52.1 453.75c415.39,63.02 456.41,112.64 543.9,7.26 181.93,-219.1 -260.26,-74.33 -74.4,-881.72 170.07,138.41 452.64,1484.31 447.17,1572.58l-331.1 74.22zm3166.1 -3009.33c219.88,24.21 152.98,205.96 122.53,401.19 -109.71,-45.38 -104.37,25.97 -139.46,-154.14 -22.24,-114.15 -9.25,-146.96 16.93,-247.05zm-204.11 2430.51c-104.41,-462.24 -236.83,-2354.11 -169.23,-2878.4 150.34,-114.45 294.21,-179.48 548.47,-158.31 130.8,882.87 -856.85,-464.35 -291.13,1320.12 89.24,281.49 138.5,46.13 160.5,372.19l-101.71 1236.47c-46.16,172.33 -8.4,59.8 -146.9,107.93zm-2124.49 -4753.08c223.8,51.34 81.99,12.08 242.64,163.14 88.48,83.22 75.95,18.26 134.76,164.28l-505.65 38.76 128.25 -366.18zm2364.52 -37.37c4.39,-18.47 18.4,-19.89 43.43,-40.45l116.78 181.57c-117.75,133.57 -309.42,126.04 -548.29,130.34 -140.65,-148.8 -159.34,-249.62 -142.9,-550.47 240.14,108.35 52.59,287.91 373.21,436.29l157.77 -157.28zm2190.33 -1021.42c-36.89,-202.13 -81.48,-351.59 128.13,-404.11 11.85,-2.98 430.5,-54.81 458.36,-55.06 320.5,-2.87 134.08,110.33 489.83,24.21 169.52,-41.05 267.27,-45.26 461.43,-62.53 681.43,-60.66 1314,-138.08 1985.34,-163.45 1051.31,-39.73 1170.04,-168.96 1360.99,785.14l218.6 1928.62c202.64,1839.09 122.02,3080 -598.56,4569.01 -417.01,861.7 -432.06,733.76 -962.81,1176.6 -147.24,122.83 -129.54,153.54 -290.66,222.91 -78.15,33.65 -355.98,128.68 -404.13,0.98 -569.46,-94.7 -1219.31,-805.78 -1538.82,-1193.47 -346.29,-420.2 -606.32,-1395.46 -722.74,-2034.34 -230.44,-1264.66 -466.22,-2271.33 -542.16,-3537.99 -16.42,-273.99 -115.24,-913.71 -87.51,-1116.43l30.13 -108.39c2.41,-7.45 7.87,-22.2 14.58,-31.7zm-2094.34 1562.64c51.69,240.02 44.43,616.07 4.12,858.2 -466.84,167.8 -711.52,153.67 -795.05,401.47 -118.42,351.24 271.8,2316.82 185.4,3112.82 -199.07,78.74 -471.21,188.13 -695.12,149.26 -77.91,-522.24 -40.49,-1165.78 -55.22,-1706.22l-65.22 -1301.47c16.36,-156.29 93.36,-239.1 -26.66,-345.35 -164.15,-230.47 -723.22,80.81 -1071.05,40.75l-160.22 -908.2c21.04,-204.87 194.84,-164.65 565.47,-205.17 764.11,-83.56 614.39,75.97 479.75,-610.92 -39.04,-199.21 -106.49,-451.63 -54.64,-664.71l782.05 -21.69c128.97,214.77 36.16,696.87 72.05,966.96 63.49,477.69 381,169.51 834.34,234.27zm41.19 -2047.38c22.29,41.88 19.49,-21.81 35.13,114.3l-26 1002.01c-313,-73.92 -6.79,-138.21 -397.27,20.28 -239.8,-303.79 -230.13,-458.01 -279.58,-560.65 -55.43,-14.56 -1368.05,20.91 -1372.57,22.2l-29.71 907.91c-265.47,-95 -230.62,-337.5 -461.66,-412.48 -111.8,92.21 -60.15,60.69 -132.96,230.1 -5.2,12.06 -11.26,25.75 -16.19,36.84 -5.08,11.41 -13.78,27.9 -18.1,37.28 -4.39,9.53 -11.24,25.95 -19.13,37.58 -142.47,-60.26 -61.72,38.86 -158.73,-147.63 -40.47,-77.75 -29.68,-133.86 -74.26,-223.72l-202.24 -6.54c-45.09,301.92 250.36,483 315.76,776.22l-259.24 130.72c-3.83,187.09 146.04,524.94 185.27,761.63 38.69,233.48 31.07,640.09 100.24,818.8 270.93,169.52 633.79,-113.48 1023.84,-76.27 135.15,353.64 166.53,1153.09 180.84,1627.3l-0.16 1586.19c16.42,191.12 -30.81,71.95 62.67,176.91 149.9,135.24 599.68,-89.54 1254.6,-100.18 10.99,703.73 -133.48,463.95 397.4,730 -3.86,269.07 -672.13,1067.24 -886.9,1226.85 -435.25,323.44 -924.07,-463.28 -1167.74,-801.85 -322.91,-448.73 -371.34,-496.02 -584.58,-1000.86 -64.55,-152.84 -133.93,-231.21 -179.36,-367.17 -207.31,-620.42 -228.79,-1217.03 -338.8,-1856.46 -112.39,-653.24 -154.62,-1255.76 -247.35,-1916.56 -90.48,-644.91 -42.54,-1371.93 -135.31,-2053.05 -76.34,-560.46 -505.75,-501.7 1365.62,-631.06l2066.47 -88.64zm-3843.69 4607.07l-155.36 259.82c-7.86,112.7 47.38,48.89 -65.24,86.59 -73.61,-136.49 -99.65,-217.97 -284.68,-235.42 -175.43,340.08 447.44,411.59 139.79,968.99 -194.92,-61.09 -33.32,-75.08 -305.6,-99.37 15.98,454.54 205.91,180.38 201.26,532.94l-296.89 31.87c-10.13,2.91 -27.05,7.63 -38.55,15.3 165.38,446.66 132.02,-128.62 62,656.5 -27.77,311.4 -127.49,315.75 -480.63,245.76 -5.98,-173.25 65.15,-285.6 111.61,-436.22l354.47 -2108.41c160.71,-843.41 172.02,-255.59 212.86,-1666.69l93.96 -1351.66 111.3 -1110.47c30.09,-257.43 -4.37,-332.23 73.38,-566.6l4.65 -466.25c204.94,-172.15 428.24,-139.29 677.49,-190.93 323.58,-67.04 467.27,-148.99 516.31,268.98 43.25,41.77 59.12,-56.73 105.07,162.11 33.65,160.32 14.13,93.41 -24.12,237.16l-956.49 36.13c-79.58,229.47 -22.74,402.97 14.48,690.93 131,1013.03 59.61,1127.07 130.91,1982.91 39.85,478.61 84.9,869.91 107.24,1240.48 27.81,461.08 188.13,863.43 173.6,1323.1 -209.15,-68.71 -12.33,-9 -139.01,-66.09 -44.95,-20.24 -6.94,-21.4 -88.04,-35.11 -62.81,146.87 -34.5,200.01 -155.27,313.1 -61.76,-66.63 -23.33,16.98 -52.88,-102.19 -20.8,-83.9 -13.91,-30.71 -6.43,-118.78 1.06,-12.6 41.35,-162.52 50.27,-196.66 31.41,-120.49 81.71,-276.58 -91.46,-301.82zm5768.48 -4880.93c-9.71,10.05 -23.91,20.65 -31.79,27.31 -7.71,6.54 -21.93,18.77 -31.27,26.69 -197.15,167.68 -174,131.12 -188.29,324.71 -34.07,461.64 220.16,2996.73 347.67,3445.92l76.69 447.1 104.95 777.88c70.35,139.18 170.55,806.73 213.94,1051.93 57.46,324.76 323.16,724.66 307.31,1029.66 -490.36,181.8 -2159.13,523.87 -2626.34,229.74 -76.25,-386.34 28.19,-336.25 60.29,-601.99 30.36,-251.22 -73.19,-42.02 -16.95,-644.9 23.84,-255.58 85.17,-347.53 121.97,-567.2 42.55,-253.98 -69.68,-485.79 1.25,-627.25 177.53,58.78 192.61,135.24 255.97,292.08 91.63,226.86 102.94,171.99 206.13,350.34 294.09,508.28 -289.31,402.99 -109.88,801.86 285.59,39.59 124.72,-125.71 393.36,-214.81 132.11,160.33 239.28,618.24 442.81,413.07 58.88,-53.33 200.09,-73.19 -87.07,-427.23 -125.37,-154.57 -238.22,-214.61 -183.76,-401.02 46.23,-158.25 389.84,-778.33 460.92,-870.39l40.59 -326.42c-395.66,-35.11 -368.63,740.28 -673.49,990.94 -204.11,-141.65 -157.42,-380.91 -110.89,-442.3 153.6,-202.64 296.01,117.27 243.7,-345.12 -28.5,-251.9 212.08,-554.02 292.5,-815.76 17.57,-225.52 43.79,-173.28 -46.83,-332.65 -307.1,35.53 -91.03,133.74 -217.02,445.08 -184.41,455.7 -139.4,350.23 -301.26,343.49 -242.11,-352.87 223.77,-502.08 224.04,-502.29 35.43,-281.77 -90.7,-169.47 -13.25,-433.4 53.95,-183.83 96.8,-112.44 114.8,-377.99l-165.24 -15.36c-30.98,125.09 -35.15,200.27 -175.61,284.72l-86.91 -177.7c-59.23,-2.51 -132.68,-15.88 -219.37,20.7 -59.16,340.28 168.59,245.19 186.48,515.92 10.16,153.85 -146.15,332.62 -209.19,462.73 65.39,194.16 305.93,510.6 204.47,698.44 -130.72,-33.57 -147.31,-103.42 -200.45,-213.66 -193.7,38.63 -150.11,56.9 -318.35,88.72 -1.16,-514.56 100.5,-966.6 167.87,-1446.62 24.61,-175.37 -77.19,-1123.44 -82.81,-1457.03 -7.85,-465.89 21.32,-2811.51 161.27,-3010.16 43.11,-54.31 38.26,-69.1 184.83,-102.59 255.72,-58.42 1350.42,-161.12 1346,314.81 128.18,100.07 70.6,30.72 150.78,179.2 83.88,155.34 52.73,64.92 62.16,192.81l206.59 279.41c78.76,181.44 64.82,169.78 21.62,302.66l-504.94 15.92zm-7505.84 -480.45c-248.53,-185.86 -557.45,-439.06 -829.73,-616.69 -336.83,-219.75 -518.63,-416.23 -963.55,-527.76 -568.78,-142.59 15.66,-878.58 43.09,-903.81 165.09,62.07 1115.43,1069.18 1340.05,1291.74 286.76,284.13 1197.81,1127.65 1283.35,1395.42l-873.21 -638.9zm2769.81 -489.96c-530.89,-89.64 -347.67,137.13 -387.05,-1069.7 -29.54,-905.31 191.27,-2162.04 465.1,-3041.26 86.27,-277.05 -3.12,-281.21 201.53,-481.92 124.65,144.19 30.92,234.58 209.33,425.33 622.02,665.21 1266.36,313.01 1468.2,397.21 79.48,65.88 185.56,179.06 287.45,266.66 131.98,113.48 120.47,180.27 205.09,361.95 79.09,169.77 124.07,170.46 229.93,326.44 306.68,451.79 728.1,1514.43 784.44,2056.06l-364.95 46.88c-94.94,235.67 -115.31,409.76 -181.66,690.65 -57.93,245.26 22.99,616.08 -81.77,803.14 -161.08,227.87 -1341.3,128.22 -1856.27,169.73 -216.69,17.48 -347.8,90.54 -553.83,71.6 -44.03,-145.65 -326.69,-877.85 -425.54,-1022.77zm-6789.65 -1202.55c240.86,10.89 537.56,70.63 736.77,-49.26 267.31,-160.87 106.4,-375.13 321.33,-454.54 246.34,553.1 -877.14,1111.48 -1058.1,503.8zm173.07 -603.43c230.33,11.43 321.96,-47.7 544.85,-38.06 68.63,357.78 -194.7,435.44 -533.33,388.61 -351.19,-48.55 -570.84,-4.14 -567.19,-406.77 213.89,-26.71 323.1,44.68 555.67,56.22zm698.96 -522c-223.53,422.84 -1284.64,383.13 -1265.73,-138.18 21.28,-586.72 841.3,-107.5 982.02,-48.47 311.85,130.78 239.63,94.31 283.71,186.65zm931.63 1126.67c-249.12,-20.79 -79.3,-27.54 -261.05,-128.43 -304.31,-168.89 110.33,38.22 -195.27,-66.17l-242.64 -1238.85c-171.99,-105.78 -941.6,-222.17 -1203.64,-591.2 -483.51,-680.92 885.94,-262.03 1112.82,-169.16 1173,480.21 409.33,546.7 610.95,966.22 104.92,218.31 229.08,231.47 313.97,570.31 71.76,286.48 -20.92,373.09 -135.14,657.28zm-2452.88 -2620.23c-255.54,-55.97 -176.45,41.14 -272,-137.55 88.84,-127.61 -6.9,-84.32 159.33,-122.9l1354.02 9.09c1074.16,66.14 1288.28,-164.14 1206.69,384.28l-742.54 -16.74c-392.08,-18.4 -334.87,-115.12 -649.03,-152.6 -952.98,-113.65 -476.36,163.49 -1056.47,36.42zm4669.69 -4522.79c-68.23,147.18 -291.32,438.06 -213.09,647.76 205.94,-7.49 263.34,-190.47 388.22,-349.97 130.82,-167.06 156.37,-245.92 403.71,-338.53 74.71,-159.88 1099.31,-598.62 1263.85,-623.32 326.35,-49.02 681.27,262.44 776.39,490.39 292.89,701.82 336.94,588.07 396.75,1501.35 -141.08,46.58 -429.48,45.33 -274.33,289.91 201.25,80.64 343.15,-13.48 510.02,-98.74 200.39,-102.36 198.54,-182.01 469.21,-173.57 182.8,218.77 240.09,531.81 120.2,721.42 -224.06,-104.25 -54.34,16.6 -67.38,-174.99 -7.73,-113.37 133.8,-50.09 -44.2,-148.29 -135.24,-74.62 -219.44,123.33 -284.38,195.56 -392.24,436.22 -460.37,143.3 -558.35,442.33 140.05,212.47 40.63,13.96 247.33,139.81 -23.63,114.36 -20.72,158.11 -36.47,276.47l-95.32 261.7 -81.91 -76.48c-136.43,-106.73 -5.9,-78.08 -191.61,-80.71 -149.43,289.03 17.74,248.09 82.22,457.87 -146.06,402.48 -269.25,589.74 -385.07,1064.74 -186.03,762.95 -437.43,1685.46 -422.42,2477.09 5.3,279.94 97.57,1248.94 -26.36,1407.4 -103.1,-94.24 -424.02,-1276.02 -552.09,-1560.82 -240.55,-534.93 -741.99,-1095.93 -747.61,-1383.6 271.52,-117.11 507.22,-97.41 807.37,-173.81 110.35,-28.08 235.72,-88.14 358.66,-140.93 197.26,-84.69 225.98,-51.18 221.69,-245.37 -178.42,-90.07 -557.04,143.93 -879.37,154.14 -314.72,9.99 -215.33,-95.65 -470.26,74.99 -141.21,94.52 -242.85,163.02 -416.87,50.49 25.8,-123.73 -66.1,-55.79 296.91,-306 153.39,-105.72 231.96,-108.67 209.45,-338.9 -317.56,-44.63 -546.55,408.37 -1063.97,473.53 -1062.51,133.78 -1341.72,-1503.97 -619.99,-1747.99 410.07,-138.65 895.46,225.78 1238.63,-193.61 141.18,-209.55 471.69,-546.93 395.56,-857.4 -394.39,23.75 -259.42,763.11 -921.61,775.41l-449.61 -1546.47c-85.78,-564.21 235.46,-1201.69 525.97,-1426.14 44.61,-62.36 17.92,-32.51 72.53,-93.47 3.49,-3.89 59.96,-60.7 69.69,-68.55 112.98,-91.29 27.36,-62.34 191.6,-68.66 -29.44,153.05 -103.16,239.36 -243.69,313.96zm4679.46 -228.07c2.1,-115.09 206.19,-344.82 316.82,-429.82 160.7,-123.49 308.16,-197.44 457.66,-284.6 205.96,-120.1 844.2,-444.11 1090.25,-437.6 193.22,5.1 382.86,163.21 506.86,272.69 160.54,141.75 163.57,251.12 278.5,469.01 174.16,330.17 265.21,791.81 284.24,1265.62l-327.02 80.27 30.38 198.53c488.06,149.39 689.53,-477.29 1147.35,-75.46 1.62,2.84 333.34,1749.39 -618.06,1657.44 -427.05,-41.28 -201.47,-189.94 -476.61,-314.82l-128.32 147.06c30.9,390.32 318.24,65.38 89.22,516.31 -86.38,170.07 -154.53,368.65 -218.22,583.49 -125.53,423.53 -211.3,822.96 -319.2,1251.67 -359.36,1428.1 -18.73,2703.93 -203.09,2964.81 -85.85,-55.36 -482.81,-1386.31 -560.63,-1565.85 -253.85,-585.67 -753.05,-1118.24 -750.5,-1415.49 303.02,-136.79 1366.84,-155.09 1384.74,-549.57 -167.51,-128.54 -219.73,-15.36 -433.39,49.56 -843.82,256.42 -542.21,-82.35 -915.3,167.55 -152.28,102 -244.11,140.67 -430.12,91.99 36.1,-191.28 -68.61,-96.07 281.52,-332.07 207.88,-140.14 247.86,-81.42 225.56,-365.39 -381.97,17.91 -651.98,574.29 -1318.22,496.08 -383.66,-45.03 -747.06,-554.79 -743.08,-991.66 6.63,-729.79 268.31,-818.69 936.97,-744.98 757.91,83.55 677.2,-319.39 1014.79,-654.86 63.25,-192.18 150.41,-262.82 49.51,-417.3 -217.8,21.53 -117.2,30.5 -380.14,458.88 -137.97,224.78 -175.5,308.55 -505.23,306.72l-80.07 -229.97c-24.28,-92.38 -31.33,-126.12 -63.48,-211.27 -57.09,-151.24 -101.52,-248.79 -145.53,-409.51 -175.78,-641.82 -295.85,-1203.83 79.65,-1802.32 81.33,-129.61 394.23,-483.75 580.37,-530.59 -48.27,278.9 -560.56,584.28 -425.73,974.03 203.34,-45.59 110.35,-59.14 287.55,-188.58zm-7875.05 -4983.96c-25.07,184.94 196.7,445.17 301.53,624.87 219.66,376.58 234.02,227.62 169.87,733.92 -80.69,636.8 -117.93,1086.6 -162.83,1756.97 -23.08,344.57 -205.62,3483.09 -234.52,3504.88 -43.83,871.79 -46.21,1722.25 -146.69,2586.98l-479.19 -29.77c-64.48,-363.49 23.81,-781.31 -5.12,-1159.32 -27.89,-364.31 -37.13,-782.24 -60.13,-1170.61 1.42,-872.18 -71.78,-1740.12 -129.1,-2611.36 -28.87,-438.82 -74.5,-871.39 -112.91,-1297.07 -37.32,-413.54 -159.93,-833.89 -103.02,-1267.71l-86.15 -699.33c-26.77,-505.63 534.81,-1556.31 675.7,-1618.12 153.51,239.35 150.34,462.89 372.56,645.67zm9389.98 25184.42c-230.5,-445.05 -271.38,-315.57 -309.45,-541.7l959.04 -8.46c1.41,376.93 -297.93,563.27 -649.59,550.16z"/>
  <path fill="#4B6583" d="M14080.85 15076.06c4.42,-475.93 -1090.28,-373.23 -1346,-314.81 -146.57,33.49 -141.72,48.28 -184.83,102.59 -139.95,198.65 -169.12,2544.27 -161.27,3010.16 5.62,333.59 107.42,1281.66 82.81,1457.03 -67.37,480.02 -169.03,932.06 -167.87,1446.62 168.24,-31.82 124.65,-50.09 318.35,-88.72 53.14,110.24 69.73,180.09 200.45,213.66 101.46,-187.84 -139.08,-504.28 -204.47,-698.44 63.04,-130.11 219.35,-308.88 209.19,-462.73 -17.89,-270.73 -245.64,-175.64 -186.48,-515.92 86.69,-36.58 160.14,-23.21 219.37,-20.7l86.91 177.7c140.46,-84.45 144.63,-159.63 175.61,-284.72l165.24 15.36c-18,265.55 -60.85,194.16 -114.8,377.99 -77.45,263.93 48.68,151.63 13.25,433.4 -0.27,0.21 -466.15,149.42 -224.04,502.29 161.86,6.74 116.85,112.21 301.26,-343.49 125.99,-311.34 -90.08,-409.55 217.02,-445.08 90.62,159.37 64.4,107.13 46.83,332.65 -80.42,261.74 -321,563.86 -292.5,815.76 52.31,462.39 -90.1,142.48 -243.7,345.12 -46.53,61.39 -93.22,300.65 110.89,442.3 304.86,-250.66 277.83,-1026.05 673.49,-990.94l-40.59 326.42c-71.08,92.06 -414.69,712.14 -460.92,870.39 -54.46,186.41 58.39,246.45 183.76,401.02 287.16,354.04 145.95,373.9 87.07,427.23 -203.53,205.17 -310.7,-252.74 -442.81,-413.07 -268.64,89.1 -107.77,254.4 -393.36,214.81 -179.43,-398.87 403.97,-293.58 109.88,-801.86 -103.19,-178.35 -114.5,-123.48 -206.13,-350.34 -63.36,-156.84 -78.44,-233.3 -255.97,-292.08 -70.93,141.46 41.3,373.27 -1.25,627.25 -36.8,219.67 -98.13,311.62 -121.97,567.2 -56.24,602.88 47.31,393.68 16.95,644.9 -32.1,265.74 -136.54,215.65 -60.29,601.99 467.21,294.13 2135.98,-47.94 2626.34,-229.74 15.85,-305 -249.85,-704.9 -307.31,-1029.66 -43.39,-245.2 -143.59,-912.75 -213.94,-1051.93l-104.95 -777.88 -76.69 -447.1c-127.51,-449.19 -381.74,-2984.28 -347.67,-3445.92 14.29,-193.59 -8.86,-157.03 188.29,-324.71 9.34,-7.92 23.56,-20.15 31.27,-26.69 7.88,-6.66 22.08,-17.26 31.79,-27.31l504.94 -15.92c43.2,-132.88 57.14,-121.22 -21.62,-302.66l-206.59 -279.41c-9.43,-127.89 21.72,-37.47 -62.16,-192.81 -80.18,-148.48 -22.6,-79.13 -150.78,-179.2z"/>
  <path fill="#2C0302" stroke="#050505" stroke-width="20" stroke-miterlimit="22.9256" d="M6907.06 28732.51c255.66,162.69 1427.69,-197.18 1691.74,-355.17l644.03 -369.74c9.69,-5.09 21.99,-10.87 31.71,-16.17 9.89,-5.39 21.94,-11.6 31.75,-17.25 208.13,-119.9 507.33,-421.72 660.1,-558.07 201.9,-180.22 330.03,-48.4 588.29,-165.91 394.18,-179.32 294.45,-279.61 249.61,-424.71 -156.07,-35.82 -402.57,-21.08 -563.78,72.94 -393.77,229.6 -276.5,20.88 -584.79,157.56l-369.18 197.49c-69.03,35.74 -37.74,20.68 -131.56,58.21 -293.61,117.46 -729.56,315.3 -983.27,493.03 -11.03,7.74 -41.17,31.72 -53.14,39.22l-849.56 551.74c-211.42,197.68 -312.61,224.87 -361.95,336.83z"/>
  <path fill="#2C0302" d="M17429.13 27722.83c180.46,39.59 330.03,117.78 488.22,143.93 226.05,37.35 1166.26,30 1287.84,-83.57 260.21,-243.04 -42.88,-316.85 -276.38,-322.77 -338.68,-8.58 -873.98,-20.29 -1125.89,-209.75 -100.16,-75.32 -905.52,-261.82 -1090.8,-303.84 -211.91,-48.07 -415.39,-25.41 -633.93,3.82l-87.05 173.58c-359.44,20.57 -259.96,-59.75 -485.83,-192.96 -314.65,-185.56 -615.19,270.21 -625.83,322.72 -60.11,296.73 364.04,245.16 643.78,245.88 419.25,1.06 990.99,-29.9 1394.05,49.16 193.17,37.88 123.87,88.67 511.82,173.8z"/>
  <path fill="#2C0302" stroke="#050505" stroke-width="20" stroke-miterlimit="22.9256" d="M4449.5 27381.02c134.71,143.57 169.9,154.55 406.76,181.66 170.9,19.56 380.74,10.04 557.22,7.44 422.12,-6.24 1098.83,-187.73 1461.91,-311.68 618.03,-210.94 464.38,-300.52 913.95,-279.37 184.5,8.67 370.18,51.65 506.76,69.52 -12.6,-239.31 26.23,-115.56 -120.14,-190.42 -430.3,-220.04 -318.83,95.98 -732.28,-152.56 -283.38,-170.35 -720.63,11.72 -1097.16,32.58 -513.7,28.45 -682.27,-8.09 -1107.37,185.75 -262.54,119.72 -707.17,239.82 -789.65,457.08z"/>
  <path fill="#FDCED2" stroke="#050505" stroke-width="20" stroke-miterlimit="22.9256" d="M3596.08 12440.89l242.64 1238.85c305.6,104.39 -109.04,-102.72 195.27,66.17 181.75,100.89 11.93,107.64 261.05,128.43 114.22,-284.19 206.9,-370.8 135.14,-657.28 -84.89,-338.84 -209.05,-352 -313.97,-570.31 -201.62,-419.52 562.05,-486.01 -610.95,-966.22 -226.88,-92.87 -1596.33,-511.76 -1112.82,169.16 262.04,369.03 1031.65,485.42 1203.64,591.2z"/>
  <path fill="#2C0302" stroke="#050505" stroke-width="20" stroke-miterlimit="22.9256" d="M9980 29068.08c408.51,-91.36 341.24,-118.68 699.71,-254.26 251.29,-95.05 51.86,-48.17 217.92,-140.8 202.45,-112.96 473.34,-186.14 918.95,-478.98 109.74,-72.11 277.36,-184.48 398.58,-257.11 1265.45,-758.19 1059.52,-207.16 1517.41,-485.88 -148.52,-418.72 -701.36,-260.19 -781.05,-250.84 -146.18,17.17 -248.19,-31.62 -336.25,-0.91 -93.46,32.61 -53.45,75.86 -216.74,141.35 -480.49,192.73 -239.87,-26.43 -1124.34,493.94l-251.65 172.25c-195.07,128.02 -151.16,14.01 -356.56,198.35l-506.28 437.8c-151.01,110.74 -315.68,241.15 -179.7,425.09z"/>
  <path fill="#4B6583" d="M7703.62 19178.65c-40.84,1411.1 -52.15,823.28 -212.86,1666.69l-354.47 2108.41c-46.46,150.62 -117.59,262.97 -111.61,436.22 353.14,69.99 452.86,65.64 480.63,-245.76 70.02,-785.12 103.38,-209.84 -62,-656.5 11.5,-7.67 28.42,-12.39 38.55,-15.3l296.89 -31.87c4.65,-352.56 -185.28,-78.4 -201.26,-532.94 272.28,24.29 110.68,38.28 305.6,99.37 307.65,-557.4 -315.22,-628.91 -139.79,-968.99 185.03,17.45 211.07,98.93 284.68,235.42 112.62,-37.7 57.38,26.11 65.24,-86.59l155.36 -259.82c173.17,25.24 122.87,181.33 91.46,301.82 -8.92,34.14 -49.21,184.06 -50.27,196.66 -7.48,88.07 -14.37,34.88 6.43,118.78 29.55,119.17 -8.88,35.56 52.88,102.19 120.77,-113.09 92.46,-166.23 155.27,-313.1 81.1,13.71 43.09,14.87 88.04,35.11 126.68,57.09 -70.14,-2.62 139.01,66.09 14.53,-459.67 -145.79,-862.02 -173.6,-1323.1 -22.34,-370.57 -67.39,-761.87 -107.24,-1240.48 -71.3,-855.84 0.09,-969.88 -130.91,-1982.91 -37.22,-287.96 -94.06,-461.46 -14.48,-690.93l956.49 -36.13c38.25,-143.75 57.77,-76.84 24.12,-237.16 -45.95,-218.84 -61.82,-120.34 -105.07,-162.11 -45.32,-148.43 23.69,-302.33 -152.42,-315.55 -280.96,-21.09 -878.44,34.84 -1041.38,237.5 -50.52,62.85 -4.74,207.72 -10.89,287.87l6.24 178.38c-77.75,234.37 -43.29,309.17 -73.38,566.6l-111.3 1110.47 -93.96 1351.66z"/>
  <path fill="#4B6583" stroke="#050505" stroke-width="20" stroke-miterlimit="22.9256" d="M7384.43 16204.51c-85.54,-267.77 -996.59,-1111.29 -1283.35,-1395.42 -224.62,-222.56 -1174.96,-1229.67 -1340.05,-1291.74 -27.43,25.23 -611.87,761.22 -43.09,903.81 444.92,111.53 626.72,308.01 963.55,527.76 272.28,177.63 581.2,430.83 829.73,616.69l873.21 638.9z"/>
  <path fill="#E9FBFD" stroke="#050505" stroke-width="20" stroke-miterlimit="22.9256" d="M3316.26 1519.29c-222.22,-182.78 -219.05,-406.32 -372.56,-645.67 -140.89,61.81 -702.47,1112.49 -675.7,1618.12l86.15 699.33c-56.91,433.82 65.7,854.17 103.02,1267.71 38.41,425.68 84.04,858.25 112.91,1297.07 57.32,871.24 130.52,1739.18 129.1,2611.36 23,388.37 32.24,806.3 60.13,1170.61 28.93,378.01 -59.36,795.83 5.12,1159.32l479.19 29.77c100.48,-864.73 102.86,-1715.19 146.69,-2586.98 28.9,-21.79 211.44,-3160.31 234.52,-3504.88 44.9,-670.37 82.14,-1120.17 162.83,-1756.97 64.15,-506.3 49.79,-357.34 -169.87,-733.92 -104.83,-179.7 -326.6,-439.93 -301.53,-624.87z"/>
  <path fill="#CCE2EC" d="M11715.06 22616.53c138.5,-48.13 100.74,64.4 146.9,-107.93l101.71 -1236.47c-22,-326.06 -71.26,-90.7 -160.5,-372.19 -565.72,-1784.47 421.93,-437.25 291.13,-1320.12 -254.26,-21.17 -398.13,43.86 -548.47,158.31 -67.6,524.29 64.82,2416.16 169.23,2878.4z"/>
  <path fill="#E8BC13" stroke="#050505" stroke-width="20" stroke-miterlimit="22.9256" d="M1570.16 11116.56c95.55,178.69 16.46,81.58 272,137.55 580.11,127.07 103.49,-150.07 1056.47,-36.42 314.16,37.48 256.95,134.2 649.03,152.6l742.54 16.74c81.59,-548.42 -132.53,-318.14 -1206.69,-384.28l-1354.02 -9.09c-166.23,38.58 -70.49,-4.71 -159.33,122.9z"/>
  <path fill="#772B04" stroke="#050505" stroke-width="20" stroke-miterlimit="22.9256" d="M12750.76 24324.4c-169.58,374.71 -73.45,1169.13 115.17,1484.43l375.93 -25.62c64.08,-157.9 -22.32,-784.27 -40.22,-931.1 -52.42,-429.8 71.81,-592.93 -450.88,-527.71z"/>
  <path fill="#04050B" d="M17929.53 19904.57c219.42,18.92 316.21,215.95 321.25,460.88l-226.57 93.2 -94.68 -554.08zm-196.04 220.86c58.31,223.81 8.12,520.17 121.56,683.94 195.92,9.81 487.38,-162.94 642.88,-325.59 33.64,-428.2 -336.12,-988.79 -732.24,-895.38 -314.65,74.21 -67.69,400.84 -32.2,537.03z"/>
  <path fill="#FDCCCD" stroke="#050505" stroke-width="20" stroke-miterlimit="22.9256" d="M3363.41 12747.67c-44.08,-92.34 28.14,-55.87 -283.71,-186.65 -140.72,-59.03 -960.74,-538.25 -982.02,48.47 -18.91,521.31 1042.2,561.02 1265.73,138.18z"/>
  <path fill="#772B04" stroke="#050505" stroke-width="20" stroke-miterlimit="22.9256" d="M7346.99 24323.39c-37.86,262.5 -15.47,630.69 6.82,895.91 35.36,420.71 -79.78,521.4 402.33,494.12l-42.58 -1478.24c-194.35,-10.55 -253.41,12.98 -366.57,88.21z"/>
  <path fill="#4B6583" d="M8753.07 23195.35l331.1 -74.22c5.47,-88.27 -277.1,-1434.17 -447.17,-1572.58 -185.86,807.39 256.33,662.62 74.4,881.72 -87.49,105.38 -128.51,55.76 -543.9,-7.26l52.1 -453.75c-161.65,63.45 -54.02,-71.53 -131.17,122.13 -21.28,53.41 -17.71,144.85 -6.8,200.24 30.34,154.14 174.23,265.12 174.47,264.66 4.53,-8.45 18.36,18.93 28.37,27.47 114.8,177.3 153.74,60.91 131.75,431.67 -211.9,-12.05 -172.18,25.78 -266.16,-139.66 -104.34,-183.73 -10.33,-144.44 -173.77,-225.53 -56.79,69.1 -102.54,-118.54 -57.9,211.07 -37.65,196.46 -69.91,61.38 -139.13,296.07l-53.19 80.82c-35.17,75.88 -11.42,3.98 -17.5,120.79 342.35,-8.49 831.12,-33.93 1044.5,-163.64z"/>
  <path fill="#04050B" d="M15385.36 20507.58c-306.79,-82.19 -70.03,-431.3 -428.64,-269.69 -196.13,167.78 262.8,627.71 634.48,546.95 100.62,-274.92 27.47,-398.28 14.2,-676.21 -13.67,-286.23 8.84,-452.82 -278.64,-469.75 -80.76,238.29 148.23,665.61 58.6,868.7z"/>
  <path fill="#0C0C0D" d="M9886.8 20918.04c-186.26,-117.82 -26.37,-40.26 -139.78,-244.07 -479.51,3.89 -77.07,401.96 7.93,491.73 409.06,7.59 573.11,23.91 407.51,-881.45 -58.81,-321.52 -275.6,-260.97 -276.12,-45.25 -0.14,65.51 107.21,368.74 76.61,524.63 -34.48,175.6 -11.72,78.96 -76.15,154.41z"/>
  <path fill="#2C0302" stroke="#050505" stroke-width="20" stroke-miterlimit="22.9256" d="M12706.24 26703.71c351.66,13.11 651,-173.23 649.59,-550.16l-959.04 8.46c38.07,226.13 78.95,96.65 309.45,541.7z"/>
  <path fill="#F7CAC9" stroke="#050505" stroke-width="20" stroke-miterlimit="22.9256" d="M3209.3 13231.61c-222.89,-9.64 -314.52,49.49 -544.85,38.06 -232.57,-11.54 -341.78,-82.93 -555.67,-56.22 -3.65,402.63 216,358.22 567.19,406.77 338.63,46.83 601.96,-30.83 533.33,-388.61z"/>
  <path fill="#6C300E" stroke="#050505" stroke-width="20" stroke-miterlimit="22.9256" d="M9927.7 25905.24c590.16,267.06 371.87,-607.98 271.97,-870.04l-291.16 -11.65c21.72,256.09 85.99,673 19.19,881.69z"/>
  <path fill="#0B0502" d="M14696.94 8419.43c30.21,-260.73 -44.6,-166.1 78.8,-335.86 124.65,-171.48 113.08,-72.34 121.55,-344.86 -338.94,19.87 -106.38,50.19 -539.86,392.47 -176.84,139.63 -50.53,47.08 -223.51,114.91 -243.82,95.59 -192.24,265.05 30.18,256.8 112.81,-4.19 109.83,-41.49 214.89,-66.96 117.62,-28.51 189.7,-12.78 317.95,-16.5z"/>
  <path fill="#0C0A03" d="M7510.31 8328.35c74.65,26.44 54.16,-69.12 90.28,55.18 63.87,219.86 -12.14,92.81 -43.69,136.72 -99.48,-71.3 -132.42,-42.2 -46.59,-191.9zm157.88 393.82l26.04 -42.09c128.19,-192.8 87.94,-114.99 116.04,-416.83 -122.94,-107.04 -196.34,-247.31 -346.56,-312.19 -248.93,129.84 -349.14,796.47 204.48,771.11z"/>
  <path fill="#0B0502" d="M12123.51 7607.61c113.83,69.33 150.51,27.96 46.6,187.13 -75.88,-28.97 -60.63,46.17 -88.39,-83.5 -38.47,-179.6 13.23,-55.78 41.79,-103.63zm166.63 388.29l26.1 -21.54c191.32,-459.65 -78.3,-702.7 -332.55,-721.6 -98.86,171.49 -311.8,801.13 306.45,743.14z"/>
  <path fill="#240402" d="M16287.68 26134.01l-801.38 -2.15c4.98,184.24 -4.2,165.71 131.49,271.96 463.43,362.96 416.74,123.31 457.41,95.81 218.54,-147.73 238.3,-183.12 212.48,-365.62z"/>
  <path fill="#0C0A03" d="M11471.13 7692.67c118.1,114.29 121.25,118.52 0,226.21 -56.71,-63.2 -49.09,7.06 -60.12,-112.02 -20.86,-225.22 0.78,-37.11 60.12,-114.19zm-196.92 -211.14c-76.36,187.94 -37.67,483.84 24.17,634.16 696.95,157.48 455.63,-913.17 -24.17,-634.16z"/>
  <path fill="#0C0A03" d="M6857.94 8416.76c173.13,101.18 107.66,132.19 0,218.7 -10.68,-17.25 -169.9,-19.86 0,-218.7zm-146.1 422.54c624.37,42.94 566.93,-749.45 -46.46,-671.23 -49.4,245.69 -45.05,481.6 46.46,671.23z"/>
  <path fill="#EDCBBA" stroke="#050505" stroke-width="20" stroke-miterlimit="22.9256" d="M2491.38 13873.1c180.96,607.68 1304.44,49.3 1058.1,-503.8 -214.93,79.41 -54.02,293.67 -321.33,454.54 -199.21,119.89 -495.91,60.15 -736.77,49.26z"/>
  <path fill="#6C300E" d="M15897.78 25794.77l270.02 -15.89c54.18,-191.71 18.89,-338.75 -0.02,-538.62 -61.79,-34.13 -322.63,-158.92 -383.89,-165.17 -60.68,258.04 23.01,530.32 113.89,719.68z"/>
  <path fill="#B1BBC7" d="M11567.01 18097.54c238.87,-4.3 430.54,3.23 548.29,-130.34l-116.78 -181.57c-25.03,20.56 -39.04,21.98 -43.43,40.45l-157.77 157.28c-320.62,-148.38 -133.07,-327.94 -373.21,-436.29 -16.44,300.85 2.25,401.67 142.9,550.47z"/>
  <path fill="#C9DAE8" d="M18024.21 20458.65l226.57 -93.2c-5.04,-244.93 -101.83,-441.96 -321.25,-460.88l94.68 554.08z"/>
  <path fill="#D4E9F6" d="M9462.32 18229.63l505.65 -38.76c-58.81,-146.02 -46.28,-81.06 -134.76,-164.28 -160.65,-151.06 -18.84,-111.8 -242.64,-163.14l-128.25 366.18z"/>
  <path fill="#DBEAF4" stroke="#050505" stroke-width="20" stroke-miterlimit="22.9256" d="M14956.72 20237.89c358.61,-161.61 121.85,187.5 428.64,269.69 89.63,-203.09 -139.36,-630.41 -58.6,-868.7 287.48,16.93 264.97,183.52 278.64,469.75 13.27,277.93 86.42,401.29 -14.2,676.21 -371.68,80.76 -830.61,-379.17 -634.48,-546.95zm1136.13 -2392.63c-1.32,-120.12 -10.13,-181.73 -21.99,-301.43 -31.18,-314.61 -29.67,-177 -79.72,-232.76 -125.5,97.73 -34.29,348.18 -56.06,584.57l-63.2 141.77 -430.88 -150.62c-4.33,9.37 -11.56,24.17 -15.8,33.92l-39.84 118.78c-397.88,36.74 -277.79,-329.8 -571.49,-596.74 10.84,-194.86 -78.97,-149.23 12.32,-309.01 239.24,65.4 87.52,150.04 326.18,412.27 174.48,-113.76 -24.61,-67.93 186.39,-189.8 315.65,90.01 106.49,189.72 388.28,301.63l-6.2 -560.6c289.68,-202.18 98.59,41.49 289.15,-272.99l1409.48 -46.65 175.41 234.43c203.51,129.67 53.83,-85.01 213.59,210.44 180.27,-13.55 77.52,-40.24 262.89,-31.26 98.36,156.47 100.6,213.72 249.69,272.46 39.65,-90.72 -80.1,-896.06 222.87,-570.47 106.12,114.02 -0.78,714.37 -5.92,853.15l-170.35 101.54c-114.17,-59.62 -54,-22.57 -169.9,-113.46l-49.67 -22.84c-61.01,-108.62 92.2,-85.94 -106.62,-85.73 -42.25,61.89 -72.87,118.61 -139.81,175.02l-152.62 -33.45c-66.39,-207.76 -18.84,-305.02 -173.56,-459.67 -95.27,139.75 -67.61,452.28 -7.55,534.4 55.47,120.27 -6.13,107.23 193.26,116.2 212.18,9.55 576.55,-35.5 851.72,-3.63 32.45,207.84 -24.51,586.06 6.92,944.84 2.91,33.2 18.36,160.88 24.86,188.68l42.09 119.29c3.75,9.13 12.9,22.71 19.56,33.94 0.58,228.65 152.75,243.54 8.05,376.91 -166.95,207.67 -252.72,-72.52 -570.51,-164.01 -86.5,-24.91 -714.48,-211.44 -722.55,-62.81l209.57 1872.32c68.68,413.08 376.14,1648.6 234.08,1932.29 -131.82,59.22 -1316.29,107.1 -1571.67,77.72 -158.96,-178.25 -69.23,-255.61 -54.23,-507.24 16.7,-280.33 -145.78,-1114.58 -200.13,-1392.36 -116.13,-593.41 10.09,-1467.25 -109.73,-1992.74 -266.73,-30.28 -736.38,199.2 -987.69,8.21 -76.75,-162.26 -3.21,-364.68 -69.63,-630.65 -47.4,-189.88 -115.03,-321.19 -68.57,-535.22 320.09,-135.96 293.79,-53.06 627,-26.49 243.4,19.41 437.1,-19.14 678.02,-34.2l-15.49 -317.95zm2405.08 2638.52c-155.5,162.65 -446.96,335.4 -642.88,325.59 -113.44,-163.77 -63.25,-460.13 -121.56,-683.94 -35.49,-136.19 -282.45,-462.82 32.2,-537.03 396.12,-93.41 765.88,467.18 732.24,895.38zm-1505.99 4343.2c48.15,127.7 325.98,32.67 404.13,-0.98 161.12,-69.37 143.42,-100.08 290.66,-222.91 530.75,-442.84 545.8,-314.9 962.81,-1176.6 720.58,-1489.01 801.2,-2729.92 598.56,-4569.01l-218.6 -1928.62c-190.95,-954.1 -309.68,-824.87 -1360.99,-785.14 -671.34,25.37 -1303.91,102.79 -1985.34,163.45 -194.16,17.27 -291.91,21.48 -461.43,62.53 -355.75,86.12 -169.33,-27.08 -489.83,-24.21 -27.86,0.25 -446.51,52.08 -458.36,55.06 -191.02,47.86 -170.93,176.25 -137.94,351.62l-11.08 4.52 20.89 47.97c-6.71,9.5 -12.17,24.25 -14.58,31.7l-30.13 108.39c-27.73,202.72 71.09,842.44 87.51,1116.43 75.94,1266.66 311.72,2273.33 542.16,3537.99 116.42,638.88 376.45,1614.14 722.74,2034.34 319.51,387.69 969.36,1098.77 1538.82,1193.47z"/>
  <path fill="#B8C5C9" d="M11902.24 20433.07c35.09,180.11 29.75,108.76 139.46,154.14 30.45,-195.23 97.35,-376.98 -122.53,-401.19 -26.18,100.09 -39.17,132.9 -16.93,247.05z"/>
  <path fill="#D8D8D6" d="M6857.94 8635.46c107.66,-86.51 173.13,-117.52 0,-218.7 -169.9,198.84 -10.68,201.45 0,218.7z"/>
  <path fill="#D8D8D6" d="M11471.13 7918.88c121.25,-107.69 118.1,-111.92 0,-226.21 -59.34,77.08 -80.98,-111.03 -60.12,114.19 11.03,119.08 3.41,48.82 60.12,112.02z"/>
  <path fill="#C7C7C7" d="M7600.59 8383.53c-36.12,-124.3 -15.63,-28.74 -90.28,-55.18 -85.83,149.7 -52.89,120.6 46.59,191.9 31.55,-43.91 107.56,83.14 43.69,-136.72z"/>
  <path fill="#B8C5C9" d="M12170.11 7794.74c103.91,-159.17 67.23,-117.8 -46.6,-187.13 -28.56,47.85 -80.26,-75.97 -41.79,103.63 27.76,129.67 12.51,54.53 88.39,83.5z"/>
 </g>
</svg>
