<svg width="98" height="93" viewBox="0 0 98 93" fill="none" xmlns="http://www.w3.org/2000/svg">
<path fill-rule="evenodd" clip-rule="evenodd" d="M48.5741 0.017546C55.795 -0.342242 61.8949 4.91665 68.4549 7.93832C75.0991 10.9988 82.7854 12.5572 87.6365 18.0105C92.5338 23.5159 93.8317 31.1715 95.493 38.3329C97.156 45.5048 98.979 52.8668 97.387 60.0549C95.792 67.2603 91.3667 73.4776 86.4834 79.0332C81.7157 84.4574 76.2394 89.6114 69.3766 91.9223C62.7255 94.162 55.5787 92.2948 48.5741 91.7986C41.9697 91.3307 35.2801 91.5655 29.1522 89.0725C22.8605 86.5128 16.9598 82.6829 12.8801 77.277C8.8385 71.9216 8.2109 64.9797 6.1577 58.6034C3.94062 51.7178 -1.15348 45.1073 0.236638 38.0109C1.62479 30.9246 8.2603 26.1732 13.4915 21.1655C18.2904 16.5716 23.9338 13.3068 29.6305 9.8728C35.802 6.15257 41.3658 0.376706 48.5741 0.017546Z" fill="url(#paint0_linear_15_5)"/>
<defs>
<linearGradient id="paint0_linear_15_5" x1="49" y1="0" x2="49" y2="93" gradientUnits="userSpaceOnUse">
<stop stop-color="#8B5033"/>
<stop offset="1" stop-color="#3D2221"/>
</linearGradient>
</defs>
</svg>
